<svg width="114" height="98" viewBox="0 0 114 98" fill="none" xmlns="http://www.w3.org/2000/svg">
<path d="M43.3333 0C37.587 0 32.076 2.28273 28.0127 6.34602C23.9494 10.4093 21.6667 15.9203 21.6667 21.6667C21.6667 27.413 23.9494 32.924 28.0127 36.9873C32.076 41.0506 37.587 43.3333 43.3333 43.3333C49.0797 43.3333 54.5907 41.0506 58.654 36.9873C62.7173 32.924 65 27.413 65 21.6667C65 15.9203 62.7173 10.4093 58.654 6.34602C54.5907 2.28273 49.0797 0 43.3333 0ZM43.3333 10.8333C46.2065 10.8333 48.962 11.9747 50.9937 14.0063C53.0253 16.038 54.1667 18.7935 54.1667 21.6667C54.1667 24.5398 53.0253 27.2953 50.9937 29.327C48.962 31.3586 46.2065 32.5 43.3333 32.5C40.4602 32.5 37.7047 31.3586 35.673 29.327C33.6414 27.2953 32.5 24.5398 32.5 21.6667C32.5 18.7935 33.6414 16.038 35.673 14.0063C37.7047 11.9747 40.4602 10.8333 43.3333 10.8333ZM81.25 43.3333C80.3833 43.3333 79.95 43.7667 79.95 44.6333L78.5417 51.4583C77.35 52.4333 75.6167 53.3 74.3167 54.1667L67.3833 51.4583C66.95 51.4583 66.0833 51.4583 65.65 52L60.45 61.5333C60.0167 61.9667 60.0167 62.8333 60.8833 63.2667L66.5167 67.7083V73.125L60.8833 77.5667C60.45 78 60.0167 78.8667 60.45 79.3L65.65 88.8333C66.0833 89.375 66.95 89.375 67.3833 89.375L74.3167 86.6667C75.6167 87.5333 77.35 88.4 78.5417 89.375L79.95 96.2C79.95 97.0667 80.3833 97.5 81.25 97.5H92.0834C92.5167 97.5 93.3833 97.0667 93.3833 96.2L94.25 89.375C95.9833 88.4 97.7167 87.5333 99.0167 86.6667L105.625 89.375C106.383 89.375 107.25 89.375 107.25 88.8333L112.883 79.3C113.317 78.8667 112.883 78 112.45 77.5667L106.817 73.125V67.7083L112.45 63.2667C112.883 62.8333 113.317 61.9667 112.883 61.5333L107.25 52C107.25 51.4583 106.383 51.4583 105.625 51.4583L99.0167 54.1667C97.7167 53.3 95.9833 52.4333 94.25 51.4583L93.3833 44.6333C93.3833 43.7667 92.5167 43.3333 92.0834 43.3333H81.25ZM43.3333 48.75C28.8708 48.75 0 55.9542 0 70.4167V86.6667H52.3792C50.8625 83.4708 49.7792 80.0042 49.2375 76.375H10.2917V70.4167C10.2917 66.95 27.2458 59.0417 43.3333 59.0417C45.6625 59.0417 48.0458 59.2583 50.375 59.5833C51.4583 56.1167 52.9208 52.8667 54.8167 49.8875C50.5917 49.1833 46.5833 48.75 43.3333 48.75ZM86.8834 62.2917C91.2167 62.2917 94.7917 65.8667 94.7917 70.6333C94.7917 74.9667 91.2167 78.5417 86.8834 78.5417C82.1167 78.5417 78.5417 74.9667 78.5417 70.6333C78.5417 65.8667 82.1167 62.2917 86.8834 62.2917Z" fill="#F2F2F2"/>
</svg>
