<svg width="56" height="56" viewBox="0 0 56 56" fill="none" xmlns="http://www.w3.org/2000/svg">
<path d="M27.7778 0C28.8204 0 29.8481 0.0564818 30.8611 0.169445C31.2237 0.209571 31.5748 0.320722 31.8945 0.496552C32.2141 0.672383 32.496 0.909449 32.724 1.19422C32.952 1.47898 33.1217 1.80587 33.2234 2.15622C33.3251 2.50657 33.3568 2.87352 33.3167 3.23611C33.2765 3.5987 33.1654 3.94985 32.9896 4.26948C32.8137 4.58912 32.5767 4.871 32.2919 5.09902C32.0071 5.32703 31.6802 5.49673 31.3299 5.59842C30.9795 5.70011 30.6126 5.73179 30.25 5.69167C25.6723 5.17957 21.0487 6.10261 17.0185 8.33312C12.9884 10.5636 9.75098 13.9914 7.75407 18.1422C5.75716 22.2931 5.09945 26.9619 5.87192 31.5028C6.64439 36.0438 8.80886 40.2325 12.0659 43.4896C15.323 46.7467 19.5117 48.9112 24.0527 49.6836C28.5937 50.4561 33.2625 49.7984 37.4133 47.8015C41.5642 45.8046 44.9919 42.5671 47.2224 38.537C49.4529 34.5069 50.376 29.8832 49.8639 25.3056C49.8238 24.943 49.8554 24.576 49.9571 24.2257C50.0588 23.8753 50.2285 23.5484 50.4565 23.2637C50.917 22.6885 51.5871 22.3199 52.3194 22.2389C53.0517 22.1578 53.7862 22.371 54.3613 22.8315C54.6461 23.0596 54.8832 23.3414 55.059 23.6611C55.2348 23.9807 55.346 24.3318 55.3861 24.6944C55.4972 25.7074 55.5537 26.7352 55.5555 27.7778C55.5555 43.1194 43.1194 55.5555 27.7778 55.5555C12.4361 55.5555 0 43.1194 0 27.7778C0 12.4361 12.4361 0 27.7778 0ZM27.6889 16.325C27.872 17.0381 27.7644 17.7947 27.3899 18.4286C27.0154 19.0625 26.4046 19.5218 25.6917 19.7056C23.733 20.2186 22.0279 21.4269 20.8945 23.1047C19.7612 24.7826 19.2771 26.8156 19.5325 28.8242C19.7879 30.8328 20.7654 32.6798 22.2826 34.0207C23.7998 35.3615 25.753 36.1045 27.7778 36.1111C29.6258 36.1119 31.4217 35.4983 32.883 34.3669C34.3443 33.2355 35.388 31.6505 35.85 29.8611C36.0469 29.1621 36.5097 28.568 37.1393 28.206C37.7689 27.8441 38.5152 27.7431 39.2183 27.9247C39.9215 28.1063 40.5256 28.556 40.9011 29.1776C41.2767 29.7991 41.394 30.5431 41.2278 31.25C40.3756 34.5165 38.3634 37.361 35.5671 39.2521C32.7708 41.1433 29.3816 41.9517 26.0327 41.5264C22.6838 41.1011 19.6043 39.4711 17.3695 36.9409C15.1347 34.4108 13.8974 31.1536 13.8889 27.7778C13.8884 24.6983 14.9114 21.706 16.797 19.2713C18.6826 16.8366 21.3239 15.0976 24.3056 14.3278C24.6588 14.2367 25.0266 14.2161 25.3879 14.2672C25.7491 14.3183 26.0967 14.4401 26.4109 14.6256C26.7251 14.811 26.9997 15.0566 27.219 15.3482C27.4382 15.6397 27.5979 15.9717 27.6889 16.325ZM45.8444 0.352778C46.3515 0.562997 46.7848 0.918714 47.0899 1.37503C47.3949 1.83134 47.5579 2.36779 47.5583 2.91667V8H52.6389C53.1882 8.00012 53.7251 8.16309 54.1818 8.46833C54.6385 8.77356 54.9945 9.20735 55.2047 9.71485C55.4148 10.2223 55.4699 10.7808 55.3627 11.3195C55.2556 11.8583 54.9911 12.3532 54.6028 12.7417L44.7778 22.5556C44.257 23.0765 43.5505 23.3693 42.8139 23.3694H36.1111L31.0333 28.45C30.5121 28.9712 29.8052 29.264 29.0681 29.264C28.3309 29.264 27.624 28.9712 27.1028 28.45C26.5816 27.9288 26.2887 27.2218 26.2887 26.4847C26.2887 25.7476 26.5816 25.0407 27.1028 24.5194L32.1833 19.4444V12.7389C32.1835 12.0022 32.4762 11.2958 32.9972 10.775L42.8167 0.952778C43.2051 0.564076 43.7001 0.299329 44.2391 0.192032C44.7781 0.0847344 45.3367 0.139709 45.8444 0.35M42.0028 9.61944L37.7389 13.8889V17.8167H41.6667L45.9333 13.5528H44.7806C44.0438 13.5528 43.3373 13.2601 42.8164 12.7392C42.2954 12.2182 42.0028 11.5117 42.0028 10.775V9.61944Z" fill="url(#paint0_linear_5649_3403)"/>
<defs>
<linearGradient id="paint0_linear_5649_3403" x1="0" y1="27.7778" x2="55.5555" y2="27.7778" gradientUnits="userSpaceOnUse">
<stop stop-color="#33FCFE"/>
<stop offset="1" stop-color="#010B66"/>
</linearGradient>
</defs>
</svg>
