<svg width="18" height="17" viewBox="0 0 18 17" fill="none" xmlns="http://www.w3.org/2000/svg">
<path d="M1.5 8C1.5 5.17175 1.5 3.75725 2.379 2.879C3.258 2.00075 4.67175 2 7.5 2H10.5C13.3282 2 14.7427 2 15.621 2.879C16.4992 3.758 16.5 5.17175 16.5 8V9.5C16.5 12.3282 16.5 13.7427 15.621 14.621C14.742 15.4992 13.3282 15.5 10.5 15.5H7.5C4.67175 15.5 3.25725 15.5 2.379 14.621C1.50075 13.742 1.5 12.3282 1.5 9.5V8Z" stroke="black" stroke-width="1.5"/>
<path d="M5.25 2V0.875M12.75 2V0.875M1.875 5.75H16.125" stroke="black" stroke-width="1.5" stroke-linecap="round"/>
<path d="M13.5 11.75C13.5 11.9489 13.421 12.1397 13.2803 12.2803C13.1397 12.421 12.9489 12.5 12.75 12.5C12.5511 12.5 12.3603 12.421 12.2197 12.2803C12.079 12.1397 12 11.9489 12 11.75C12 11.5511 12.079 11.3603 12.2197 11.2197C12.3603 11.079 12.5511 11 12.75 11C12.9489 11 13.1397 11.079 13.2803 11.2197C13.421 11.3603 13.5 11.5511 13.5 11.75ZM13.5 8.75C13.5 8.94891 13.421 9.13968 13.2803 9.28033C13.1397 9.42098 12.9489 9.5 12.75 9.5C12.5511 9.5 12.3603 9.42098 12.2197 9.28033C12.079 9.13968 12 8.94891 12 8.75C12 8.55109 12.079 8.36032 12.2197 8.21967C12.3603 8.07902 12.5511 8 12.75 8C12.9489 8 13.1397 8.07902 13.2803 8.21967C13.421 8.36032 13.5 8.55109 13.5 8.75ZM9.75 11.75C9.75 11.9489 9.67098 12.1397 9.53033 12.2803C9.38968 12.421 9.19891 12.5 9 12.5C8.80109 12.5 8.61032 12.421 8.46967 12.2803C8.32902 12.1397 8.25 11.9489 8.25 11.75C8.25 11.5511 8.32902 11.3603 8.46967 11.2197C8.61032 11.079 8.80109 11 9 11C9.19891 11 9.38968 11.079 9.53033 11.2197C9.67098 11.3603 9.75 11.5511 9.75 11.75ZM9.75 8.75C9.75 8.94891 9.67098 9.13968 9.53033 9.28033C9.38968 9.42098 9.19891 9.5 9 9.5C8.80109 9.5 8.61032 9.42098 8.46967 9.28033C8.32902 9.13968 8.25 8.94891 8.25 8.75C8.25 8.55109 8.32902 8.36032 8.46967 8.21967C8.61032 8.07902 8.80109 8 9 8C9.19891 8 9.38968 8.07902 9.53033 8.21967C9.67098 8.36032 9.75 8.55109 9.75 8.75ZM6 11.75C6 11.9489 5.92098 12.1397 5.78033 12.2803C5.63968 12.421 5.44891 12.5 5.25 12.5C5.05109 12.5 4.86032 12.421 4.71967 12.2803C4.57902 12.1397 4.5 11.9489 4.5 11.75C4.5 11.5511 4.57902 11.3603 4.71967 11.2197C4.86032 11.079 5.05109 11 5.25 11C5.44891 11 5.63968 11.079 5.78033 11.2197C5.92098 11.3603 6 11.5511 6 11.75ZM6 8.75C6 8.94891 5.92098 9.13968 5.78033 9.28033C5.63968 9.42098 5.44891 9.5 5.25 9.5C5.05109 9.5 4.86032 9.42098 4.71967 9.28033C4.57902 9.13968 4.5 8.94891 4.5 8.75C4.5 8.55109 4.57902 8.36032 4.71967 8.21967C4.86032 8.07902 5.05109 8 5.25 8C5.44891 8 5.63968 8.07902 5.78033 8.21967C5.92098 8.36032 6 8.55109 6 8.75Z" fill="black"/>
</svg>
