<svg width="62" height="62" viewBox="0 0 62 62" fill="none" xmlns="http://www.w3.org/2000/svg">
<path fill-rule="evenodd" clip-rule="evenodd" d="M61.362 6.421C61.4115 6.097 61.317 5.76625 61.1033 5.5165C60.8895 5.269 60.579 5.125 60.2505 5.125H13.32C12.9938 5.125 12.6833 5.26675 12.4695 5.512C12.2558 5.7595 12.1613 6.08575 12.2063 6.40975L16.3868 35.6597C16.4655 36.2132 16.9403 36.625 17.5005 36.625H51.8895C54.666 36.625 57.0263 34.6 57.4493 31.855C58.6688 23.9305 61.362 6.421 61.362 6.421ZM58.9388 7.375L55.2263 31.513C54.972 33.16 53.5568 34.375 51.8895 34.375H18.477L14.6183 7.375H58.9388Z" fill="black"/>
<path fill-rule="evenodd" clip-rule="evenodd" d="M31.387 34.3975L31.3442 34.393C31.2318 34.3817 31.117 34.375 31 34.375H18.2043L14.0958 3.5545C13.8708 1.87825 12.442 0.625 10.75 0.625H4C2.137 0.625 0.625 2.137 0.625 4C0.625 5.863 2.137 7.375 4 7.375H7.79575L11.5578 35.5923L4.162 38.551C2.0245 39.4038 0.625 41.4738 0.625 43.7733V46.75C0.625 49.8573 3.14275 52.375 6.25 52.375H58C59.863 52.375 61.375 50.863 61.375 49C61.375 47.137 59.863 45.625 58 45.625H7.375V44.536L15.9002 41.125H31C32.863 41.125 34.375 39.613 34.375 37.75C34.375 36.0175 33.0678 34.5887 31.387 34.3975ZM31.1373 36.6318L31.2587 36.6408L31.1305 36.6318C31.6908 36.697 32.125 37.174 32.125 37.75C32.125 38.371 31.621 38.875 31 38.875H15.6842C15.5402 38.875 15.3985 38.902 15.2657 38.956L5.8315 42.7292C5.404 42.9002 5.125 43.3143 5.125 43.7733V46.75C5.125 47.371 5.629 47.875 6.25 47.875H58C58.621 47.875 59.125 48.379 59.125 49C59.125 49.621 58.621 50.125 58 50.125C58 50.125 16.4672 50.125 6.25 50.125C4.387 50.125 2.875 48.613 2.875 46.75V43.7733C2.875 42.394 3.71425 41.152 4.99675 40.639L13.207 37.3563C13.684 37.165 13.972 36.6722 13.9045 36.1637L9.895 6.1015C9.82075 5.5435 9.34375 5.125 8.779 5.125H4C3.379 5.125 2.875 4.621 2.875 4C2.875 3.379 3.379 2.875 4 2.875H10.75C11.3147 2.875 11.7895 3.2935 11.866 3.8515L16.105 35.6485C16.1793 36.2065 16.6562 36.625 17.221 36.625H31L31.1373 36.6318Z" fill="black"/>
<path fill-rule="evenodd" clip-rule="evenodd" d="M41.1383 6.07876L36.6383 35.3288C36.5438 35.943 36.9645 36.5168 37.5788 36.6113C38.193 36.7058 38.7668 36.285 38.8613 35.6708L43.3613 6.42076C43.4558 5.80651 43.035 5.23276 42.4208 5.13826C41.8065 5.04376 41.2328 5.46451 41.1383 6.07876Z" fill="black"/>
<path fill-rule="evenodd" clip-rule="evenodd" d="M32.1383 6.07876L27.6383 35.3288C27.5438 35.943 27.9645 36.5168 28.5788 36.6113C29.193 36.7058 29.7668 36.285 29.8613 35.6708L34.3613 6.42076C34.4558 5.80651 34.035 5.23276 33.4208 5.13826C32.8065 5.04376 32.2328 5.46451 32.1383 6.07876Z" fill="black"/>
<path fill-rule="evenodd" clip-rule="evenodd" d="M23.1383 6.07876L18.6383 35.3288C18.5438 35.943 18.9645 36.5168 19.5788 36.6113C20.193 36.7058 20.7668 36.285 20.8613 35.6708L25.3613 6.42076C25.4558 5.80651 25.035 5.23276 24.4208 5.13826C23.8065 5.04376 23.2328 5.46451 23.1383 6.07876Z" fill="black"/>
<path fill-rule="evenodd" clip-rule="evenodd" d="M50.1383 6.07876L45.6383 35.3288C45.5438 35.943 45.9645 36.5168 46.5788 36.6113C47.193 36.7058 47.7668 36.285 47.8613 35.6708L52.3613 6.42076C52.4558 5.80651 52.035 5.23276 51.4208 5.13826C50.8065 5.04376 50.2328 5.46451 50.1383 6.07876Z" fill="black"/>
<path fill-rule="evenodd" clip-rule="evenodd" d="M14.2852 14.125H59.1254C59.7464 14.125 60.2504 13.621 60.2504 13C60.2504 12.379 59.7464 11.875 59.1254 11.875H14.2852C13.6642 11.875 13.1602 12.379 13.1602 13C13.1602 13.621 13.6642 14.125 14.2852 14.125Z" fill="black"/>
<path fill-rule="evenodd" clip-rule="evenodd" d="M15.4102 20.875H58.0004C58.6214 20.875 59.1254 20.371 59.1254 19.75C59.1254 19.129 58.6214 18.625 58.0004 18.625H15.4102C14.7892 18.625 14.2852 19.129 14.2852 19.75C14.2852 20.371 14.7892 20.875 15.4102 20.875Z" fill="black"/>
<path fill-rule="evenodd" clip-rule="evenodd" d="M16.5352 28.75H56.8754C57.4964 28.75 58.0004 28.246 58.0004 27.625C58.0004 27.004 57.4964 26.5 56.8754 26.5H16.5352C15.9142 26.5 15.4102 27.004 15.4102 27.625C15.4102 28.246 15.9142 28.75 16.5352 28.75Z" fill="black"/>
<path fill-rule="evenodd" clip-rule="evenodd" d="M53.5 50.125C50.395 50.125 47.875 52.645 47.875 55.75C47.875 58.855 50.395 61.375 53.5 61.375C56.605 61.375 59.125 58.855 59.125 55.75C59.125 52.645 56.605 50.125 53.5 50.125ZM53.5 52.375C55.363 52.375 56.875 53.887 56.875 55.75C56.875 57.613 55.363 59.125 53.5 59.125C51.637 59.125 50.125 57.613 50.125 55.75C50.125 53.887 51.637 52.375 53.5 52.375Z" fill="black"/>
<path fill-rule="evenodd" clip-rule="evenodd" d="M15.25 50.125C12.145 50.125 9.625 52.645 9.625 55.75C9.625 58.855 12.145 61.375 15.25 61.375C18.355 61.375 20.875 58.855 20.875 55.75C20.875 52.645 18.355 50.125 15.25 50.125ZM15.25 52.375C17.113 52.375 18.625 53.887 18.625 55.75C18.625 57.613 17.113 59.125 15.25 59.125C13.387 59.125 11.875 57.613 11.875 55.75C11.875 53.887 13.387 52.375 15.25 52.375Z" fill="black"/>
</svg>
