<svg width="38" height="28" viewBox="0 0 38 28" fill="none" xmlns="http://www.w3.org/2000/svg">
<path d="M9.83366 27.3332C7.30588 27.3332 5.14644 26.4582 3.35533 24.7082C1.56421 22.9582 0.668103 20.8193 0.666992 18.2915C0.666992 16.1248 1.31977 14.1943 2.62533 12.4998C3.93088 10.8054 5.63921 9.72206 7.75033 9.24984C8.44477 6.69428 9.83366 4.62484 11.917 3.0415C14.0003 1.45817 16.3614 0.666504 19.0003 0.666504C22.2503 0.666504 25.0075 1.79873 27.272 4.06317C29.5364 6.32762 30.6681 9.08428 30.667 12.3332C32.5837 12.5554 34.1742 13.3821 35.4387 14.8132C36.7031 16.2443 37.3348 17.9176 37.3337 19.8332C37.3337 21.9165 36.6048 23.6876 35.147 25.1465C33.6892 26.6054 31.9181 27.3343 29.8337 27.3332H9.83366Z" fill="black"/>
</svg>
