<svg width="67" height="67" viewBox="0 0 67 67" fill="none" xmlns="http://www.w3.org/2000/svg">
<g clip-path="url(#clip0_5123_2429)">
<path fill-rule="evenodd" clip-rule="evenodd" d="M47.9167 58.3333C58.2917 58.3333 66.6667 54.1667 66.6667 47.9167V8.33333C66.6667 4.16667 58.3334 0 47.9167 0C37.5001 0 29.1667 4.16667 29.1667 8.33333V22.9167C34.0417 24.9583 38.2084 28.375 41.1667 32.7083C43.2084 33.1083 45.4584 33.3292 47.9167 33.3292C53.3751 33.3292 57.9167 32.2417 61.1667 30.4708C61.6281 30.2172 62.0773 29.9419 62.5126 29.6458V35.3958C62.5126 36.375 61.7334 37.8958 59.1709 39.2958C56.6876 40.65 52.8792 41.6458 47.9209 41.6458C46.9292 41.6458 45.9848 41.6083 45.0876 41.5333C45.4209 42.9028 45.6431 44.3056 45.7542 45.7417C46.457 45.7806 47.1792 45.8 47.9209 45.8C53.3792 45.8 57.9209 44.7125 61.1709 42.9417C61.6323 42.6881 62.0814 42.4128 62.5167 42.1167V47.8667C62.5167 48.85 61.8959 50.3083 59.2209 51.75C56.5876 53.1667 52.6376 54.1167 47.9292 54.1167C46.9709 54.1167 46.0431 54.0778 45.1459 54C44.8256 55.3849 44.3951 56.742 43.8584 58.0583C45.1695 58.2056 46.5251 58.2792 47.9251 58.2792L47.9167 58.3333ZM59.1667 26.8333C61.7292 25.4333 62.5084 23.9125 62.5084 22.9333V17.1833C62.0779 17.4778 61.6292 17.7528 61.1626 18.0083C57.9209 19.7792 53.3709 20.8667 47.9126 20.8667C42.4542 20.8667 37.9126 19.7792 34.6626 18.0083C34.2012 17.7547 33.7521 17.4794 33.3167 17.1833V22.9333C33.3167 23.9125 34.0959 25.4333 36.6584 26.8292C39.1417 28.1833 42.9501 29.1792 47.9084 29.1792C52.8667 29.1792 56.6584 28.1833 59.1584 26.8292L59.1667 26.8333ZM33.3334 10.4167C33.3334 9.21667 33.8542 8.0625 34.8251 7.35833C35.3542 6.975 35.9292 6.59167 36.3834 6.38333C37.5209 5.85833 43.2167 4.1625 47.9251 4.1625C52.6334 4.1625 56.7167 5.10833 59.4667 6.38333C59.9834 6.62083 60.5542 6.99167 61.0584 7.35833C62.0209 8.05417 62.5167 9.2 62.5167 10.3875V10.4125C62.5167 11.3917 61.7376 12.9125 59.1751 14.3125C56.6917 15.6667 52.8834 16.6625 47.9251 16.6625C42.9667 16.6625 39.1751 15.6625 36.6751 14.3125C34.1126 12.9167 33.3334 11.3917 33.3334 10.4167Z" fill="black"/>
<path fill-rule="evenodd" clip-rule="evenodd" d="M37.5 47.9175C37.5 58.2925 29.125 66.6675 18.75 66.6675C8.375 66.6675 0 58.2925 0 47.9175C0 37.5425 8.375 29.1675 18.75 29.1675C29.125 29.1675 37.5 37.5425 37.5 47.9175ZM33.3333 47.9175C33.3333 55.9591 26.7917 62.5008 18.75 62.5008C10.7083 62.5008 4.16667 55.9591 4.16667 47.9175C4.16667 39.8758 10.7083 33.3341 18.75 33.3341C26.7917 33.3341 33.3333 39.8758 33.3333 47.9175Z" fill="black"/>
</g>
<defs>
<clipPath id="clip0_5123_2429">
<rect width="66.6667" height="66.6667" fill="white"/>
</clipPath>
</defs>
</svg>
