<svg width="38" height="48" viewBox="0 0 38 48" fill="none" xmlns="http://www.w3.org/2000/svg">
<path d="M37.6414 32.5712L34.8323 19.05C34.8078 18.9352 34.7869 18.8167 34.7632 18.6963C34.5905 17.7629 34.3005 16.2047 32.3778 16.2047C31.7994 16.1787 31.2345 16.3885 30.8062 16.7884C30.3779 17.1882 30.121 17.7457 30.0914 18.3393C30.0914 18.3505 30.0914 18.3617 30.0914 18.3733L30.5646 27.4565C30.1435 27.4416 29.7239 27.5145 29.331 27.6708C28.9381 27.827 28.5801 28.0634 28.2787 28.3656L23.1164 33.7425C22.2037 34.6959 21.8437 35.8743 21.9869 37.4502L22.3505 41.4733H21.7555C21.4099 41.4737 21.0785 41.6148 20.8341 41.8658C20.5897 42.1167 20.4522 42.4569 20.4519 42.8117V45.9977C20.4526 46.3521 20.5903 46.6919 20.8347 46.9422C21.0791 47.1926 21.4102 47.3333 21.7555 47.3333H33.6764C34.0217 47.3333 34.3529 47.1926 34.5973 46.9422C34.8417 46.6919 34.9793 46.3521 34.9801 45.9977V42.8117C34.9797 42.4569 34.8422 42.1167 34.5978 41.8658C34.3534 41.6148 34.0221 41.4737 33.6764 41.4733H32.8032V39.7667L36.3105 36.5467C36.8667 36.0736 37.2851 35.4522 37.5199 34.7509C37.7547 34.0496 37.7967 33.2954 37.6414 32.5712ZM33.7369 42.8117V45.9977C33.7362 46.0136 33.7295 46.0287 33.7182 46.0398C33.707 46.0508 33.692 46.0569 33.6764 46.0569H21.7555C21.7399 46.0569 21.725 46.0508 21.7137 46.0398C21.7024 46.0287 21.6958 46.0136 21.6951 45.9977V42.8117C21.6956 42.7955 21.7022 42.78 21.7134 42.7685C21.7246 42.757 21.7397 42.7502 21.7555 42.7497H33.6764C33.6923 42.7502 33.7073 42.757 33.7186 42.7685C33.7298 42.78 33.7363 42.7955 33.7369 42.8117ZM35.4819 35.5952L31.7673 39.0056C31.7021 39.0655 31.65 39.1389 31.6143 39.2209C31.5785 39.3029 31.5601 39.3918 31.5601 39.4816V41.4733H23.6005L23.2251 37.3326C23.1178 36.1426 23.3578 35.3115 24.0028 34.6381L29.1642 29.2611C29.4946 28.9471 29.9206 28.7602 30.37 28.732C30.8194 28.7039 31.2645 28.8362 31.6296 29.1067C31.7853 29.22 31.9152 29.3666 32.0106 29.5363C32.106 29.706 32.1646 29.8948 32.1823 30.0899C32.1937 30.2763 32.1656 30.4629 32.1001 30.637C32.0346 30.8112 31.9332 30.9687 31.8028 31.0989L28.7119 34.3189C28.6522 34.378 28.6047 34.4488 28.572 34.5272C28.5394 34.6055 28.5224 34.6897 28.522 34.7748C28.5216 34.86 28.5377 34.9444 28.5696 35.0231C28.6014 35.1017 28.6482 35.173 28.7073 35.2328C28.7664 35.2926 28.8365 35.3396 28.9136 35.3712C28.9906 35.4027 29.0731 35.4181 29.156 35.4164C29.2389 35.4147 29.3207 35.396 29.3965 35.3614C29.4723 35.3268 29.5406 35.277 29.5973 35.2149L32.691 31.9921C32.9466 31.7329 33.1445 31.4199 33.271 31.0747C33.3976 30.7295 33.4498 30.3603 33.4242 29.9924C33.3943 29.6159 33.2854 29.2506 33.1049 28.9214C32.9244 28.5923 32.6767 28.3071 32.3787 28.0856C32.2067 27.9525 32.021 27.839 31.8251 27.7473L31.3342 18.3229C31.3723 18.0727 31.5013 17.8466 31.6953 17.6901C31.8893 17.5337 32.1338 17.4585 32.3796 17.4797C33.2005 17.4797 33.3442 17.8563 33.5442 18.9338C33.5687 19.0654 33.5928 19.1951 33.6192 19.3179L36.426 32.8386C36.5341 33.3428 36.503 33.8679 36.3362 34.3549C36.1694 34.8419 35.8735 35.2715 35.4819 35.5952ZM23.8569 44.4035C23.8569 44.4873 23.8408 44.5703 23.8095 44.6478C23.7783 44.7252 23.7325 44.7955 23.6747 44.8548C23.617 44.914 23.5484 44.961 23.473 44.993C23.3976 45.0251 23.3167 45.0415 23.2351 45.0415H23.2151C23.0531 45.037 22.8993 44.9678 22.7863 44.8486C22.6733 44.7294 22.6101 44.5696 22.6101 44.4033C22.6101 44.237 22.6733 44.0772 22.7863 43.958C22.8993 43.8388 23.0531 43.7696 23.2151 43.7651H23.2351C23.3167 43.7651 23.3976 43.7815 23.4731 43.8136C23.5486 43.8457 23.6171 43.8927 23.6749 43.952C23.7326 44.0113 23.7784 44.0817 23.8097 44.1592C23.8409 44.2366 23.8569 44.3197 23.8569 44.4035ZM16.2442 41.4733H15.6482L16.0151 37.4502C16.1573 35.8757 15.7973 34.6969 14.8828 33.7421L9.7237 28.3656C9.42214 28.0628 9.06375 27.8261 8.67031 27.6699C8.27688 27.5137 7.85661 27.4413 7.43507 27.457L7.90961 18.3733C7.90961 18.3621 7.90961 18.3505 7.90961 18.3393C7.87924 17.7459 7.6218 17.1889 7.19334 16.7895C6.76487 16.39 6.20007 16.1806 5.62188 16.2066C3.69779 16.2066 3.40916 17.7709 3.23643 18.7051C3.21507 18.8232 3.19098 18.9385 3.16916 19.0551L0.358249 32.5712C0.204302 33.2954 0.247001 34.0492 0.481692 34.7502C0.716382 35.4513 1.13405 36.0727 1.68916 36.5467L5.19643 39.7667V41.4733H4.32325C3.97793 41.4741 3.647 41.6154 3.40304 41.8663C3.15908 42.1172 3.022 42.4572 3.02189 42.8117V45.9977C3.02237 46.3518 3.15964 46.6913 3.4036 46.9417C3.64757 47.1921 3.97829 47.3329 4.32325 47.3333H16.2442C16.5891 47.3327 16.9197 47.1918 17.1637 46.9415C17.4077 46.6911 17.5451 46.3518 17.546 45.9977V42.8117C17.5455 42.4572 17.4082 42.1174 17.1643 41.8665C16.9203 41.6157 16.5894 41.4743 16.2442 41.4733ZM6.23234 39.0056L2.51825 35.5957C2.12722 35.2711 1.8318 34.8412 1.665 34.3542C1.4982 33.8672 1.46659 33.3421 1.5737 32.8377L4.38461 19.3216C4.41052 19.1979 4.43416 19.0701 4.45825 18.9408C4.65779 17.8595 4.80052 17.4815 5.62188 17.4815C5.8676 17.4609 6.11184 17.5363 6.30571 17.6927C6.49957 17.849 6.62873 18.0748 6.66734 18.3248L6.1737 27.7515C5.97819 27.8428 5.793 27.9557 5.62143 28.0884C5.32499 28.3124 5.07843 28.5986 4.89817 28.928C4.7179 29.2574 4.60807 29.6225 4.57598 29.9989C4.55053 30.3666 4.60294 30.7355 4.72958 31.0804C4.85622 31.4252 5.0541 31.7379 5.30961 31.9967L8.40507 35.2167C8.46237 35.2764 8.53056 35.3239 8.60574 35.3565C8.68092 35.3891 8.76162 35.4062 8.84323 35.4068C8.92484 35.4073 9.00576 35.3914 9.08138 35.3599C9.15699 35.3284 9.22582 35.2819 9.28393 35.223C9.34204 35.1642 9.38829 35.0942 9.42005 35.017C9.45181 34.9398 9.46845 34.857 9.46902 34.7732C9.46959 34.6894 9.45408 34.6063 9.42337 34.5287C9.39267 34.4511 9.34737 34.3804 9.29007 34.3207L6.19552 31.1007C6.06559 30.9705 5.96464 30.8129 5.8996 30.6388C5.83456 30.4648 5.80696 30.2783 5.8187 30.0923C5.83642 29.8965 5.8952 29.7069 5.991 29.5366C6.0868 29.3663 6.21736 29.2193 6.3737 29.1057C6.73935 28.836 7.18446 28.7042 7.63384 28.7325C8.08321 28.7608 8.50929 28.9476 8.84007 29.2611L13.9964 34.6399C14.6437 35.3157 14.8846 36.1468 14.7773 37.334L14.3996 41.4757H6.43961V39.4816C6.43961 39.3918 6.42114 39.3029 6.38543 39.2209C6.34971 39.1389 6.29755 39.0655 6.23234 39.0056ZM16.3046 45.9977C16.3039 46.0136 16.2972 46.0287 16.286 46.0398C16.2747 46.0508 16.2597 46.0569 16.2442 46.0569H4.32325C4.30812 46.0564 4.29376 46.0499 4.28305 46.0389C4.27235 46.0279 4.26608 46.0132 4.26552 45.9977V42.8117C4.26593 42.7959 4.27207 42.7808 4.28273 42.7693C4.2934 42.7578 4.30784 42.7508 4.32325 42.7497H16.2442C16.26 42.7502 16.2751 42.757 16.2863 42.7685C16.2975 42.78 16.304 42.7955 16.3046 42.8117V45.9977ZM15.406 44.4035C15.406 44.5727 15.3405 44.735 15.224 44.8546C15.1075 44.9743 14.9494 45.0415 14.7846 45.0415H14.7646C14.6816 45.0438 14.5989 45.029 14.5215 44.9979C14.4442 44.9669 14.3736 44.9203 14.3141 44.8608C14.2546 44.8013 14.2072 44.7302 14.1749 44.6516C14.1426 44.573 14.126 44.4886 14.126 44.4033C14.126 44.318 14.1426 44.2336 14.1749 44.155C14.2072 44.0764 14.2546 44.0053 14.3141 43.9458C14.3736 43.8863 14.4442 43.8397 14.5215 43.8087C14.5989 43.7776 14.6816 43.7628 14.7646 43.7651H14.7846C14.8662 43.7651 14.9471 43.7817 15.0225 43.8137C15.0979 43.8458 15.1664 43.8929 15.2241 43.9521C15.2818 44.0114 15.3276 44.0818 15.3588 44.1593C15.39 44.2367 15.406 44.3197 15.406 44.4035ZM13.8582 13.1434C13.7999 13.0717 13.7269 13.0139 13.6444 12.9743C13.562 12.9347 13.472 12.9142 13.381 12.9142C13.2899 12.9142 13.2 12.9347 13.1175 12.9743C13.0351 13.0139 12.9621 13.0717 12.9037 13.1434L8.41279 18.6851C8.33721 18.7783 8.28908 18.8918 8.27403 19.0121C8.25898 19.1324 8.27763 19.2547 8.32781 19.3645C8.37798 19.4743 8.4576 19.5672 8.55734 19.6323C8.65708 19.6973 8.77281 19.7318 8.89098 19.7318H11.0914V27.7874C11.0914 27.9567 11.1569 28.1191 11.2736 28.2388C11.3902 28.3585 11.5483 28.4258 11.7132 28.4258H15.0528C15.1344 28.4258 15.2153 28.4093 15.2907 28.3772C15.3661 28.3451 15.4346 28.2981 15.4923 28.2388C15.55 28.1795 15.5958 28.1091 15.627 28.0317C15.6582 27.9542 15.6742 27.8712 15.6742 27.7874V19.7318H17.8714C17.9896 19.7318 18.1052 19.6972 18.2049 19.6321C18.3046 19.567 18.3841 19.4741 18.4342 19.3643C18.4844 19.2545 18.503 19.1323 18.4879 19.012C18.4728 18.8917 18.4247 18.7783 18.3492 18.6851L13.8582 13.1434ZM15.0514 18.4555C14.9698 18.4554 14.8889 18.4719 14.8135 18.5039C14.7381 18.5359 14.6695 18.5829 14.6118 18.6421C14.554 18.7014 14.5082 18.7717 14.477 18.8492C14.4457 18.9266 14.4296 19.0096 14.4296 19.0934V27.1495H12.3332V19.0934C12.3332 18.9242 12.2678 18.7619 12.1513 18.6423C12.0347 18.5227 11.8767 18.4555 11.7119 18.4555H10.2164L13.3801 14.5499L16.546 18.4555H15.0514ZM22.3269 27.7888C22.3268 27.8726 22.3428 27.9556 22.3741 28.0331C22.4053 28.1105 22.451 28.1809 22.5087 28.2402C22.5664 28.2995 22.6349 28.3465 22.7104 28.3786C22.7858 28.4107 22.8666 28.4272 22.9482 28.4272H26.2905C26.3722 28.4272 26.453 28.4107 26.5284 28.3786C26.6038 28.3465 26.6723 28.2995 26.73 28.2402C26.7878 28.1809 26.8335 28.1105 26.8647 28.0331C26.8959 27.9556 26.9119 27.8726 26.9119 27.7888V19.7318H29.1092C29.2273 19.7318 29.343 19.6972 29.4426 19.6321C29.5423 19.567 29.6218 19.4741 29.672 19.3643C29.7221 19.2545 29.7407 19.1323 29.7256 19.012C29.7106 18.8917 29.6624 18.7783 29.5869 18.6851L25.0973 13.1434C25.039 13.0717 24.966 13.0139 24.8835 12.9743C24.801 12.9347 24.7111 12.9142 24.6201 12.9142C24.529 12.9142 24.4391 12.9347 24.3566 12.9743C24.2741 13.0139 24.2012 13.0717 24.1428 13.1434L19.6519 18.6851C19.5763 18.7783 19.5282 18.8917 19.5131 19.012C19.4981 19.1323 19.5167 19.2545 19.5668 19.3643C19.6169 19.4741 19.6965 19.567 19.7961 19.6321C19.8958 19.6972 20.0115 19.7318 20.1296 19.7318H22.3269V27.7888ZM21.4555 18.4555L24.6192 14.5499L27.7832 18.4555H26.2905C26.2089 18.4554 26.128 18.4719 26.0526 18.5039C25.9772 18.5359 25.9086 18.5829 25.8509 18.6421C25.7931 18.7014 25.7473 18.7717 25.716 18.8492C25.6848 18.9266 25.6687 19.0096 25.6687 19.0934V27.1495H23.5701V19.0934C23.5701 19.0096 23.554 18.9266 23.5227 18.8492C23.4915 18.7717 23.4457 18.7014 23.3879 18.6421C23.3302 18.5829 23.2616 18.5359 23.1862 18.5039C23.1107 18.4719 23.0299 18.4554 22.9482 18.4555H21.4555ZM14.5101 7.48507H16.7073V15.5407C16.7073 15.6245 16.7233 15.7075 16.7545 15.7849C16.7857 15.8624 16.8315 15.9328 16.8892 15.9921C16.9469 16.0513 17.0154 16.0984 17.0908 16.1305C17.1662 16.1626 17.2471 16.1791 17.3287 16.1791H20.671C20.7526 16.1791 20.8334 16.1626 20.9089 16.1305C20.9843 16.0984 21.0528 16.0513 21.1105 15.9921C21.1682 15.9328 21.214 15.8624 21.2452 15.7849C21.2764 15.7075 21.2924 15.6245 21.2923 15.5407V7.48507H23.4896C23.6077 7.48513 23.7234 7.45063 23.8231 7.3856C23.9228 7.32057 24.0024 7.22771 24.0526 7.11791C24.1027 7.0081 24.1213 6.8859 24.1062 6.76562C24.0911 6.64534 24.0429 6.53198 23.9673 6.4388L19.4778 0.896668C19.4194 0.824924 19.3464 0.767211 19.264 0.727609C19.1815 0.688007 19.0916 0.66748 19.0005 0.66748C18.9095 0.66748 18.8195 0.688007 18.7371 0.727609C18.6546 0.767211 18.5816 0.824924 18.5232 0.896668L14.0323 6.4388C13.9567 6.53198 13.9086 6.64534 13.8935 6.76562C13.8784 6.8859 13.897 7.0081 13.9471 7.11791C13.9973 7.22771 14.0768 7.32057 14.1765 7.3856C14.2763 7.45063 14.3919 7.48513 14.5101 7.48507ZM19.0005 2.30274L22.1651 6.20873H20.671C20.5893 6.20867 20.5085 6.22513 20.433 6.25716C20.3576 6.28919 20.2891 6.33617 20.2313 6.39542C20.1736 6.45466 20.1278 6.52501 20.0965 6.60243C20.0652 6.67986 20.0492 6.76285 20.0492 6.84667V14.9027H17.9505V6.84667C17.9505 6.76285 17.9344 6.67986 17.9032 6.60243C17.8719 6.52501 17.8261 6.45466 17.7684 6.39542C17.7106 6.33617 17.6421 6.28919 17.5666 6.25716C17.4912 6.22513 17.4103 6.20867 17.3287 6.20873H15.8355L19.0005 2.30274Z" fill="#A98C38"/>
</svg>
