<svg width="60" height="60" viewBox="0 0 60 60" fill="none" xmlns="http://www.w3.org/2000/svg">
<path d="M11.4875 0.210227C11.7926 0.368314 12.0485 0.607226 12.227 0.900862C12.4056 1.1945 12.5 1.53156 12.5 1.87523C12.5 4.80023 13.5075 6.49523 14.6675 8.17273C14.7775 8.33273 14.8925 8.49606 15.0125 8.66273C16.12 10.2327 17.5 12.1827 17.5 15.0002C17.5 16.1493 17.2737 17.2871 16.8339 18.3487C16.3942 19.4103 15.7497 20.3749 14.9372 21.1874C14.1247 21.9999 13.1601 22.6444 12.0985 23.0842C11.0369 23.5239 9.89907 23.7502 8.75 23.7502C7.60093 23.7502 6.46312 23.5239 5.40152 23.0842C4.33992 22.6444 3.37533 21.9999 2.56282 21.1874C1.7503 20.3749 1.10578 19.4103 0.666054 18.3487C0.226325 17.2871 -1.71224e-08 16.1493 0 15.0002C0 12.9427 0.21 10.7002 1.6225 8.20023C3.0025 5.75773 5.4375 3.23523 9.5475 0.342727C9.82785 0.145391 10.1569 0.0286962 10.499 0.00533515C10.841 -0.0180259 11.1829 0.0528406 11.4875 0.210227ZM18.055 8.68523C20.2296 7.26631 22.7352 6.43617 25.3268 6.27603C27.9184 6.11589 30.5072 6.63123 32.8399 7.77163C35.1727 8.91204 37.1694 10.6384 38.6348 12.782C40.1002 14.9255 40.9841 17.4127 41.2 20.0002H34.3775C31.8911 20.0002 29.5065 20.9879 27.7484 22.7461C25.9902 24.5043 25.0025 26.8888 25.0025 29.3752V36.2002C23.2615 36.0549 21.5592 35.6065 19.9725 34.8752C19.9325 36.0977 19.8475 37.4327 19.7225 38.8327C21.419 39.4605 23.1974 39.8394 25.0025 39.9577V45.6252C25.0025 48.1116 25.9902 50.4962 27.7484 52.2544C29.5065 54.0125 31.8911 55.0002 34.3775 55.0002H50.6275C53.1139 55.0002 55.4985 54.0125 57.2566 52.2544C59.0148 50.4962 60.0025 48.1116 60.0025 45.6252V29.3752C60.0025 26.8888 59.0148 24.5043 57.2566 22.7461C55.4985 20.9879 53.1139 20.0002 50.6275 20.0002H44.9625C44.7445 16.731 43.6737 13.5759 41.8566 10.8494C40.0396 8.12283 37.5398 5.92006 34.6063 4.46052C31.6728 3.00098 28.408 2.33564 25.1373 2.53078C21.8666 2.72592 18.7041 3.77474 15.965 5.57273C16.19 5.95773 16.445 6.34273 16.7275 6.75023C16.8225 6.89189 16.9308 7.04523 17.0525 7.21023C17.3475 7.62523 17.7 8.11523 18.055 8.68523ZM50.63 23.7502C52.1218 23.7502 53.5526 24.3429 54.6075 25.3978C55.6624 26.4526 56.255 27.8834 56.255 29.3752V45.6252C56.255 47.1171 55.6624 48.5478 54.6075 49.6027C53.5526 50.6576 52.1218 51.2502 50.63 51.2502H34.38C32.8882 51.2502 31.4574 50.6576 30.4025 49.6027C29.3476 48.5478 28.755 47.1171 28.755 45.6252V39.8352C32.8273 39.2856 36.6066 37.414 39.512 34.5081C42.4175 31.6022 44.2885 27.8227 44.8375 23.7502H50.63ZM28.755 36.0427V29.3752C28.755 27.8834 29.3476 26.4526 30.4025 25.3978C31.4574 24.3429 32.8882 23.7502 34.38 23.7502H41.045C40.5245 26.8212 39.0616 29.6543 36.8591 31.8568C34.6566 34.0593 31.826 35.5222 28.755 36.0427ZM0 33.2177C0 30.7102 0.2 27.5977 1.29 25.0327C3.3725 26.5827 5.955 27.5002 8.75 27.5002C11.4401 27.5042 14.0591 26.6367 16.215 25.0277C17.3025 27.5952 17.5 30.7127 17.5 33.2177C17.5 37.3752 16.84 43.7427 15.63 49.0927C15.03 51.7627 14.265 54.2902 13.3225 56.1927C12.855 57.1427 12.2925 58.0352 11.605 58.7177C10.9125 59.4027 9.955 60.0002 8.755 60.0002C7.555 60.0002 6.6 59.4027 5.9075 58.7152C5.22 58.0352 4.6575 57.1427 4.1875 56.1952C3.245 54.2902 2.48 51.7627 1.875 49.0952C0.6625 43.7427 0 37.3752 0 33.2202" fill="white"/>
</svg>
