<svg width="76" height="63" viewBox="0 0 76 63" fill="none" xmlns="http://www.w3.org/2000/svg">
<path d="M24.5759 25.5194L21.7063 28.3924L21.7033 28.3894C21.238 28.8365 21.1276 29.5398 21.4289 30.1091L22.1925 31.6081C22.4043 32.0165 22.5177 32.4695 22.5236 32.9285C22.5296 33.3904 22.4282 33.8464 22.2253 34.2607C22.0911 34.5408 21.9718 34.812 21.8584 35.0802C21.7481 35.3455 21.6377 35.6346 21.5363 35.9177L21.5393 35.9148C21.235 36.7969 20.5281 37.4824 19.6361 37.7626L18.0372 38.2812V38.2782C17.7389 38.3736 17.4794 38.5613 17.2915 38.8146C17.1065 39.068 17.0081 39.3779 17.0141 39.6908V43.8096C17.0051 44.4534 17.4227 45.0286 18.0372 45.2223L19.6361 45.7379C20.528 46.0181 21.235 46.7065 21.5392 47.5887C21.6377 47.8688 21.748 48.152 21.8614 48.4262C21.9747 48.7004 22.0941 48.9656 22.2283 49.2428H22.2253C22.634 50.0833 22.622 51.0667 22.1925 51.8953L21.4289 53.3944V53.3914C21.1246 53.9606 21.238 54.664 21.7033 55.111L24.6176 58.0258C24.8384 58.2493 25.1247 58.3983 25.432 58.452C25.7452 58.4997 26.0644 58.449 26.3448 58.303L27.8392 57.54V57.543C28.6684 57.1138 29.6528 57.0989 30.4911 57.5072C30.7715 57.6413 31.0459 57.7605 31.3114 57.8738C31.5858 57.99 31.8662 58.0943 32.1466 58.1957C33.0326 58.4967 33.7216 59.203 34.002 60.0942L34.5241 61.6916C34.712 62.3086 35.2877 62.7229 35.9321 62.7139H40.0574C40.7018 62.7228 41.2775 62.3085 41.4654 61.6916L41.9874 60.0942C42.2679 59.203 42.9539 58.4967 43.8369 58.1957C44.1203 58.0943 44.4007 57.99 44.6722 57.8738C44.9466 57.7576 45.2151 57.6413 45.4954 57.5072C46.3367 57.0989 47.318 57.1138 48.1473 57.543L49.6537 58.303C49.9342 58.452 50.2533 58.5056 50.5635 58.4579C50.8738 58.4043 51.1572 58.2553 51.3779 58.0347L54.2922 55.12V55.117C54.7606 54.6699 54.8709 53.9696 54.5696 53.4003L53.806 51.9013C53.3765 51.0728 53.3645 50.0922 53.7672 49.2517C53.9015 48.9716 54.0267 48.7004 54.1341 48.4351C54.2415 48.1699 54.3579 47.8838 54.4563 47.5976H54.4533C54.6054 47.1625 54.856 46.7661 55.1871 46.4442C55.5182 46.1253 55.9179 45.8869 56.3534 45.7439L57.9523 45.2283H57.9553C58.2536 45.1359 58.5161 44.9481 58.701 44.6948C58.883 44.4385 58.9814 44.1315 58.9814 43.8156V39.6968C58.9874 39.0501 58.5728 38.4749 57.9553 38.2841L56.3564 37.7656H56.3534C55.4644 37.4854 54.7605 36.8 54.4532 35.9177C54.3548 35.6376 54.2444 35.3545 54.1311 35.0802C54.0177 34.806 53.8984 34.5408 53.7642 34.2607L53.7672 34.2637C53.3585 33.4261 53.3734 32.4427 53.8059 31.6141L54.5696 30.115C54.8708 29.5458 54.7575 28.8454 54.2921 28.3984L51.4226 25.5194C51.0467 27.8143 50.0832 29.975 48.6245 31.7901C49.8028 33.0388 50.7514 34.4902 51.4226 36.0698C51.4226 36.0817 51.4345 36.0996 51.4405 36.1115C52.8037 39.3512 52.9528 42.9723 51.8551 46.3101C50.7573 49.6479 48.4903 52.4763 45.4715 54.2762C42.4498 56.0763 38.8822 56.723 35.4221 56.1031C31.9619 55.4802 28.8417 53.6294 26.6403 50.8905C24.4359 48.1546 23.2994 44.7123 23.4336 41.2016C23.5708 37.6908 24.9698 34.3469 27.3801 31.7897C25.9214 29.9747 24.9579 27.814 24.582 25.5191L24.5759 25.5194ZM54.3341 16.5012C53.9731 16.6979 53.5197 16.5697 53.3139 16.2121C53.1111 15.8544 53.2274 15.4014 53.5794 15.1868L57.9465 12.6684C58.1195 12.5611 58.3313 12.5313 58.5282 12.582C58.725 12.6327 58.8951 12.7608 58.9965 12.9396C59.0979 13.1155 59.1247 13.3271 59.0681 13.5208C59.0114 13.7175 58.8801 13.8844 58.7012 13.9798L54.3341 16.5012ZM11.4811 40.9961C11.8987 40.9961 12.2387 41.3359 12.2387 41.7531C12.2387 42.1733 11.8987 42.5131 11.4811 42.5131H4.41148C4.36375 42.5101 4.31602 42.5071 4.2683 42.4982C3.91034 43.4221 2.94384 43.9586 1.96845 43.7768C0.993059 43.595 0.289062 42.7455 0.289062 41.7532C0.289062 40.7637 0.993036 39.9143 1.96845 39.7295C2.94384 39.5477 3.91038 40.0842 4.2683 41.0081C4.31602 40.9992 4.36375 40.9962 4.41148 40.9962L11.4811 40.9961ZM64.521 42.5131H64.518C64.1004 42.5131 63.7603 42.1734 63.7603 41.7531C63.7603 41.3359 64.1004 40.9961 64.518 40.9961H71.5876C71.6353 40.9961 71.683 40.9991 71.7308 41.008C72.0887 40.0842 73.0552 39.5477 74.0306 39.7295C75.006 39.9142 75.71 40.7637 75.71 41.7531C75.71 42.7455 75.006 43.5949 74.0306 43.7767C73.0552 43.9585 72.0887 43.422 71.7308 42.4981C71.683 42.507 71.6353 42.51 71.5876 42.513L64.521 42.5131ZM65.6187 55.5072C66.5434 55.8678 67.0804 56.8335 66.8984 57.808C66.7164 58.7825 65.8633 59.4889 64.87 59.4889C63.8797 59.4889 63.0265 58.7825 62.8446 57.808C62.6597 56.8335 63.1996 55.8678 64.1243 55.5072C64.1154 55.4625 64.1094 55.4178 64.1094 55.3701V52.357H58.0391H58.0421C57.6305 52.3451 57.3053 52.0083 57.3053 51.597C57.3053 51.1857 57.6305 50.849 58.0421 50.837H64.8701H64.8671C65.0699 50.837 65.2638 50.9145 65.407 51.0576C65.5502 51.2006 65.6307 51.3944 65.6307 51.594V55.3701C65.6307 55.4148 65.6276 55.4625 65.6187 55.5072ZM70.8478 49.4929C71.7725 49.8506 72.3095 50.8192 72.1275 51.7937C71.9456 52.7682 71.0924 53.4746 70.0992 53.4746C69.1058 53.4746 68.2557 52.7683 68.0708 51.7937C67.8888 50.8192 68.4258 49.8505 69.3505 49.4929C69.3416 49.4482 69.3386 49.4005 69.3386 49.3528V46.3398H63.2683C63.0625 46.3487 62.8626 46.2712 62.7164 46.1282C62.5673 45.9851 62.4837 45.7854 62.4837 45.5798C62.4837 45.3741 62.5673 45.1774 62.7164 45.0344C62.8626 44.8913 63.0624 44.8138 63.2683 44.8198H70.0963C70.2991 44.8198 70.493 44.9003 70.6362 45.0403C70.7794 45.1834 70.8599 45.3771 70.8599 45.5798V49.3558V49.3528C70.8599 49.4005 70.8568 49.4452 70.8478 49.4929ZM70.0036 29.9061C70.994 29.9061 71.8471 30.6125 72.029 31.587C72.2109 32.5616 71.6741 33.5272 70.7464 33.8848C70.7553 33.9325 70.7613 33.9802 70.7613 34.0279V37.801C70.7613 38.2182 70.4212 38.558 70.0036 38.558H63.1697C62.752 38.558 62.412 38.2212 62.412 37.801C62.412 37.3837 62.752 37.044 63.1697 37.044H69.2429V34.0279C69.2429 33.9802 69.2459 33.9325 69.2519 33.8848C68.3302 33.5242 67.7962 32.5586 67.9781 31.584C68.1601 30.6125 69.0104 29.9061 70.0036 29.9061ZM64.8699 24.02H64.867C65.8603 24.017 66.7164 24.7234 66.8984 25.6979C67.0833 26.6725 66.5434 27.6411 65.6187 27.9987C65.6276 28.0434 65.6306 28.0911 65.6306 28.1358V31.9119C65.6306 32.1116 65.5501 32.3053 65.4069 32.4483C65.2637 32.5914 65.0698 32.6689 64.867 32.6689H58.042C57.6303 32.657 57.3052 32.3202 57.3052 31.9089C57.3052 31.4976 57.6303 31.1608 58.042 31.1489H64.1123L64.1093 28.1358C64.1093 28.0911 64.1153 28.0464 64.1242 28.0017C63.1995 27.6441 62.6596 26.6784 62.8415 25.7039C63.0235 24.7294 63.8766 24.023 64.8699 24.023L64.8699 24.02ZM10.3807 55.5098C9.45896 55.8674 8.92197 56.8331 9.10692 57.8046C9.28888 58.7762 10.1391 59.4825 11.1293 59.4825C12.1196 59.4825 12.9699 58.7762 13.1518 57.8046C13.3337 56.8331 12.7998 55.8674 11.875 55.5098C11.884 55.4651 11.8899 55.4174 11.8899 55.3727V52.3566H17.9602H17.9573C18.3689 52.3447 18.694 52.0079 18.694 51.5966C18.694 51.1854 18.3689 50.8486 17.9573 50.8367H11.1233H11.1263C10.7087 50.8367 10.3686 51.1764 10.3686 51.5937V55.3697C10.3686 55.4144 10.3716 55.4621 10.3806 55.5068L10.3807 55.5098ZM5.1545 49.4925H5.15748C4.22981 49.8532 3.69282 50.8188 3.8748 51.7933C4.05974 52.7679 4.90991 53.4742 5.90317 53.4742C6.89643 53.4742 7.74964 52.7679 7.93154 51.7933C8.11649 50.8188 7.57657 49.8531 6.65184 49.4925C6.66079 49.4478 6.66377 49.4001 6.66377 49.3554V46.3394H12.7341C12.9399 46.3483 13.1398 46.2708 13.2889 46.1278C13.4351 45.9847 13.5186 45.785 13.5186 45.5794C13.5186 45.3737 13.4351 45.1771 13.2889 45.034C13.1398 44.8909 12.9399 44.8135 12.7341 44.8194H5.90311C5.70028 44.8194 5.50638 44.8999 5.3632 45.04C5.22002 45.183 5.13948 45.3767 5.13948 45.5794V49.3554V49.3525C5.13948 49.4002 5.14246 49.4449 5.15141 49.4925H5.1545ZM5.99572 29.9058C5.00536 29.9058 4.15222 30.6121 3.97032 31.5866C3.78843 32.5612 4.32529 33.5268 5.253 33.8844C5.24405 33.9321 5.23809 33.9798 5.23809 34.0275V37.8006C5.23809 38.2178 5.57814 38.5576 5.99576 38.5576H12.8237C13.2443 38.5576 13.5844 38.2208 13.5844 37.8006C13.5844 37.3833 13.2443 37.0436 12.8237 37.0436H6.75642V34.0275C6.75642 33.9798 6.75045 33.9321 6.74449 33.8845C7.6662 33.5238 8.20319 32.5582 8.02121 31.5866C7.83925 30.6121 6.98898 29.9058 5.99572 29.9058ZM11.1264 24.0196C10.1331 24.0196 9.28294 24.726 9.10104 25.7005C8.9161 26.6751 9.45601 27.6407 10.3807 27.9983C10.3718 28.043 10.3688 28.0907 10.3688 28.1354V31.9115C10.3688 32.3287 10.7089 32.6685 11.1265 32.6685H17.9604H17.9574C18.3691 32.6566 18.6942 32.3198 18.6942 31.9085C18.6942 31.4972 18.3691 31.1605 17.9574 31.1485H11.8871L11.8901 28.1354C11.8901 28.0907 11.8842 28.046 11.8752 28.0013C12.7969 27.6407 13.3339 26.6751 13.149 25.7035C12.967 24.729 12.1168 24.0256 11.1265 24.0226L11.1264 24.0196ZM22.4199 15.1861C22.5988 15.2814 22.7331 15.4483 22.7868 15.645C22.8434 15.8417 22.8166 16.0504 22.7152 16.2292C22.6137 16.405 22.4467 16.5332 22.2468 16.5838C22.05 16.6345 21.8412 16.6047 21.6652 16.4974L17.2981 13.979C16.9461 13.7674 16.8298 13.3114 17.0356 12.9568C17.2384 12.5991 17.6918 12.471 18.0527 12.6677L22.4199 15.1861ZM29.4417 8.72773C29.6416 9.08835 29.5163 9.54135 29.1583 9.74995C28.8004 9.95559 28.344 9.83936 28.1322 9.48469L25.6086 5.12146C25.4028 4.76084 25.528 4.29891 25.889 4.09024C26.2499 3.88162 26.7123 4.00381 26.9241 4.36443L29.4417 8.72773ZM38.7604 6.63851C38.7604 7.05873 38.4203 7.39849 37.9997 7.39849C37.5791 7.39849 37.2391 7.05873 37.2391 6.63851V1.60471C37.2391 1.18448 37.5791 0.844727 37.9997 0.844727C38.4203 0.844727 38.7604 1.18448 38.7604 1.60471V6.63851ZM47.8675 9.48176C47.6587 9.84536 47.1934 9.97053 46.8324 9.75893C46.4685 9.55031 46.3432 9.08538 46.552 8.72474L49.0726 4.3615H49.0756C49.2844 3.99791 49.7497 3.87274 50.1107 4.08434C50.4746 4.29296 50.5999 4.75789 50.3911 5.11853L47.8675 9.48176ZM40.425 47.7016C40.8844 47.2456 41.2036 46.6674 41.3467 46.0356H34.653C34.9274 47.2516 35.8462 48.2232 37.0453 48.5689C38.2474 48.9176 39.542 48.5838 40.425 47.7016ZM46.8056 38.1524H29.1946C28.777 38.1524 28.3981 38.4027 28.2401 38.7902C28.079 39.1746 28.1685 39.6217 28.4668 39.9138C28.6607 40.1105 28.9232 40.2208 29.1946 40.2208H46.8056C47.2202 40.2178 47.5961 39.9674 47.7542 39.583C47.9153 39.1985 47.8258 38.7545 47.5334 38.4594C47.3395 38.2656 47.077 38.1554 46.8056 38.1524ZM43.9658 41.7407H32.037V41.9761C32.043 43.3798 33.1795 44.5153 34.5844 44.5243H41.4184H41.4154C42.8203 44.5153 43.9568 43.3798 43.9628 41.9761L43.9658 41.7407ZM32.037 36.6384H43.9627V36.5341C43.9418 34.9753 44.6279 33.4911 45.83 32.5016C46.2477 32.147 46.6414 31.7655 47.0024 31.3572C47.0203 31.3393 47.0382 31.3185 47.0561 31.3006L47.065 31.2916L47.062 31.2946C49.1262 28.958 50.2031 25.9151 50.0718 22.8036C49.9436 19.6922 48.6131 16.7505 46.364 14.5956C44.1149 12.4379 41.117 11.2339 37.9999 11.2339C34.8828 11.2339 31.8878 12.4379 29.6358 14.5956C27.3866 16.7504 26.0592 19.692 25.9279 22.8036C25.7967 25.9152 26.8765 28.958 28.9377 31.2946L28.9467 31.3035V31.3006C28.9646 31.3185 28.9795 31.3363 28.9944 31.3572C29.3583 31.7655 29.7521 32.147 30.1697 32.5016C31.3718 33.4911 32.058 34.9753 32.037 36.531L32.037 36.6384ZM31.1958 23.4773C31.1958 23.8975 30.8557 24.2372 30.4351 24.2372C30.0145 24.2372 29.6745 23.8975 29.6745 23.4773C29.6745 21.2718 30.5515 19.1558 32.1116 17.5941C33.6746 16.0354 35.7925 15.1592 37.9999 15.1592C38.4175 15.1592 38.7576 15.499 38.7576 15.9192C38.7576 16.3364 38.4175 16.6762 37.9999 16.6762C34.2443 16.6792 31.1988 19.7221 31.1988 23.4773L31.1958 23.4773Z" fill="white"/>
</svg>
