<svg width="64" height="65" viewBox="0 0 64 65" fill="none" xmlns="http://www.w3.org/2000/svg">
<path fill-rule="evenodd" clip-rule="evenodd" d="M40.9856 22.8942C41.2491 22.761 41.4141 22.4912 41.4141 22.1961C41.4141 21.9011 41.2491 21.6312 40.9856 21.498L34.4505 18.22C34.2102 18.0995 33.9234 18.1121 33.6957 18.2542C33.4662 18.3963 33.3263 18.6464 33.3263 18.9181V25.4741C33.3263 25.7458 33.4662 25.9959 33.6957 26.138C33.9234 26.2801 34.2102 26.2928 34.4505 26.1722L40.9856 22.8942ZM38.9004 22.1961L34.8808 24.2129V20.1793L38.9004 22.1961Z" fill="black"/>
<path fill-rule="evenodd" clip-rule="evenodd" d="M26.03 16.272V24.8176L19.7375 18.5047C19.2714 18.037 18.6406 17.775 17.9818 17.775C17.323 17.775 16.6906 18.037 16.2245 18.5047L16.223 18.5063C15.7569 18.974 15.4958 19.6086 15.4958 20.2696C15.4958 20.4256 15.5098 20.5815 15.5378 20.7327C15.5316 20.7545 15.5254 20.7764 15.5207 20.7982C15.5207 20.7982 14.4828 25.0796 13.6081 28.6968C12.8607 31.7808 11.2325 34.6589 8.9314 36.968C6.83855 39.0682 4.2858 41.6298 2.48816 43.4337C1.46892 44.4565 1.11934 45.9003 1.44251 47.21L1.17682 47.475C0.454348 48.2 0.0488281 49.1838 0.0488281 50.2097C0.0488281 51.2357 0.454348 52.2195 1.17682 52.9445C2.64508 54.4163 4.57324 56.3527 6.0415 57.8246C6.76397 58.5511 7.74437 58.958 8.76671 58.958C9.7875 58.958 10.7679 58.5511 11.4904 57.8246L11.7561 57.5595C12.7162 57.7965 13.7479 57.6702 14.632 57.1806C14.7019 57.2633 14.7765 57.3428 14.8542 57.4207L16.1064 58.679C16.397 58.9705 16.8118 59.0968 17.2158 59.0204C17.5436 58.9565 17.828 58.7632 18.0097 58.4887L22.9226 63.4203C23.527 64.0252 24.3458 64.3651 25.2003 64.3651C26.0533 64.3651 26.8721 64.0252 27.4765 63.4203L27.4781 63.4187C28.0809 62.8122 28.4212 61.9906 28.4212 61.133C28.4212 60.2771 28.0809 59.4554 27.4781 58.8489L20.7583 52.1072L21.3968 50.6104L21.9624 50.0445C24.2619 47.7354 27.1316 46.1014 30.2033 45.3515C33.8094 44.4721 38.0759 43.4322 38.0759 43.4322C38.0977 43.4275 38.1194 43.4213 38.1396 43.4135C38.2919 43.4431 38.4457 43.4571 38.6026 43.4571C39.2614 43.4571 39.8938 43.1952 40.3583 42.7274L40.3615 42.7243C40.8276 42.2581 41.0886 41.6236 41.0886 40.9625C41.0886 40.3014 40.8276 39.6669 40.3615 39.2007L34.316 33.1341H44.0391C46.2671 33.1341 48.0741 31.3208 48.0741 29.085V15.3069C48.0741 13.0711 46.2671 11.2578 44.0391 11.2578H37.0551C37.0039 10.3161 36.6201 9.38844 35.9023 8.66812L35.9007 8.66656C34.3548 7.11522 31.8502 7.11522 30.3058 8.66656L29.9842 8.9893L29.4917 8.49505C28.749 7.75135 27.7438 7.3335 26.6934 7.3335C25.6447 7.3335 24.6379 7.75135 23.8968 8.49505L23.8952 8.49817C23.1525 9.24188 22.7361 10.2522 22.7361 11.3046C22.7361 12.3586 23.1525 13.3674 23.8952 14.1126C24.1873 14.4057 25.0745 15.3038 26.03 16.272ZM22.5357 56.0955L20.0995 53.6507L18.6856 56.9624L24.0226 62.3164C24.3349 62.6298 24.7575 62.806 25.2003 62.806C25.6416 62.806 26.0657 62.6298 26.378 62.3164L26.3796 62.3149C26.6919 62.0015 26.8675 61.5774 26.8675 61.133C26.8675 60.6903 26.6919 60.2646 26.3796 59.9512L23.6342 57.1978L23.0329 57.8027C22.7284 58.1068 22.2374 58.1068 21.9329 57.8027C21.6299 57.4987 21.6299 57.0045 21.9329 56.7004L22.5357 56.0955ZM2.14479 48.7208L10.249 56.8548C9.83566 57.204 9.31206 57.3989 8.76671 57.3989C8.1561 57.3989 7.57191 57.1557 7.13997 56.7222L2.2753 51.8422C1.84492 51.4087 1.60254 50.8225 1.60254 50.2097C1.60254 49.6625 1.7952 49.1355 2.14479 48.7208ZM17.1117 56.6864L19.7748 50.453C19.1968 50.1645 18.479 50.2627 17.9973 50.7445L15.9526 52.7979C14.9831 53.7692 14.9831 55.3455 15.9526 56.3184L16.874 57.243L16.9921 56.967C17.0138 56.8688 17.0527 56.7721 17.1117 56.6864ZM16.7031 22.5148L15.1167 29.0663C14.3041 32.4216 12.5345 35.557 10.0299 38.0703L6.20308 41.912L11.6193 47.3472C11.9223 47.6512 11.9223 48.1454 11.6193 48.4495C11.3164 48.7535 10.8238 48.7535 10.5208 48.4495L5.10461 43.0143L3.58663 44.536C2.64353 45.4824 2.64353 47.0166 3.58663 47.963L11.0041 55.4063C11.7809 56.1859 12.9555 56.3247 13.8722 55.8195C13.4139 54.4163 13.7417 52.8104 14.8542 51.694L16.8988 49.6422C17.915 48.6225 19.464 48.4588 20.6495 49.1558L20.8639 48.9422C23.1945 46.6019 26.0626 44.9024 29.1452 44.02L24.0987 38.9575C23.7958 38.6534 23.7958 38.1592 24.0987 37.8551C24.4033 37.5511 24.8942 37.5511 25.1988 37.8551L30.9009 43.5772L36.3653 42.2457L16.7031 22.5148ZM18.639 19.607L39.263 40.303C39.437 40.4776 39.5349 40.7146 39.5349 40.9625C39.5349 41.2104 39.437 41.4474 39.263 41.622L39.2599 41.6251C39.0859 41.7998 38.8497 41.898 38.6026 41.898C38.3556 41.898 38.1194 41.7998 37.9454 41.6251C33.9679 37.6337 21.299 24.9206 17.3214 20.9292C17.1474 20.7545 17.0495 20.516 17.0495 20.2696C17.0495 20.0217 17.1474 19.7848 17.3214 19.6086L17.323 19.607C17.4986 19.4324 17.7347 19.3342 17.9818 19.3342C18.2273 19.3342 18.465 19.4324 18.639 19.607ZM27.5837 26.3768L30.1753 28.979C30.3136 28.7591 30.556 28.6126 30.8341 28.6126C30.9615 28.6126 31.0904 28.6126 31.2225 28.6126C31.6513 28.6126 31.9994 28.9618 31.9994 29.3922C31.9994 29.7773 31.7197 30.0984 31.3546 30.1608L32.7716 31.5827C32.8089 31.5781 32.8461 31.5749 32.8865 31.5749C36.6869 31.5749 40.767 31.5749 44.0391 31.5749C45.4095 31.5749 46.5204 30.4602 46.5204 29.085V15.3069C46.5204 13.9318 45.4095 12.817 44.0391 12.817H36.8299C36.6388 13.3518 36.3296 13.8538 35.9023 14.2826L35.7485 14.4369C35.8868 14.5835 35.9722 14.7815 35.9722 14.9998C35.9722 15.4504 35.6071 15.8168 35.1565 15.8168C35.0213 15.8168 34.8846 15.8168 34.7494 15.8168C34.6391 15.8168 34.5335 15.7949 34.4356 15.7544L31.8005 18.3987C31.3142 18.8867 30.6554 19.1595 29.9687 19.1595C29.2819 19.1595 28.6232 18.8867 28.1384 18.3987C27.969 18.2287 27.781 18.0401 27.5837 17.8405V26.3768ZM34.3299 30.1717C34.4589 30.1717 34.5879 30.1717 34.7184 30.1717C35.1472 30.1717 35.4952 29.8225 35.4952 29.3922C35.4952 28.9618 35.1472 28.6126 34.7184 28.6126C34.5879 28.6126 34.4589 28.6126 34.3299 28.6126C33.9011 28.6126 33.5531 28.9618 33.5531 29.3922C33.5531 29.8225 33.9011 30.1717 34.3299 30.1717ZM37.8258 30.1717C37.9548 30.1717 38.0853 30.1717 38.2142 30.1717C38.643 30.1717 38.9911 29.8225 38.9911 29.3922C38.9911 28.9618 38.643 28.6126 38.2142 28.6126C38.0853 28.6126 37.9548 28.6126 37.8258 28.6126C37.397 28.6126 37.0489 28.9618 37.0489 29.3922C37.0489 29.8225 37.397 30.1717 37.8258 30.1717ZM41.3216 30.1717C41.4522 30.1717 41.5811 30.1717 41.7101 30.1717C42.1389 30.1717 42.4869 29.8225 42.4869 29.3922C42.4869 28.9618 42.1389 28.6126 41.7101 28.6126C41.5811 28.6126 41.4522 28.6126 41.3216 28.6126C40.8928 28.6126 40.5448 28.9618 40.5448 29.3922C40.5448 29.8225 40.8928 30.1717 41.3216 30.1717ZM44.8175 30.1717C44.9387 30.1717 45.0599 30.1717 45.1764 30.1717C45.6052 30.1717 45.9533 29.8225 45.9533 29.3922C45.9533 28.9618 45.6052 28.6126 45.1764 28.6126C45.0599 28.6126 44.9387 28.6126 44.8175 28.6126C44.3887 28.6126 44.0406 28.9618 44.0406 29.3922C44.0406 29.8225 44.3887 30.1717 44.8175 30.1717ZM27.4656 15.5205L29.2369 17.2964C29.4311 17.4913 29.6937 17.6004 29.9687 17.6004C30.2437 17.6004 30.5078 17.4913 30.702 17.2964L34.8038 13.1803C35.7423 12.2385 35.7423 10.7121 34.8038 9.77043L34.8023 9.76887C33.8638 8.82715 32.3427 8.82715 31.4043 9.76887C30.9599 10.2148 30.6104 10.5656 30.5435 10.6326C30.2608 10.9148 29.9842 10.8712 29.9842 10.8712C29.9811 10.8712 29.7045 10.9148 29.4202 10.6295C29.341 10.5484 28.9137 10.1212 28.3932 9.59892C27.9426 9.14677 27.332 8.89263 26.6934 8.89263C26.0564 8.89263 25.4458 9.14677 24.9952 9.59892L24.9937 9.60048C24.5431 10.0526 24.2899 10.6654 24.2899 11.3046C24.2899 11.9439 24.5431 12.5582 24.9937 13.0103C25.5142 13.5326 25.9414 13.9598 26.0207 14.0409C26.0704 14.0892 26.1092 14.1391 26.1388 14.1875L27.217 15.2695C27.318 15.3334 27.4035 15.4192 27.4656 15.5205ZM38.4146 15.8168C38.5514 15.8168 38.6865 15.8168 38.8217 15.8168C39.2723 15.8168 39.6374 15.4504 39.6374 14.9998C39.6374 14.5492 39.2723 14.1828 38.8217 14.1828C38.6865 14.1828 38.5514 14.1828 38.4146 14.1828C37.9656 14.1828 37.6005 14.5492 37.6005 14.9998C37.6005 15.4504 37.9656 15.8168 38.4146 15.8168ZM42.0799 15.8168C42.2166 15.8168 42.3533 15.8168 42.4869 15.8168C42.9375 15.8168 43.3026 15.4504 43.3026 14.9998C43.3026 14.5492 42.9375 14.1828 42.4869 14.1828C42.3533 14.1828 42.2166 14.1828 42.0799 14.1828C41.6308 14.1828 41.2657 14.5492 41.2657 14.9998C41.2657 15.4504 41.6308 15.8168 42.0799 15.8168Z" fill="black"/>
<path fill-rule="evenodd" clip-rule="evenodd" d="M49.651 25.0815C50.1715 25.6038 50.8238 26.2874 50.6779 26.141C50.6779 26.141 52.5645 28.0342 53.8944 29.3687C54.3801 29.8561 55.0383 30.1295 55.7254 30.1295C56.4125 30.1295 57.0708 29.8561 57.5565 29.3687C58.6746 28.2467 60.322 26.5935 61.6585 25.2524C63.2038 23.7017 63.2038 21.1881 61.6585 19.6374L61.6563 19.636C60.1117 18.0853 57.6069 18.0853 56.0616 19.636L55.7395 19.9592L55.2479 19.4651C54.5059 18.7206 53.4997 18.3022 52.4505 18.3022C51.4013 18.3022 50.3951 18.7206 49.6532 19.4651L49.651 19.4673C48.9091 20.2118 48.4922 21.2215 48.4922 22.2744C48.4922 23.3272 48.9091 24.337 49.651 25.0815ZM51.8945 25.1573C51.8648 25.1082 51.8256 25.0592 51.7775 25.0102C51.6968 24.9299 51.2703 24.5019 50.7498 23.9796C50.2988 23.5271 50.0456 22.9141 50.0456 22.2744C50.0456 21.6354 50.2988 21.0217 50.7498 20.5699L50.7512 20.5677C51.2022 20.1159 51.813 19.8618 52.4505 19.8618C53.0873 19.8618 53.6989 20.1159 54.1491 20.5677C54.6696 21.09 55.0968 21.5187 55.1768 21.599C55.4604 21.8836 55.7373 21.8412 55.7395 21.8412C55.7425 21.8412 56.0179 21.8851 56.3 21.6012C56.3659 21.5358 56.7169 21.1836 57.1604 20.7386C58.0985 19.7964 59.6193 19.7964 60.5582 20.7386L60.5597 20.7401C61.4978 21.6815 61.4978 23.2084 60.5597 24.1498L56.4585 28.266C56.2637 28.4607 56.0001 28.5707 55.7254 28.5707C55.4507 28.5707 55.1871 28.4607 54.9924 28.266L51.8945 25.1573Z" fill="black"/>
<path fill-rule="evenodd" clip-rule="evenodd" d="M55.0898 10.2754C55.3961 10.5827 57.5859 12.7972 57.5859 12.7972C57.9318 13.1439 58.401 13.3388 58.8897 13.3388C59.3785 13.3388 59.8476 13.1439 60.1935 12.7972L62.6064 10.3755C63.6406 9.33815 63.6406 7.65605 62.6064 6.61829L62.6055 6.61741C61.5836 5.59233 59.9352 5.58009 58.8984 6.58069L58.8348 6.51687C58.3382 6.01854 57.6652 5.73877 56.963 5.73877C56.2608 5.73877 55.5873 6.01854 55.0907 6.51687L55.0898 6.51818C54.5932 7.01652 54.3145 7.69189 54.3145 8.39656C54.3145 9.10122 54.5932 9.77703 55.0898 10.2754ZM56.8868 9.89069C56.8611 9.85353 56.8297 9.81638 56.7931 9.77922C56.7456 9.73201 56.4947 9.48022 56.1885 9.17247C55.9833 8.96702 55.8679 8.68769 55.8679 8.39656C55.8679 8.10542 55.9833 7.82653 56.1885 7.62064L56.1893 7.61933C56.3945 7.41344 56.6729 7.29803 56.963 7.29803C57.2531 7.29803 57.531 7.41344 57.7362 7.61933C58.0425 7.92664 58.2938 8.17886 58.3409 8.22607C58.621 8.50759 58.8958 8.463 58.898 8.46257C58.9006 8.463 59.1742 8.50803 59.4538 8.22739C59.4926 8.18892 59.6991 7.98171 59.96 7.71987C60.3869 7.29104 61.0796 7.29104 61.5065 7.71987L61.5078 7.72075C61.9351 8.14958 61.9351 8.84418 61.5078 9.27301L59.0945 11.6947C59.0404 11.749 58.9664 11.78 58.8897 11.78C58.8131 11.78 58.739 11.7494 58.685 11.6947L56.8868 9.89069Z" fill="black"/>
<path fill-rule="evenodd" clip-rule="evenodd" d="M42.3283 4.62791C42.6018 4.90236 44.5576 6.88055 44.5576 6.88055C44.882 7.20575 45.322 7.38885 45.7807 7.38885C46.2394 7.38885 46.6794 7.20575 47.0035 6.88055L49.1588 4.7177C50.1147 3.75848 50.1147 2.20349 49.1588 1.24427C49.1584 1.24427 49.158 1.24388 49.1576 1.24349C48.2329 0.315106 46.7514 0.285434 45.7905 1.15408C45.3314 0.693407 44.7089 0.43457 44.06 0.43457C43.4107 0.43457 42.7882 0.693016 42.3291 1.15369C42.3291 1.15408 42.3287 1.15448 42.3283 1.15487C41.8693 1.61555 41.6113 2.24019 41.6113 2.89139C41.6113 3.54297 41.8693 4.16762 42.3283 4.62791ZM44.0565 4.17231C44.0316 4.13717 44.0016 4.10242 43.967 4.06729C43.9246 4.02512 43.7005 3.80025 43.427 3.5258C43.2593 3.35753 43.1652 3.12914 43.1652 2.89139C43.1652 2.65363 43.2593 2.42563 43.427 2.25737C43.4274 2.25698 43.4278 2.25659 43.4278 2.2562C43.5955 2.08793 43.8227 1.99346 44.06 1.99346C44.2969 1.99346 44.5241 2.08793 44.6918 2.2562C44.9653 2.53065 45.1898 2.75592 45.2318 2.79808C45.5115 3.07878 45.7858 3.03388 45.7881 3.03349C45.7908 3.03388 46.064 3.07956 46.3433 2.79925C46.3779 2.7649 46.5623 2.57984 46.7954 2.34599C47.1443 1.9958 47.71 1.9958 48.0594 2.34599C48.0594 2.34638 48.0598 2.34638 48.0601 2.34677C48.4091 2.69696 48.4091 3.265 48.0601 3.6152L45.9052 5.77804C45.8722 5.81083 45.8274 5.82957 45.7807 5.82957C45.734 5.82957 45.6893 5.81122 45.6562 5.77804L44.0565 4.17231Z" fill="black"/>
<path fill-rule="evenodd" clip-rule="evenodd" d="M11.5309 17.0981C11.9281 17.5269 12.4799 17.7795 13.0645 17.8004C13.6473 17.8216 14.2163 17.6089 14.6438 17.21L14.6459 17.2081C15.0734 16.8092 15.326 16.2552 15.3474 15.6703C15.369 15.0836 15.158 14.5131 14.7607 14.0843C14.3809 13.6743 13.9465 13.2056 13.5674 12.7964C13.1694 12.3668 12.6176 12.1142 12.0338 12.0941C11.4502 12.0722 10.882 12.2856 10.4545 12.6845L10.4524 12.6865C10.0249 13.0854 9.77147 13.6386 9.75089 14.2242C9.7285 14.8101 9.93951 15.3806 10.3375 15.8102L11.5309 17.0981ZM12.6702 16.035L11.4769 14.7471C11.3596 14.6205 11.2967 14.4538 11.3034 14.2801C11.3097 14.1082 11.383 13.9454 11.5095 13.8274L11.5116 13.8254C11.6381 13.7074 11.8052 13.6459 11.9765 13.652C12.1496 13.6579 12.3108 13.733 12.4281 13.8595L13.6214 15.1474C13.7387 15.274 13.8015 15.4407 13.7941 15.6136C13.7885 15.7864 13.7145 15.9483 13.588 16.0664L13.5859 16.0683C13.4594 16.1863 13.2931 16.2487 13.121 16.2417C12.9486 16.2366 12.7875 16.1616 12.6702 16.035Z" fill="black"/>
<path fill-rule="evenodd" clip-rule="evenodd" d="M16.7341 12.9176C16.7341 13.5033 16.9666 14.0655 17.3804 14.4804C17.7927 14.8943 18.3534 15.1274 18.9369 15.1274H18.9398C19.5233 15.1274 20.084 14.8943 20.4963 14.4804C20.91 14.0655 21.1426 13.5033 21.1426 12.9176C21.1426 12.3576 21.1426 11.7173 21.1426 11.1585C21.1426 10.5717 20.91 10.0095 20.4963 9.59564C20.084 9.18067 19.5233 8.94865 18.9398 8.94865H18.9369C18.3534 8.94865 17.7927 9.18067 17.3804 9.59564C16.9666 10.0095 16.7341 10.5717 16.7341 11.1585V12.9176ZM18.2892 12.9176V11.1585C18.2892 10.9856 18.3562 10.8205 18.4789 10.6978C18.6002 10.5762 18.7643 10.507 18.9369 10.507H18.9398C19.1124 10.507 19.2765 10.5762 19.3977 10.6978C19.5204 10.8205 19.5875 10.9856 19.5875 11.1585V12.9176C19.5875 13.0905 19.5204 13.2556 19.3977 13.3772C19.2765 13.4999 19.1124 13.568 18.9398 13.568H18.9369C18.7643 13.568 18.6002 13.4999 18.4789 13.3772C18.3562 13.2556 18.2892 13.0905 18.2892 12.9176Z" fill="black"/>
<path fill-rule="evenodd" clip-rule="evenodd" d="M42.2552 47.9267C42.664 48.3082 43.1314 48.7443 43.5394 49.125C43.9677 49.5247 44.5364 49.7368 45.1201 49.7148C45.7037 49.6946 46.2547 49.4408 46.6519 49.0121L46.6538 49.0101C47.051 48.5814 47.2632 48.0115 47.2409 47.426C47.2204 46.8401 46.9683 46.2863 46.54 45.8867C46.132 45.506 45.6646 45.0698 45.2558 44.6884C44.8282 44.2895 44.2595 44.0773 43.675 44.0986C43.0923 44.1195 42.5404 44.3726 42.1433 44.8012L42.1413 44.8033C41.7442 45.232 41.5327 45.8027 41.5542 46.3874C41.5755 46.974 41.8277 47.5278 42.2552 47.9267ZM44.5978 47.9827L43.3136 46.7844C43.1874 46.6666 43.1125 46.5049 43.1073 46.332C43.1003 46.1593 43.1623 45.9924 43.2798 45.8656L43.2817 45.8635C43.3992 45.7367 43.5605 45.6625 43.7327 45.657C43.9049 45.6497 44.0711 45.7129 44.1973 45.8307L45.4815 47.029C45.6077 47.1468 45.6826 47.3085 45.6887 47.4822C45.6949 47.6541 45.6337 47.8217 45.5162 47.9485L45.5143 47.9506C45.3968 48.0774 45.2346 48.1509 45.0633 48.1571C44.8902 48.1637 44.7241 48.1005 44.5978 47.9827Z" fill="black"/>
<path fill-rule="evenodd" clip-rule="evenodd" d="M46.4189 42.7071C46.977 42.7071 47.615 42.7071 48.172 42.7071C48.7567 42.7071 49.3169 42.4737 49.7294 42.0585C50.1429 41.6448 50.3741 41.0821 50.3741 40.4966V40.4937C50.3741 39.9082 50.1429 39.3455 49.7294 38.9317C49.3169 38.5166 48.7567 38.2832 48.172 38.2832C47.615 38.2832 46.977 38.2832 46.4189 38.2832C45.8353 38.2832 45.2751 38.5166 44.8615 38.9317C44.4491 39.3455 44.2168 39.9082 44.2168 40.4937V40.4966C44.2168 41.0821 44.4491 41.6448 44.8615 42.0585C45.2751 42.4737 45.8353 42.7071 46.4189 42.7071ZM48.172 41.1466H46.4189C46.2466 41.1466 46.0821 41.0793 45.9609 40.9561C45.8387 40.8344 45.7709 40.6698 45.7709 40.4966V40.4937C45.7709 40.3205 45.8387 40.1558 45.9609 40.0341C46.0821 39.911 46.2466 39.8437 46.4189 39.8437H48.172C48.3443 39.8437 48.5088 39.911 48.6311 40.0341C48.7522 40.1558 48.8212 40.3205 48.8212 40.4937V40.4966C48.8212 40.6698 48.7522 40.8344 48.6311 40.9561C48.5088 41.0793 48.3443 41.1466 48.172 41.1466Z" fill="black"/>
</svg>
