<svg width="56" height="60" viewBox="0 0 56 60" fill="none" xmlns="http://www.w3.org/2000/svg">
<path fill-rule="evenodd" clip-rule="evenodd" d="M6.81096 1.69045L1.526 6.97473H5.7998C6.06748 6.97348 6.32384 6.86664 6.51318 6.67743C6.70252 6.48821 6.80953 6.23192 6.81096 5.96425V1.69045ZM9.39496 21.4784C9.5268 21.6104 9.60083 21.7893 9.60076 21.9758C9.6007 22.1623 9.52655 22.3411 9.39462 22.4729C9.2627 22.6048 9.08381 22.6788 8.8973 22.6787C8.7108 22.6787 8.53196 22.6045 8.40012 22.4726L5.22928 19.3018C5.16392 19.2365 5.11207 19.1589 5.07669 19.0736C5.04131 18.9882 5.0231 18.8967 5.0231 18.8043C5.0231 18.712 5.04131 18.6205 5.07669 18.5351C5.11207 18.4498 5.16392 18.3722 5.22928 18.3069L8.40012 15.1361C8.46444 15.0671 8.54197 15.0118 8.62809 14.9735C8.71422 14.9351 8.80718 14.9144 8.90145 14.9127C8.99572 14.911 9.08937 14.9283 9.17684 14.9635C9.2643 14.9987 9.34379 15.0511 9.41057 15.1177C9.47736 15.1843 9.53007 15.2636 9.56559 15.3509C9.6011 15.4383 9.61868 15.5318 9.61729 15.6261C9.61589 15.7204 9.59556 15.8134 9.55748 15.8997C9.5194 15.9859 9.46437 16.0637 9.39564 16.1282L6.7212 18.8027L9.39564 21.4764L9.39496 21.4784ZM17.2558 16.1282C17.1283 15.9955 17.0579 15.8181 17.0598 15.6341C17.0616 15.45 17.1356 15.2741 17.2657 15.144C17.3958 15.0138 17.5718 14.9399 17.7558 14.9381C17.9398 14.9362 18.1172 15.0066 18.2499 15.134L21.4187 18.3042C21.4841 18.3695 21.5359 18.4471 21.5713 18.5324C21.6067 18.6178 21.6249 18.7092 21.6249 18.8016C21.6249 18.894 21.6067 18.9855 21.5713 19.0709C21.5359 19.1562 21.4841 19.2337 21.4187 19.299L18.2472 22.4726C18.1131 22.5922 17.9383 22.6558 17.7587 22.6505C17.5791 22.6453 17.4084 22.5714 17.2815 22.4442C17.1546 22.317 17.0813 22.1461 17.0765 21.9665C17.0717 21.7869 17.1359 21.6122 17.2558 21.4784L19.9295 18.8047L17.2558 16.1282ZM12.4468 24.7914C12.423 24.8807 12.3819 24.9644 12.3257 25.0378C12.2695 25.1112 12.1995 25.1728 12.1195 25.2192C12.0395 25.2655 11.9512 25.2956 11.8596 25.3078C11.768 25.32 11.6749 25.314 11.5856 25.2902C11.4052 25.2421 11.2514 25.1244 11.1578 24.9629C11.1115 24.8829 11.0814 24.7946 11.0692 24.703C11.057 24.6114 11.063 24.5183 11.0868 24.429L14.1978 12.8173C14.2459 12.6369 14.3636 12.4831 14.5251 12.3895C14.6866 12.296 14.8787 12.2704 15.059 12.3185C15.2394 12.3666 15.3932 12.4843 15.4868 12.6458C15.5803 12.8073 15.6059 12.9994 15.5578 13.1797L12.4468 24.7914ZM5.72704 34.7745C5.54056 34.7745 5.36172 34.7004 5.22986 34.5686C5.098 34.4367 5.02392 34.2579 5.02392 34.0714C5.02392 33.8849 5.098 33.7061 5.22986 33.5742C5.36172 33.4423 5.54056 33.3682 5.72704 33.3682H35.1608C35.3473 33.3682 35.5262 33.4423 35.658 33.5742C35.7899 33.7061 35.864 33.8849 35.864 34.0714C35.864 34.2579 35.7899 34.4367 35.658 34.5686C35.5262 34.7004 35.3473 34.7745 35.1608 34.7745H5.72704ZM23.9816 16.9156C23.7989 16.91 23.6255 16.8334 23.4982 16.7021C23.3709 16.5708 23.2997 16.3951 23.2997 16.2122C23.2997 16.0293 23.3709 15.8536 23.4982 15.7223C23.6255 15.591 23.7989 15.5144 23.9816 15.5087H35.1608C35.3436 15.5144 35.517 15.591 35.6443 15.7223C35.7716 15.8536 35.8428 16.0293 35.8428 16.2122C35.8428 16.3951 35.7716 16.5708 35.6443 16.7021C35.517 16.8334 35.3436 16.91 35.1608 16.9156H23.9816ZM23.9816 22.8684C23.7952 22.8684 23.6163 22.7943 23.4845 22.6624C23.3526 22.5306 23.2785 22.3517 23.2785 22.1652C23.2785 21.9788 23.3526 21.7999 23.4845 21.6681C23.6163 21.5362 23.7952 21.4621 23.9816 21.4621H35.1608C35.3473 21.4621 35.5262 21.5362 35.658 21.6681C35.7899 21.7999 35.864 21.9788 35.864 22.1652C35.864 22.3517 35.7899 22.5306 35.658 22.6624C35.5262 22.7943 35.3473 22.8684 35.1608 22.8684H23.9816ZM5.72704 28.8218C5.54426 28.8161 5.37087 28.7395 5.24358 28.6082C5.1163 28.4769 5.04512 28.3012 5.04512 28.1183C5.04512 27.9354 5.1163 27.7597 5.24358 27.6284C5.37087 27.4971 5.54426 27.4205 5.72704 27.4148H35.1608C35.3436 27.4205 35.517 27.4971 35.6443 27.6284C35.7716 27.7597 35.8428 27.9354 35.8428 28.1183C35.8428 28.3012 35.7716 28.4769 35.6443 28.6082C35.517 28.7395 35.3436 28.8161 35.1608 28.8218H5.72704ZM42.4838 45.3267L41.3611 45.9034V51.8153C41.3596 52.456 41.1045 53.07 40.6515 53.5231C40.1984 53.9761 39.5844 54.2313 38.9437 54.2327H5.69576V58.2937C5.69684 58.5613 5.80364 58.8177 5.99291 59.007C6.18218 59.1963 6.43858 59.3031 6.70624 59.3041H44.1062C44.3739 59.3031 44.6303 59.1963 44.8196 59.007C45.0088 58.8177 45.1156 58.5613 45.1167 58.2937V41.5507L42.7898 45.0704C42.7147 45.1836 42.6084 45.2726 42.4838 45.3267ZM35.7749 41.2719L40.8184 44.6073L40.3968 44.8235C40.356 44.8399 40.3168 44.8601 40.2799 44.8841L35.3288 47.4266L35.4274 46.0666C35.4274 46.0414 35.4322 46.0163 35.4328 45.9904L35.7728 41.2712L35.7749 41.2719ZM39.9548 31.5044L34.7868 39.321H5.72704C5.54426 39.3267 5.37087 39.4033 5.24358 39.5346C5.1163 39.6659 5.04512 39.8416 5.04512 40.0244C5.04512 40.2073 5.1163 40.383 5.24358 40.5143C5.37087 40.6456 5.54426 40.7222 5.72704 40.7279H34.406L34.0762 45.2744H5.72704C5.54056 45.2744 5.36172 45.3484 5.22986 45.4803C5.098 45.6122 5.02392 45.791 5.02392 45.9775C5.02392 46.164 5.098 46.3428 5.22986 46.4747C5.36172 46.6065 5.54056 46.6806 5.72704 46.6806H33.9742L33.8382 48.5703C33.8294 48.699 33.856 48.8276 33.9153 48.9422C33.9747 49.0567 34.0643 49.1527 34.1746 49.2197C34.2848 49.2867 34.4113 49.322 34.5403 49.3219C34.6693 49.3218 34.7957 49.2862 34.9058 49.2191L39.9555 46.6255V51.8153C39.9541 52.083 39.8471 52.3393 39.6577 52.5285C39.4684 52.7177 39.212 52.8245 38.9444 52.8258H1.54436C1.27669 52.8245 1.02033 52.7177 0.830987 52.5285C0.641647 52.3393 0.534634 52.083 0.533203 51.8153V8.38165H5.80116C6.44186 8.38021 7.0559 8.12506 7.50894 7.67202C7.96198 7.21898 8.21713 6.60494 8.21856 5.96425V0.696289H38.9437C39.2114 0.697539 39.4677 0.80438 39.6571 0.993592C39.8464 1.1828 39.9534 1.4391 39.9548 1.70677V31.5044ZM48.2298 21.5369L54.0995 25.4258L55.2678 23.6653C55.4474 23.3917 55.5115 23.0582 55.446 22.7375C55.3805 22.4168 55.1908 22.135 54.9182 21.9538L51.1062 19.4323C50.8326 19.2527 50.499 19.1886 50.1783 19.2541C49.8576 19.3196 49.5759 19.5093 49.3946 19.7818L48.2298 21.5369ZM45.1174 21.2792V8.18513C45.1163 7.91746 45.0095 7.66107 44.8203 7.4718C44.631 7.28253 44.3746 7.17572 44.1069 7.17465H41.3611V29.378L44.0886 25.2538C43.8085 25.0077 43.6268 24.6687 43.5769 24.2992C43.5269 23.9298 43.612 23.5547 43.8166 23.243L45.0984 21.3084L45.1181 21.2792H45.1174ZM46.3849 22.0231C46.4092 22.0244 46.4327 22.0321 46.4529 22.0456L54.3613 27.2802C54.3913 27.3002 54.4122 27.3312 54.4193 27.3665C54.4265 27.4018 54.4193 27.4385 54.3994 27.4686L53.1176 29.4032C53.0982 29.4325 53.0683 29.4532 53.034 29.461C52.9977 29.4682 52.9601 29.4608 52.9292 29.4406L45.0242 24.2046C44.9949 24.1852 44.9742 24.1552 44.9664 24.1209C44.9593 24.0848 44.9664 24.0473 44.9862 24.0162L46.1891 22.2006C46.2651 22.154 46.3316 22.0933 46.3849 22.0218V22.0231ZM48.771 28.3723L51.1198 29.9322L45.2595 38.7926C45.2405 38.8177 45.2232 38.844 45.2078 38.8715L42.0078 43.7104L39.655 42.1552L48.771 28.3723ZM41.27 32.0599C41.2545 32.0875 41.237 32.1139 41.2176 32.1388L36.1332 39.8262L38.4847 41.3814L47.6014 27.5971L45.2514 26.0399L41.27 32.0599Z" fill="white"/>
</svg>
