<svg width="66" height="66" viewBox="0 0 66 66" fill="none" xmlns="http://www.w3.org/2000/svg">
<path d="M58.9669 42.4669L45.375 56.0588L40.0331 50.7169L37.125 53.625L45.375 61.875L61.875 45.375L58.9669 42.4669ZM20.625 41.25H33V45.375H20.625V41.25ZM20.625 33H37.125V37.125H20.625V33Z" fill="white"/>
<path d="M16.5 8.25H33V20.625C33 22.8937 34.8563 24.75 37.125 24.75H49.5V37.125H53.625V20.625C53.625 20.0063 53.4188 19.5938 53.0063 19.1813L38.5688 4.74375C38.1563 4.33125 37.7437 4.125 37.125 4.125H16.5C14.2312 4.125 12.375 5.98125 12.375 8.25V57.75C12.375 60.0187 14.2312 61.875 16.5 61.875H30.9375V57.75H16.5V8.25ZM37.125 9.075L48.675 20.625H37.125V9.075Z" fill="white"/>
</svg>
