<svg width="42" height="63" viewBox="0 0 42 63" fill="none" xmlns="http://www.w3.org/2000/svg">
<path opacity="0.2" fill-rule="evenodd" clip-rule="evenodd" d="M6.40002 6.4001C6.40002 5.12706 6.90574 3.90616 7.80591 3.00599C8.70609 2.10581 9.92699 1.6001 11.2 1.6001H36.8C38.0731 1.6001 39.294 2.10581 40.1941 3.00599C41.0943 3.90616 41.6 5.12706 41.6 6.4001V57.6001C41.6 58.8731 41.0943 60.094 40.1941 60.9942C39.294 61.8944 38.0731 62.4001 36.8 62.4001H11.2C9.92699 62.4001 8.70609 61.8944 7.80591 60.9942C6.90574 60.094 6.40002 58.8731 6.40002 57.6001V6.4001Z" fill="url(#paint0_linear_5649_3432)"/>
<path fill-rule="evenodd" clip-rule="evenodd" d="M0 4.8C0 3.52696 0.505712 2.30606 1.40589 1.40589C2.30606 0.505713 3.52696 0 4.8 0H33.6C34.873 0 36.0939 0.505713 36.9941 1.40589C37.8943 2.30606 38.4 3.52696 38.4 4.8V56C38.4 57.273 37.8943 58.4939 36.9941 59.3941C36.0939 60.2943 34.873 60.8 33.6 60.8H4.8C3.52696 60.8 2.30606 60.2943 1.40589 59.3941C0.505712 58.4939 0 57.273 0 56V4.8ZM4.8 3.2C4.37565 3.2 3.96869 3.36857 3.66863 3.66863C3.36857 3.96869 3.2 4.37565 3.2 4.8V56C3.2 56.4243 3.36857 56.8313 3.66863 57.1314C3.96869 57.4314 4.37565 57.6 4.8 57.6H33.6C34.0243 57.6 34.4313 57.4314 34.7314 57.1314C35.0314 56.8313 35.2 56.4243 35.2 56V4.8C35.2 4.37565 35.0314 3.96869 34.7314 3.66863C34.4313 3.36857 34.0243 3.2 33.6 3.2H4.8Z" fill="url(#paint1_linear_5649_3432)"/>
<path fill-rule="evenodd" clip-rule="evenodd" d="M11.2 7.9998C11.2 7.15111 11.5371 6.33718 12.1372 5.73706C12.7373 5.13695 13.5513 4.7998 14.4 4.7998H23.9999C24.8486 4.7998 25.6626 5.13695 26.2627 5.73706C26.8628 6.33718 27.1999 7.15111 27.1999 7.9998C27.1999 8.8485 26.8628 9.66243 26.2627 10.2625C25.6626 10.8627 24.8486 11.1998 23.9999 11.1998H14.4C13.5513 11.1998 12.7373 10.8627 12.1372 10.2625C11.5371 9.66243 11.2 8.8485 11.2 7.9998Z" fill="url(#paint2_linear_5649_3432)"/>
<defs>
<linearGradient id="paint0_linear_5649_3432" x1="6.40002" y1="32.0001" x2="41.6" y2="32.0001" gradientUnits="userSpaceOnUse">
<stop stop-color="#33FCFE"/>
<stop offset="1" stop-color="#010B66"/>
</linearGradient>
<linearGradient id="paint1_linear_5649_3432" x1="0" y1="30.4" x2="38.4" y2="30.4" gradientUnits="userSpaceOnUse">
<stop stop-color="#33FCFE"/>
<stop offset="1" stop-color="#010B66"/>
</linearGradient>
<linearGradient id="paint2_linear_5649_3432" x1="11.2" y1="7.9998" x2="27.1999" y2="7.9998" gradientUnits="userSpaceOnUse">
<stop stop-color="#33FCFE"/>
<stop offset="1" stop-color="#010B66"/>
</linearGradient>
</defs>
</svg>
