<svg width="62" height="65" viewBox="0 0 62 65" fill="none" xmlns="http://www.w3.org/2000/svg">
<path fill-rule="evenodd" clip-rule="evenodd" d="M40.3909 11.4684C40.8722 11.4653 41.3378 11.6449 41.6909 11.97C41.7097 11.9855 41.7284 12.004 41.7472 12.0226C42.494 12.7657 42.494 13.9638 41.7472 14.7069L36.1659 20.2365C35.4159 20.9734 34.2065 20.9734 33.4565 20.2365L30.7472 17.5522V17.5491C30.0034 16.8092 30.0065 15.611 30.7534 14.871C31.4972 14.1342 32.7065 14.1311 33.4565 14.8648L34.8128 16.2085L39.0377 12.0227C39.3971 11.6666 39.8847 11.4653 40.3909 11.4684ZM41.9659 10.4622C39.2377 7.75932 34.9596 7.34139 31.7531 9.4653C28.5437 11.5892 27.2968 15.6636 28.7718 19.196C30.25 22.7285 34.0405 24.7348 37.8246 23.9887C41.6087 23.2425 44.334 19.9514 44.334 16.1278C44.3371 14.0038 43.4846 11.9638 41.9659 10.4622ZM36.2472 6.52399C31.6222 6.52399 27.6407 9.76244 26.7375 14.2549C25.8375 18.7473 28.2657 23.2492 32.5375 25.0016C36.8094 26.754 41.7376 25.2741 44.3064 21.4659C46.8751 17.6547 46.3719 12.577 43.1001 9.33848C41.2845 7.53351 38.819 6.5209 36.2472 6.52399ZM41.2409 4.1803C40.7597 3.98215 40.2691 3.81496 39.7691 3.67564C39.4503 3.61062 39.2003 3.36294 39.1409 3.04714L38.7128 0.852051H33.7784L33.3534 3.04404C33.294 3.34127 33.0722 3.57966 32.7753 3.66016C31.7534 3.9419 30.7722 4.34439 29.8471 4.85832C29.5752 5.0348 29.2252 5.0317 28.9596 4.85213L27.0909 3.59825L23.6034 7.05348L24.869 8.90489L24.8658 8.90799C25.0346 9.15567 25.0471 9.48076 24.8971 9.74393C24.3752 10.6572 23.9658 11.6294 23.6784 12.6387C23.6127 12.9576 23.3596 13.2022 23.0377 13.261L20.8221 13.6852V18.5739L23.0377 18.9981V18.995C23.3377 19.0538 23.5784 19.2736 23.6596 19.5678C23.944 20.5801 24.3502 21.5554 24.869 22.4688C25.0471 22.7382 25.044 23.0849 24.8627 23.3512L23.5971 25.2026L27.0846 28.6578L28.9565 27.404C29.2096 27.2337 29.5346 27.2213 29.8002 27.373C30.7221 27.89 31.7034 28.2957 32.7221 28.5804C33.044 28.6454 33.2908 28.8931 33.3502 29.2089L33.7752 31.4009H38.7096L39.1346 29.2089H39.1409C39.1971 28.9117 39.419 28.6733 39.7159 28.5959C40.7377 28.3142 41.7221 27.9117 42.6471 27.3947C42.9159 27.2213 43.2659 27.2244 43.5315 27.4039L45.4003 28.6578L48.8878 25.2026L47.6222 23.3512L47.6253 23.3481C47.4566 23.0973 47.4441 22.7753 47.5941 22.5121C48.1191 21.5988 48.5285 20.6266 48.8159 19.6174C48.8784 19.2985 49.1315 19.0539 49.4503 18.995L51.6628 18.574V13.6853L49.4503 13.2642V13.2611C49.1503 13.2054 48.9096 12.9825 48.8284 12.6914C48.544 11.679 48.1378 10.7038 47.619 9.78729C47.4409 9.52102 47.444 9.17427 47.6253 8.90799L48.8878 7.05657L45.4002 3.60134L43.5315 4.85522V4.85213C43.2784 5.02241 42.9534 5.0348 42.6878 4.88618C42.2221 4.61992 41.7378 4.38464 41.2409 4.1803ZM5.7785 44.3521L0.919144 49.3058C0.775392 49.4544 0.700392 49.6556 0.709768 49.86C0.716018 50.0798 0.809768 50.2872 0.969144 50.4389L14.9595 64.0152C15.0377 64.0957 15.1283 64.1577 15.2314 64.201C15.3314 64.2413 15.4408 64.2629 15.5502 64.2598C15.6564 64.2598 15.7627 64.2413 15.8595 64.201C15.9533 64.1639 16.0345 64.105 16.1033 64.0307L20.9595 59.0739V59.077C21.1033 58.9284 21.1814 58.7272 21.1752 58.5228C21.1658 58.303 21.072 58.0956 20.9158 57.9439L6.91898 44.3644C6.84086 44.287 6.75023 44.2251 6.64711 44.1817C6.54711 44.1415 6.43774 44.1198 6.32836 44.1229C6.22211 44.1198 6.11586 44.1415 6.01898 44.1786C5.92836 44.2189 5.84398 44.2777 5.77523 44.352L5.7785 44.3521ZM33.9537 45.5409L39.6568 45.4728V45.4697C39.685 45.4697 39.7162 45.4697 39.7443 45.4666C42.2443 45.3861 44.2256 43.3458 44.2037 40.869C44.2037 40.8411 44.2037 40.8101 44.1974 40.7823C44.1818 40.1847 44.0443 39.5996 43.8006 39.0547L55.3534 29.3454C56.0909 28.6921 57.0065 28.268 57.9846 28.1286C58.7253 28.0357 59.469 28.2648 60.0253 28.7571C60.0628 28.7912 60.1097 28.8376 60.1628 28.8871C60.7659 29.4754 61.1566 30.2463 61.269 31.0791C61.3847 31.8346 61.1597 32.6024 60.6565 33.1844C60.6347 33.2061 60.6065 33.2371 60.5659 33.2773L44.8627 49.0428C44.5065 49.4205 44.1096 49.7611 43.6814 50.0552C43.3127 50.3059 42.8877 50.4638 42.447 50.5196L25.0998 52.5816C23.1811 52.8076 21.9811 54.1018 20.8185 55.3495L20.6779 55.4981L9.64032 44.7822C11.9403 41.1815 14.431 38.7852 17.1154 37.5963C19.8622 36.3795 22.8529 36.4259 26.0874 37.7294C26.703 37.9833 27.3686 38.1071 28.0342 38.0885L39.5686 37.9028H39.5718C40.3655 37.8997 41.1249 38.2124 41.6874 38.7697C42.2436 39.3115 42.5718 40.0484 42.5998 40.8224V40.8719V40.8812C42.6123 42.4943 41.3311 43.8224 39.7061 43.8813H39.653L33.9311 43.9525C33.7186 43.9556 33.5186 44.0423 33.3686 44.1909C33.2218 44.3426 33.1374 44.5439 33.1405 44.7544C33.1467 45.1909 33.5092 45.5439 33.9499 45.5377L33.9537 45.5409ZM7.9721 50.4699C7.9721 50.9034 7.61586 51.2563 7.17835 51.2563C6.73773 51.2563 6.3846 50.9034 6.3846 50.4699C6.3846 50.0365 6.73773 49.6835 7.17522 49.6835C7.61272 49.6835 7.96898 50.0365 7.96898 50.4699H7.9721ZM8.87522 48.7888C9.44398 49.3491 9.69394 50.1542 9.53772 50.9343C9.3815 51.7145 8.84397 52.3678 8.1002 52.6712C7.35958 52.9746 6.51268 52.8941 5.84708 52.4514C5.18146 52.0086 4.78148 51.2625 4.78148 50.4699C4.78461 49.5071 5.36898 48.6432 6.26588 48.2748C7.15964 47.9064 8.19084 48.1107 8.87836 48.7888H8.87522ZM40.5912 13.1284C40.535 13.082 40.4662 13.0603 40.3912 13.0603C40.31 13.0572 40.2318 13.0913 40.1756 13.147L35.3818 17.8964H35.3787C35.2287 18.0481 35.0256 18.1317 34.81 18.1317C34.5975 18.1317 34.3943 18.0481 34.2443 17.8964L32.3256 15.9954H32.3225C32.2006 15.8809 32.01 15.884 31.8912 16.0016C31.7756 16.1193 31.7725 16.3081 31.885 16.4289L34.5944 19.1131C34.7162 19.2308 34.9131 19.2308 35.0319 19.1131L40.6131 13.5835H40.6163C40.735 13.4628 40.735 13.2708 40.6163 13.1501L40.5912 13.1284Z" fill="white"/>
</svg>
