<svg width="42" height="48" viewBox="0 0 42 48" fill="none" xmlns="http://www.w3.org/2000/svg">
<path d="M40.9044 24.1315C39.8718 23.2466 38.1392 23.3807 37.2196 24.4246L29.5286 33.3769L22.5639 33.3863C21.1118 33.3863 20.9964 32.9756 20.9964 32.4407C20.9964 31.7408 21.3946 31.4918 21.7687 31.4918L28.0821 31.4902C29.5129 31.4902 30.6923 30.3613 30.7096 28.9736C30.7175 28.2946 30.4498 27.6499 29.9542 27.1614C29.4625 26.6745 28.8079 26.4018 28.1051 26.3936L20.3978 26.404C20.1396 26.356 19.8272 26.2837 19.4844 26.2059C18.7251 26.0314 17.8638 25.8322 17.0764 25.7632C16.8995 25.7477 16.6951 25.7372 16.4677 25.7372C15.2755 25.7372 13.017 26.0276 11.2838 27.9806L6.62404 33.3841L5.58973 32.5246L0.771484 38.0711L11.8124 47.2404L16.6273 41.6955L15.6008 40.8427L16.8093 39.36H29.9178C31.1274 39.36 31.8896 38.5712 32.0352 38.4056L41.1419 27.7487C41.5955 27.2309 41.8212 26.5702 41.7792 25.8852C41.7344 25.1968 41.4247 24.5736 40.9044 24.1315ZM15.2116 41.8104L11.6965 45.856L2.18772 37.958L5.70284 33.9096L5.97444 34.1354L5.9722 34.137L14.9703 41.6138L14.972 41.6105L15.2116 41.8104ZM40.3797 27.11L31.2758 37.7648C31.2198 37.8271 30.7108 38.3742 29.9172 38.3742H16.33L14.8348 40.2057L7.38788 34.0205L12.0404 28.6247C13.5092 26.9715 15.444 26.7242 16.4672 26.7242C16.6609 26.7242 16.8356 26.733 16.9874 26.7468C17.7053 26.8098 18.5291 26.9991 19.2576 27.1664C19.6166 27.2492 19.9431 27.3242 20.306 27.3833L28.1 27.3805C28.5329 27.386 28.9406 27.555 29.2464 27.858C29.5504 28.1577 29.7145 28.5508 29.7095 28.962C29.6983 29.8121 28.9692 30.5043 28.0541 30.5043L21.7687 30.5071C20.9147 30.5071 19.9952 31.112 19.9952 32.4413C19.9952 34.3733 21.9283 34.3733 22.5644 34.3733L29.994 34.3628L37.979 25.0671C38.5418 24.4262 39.6131 24.3335 40.2492 24.8772C40.564 25.1449 40.751 25.5247 40.7779 25.9475C40.8053 26.3737 40.6653 26.7855 40.3797 27.11Z" fill="#2C4994"/>
<path d="M26.4791 25.2902C32.9583 25.2902 38.3091 20.4668 39.0489 14.2723L39.0814 14.2408V14.0399C39.1223 13.6342 39.1447 13.2224 39.1447 12.8051C39.1447 5.92164 33.4629 0.321045 26.4791 0.321045C19.4954 0.321045 13.8125 5.92164 13.8125 12.8051C13.8125 19.6896 19.4954 25.2902 26.4791 25.2902ZM38.093 13.8042C37.9675 13.9036 37.8035 14.0018 37.6769 13.9483C37.5716 13.9036 37.5291 13.8677 37.5207 13.8677C37.524 13.8252 37.5565 13.7297 37.5767 13.6712C37.6231 13.537 37.6752 13.3847 37.6752 13.2119C37.6752 12.8343 37.3639 12.4209 36.8515 11.7861C36.7036 11.6028 36.567 11.4361 36.4925 11.3202C36.2825 10.9868 35.9011 10.8626 35.5175 11.0078C35.1916 11.1298 34.8803 11.4411 34.7901 11.7877C34.7128 11.7408 34.6103 11.6343 34.5174 11.43C33.8863 10.0401 32.9415 9.7343 32.2746 9.91646C32.0125 9.98656 31.8137 10.1709 31.7291 10.4226C31.4659 11.2059 32.4073 12.4176 32.4146 12.4281C32.479 12.5092 32.5355 12.5892 32.5893 12.6649C32.8486 13.0264 33.1571 13.4741 33.8611 13.4068C33.9316 13.3996 33.9927 13.3968 34.0459 13.3963C33.8807 13.6634 33.6113 13.967 33.291 14.0079C32.4023 14.1277 31.8031 14.9087 31.5102 16.3335C31.3371 17.2034 30.2653 18.7926 29.6011 19.1652C29.4858 19.2281 29.3245 19.2883 29.2035 19.2055C29.0787 19.1205 28.9801 18.8804 29.035 18.5343C29.1005 18.1247 29.3615 14.8839 28.5259 14.1481C28.41 14.0443 28.2426 13.9278 28.0466 13.7932C27.4065 13.3549 26.529 12.7543 26.3268 11.6255C26.1039 10.3779 28.3126 9.42794 28.335 9.41856L28.7091 9.26124L28.634 8.86932C28.6015 8.70592 28.6116 8.46304 28.7135 8.36479C29.3211 8.27978 29.5765 7.90221 29.763 7.62676C29.8811 7.45068 29.9747 7.31213 30.1567 7.21553C30.8908 6.82526 30.5498 5.72071 30.1343 4.8618L30.0766 4.74367L29.7232 4.52066C29.4203 4.40695 29.1677 4.42572 28.9543 4.52176C29.0747 4.36058 29.2024 4.1867 29.3402 3.99736C29.6079 3.99184 30.1141 4.04428 30.4747 4.08182C31.3971 4.17787 31.9811 4.2292 32.3065 4.09065C32.3647 4.08348 32.4409 4.10832 32.5283 4.14585C32.2897 4.24908 32.0825 4.3948 32.031 4.66749C32.008 4.78948 32.0063 5.01856 32.2348 5.23826C32.2326 5.23992 32.2315 5.24488 32.2315 5.25206C32.2281 5.37405 32.2208 5.62797 32.4325 5.82172C32.6571 6.02928 32.96 5.99671 33.0563 5.98788C33.6908 5.9244 34.2497 5.75604 34.864 5.4425C35.004 5.37295 35.1451 5.32051 35.2751 5.27801C37.0564 7.29722 38.1428 9.92585 38.1428 12.8056C38.1439 13.1429 38.1215 13.4747 38.093 13.8042ZM33.9927 12.4104C33.912 12.4121 33.8342 12.4176 33.7603 12.4247C33.6768 12.4358 33.6505 12.4374 33.408 12.0969C33.3459 12.0096 33.2798 11.9169 33.2042 11.8209C32.9712 11.53 32.7635 11.1044 32.7013 10.862C32.9707 10.9056 33.3179 11.2004 33.6046 11.833C33.7138 12.0737 33.8465 12.2641 33.9927 12.4104ZM33.6835 3.77988C33.9792 4.01006 34.2643 4.25349 34.5359 4.51073C34.4944 4.52949 34.4507 4.54329 34.4093 4.56316C33.9921 4.77568 33.6247 4.90264 33.2075 4.97054C33.2064 4.96392 33.2047 4.95674 33.2025 4.94901C33.2943 4.91755 33.3895 4.88443 33.4803 4.848C33.7009 4.75747 33.8504 4.57144 33.879 4.3512C33.8986 4.20657 33.8672 4.00454 33.6835 3.77988ZM22.7574 2.13105C23.7581 2.31045 24.0364 2.52408 24.0963 2.52904C24.0639 2.56492 23.9944 2.61185 23.9575 2.62178C23.8443 2.64 23.5257 2.60301 23.314 2.57707C22.8587 2.52242 22.4763 2.47495 22.2187 2.63061C22.1408 2.62675 22.0445 2.6135 21.9392 2.60136C21.7365 2.57928 21.4688 2.55112 21.2062 2.56272C21.5562 2.38718 21.9157 2.22931 22.2842 2.08855C22.4471 2.09407 22.6073 2.10345 22.7574 2.13105ZM20.2788 3.0838C20.2592 3.1368 20.2351 3.18537 20.2262 3.2494C20.1842 3.55245 20.1215 4.01006 20.4625 4.34954C20.7705 4.65645 21.2706 4.74091 22.1414 4.63327C22.8117 4.54881 23.3375 4.73704 23.6103 4.90154C23.58 4.91589 23.5503 4.93024 23.5212 4.94404C23.1981 5.09584 22.7092 5.32548 22.7848 5.84601C22.8011 6.16617 22.5423 7.21552 22.3531 7.33972C22.2024 7.33972 22.0484 7.32151 21.895 7.3044C21.3165 7.23871 20.528 7.15149 19.9759 7.91601C19.7647 8.21133 19.5984 8.35596 19.4545 8.37307C19.2731 8.39404 19.0048 8.2588 18.6767 7.99219C18.4219 7.53072 17.7779 6.86004 16.8219 7.05544C16.58 7.10292 16.3723 7.20614 16.2115 7.35408C17.1703 5.60644 18.5798 4.13978 20.2788 3.0838ZM19.8219 19.4788C19.921 19.8265 20.1735 20.1246 20.3768 20.3355C20.2979 20.3912 20.2004 20.4475 20.1013 20.4812C19.9283 20.4558 19.5659 20.0788 19.4937 19.8707C19.9204 19.3512 19.6931 18.4636 19.5693 18.0883V14.9005L19.3072 14.7608C18.913 14.5505 18.381 14.1023 18.4073 13.8445C18.4919 13.0308 18.6352 11.6702 17.6283 11.191C17.3209 11.0436 16.3006 10.1836 15.5955 8.7004C15.6807 8.48126 15.7714 8.26488 15.8694 8.05236C15.7781 8.66784 16.0777 9.36391 16.463 9.66696C16.6013 9.77404 16.7794 9.94516 16.967 10.1224C17.5427 10.6683 17.8859 10.9791 18.2365 11.021C18.5131 11.0569 18.773 10.9139 19.0603 10.7472C19.3173 10.5982 19.6399 10.4166 19.8454 10.4618C20.0856 10.533 20.7307 11.2766 21.0768 11.6757C21.5724 12.2459 21.8899 12.603 22.1823 12.7648C22.4824 12.9271 22.9209 13.4167 23.0732 13.6783C22.9825 13.8268 22.9192 14.0073 22.8487 14.2055C22.81 14.3165 22.7484 14.4903 22.7019 14.5759C21.97 14.9325 21.0259 16.9296 20.9979 17.1206C20.9223 17.2222 20.523 17.4353 20.1741 17.5589L19.8975 17.6572L19.8499 17.9431C19.8196 18.1142 19.6841 18.9924 19.8219 19.4788ZM15.1767 10.0097C15.894 11.1402 16.7323 11.8589 17.1921 12.0792C17.5667 12.258 17.4659 13.224 17.4111 13.7501C17.3276 14.5549 18.1155 15.182 18.568 15.4734V18.1705L18.596 18.335C18.7226 18.6861 18.7791 19.1415 18.7215 19.2442C18.6061 19.3529 18.2651 19.7636 18.6873 20.4779C18.9522 20.9244 19.5307 21.4671 20.0968 21.4671C20.1758 21.4671 20.2553 21.4566 20.332 21.4339C20.8019 21.2948 21.3479 20.9377 21.4839 20.5248C21.5495 20.3255 21.5181 20.1218 21.3932 19.9607C21.3563 19.9143 21.293 19.848 21.2151 19.7697C21.0735 19.6283 20.8366 19.3921 20.7856 19.2132C20.7447 19.0692 20.7582 18.7126 20.7974 18.3781C21.321 18.16 21.8586 17.8338 21.9504 17.3916C22.0255 17.1035 22.7988 15.7632 23.1018 15.4801C23.4988 15.363 23.6534 14.9231 23.7923 14.5312C23.8343 14.4131 23.8975 14.2348 23.8975 14.2204C24.0566 14.0912 24.1361 13.8925 24.1154 13.675C24.0616 13.0998 23.1975 12.1901 22.6672 11.9037C22.5188 11.8225 22.1246 11.3677 21.8379 11.0365C21.0729 10.1555 20.5723 9.61286 20.0683 9.50246C19.4702 9.36888 18.9427 9.67468 18.5563 9.89659C18.4896 9.93523 18.4056 9.9838 18.3435 10.0147C18.1732 9.89824 17.8602 9.60072 17.6603 9.41193C17.4463 9.20935 17.2414 9.0156 17.0846 8.89526C16.9675 8.80252 16.7883 8.41226 16.8511 8.15944C16.8667 8.09541 16.888 8.04794 17.0202 8.022C17.5275 7.92374 17.7919 8.44759 17.8187 8.50445L17.9498 8.67777C18.5624 9.19776 19.0715 9.40917 19.5771 9.35232C20.1523 9.28332 20.5297 8.85331 20.7935 8.48733C20.9827 8.22237 21.2107 8.21906 21.7824 8.28475C21.9739 8.30572 22.1666 8.3267 22.3542 8.3267C22.5519 8.3267 22.8431 8.26156 23.1124 7.95189C23.5582 7.44019 23.7643 6.40353 23.7833 5.91612C23.8354 5.88962 23.8998 5.85926 23.9535 5.83442C24.0947 5.76818 24.2559 5.692 24.429 5.59154C24.7431 5.40717 24.8675 5.06935 24.7493 4.73097C24.5225 4.08679 23.3487 3.484 22.0165 3.65457C21.7735 3.68493 21.5971 3.69321 21.4705 3.69321C21.2846 3.69321 21.2095 3.67389 21.1967 3.68272C21.1922 3.65292 21.1939 3.59882 21.1983 3.54362C21.3809 3.53368 21.6693 3.5657 21.8283 3.58336C22.1951 3.62366 22.4998 3.65733 22.7159 3.51216C22.8352 3.51492 23.0441 3.53976 23.1931 3.55742C23.5419 3.59992 23.8707 3.63912 24.1271 3.59496C24.5354 3.52706 25.1015 3.12796 25.1043 2.5572C25.1071 2.05984 24.709 1.73748 24.2408 1.52606C24.966 1.38696 25.7142 1.30857 26.4803 1.30857C28.9 1.30857 31.1501 2.03942 33.0155 3.28749C32.6744 3.1252 32.2757 3.03357 31.9526 3.17157C31.7711 3.22677 31.0263 3.14784 30.5817 3.10147C29.7759 3.01646 29.2646 2.97064 28.9364 3.06172L28.7886 3.10368L28.6004 3.32724C27.9239 4.25901 27.0548 5.3597 26.8958 5.48335C26.3503 5.66164 26.1431 6.45708 26.2075 6.93897C26.2747 7.43467 26.6113 7.7598 27.0839 7.78464L27.3695 7.80009L27.5275 7.56604C27.6815 7.33752 27.9491 7.09188 28.0544 7.07918C28.5259 7.04054 28.7354 6.57907 28.9364 6.1325C29.0204 5.94813 29.1834 5.58657 29.3178 5.47452C29.5239 5.94427 29.5849 6.26774 29.5849 6.40408C29.2467 6.61164 29.0647 6.88046 28.9303 7.08139C28.769 7.31985 28.7247 7.36843 28.573 7.3894C28.2723 7.43136 28.0231 7.57764 27.8539 7.81334C27.6613 8.08216 27.6143 8.4106 27.6143 8.66563C26.8426 9.05534 25.0472 10.1511 25.3418 11.7982C25.6156 13.3311 26.7804 14.1293 27.4765 14.6052C27.6311 14.7106 27.7655 14.8 27.85 14.874C28.13 15.2123 28.2135 17.3403 28.0477 18.3819C27.9385 19.067 28.1619 19.6929 28.6329 20.0159C28.8451 20.1616 29.0859 20.2344 29.3379 20.2344C29.5838 20.2344 29.8419 20.1649 30.0945 20.0258C31.009 19.5124 32.2645 17.6803 32.4935 16.5272C32.6044 15.984 32.876 15.0605 33.4248 14.9871C34.3852 14.864 34.9671 13.9129 35.1435 13.415C35.2157 13.1959 35.1821 12.9712 35.0539 12.7929C35.0987 12.7858 35.1423 12.7758 35.1849 12.7626C35.5506 12.6522 35.7852 12.3491 35.7701 12.0229V12.0223C35.8535 12.1349 35.9583 12.2647 36.0691 12.4021C36.2668 12.6472 36.6359 13.1043 36.6745 13.2058C36.6717 13.2323 36.6459 13.3068 36.6297 13.3565C36.53 13.6463 36.2651 14.4169 37.2776 14.8547C37.4288 14.9192 37.6567 14.9783 37.9356 14.938C36.9181 20.2626 32.1727 24.3054 26.4797 24.3054C20.047 24.3054 14.8138 19.1476 14.8138 12.8062C14.8132 11.8391 14.9482 10.9062 15.1767 10.0097ZM28.0533 5.66275C28.0432 5.68593 28.0326 5.70857 28.0225 5.73009C27.9676 5.85264 27.8887 6.02596 27.8332 6.11649C27.7089 6.14409 27.5907 6.19432 27.4799 6.2567C27.6075 6.15182 27.7884 5.97352 28.0533 5.66275Z" fill="#2C4994"/>
<path d="M34.3198 20.0273L34.4245 20.0251C35.2018 19.9909 35.6896 19.7475 35.8733 19.3015C36.1309 18.676 35.6381 17.9706 35.18 17.4887C34.7404 17.0261 33.9861 16.6772 33.4249 16.6772C32.8179 16.6772 32.5469 17.0681 32.5508 17.3882C32.5317 17.5246 32.3839 18.7445 33.0425 19.4891C33.3544 19.8408 33.7962 20.0273 34.3198 20.0273ZM34.4497 18.1632C34.8468 18.58 34.9532 18.8654 34.9537 18.9151C34.9537 18.9151 34.844 19.0188 34.3797 19.0393L34.3204 19.5338V19.0409C34.0113 19.0409 33.8746 18.9266 33.7985 18.8416C33.5515 18.564 33.5157 18.0274 33.5302 17.6731C33.8018 17.7172 34.2117 17.9121 34.4497 18.1632Z" fill="#2C4994"/>
</svg>
