<svg width="67" height="67" viewBox="0 0 67 67" fill="none" xmlns="http://www.w3.org/2000/svg">
<g clip-path="url(#clip0_5123_2408)">
<path opacity="0.2" d="M52.0834 39.5835L41.6667 50.0002L25.0001 45.8335L10.4167 35.4168L18.9272 18.3934L33.3334 14.5835L47.7397 18.3934L47.8126 18.7502H37.5001L25.6095 30.284C25.3884 30.505 25.2199 30.7728 25.1164 31.0677C25.0129 31.3626 24.9771 31.677 25.0116 31.9876C25.0461 32.2982 25.1501 32.5971 25.3158 32.8621C25.4815 33.1271 25.7047 33.3514 25.9688 33.5184C30.5287 36.4325 36.7188 36.2319 41.6667 31.2502L52.0834 39.5835Z" fill="black"/>
<path d="M66.224 28.102L59.5782 14.8051C59.3333 14.3157 58.9945 13.8793 58.581 13.5209C58.1675 13.1624 57.6875 12.889 57.1683 12.7161C56.6491 12.5431 56.1009 12.4742 55.5551 12.5132C55.0092 12.5521 54.4764 12.6983 53.987 12.9432L47.5105 16.1801L33.8672 12.5708C33.5172 12.4797 33.1496 12.4797 32.7995 12.5708L19.1563 16.1801L12.6797 12.9432C12.1904 12.6983 11.6575 12.5521 11.1117 12.5132C10.5659 12.4742 10.0177 12.5431 9.49849 12.7161C8.97929 12.889 8.49924 13.1624 8.08574 13.5209C7.67225 13.8793 7.33342 14.3157 7.08859 14.8051L0.442757 28.0994C0.197851 28.5888 0.0517423 29.1216 0.0127748 29.6674C-0.0261927 30.2133 0.0427443 30.7615 0.215649 31.2807C0.388554 31.7999 0.662039 32.2799 1.02049 32.6934C1.37894 33.1069 1.81533 33.4457 2.30474 33.6906L9.33599 37.2088L23.7865 47.5291C23.9996 47.6804 24.2389 47.7908 24.4922 47.8546L41.1589 52.0213C41.5079 52.1088 41.8737 52.1045 42.2205 52.0086C42.5674 51.9128 42.8835 51.7287 43.1381 51.4744L57.4792 37.1307L64.3594 33.6906C65.3472 33.1961 66.0981 32.3297 66.4473 31.2817C66.7964 30.2338 66.7152 29.0901 66.2214 28.102H66.224ZM51.9297 36.7921L42.9688 29.615C42.5674 29.2935 42.0612 29.1319 41.5477 29.1612C41.0342 29.1906 40.5498 29.4088 40.1875 29.7739C35.5495 34.4458 30.3803 33.8546 27.0834 31.7713L38.3438 20.8338H46.6277L53.7136 35.0031L51.9297 36.7921ZM10.8152 16.6671L16.1459 19.3286L9.48703 32.6228L4.16672 29.964L10.8152 16.6671ZM41.0235 47.6906L25.8907 43.9093L13.0782 34.7583L20.3698 20.1749L33.3334 16.74L35.8855 17.4145L24.1667 28.7895L24.1459 28.813C23.7048 29.2541 23.3683 29.7886 23.1614 30.3772C22.9544 30.9657 22.8823 31.5932 22.9503 32.2133C23.0183 32.8335 23.2247 33.4304 23.5542 33.9601C23.8837 34.4899 24.328 34.9388 24.8542 35.2739C30.2084 38.6932 36.6693 38.1385 41.7579 33.9718L48.9584 39.7557L41.0235 47.6906ZM57.1693 32.6202L50.5235 19.339L55.8516 16.6671L62.5 29.964L57.1693 32.6202ZM34.3178 56.7531C34.2052 57.2033 33.9455 57.6031 33.5799 57.889C33.2143 58.1749 32.7637 58.3305 32.2995 58.3312C32.1283 58.3313 31.9578 58.3103 31.7917 58.2687L20.9402 55.5551C20.6864 55.4925 20.4468 55.382 20.2344 55.2296L13.3724 50.3286C12.9505 49.9973 12.6726 49.516 12.5967 48.985C12.5207 48.454 12.6525 47.9141 12.9646 47.4778C13.2767 47.0415 13.7451 46.7425 14.2722 46.6429C14.7993 46.5433 15.3445 46.6508 15.7943 46.9432L22.3334 51.615L32.8125 54.2296C33.3485 54.3637 33.8092 54.7051 34.0934 55.1788C34.3776 55.6525 34.4621 56.2197 34.3282 56.7557L34.3178 56.7531Z" fill="black"/>
</g>
<defs>
<clipPath id="clip0_5123_2408">
<rect width="66.6667" height="66.6667" fill="white"/>
</clipPath>
</defs>
</svg>
