<svg width="62" height="60" viewBox="0 0 62 60" fill="none" xmlns="http://www.w3.org/2000/svg">
<path fill-rule="evenodd" clip-rule="evenodd" d="M57.916 19.0832C57.916 15.1052 57.916 13.1133 56.9612 11.6853C56.5476 11.0663 56.0162 10.5349 55.3972 10.1213C54.1477 9.2855 52.4675 9.18067 49.4047 9.16934C49.4141 9.99667 49.4179 10.8561 49.416 11.7477V15.5415H52.2493C52.8129 15.5415 53.3534 15.7654 53.7519 16.1639C54.1505 16.5624 54.3743 17.1029 54.3743 17.6665C54.3743 18.2301 54.1505 18.7706 53.7519 19.1691C53.3534 19.5676 52.8129 19.7915 52.2493 19.7915H49.416V24.0415H52.2493C52.8129 24.0415 53.3534 24.2654 53.7519 24.6639C54.1505 25.0624 54.3743 25.6029 54.3743 26.1665C54.3743 26.7301 54.1505 27.2706 53.7519 27.6691C53.3534 28.0676 52.8129 28.2915 52.2493 28.2915H49.416V32.5415H52.2493C52.8129 32.5415 53.3534 32.7654 53.7519 33.1639C54.1505 33.5624 54.3743 34.1029 54.3743 34.6665C54.3743 35.2301 54.1505 35.7706 53.7519 36.1691C53.3534 36.5676 52.8129 36.7915 52.2493 36.7915H49.416V55.2082H45.166V11.9998C45.166 6.65617 45.166 3.98717 43.5057 2.32684C41.8453 0.666504 39.1763 0.666504 33.8327 0.666504H28.166C22.8223 0.666504 20.1533 0.666504 18.493 2.32684C16.8327 3.98717 16.8327 6.65617 16.8327 11.9998V55.2082H12.5827V36.7915H9.74935C9.18576 36.7915 8.64526 36.5676 8.24675 36.1691C7.84823 35.7706 7.62435 35.2301 7.62435 34.6665C7.62435 34.1029 7.84823 33.5624 8.24675 33.1639C8.64526 32.7654 9.18576 32.5415 9.74935 32.5415H12.5827V28.2915H9.74935C9.18576 28.2915 8.64526 28.0676 8.24675 27.6691C7.84823 27.2706 7.62435 26.7301 7.62435 26.1665C7.62435 25.6029 7.84823 25.0624 8.24675 24.6639C8.64526 24.2654 9.18576 24.0415 9.74935 24.0415H12.5827V19.7915H9.74935C9.18576 19.7915 8.64526 19.5676 8.24675 19.1691C7.84823 18.7706 7.62435 18.2301 7.62435 17.6665C7.62435 17.1029 7.84823 16.5624 8.24675 16.1639C8.64526 15.7654 9.18576 15.5415 9.74935 15.5415H12.5827V11.7448C12.5808 10.8571 12.5846 9.99761 12.594 9.1665C9.53118 9.18067 7.85102 9.2855 6.60152 10.1213C5.98251 10.5349 5.45106 11.0663 5.03752 11.6853C4.08268 13.1133 4.08268 15.1052 4.08268 19.0832V55.2082H2.66602C2.10243 55.2082 1.56193 55.432 1.16341 55.8306C0.764899 56.2291 0.541016 56.7696 0.541016 57.3332C0.541016 57.8968 0.764899 58.4373 1.16341 58.8358C1.56193 59.2343 2.10243 59.4582 2.66602 59.4582H59.3327C59.8963 59.4582 60.4368 59.2343 60.8353 58.8358C61.2338 58.4373 61.4577 57.8968 61.4577 57.3332C61.4577 56.7696 61.2338 56.2291 60.8353 55.8306C60.4368 55.432 59.8963 55.2082 59.3327 55.2082H57.916V19.0832ZM30.9993 7.0415C31.5629 7.0415 32.1034 7.26539 32.5019 7.6639C32.9005 8.06242 33.1243 8.60292 33.1243 9.1665V12.7082H36.666C37.2296 12.7082 37.7701 12.9321 38.1686 13.3306C38.5671 13.7291 38.791 14.2696 38.791 14.8332C38.791 15.3968 38.5671 15.9373 38.1686 16.3358C37.7701 16.7343 37.2296 16.9582 36.666 16.9582H33.1243V20.4998C33.1243 21.0634 32.9005 21.6039 32.5019 22.0024C32.1034 22.401 31.5629 22.6248 30.9993 22.6248C30.4358 22.6248 29.8953 22.401 29.4967 22.0024C29.0982 21.6039 28.8743 21.0634 28.8743 20.4998V16.9582H25.3327C24.7691 16.9582 24.2286 16.7343 23.8301 16.3358C23.4316 15.9373 23.2077 15.3968 23.2077 14.8332C23.2077 14.2696 23.4316 13.7291 23.8301 13.3306C24.2286 12.9321 24.7691 12.7082 25.3327 12.7082H28.8743V9.1665C28.8743 8.60292 29.0982 8.06242 29.4967 7.6639C29.8953 7.26539 30.4358 7.0415 30.9993 7.0415ZM23.2077 28.9998C23.2077 28.4363 23.4316 27.8958 23.8301 27.4972C24.2286 27.0987 24.7691 26.8748 25.3327 26.8748H36.666C37.2296 26.8748 37.7701 27.0987 38.1686 27.4972C38.5671 27.8958 38.791 28.4363 38.791 28.9998C38.791 29.5634 38.5671 30.1039 38.1686 30.5024C37.7701 30.901 37.2296 31.1248 36.666 31.1248H25.3327C24.7691 31.1248 24.2286 30.901 23.8301 30.5024C23.4316 30.1039 23.2077 29.5634 23.2077 28.9998ZM23.2077 37.4998C23.2077 36.9363 23.4316 36.3958 23.8301 35.9972C24.2286 35.5987 24.7691 35.3748 25.3327 35.3748H36.666C37.2296 35.3748 37.7701 35.5987 38.1686 35.9972C38.5671 36.3958 38.791 36.9363 38.791 37.4998C38.791 38.0634 38.5671 38.6039 38.1686 39.0024C37.7701 39.401 37.2296 39.6248 36.666 39.6248H25.3327C24.7691 39.6248 24.2286 39.401 23.8301 39.0024C23.4316 38.6039 23.2077 38.0634 23.2077 37.4998ZM30.9993 46.7082C31.5629 46.7082 32.1034 46.9321 32.5019 47.3306C32.9005 47.7291 33.1243 48.2696 33.1243 48.8332V55.2082H28.8743V48.8332C28.8743 48.2696 29.0982 47.7291 29.4967 47.3306C29.8953 46.9321 30.4358 46.7082 30.9993 46.7082Z" fill="#1B2222"/>
</svg>
