<svg width="75" height="75" viewBox="0 0 75 75" fill="none" xmlns="http://www.w3.org/2000/svg">
<path d="M35.4785 0V11.9014H39.521V0H35.4781H35.4785ZM18.9716 3.57656L15.6596 5.8955L22.4848 15.6421L25.795 13.3231L18.9716 3.57656ZM56.027 3.57656L49.2038 13.3232L52.5145 15.6422L59.3396 5.8955L56.0276 3.57656H56.027ZM37.4989 15.1578C27.6097 15.1578 19.5931 21.1629 19.5931 28.5718L29.7663 59.3811H45.2332L55.4056 28.5718C55.4056 21.1631 47.3895 15.1578 37.4998 15.1578H37.4989ZM5.34115 18.7296L3.95996 22.5304L15.138 26.6001L16.5243 22.801L5.3409 18.7296H5.34115ZM69.6575 18.7296L58.474 22.8013L59.8556 26.6008L71.0392 22.5305L69.6575 18.7296ZM15.9843 36.1051L4.49059 39.1879L5.53346 43.0899L17.0272 40.0114L15.9845 36.1051H15.9843ZM59.0143 36.1051L57.9722 40.0114L69.466 43.0893L70.5081 39.1873L59.0143 36.1049V36.1051ZM29.5408 61.627V66.9824H45.4588V61.6278H29.5409L29.5408 61.627ZM29.5408 69.6446V75H45.4588V69.6455H29.5409L29.5408 69.6446Z" fill="black"/>
</svg>
