<svg width="34" height="34" viewBox="0 0 34 34" fill="none" xmlns="http://www.w3.org/2000/svg">
<path d="M9.875 17C9.875 13.6415 9.875 11.9615 10.9183 10.9183C11.9615 9.875 13.6407 9.875 17 9.875C20.3585 9.875 22.0385 9.875 23.0817 10.9183C24.125 11.9615 24.125 13.6407 24.125 17C24.125 20.3585 24.125 22.0385 23.0817 23.0817C22.0385 24.125 20.3593 24.125 17 24.125C13.6415 24.125 11.9615 24.125 10.9183 23.0817C9.875 22.0385 9.875 20.3593 9.875 17Z" stroke="white" stroke-width="1.5" stroke-linecap="round" stroke-linejoin="round"/>
<path d="M21.131 12.875H21.1235M20.375 17C20.375 17.8951 20.0194 18.7535 19.3865 19.3865C18.7535 20.0194 17.8951 20.375 17 20.375C16.1049 20.375 15.2465 20.0194 14.6135 19.3865C13.9806 18.7535 13.625 17.8951 13.625 17C13.625 16.1049 13.9806 15.2465 14.6135 14.6135C15.2465 13.9806 16.1049 13.625 17 13.625C17.8951 13.625 18.7535 13.9806 19.3865 14.6135C20.0194 15.2465 20.375 16.1049 20.375 17Z" stroke="white" stroke-width="1.5" stroke-linecap="round" stroke-linejoin="round"/>
<circle cx="17" cy="17" r="16.5" stroke="white"/>
</svg>
