<svg width="16" height="16" viewBox="0 0 16 16" fill="none" xmlns="http://www.w3.org/2000/svg">
<path d="M0.875 8C0.875 4.6415 0.875 2.9615 1.91825 1.91825C2.9615 0.875 4.64075 0.875 8 0.875C11.3585 0.875 13.0385 0.875 14.0817 1.91825C15.125 2.9615 15.125 4.64075 15.125 8C15.125 11.3585 15.125 13.0385 14.0817 14.0817C13.0385 15.125 11.3593 15.125 8 15.125C4.6415 15.125 2.9615 15.125 1.91825 14.0817C0.875 13.0385 0.875 11.3593 0.875 8Z" stroke="white" stroke-width="1.5" stroke-linecap="round" stroke-linejoin="round"/>
<path d="M12.131 3.875H12.1235M11.375 8C11.375 8.89511 11.0194 9.75355 10.3865 10.3865C9.75355 11.0194 8.89511 11.375 8 11.375C7.10489 11.375 6.24645 11.0194 5.61351 10.3865C4.98058 9.75355 4.625 8.89511 4.625 8C4.625 7.10489 4.98058 6.24645 5.61351 5.61351C6.24645 4.98058 7.10489 4.625 8 4.625C8.89511 4.625 9.75355 4.98058 10.3865 5.61351C11.0194 6.24645 11.375 7.10489 11.375 8Z" stroke="white" stroke-width="1.5" stroke-linecap="round" stroke-linejoin="round"/>
</svg>
