<svg width="58" height="70" viewBox="0 0 58 70" fill="none" xmlns="http://www.w3.org/2000/svg">
<path fill-rule="evenodd" clip-rule="evenodd" d="M0.0732907 64.6913C0.533516 58.521 5.68405 53.6143 11.914 53.6143C14.8061 53.6143 17.4623 54.6714 19.5278 56.4187C16.6244 58.6446 14.4966 61.8643 13.6727 65.5883H0.900345C0.414548 65.5883 0.0363453 65.1783 0.0732907 64.6913ZM22.4457 8.30752C24.0735 5.72942 26.2553 3.26014 28.9883 0.977051C31.7212 3.26014 33.903 5.72942 35.5309 8.30752H22.4457ZM22.065 31.442C18.082 24.7303 17.7922 17.3224 21.1985 10.5105H36.7723C40.1786 17.3225 39.8917 24.7305 35.9058 31.442C35.67 31.8373 35.2808 32.0607 34.8234 32.0607H23.1471C22.6925 32.0607 22.3008 31.8373 22.065 31.442ZM8.04824 41.3537C6.49712 42.534 5.49712 44.4103 5.49712 46.5186C5.49712 50.0936 8.36926 52.9897 11.9147 52.9897C15.4602 52.9897 18.3323 50.0936 18.3323 46.5186C18.3323 42.1215 14.0909 39.0474 9.99413 40.3425L6.00832 31.0182C7.14468 30.0184 7.55093 28.3971 6.98846 26.9648L16.6903 18.973C16.7471 17.9245 16.8778 16.8704 17.0823 15.8133L5.60814 25.2667C3.25301 23.7198 0.0683594 25.4071 0.0683594 28.2946C0.0683594 30.4287 1.89221 32.0988 4.00014 31.8925L8.04824 41.3537ZM40.8861 15.7875C41.0935 16.8446 41.2241 17.9016 41.2838 18.95L51.0111 26.9654C50.4486 28.4005 50.8548 30.0219 51.9912 31.0187L48.0054 40.343C43.9088 39.0483 39.6672 42.122 39.6672 46.5191C39.6672 50.0941 42.5394 52.9902 46.0848 52.9902C49.6303 52.9902 52.5024 50.0941 52.5024 46.5191C52.5024 44.4079 51.4996 42.5345 49.9513 41.3542L53.9967 31.8928C56.1047 32.099 57.9285 30.429 57.9285 28.2949C57.9285 25.4074 54.7439 23.7173 52.3887 25.267L40.8861 15.7875ZM26.1872 13.7766C24.6304 15.3464 24.6304 17.8959 26.1872 19.4656C27.744 21.0354 30.2724 21.0354 31.8292 19.4656C33.386 17.8959 33.386 15.3464 31.8292 13.7766C30.2696 12.2068 27.744 12.2068 26.1872 13.7766ZM34.3748 34.2666L33.8918 35.5815C33.7043 36.0885 33.247 36.4094 32.71 36.4094H25.2955C24.7585 36.4094 24.3011 36.0885 24.1137 35.5815L23.6307 34.2666H34.3748ZM20.7297 33.2698C20.5252 33.0664 20.3433 32.8315 20.1899 32.5737C18.5848 29.8695 17.4911 26.9848 16.9825 24.0054C13.5536 27.5231 13.2893 32.3588 15.3774 36.0049L15.5337 36.2771L20.7297 33.2698ZM37.2555 33.2612L42.4658 36.2804L42.622 36.0083C44.7158 32.3531 44.4459 27.5031 40.997 23.9853C40.4913 26.9731 39.3947 29.8634 37.7867 32.5734C37.6333 32.8283 37.4544 33.0578 37.2555 33.2612ZM15.5253 68.0028C15.4827 68.5586 15.9145 69.0255 16.4657 69.0255L41.5341 69.0226C42.0852 69.0226 42.5142 68.5557 42.4744 68C41.9517 60.9789 36.0909 55.3984 29.0002 55.3984C21.9096 55.3984 16.0482 60.9786 15.5261 68.0029L15.5253 68.0028ZM28.9995 39.9587C24.9654 39.9587 21.6955 43.2558 21.6955 47.3206C21.6955 51.3884 24.9654 54.6826 28.9995 54.6826C33.0336 54.6826 36.3006 51.3854 36.3006 47.3206C36.3006 43.2558 33.0336 39.9587 28.9995 39.9587ZM38.4686 56.4184C40.5339 54.671 43.1902 53.6139 46.0824 53.6139C52.3154 53.6139 57.4657 58.521 57.9232 64.6909C57.9601 65.1779 57.5822 65.5876 57.0965 65.5876L44.3241 65.5905C43.5002 61.8637 41.3749 58.6442 38.4686 56.4184Z" fill="white"/>
</svg>
