<svg width="72" height="70" viewBox="0 0 72 70" fill="none" xmlns="http://www.w3.org/2000/svg">
<path fill-rule="evenodd" clip-rule="evenodd" d="M62.1523 61.8626C61.546 61.2563 60.7085 60.8813 59.7804 60.8813C58.8555 60.8813 58.0179 61.2563 57.4086 61.8626C56.8023 62.4688 56.4273 63.3063 56.4273 64.2344C56.4273 65.1594 56.8023 65.9969 57.4086 66.6062C58.0148 67.2125 58.8523 67.5875 59.7804 67.5875C60.7054 67.5875 61.5429 67.2125 62.1523 66.6062C62.7585 66 63.1335 65.1625 63.1335 64.2344C63.1335 63.3094 62.7585 62.4719 62.1523 61.8626ZM57.3023 54.6063C56.7741 54.6063 56.3429 54.1782 56.3429 53.647C56.3429 53.1188 56.771 52.6876 57.3023 52.6876H59.171C59.6991 52.6876 60.1303 53.1157 60.1303 53.647C60.1303 54.1751 59.7022 54.6063 59.171 54.6063H57.3023ZM21.9647 61.8626C21.3584 61.2563 20.5209 60.8813 19.5928 60.8813C18.6679 60.8813 17.8303 61.2563 17.221 61.8626C16.6147 62.4688 16.2397 63.3063 16.2397 64.2344C16.2397 65.1594 16.6147 65.9969 17.221 66.6062C17.8272 67.2125 18.6647 67.5875 19.5928 67.5875C20.5178 67.5875 21.3553 67.2125 21.9647 66.6062C22.5709 66 22.9459 65.1625 22.9459 64.2344C22.9459 63.3094 22.5709 62.4719 21.9647 61.8626ZM14.4991 62.8844H9.69282V64.3313H14.3272V64.2313C14.3272 63.7657 14.3866 63.3157 14.5022 62.8844H14.4991ZM69.9831 50.806C69.6831 49.0216 68.7018 46.5685 67.3487 44.3466C64.6549 44.4029 62.0424 44.4623 60.7393 44.4904C60.4549 44.4966 60.3987 43.6779 60.4081 44.0873C60.4081 44.1091 60.4143 44.2123 60.4206 44.331L60.4299 44.5279C60.4518 44.9654 60.4643 45.6185 60.4706 46.3061C60.4768 47.1561 60.4737 48.0436 60.4643 48.6185V48.6685C60.4581 48.881 60.458 48.8873 61.5737 49.1217C63.1612 49.4529 66.483 50.1154 69.9865 50.8123L69.9831 50.806ZM52.7831 35.0556V37.24H59.3237C58.6143 36.3775 57.5487 35.8556 56.4237 35.54C55.1831 35.1931 53.8519 35.0869 52.7831 35.0556ZM52.7831 64.3276V39.1492H61.3487V39.1523C62.9111 39.1523 64.5924 40.5523 66.0643 42.4648C63.8361 42.5117 61.8049 42.5554 60.7018 42.5804C58.7205 42.6242 58.4643 42.6336 58.4987 44.1242C58.5018 44.2617 58.508 44.3398 58.5112 44.4336L58.5205 44.6148C58.5424 45.0617 58.5549 45.6835 58.5612 46.3179C58.5674 47.1461 58.5643 48.0179 58.5549 48.5835V48.6335C58.5237 50.3617 58.5237 50.4304 61.1831 50.9867C63.1049 51.3898 66.5393 52.0711 70.0767 52.7742V63.4678C70.0767 63.7022 69.9798 63.9178 69.8235 64.074C69.6673 64.2303 69.4548 64.3272 69.2173 64.3272H65.0391V64.2272C65.0391 62.774 64.4485 61.4553 63.4954 60.5022C62.5422 59.5491 61.2235 58.9584 59.7704 58.9584C58.3142 58.9584 56.9986 59.5491 56.0455 60.5022C55.0923 61.4553 54.5017 62.774 54.5017 64.2272V64.3272H52.7735L52.7831 64.3276ZM24.8615 64.3276H50.8679V62.8807H24.6863C24.7988 63.3089 24.8613 63.762 24.8613 64.2276L24.8615 64.3276ZM12.3335 21.7772H8.09594V26.0147H12.3335V21.7772ZM7.1397 19.8616H13.2928C13.8209 19.8616 14.2522 20.2897 14.2522 20.821V26.9741C14.2522 27.5022 13.824 27.9334 13.2928 27.9334H7.1397C6.61157 27.9334 6.18034 27.5053 6.18034 26.9741V20.821C6.18034 20.2928 6.60847 19.8616 7.1397 19.8616ZM24.8901 21.7772H20.6526V26.0147H24.8901V21.7772ZM19.6963 19.8616H25.8495C26.3776 19.8616 26.8088 20.2897 26.8088 20.821V26.9741C26.8088 27.5022 26.3807 27.9334 25.8495 27.9334H19.6963C19.1682 27.9334 18.737 27.5053 18.737 26.9741V20.821C18.737 20.2928 19.1651 19.8616 19.6963 19.8616ZM37.4467 21.7772H33.2092V26.0147H37.4467V21.7772ZM32.253 19.8616H38.4061C38.9342 19.8616 39.3655 20.2897 39.3655 20.821V26.9741C39.3655 27.1522 39.3186 27.3178 39.2342 27.4585C39.0686 27.7428 38.7592 27.9303 38.4093 27.9303H32.2561C31.7624 27.9303 31.353 27.5553 31.303 27.0741C31.2999 27.0428 31.2968 27.0085 31.2968 26.9741V20.821C31.2968 20.2928 31.7249 19.8616 32.2561 19.8616L32.253 19.8616ZM9.69058 32.4832H8.09994V36.7207H9.69058V32.4832ZM9.69058 38.6363V42.6238H2.60306C2.41556 42.6238 2.24681 42.5457 2.12181 42.4207C1.99681 42.2957 1.91868 42.127 1.91868 41.9395L1.91556 15.5923H43.6284V30.5675H10.6444H7.14124C6.61311 30.5675 6.18188 30.9956 6.18188 31.5268V37.68C6.18188 38.2081 6.61 38.6393 7.14124 38.6393H9.68812L9.69058 38.6363ZM32.253 32.4832H38.4092H44.5905H50.8749V60.9672H23.7373C23.6092 60.8047 23.4717 60.6516 23.3248 60.5047C22.3717 59.5516 21.053 58.9609 19.5998 58.9609C18.1436 58.9609 16.828 59.5516 15.8749 60.5047C15.728 60.6516 15.5905 60.8047 15.4624 60.9672H11.6061V32.4832H13.2968H19.6937H19.6968H25.8499H25.853H32.2499H32.253ZM9.97778 2.41441C9.57778 2.41441 9.21215 2.58003 8.9465 2.84565C8.68087 3.11128 8.51525 3.4769 8.51525 3.87693V7.27381C8.51525 7.67381 8.68087 8.03944 8.94338 8.30509C9.209 8.57072 9.57463 8.73634 9.97466 8.73634C10.3747 8.73634 10.7403 8.57072 11.0059 8.30509C11.2716 8.03947 11.4372 7.67385 11.4372 7.27381V5.61445V5.61133V3.87693C11.4372 3.47693 11.2716 3.1113 11.0059 2.84565C10.7403 2.58002 10.3747 2.4144 9.97466 2.4144L9.97778 2.41441ZM35.565 2.41441C35.165 2.41441 34.7994 2.58003 34.5337 2.84565C34.2681 3.11128 34.1025 3.4769 34.1025 3.87693V7.27381C34.1025 7.67381 34.2681 8.03944 34.5337 8.30509C34.7993 8.57072 35.165 8.73634 35.565 8.73634C35.965 8.73634 36.3306 8.57072 36.5963 8.30509C36.8619 8.03947 37.0275 7.67385 37.0275 7.27381V5.61445V5.61133V3.87693C37.0275 3.47693 36.8619 3.1113 36.5963 2.84565C36.3306 2.58002 35.965 2.41441 35.565 2.41441ZM38.9431 6.57065H42.9463C43.1338 6.57065 43.3025 6.64877 43.4275 6.77377C43.5525 6.89878 43.6306 7.06753 43.6306 7.25502V13.6769L1.91463 13.68V7.25815C1.91463 7.07064 1.99276 6.9019 2.11776 6.7769C2.24277 6.6519 2.41151 6.57377 2.59901 6.57377H6.60213V7.2769C6.60213 8.20506 6.98338 9.05194 7.59277 9.66442C8.20527 10.2769 9.04901 10.6551 9.98029 10.6551C10.9085 10.6551 11.7553 10.2738 12.3678 9.66442C12.9803 9.05192 13.3585 8.20818 13.3585 7.2769V6.57377H32.1897V7.2769C32.1897 8.20506 32.5709 9.05194 33.1803 9.66442C33.7928 10.2769 34.6365 10.6551 35.5678 10.6551C36.496 10.6551 37.3429 10.2738 37.9553 9.66442C38.5678 9.05192 38.946 8.20818 38.946 7.2769V6.57377L38.9431 6.57065ZM35.565 0.495605C36.4931 0.495605 37.34 0.876854 37.9525 1.48625C38.565 2.09874 38.9431 2.94249 38.9431 3.87377V4.65501H42.9463C43.6619 4.65501 44.3119 4.94564 44.7838 5.41752C45.2557 5.88939 45.5463 6.53936 45.5463 7.25504V30.5678H51.8307C52.3588 30.5678 52.79 30.996 52.79 31.5272V33.1428C53.9713 33.174 55.4807 33.2928 56.9463 33.7022C58.8712 34.2428 60.6807 35.2772 61.5744 37.2459C63.9276 37.3647 66.2276 39.3678 68.062 41.9522C70.3651 45.1928 71.9995 49.4335 71.9995 51.8306V63.4746C71.9995 64.2371 71.687 64.9308 71.1839 65.4339C70.6807 65.9371 69.987 66.2495 69.2245 66.2495H64.6495C64.3807 66.8933 63.9901 67.4745 63.5057 67.9589C62.5526 68.912 61.2339 69.5027 59.7808 69.5027C58.3245 69.5027 57.0089 68.912 56.0558 67.9589C55.5714 67.4745 55.1776 66.8933 54.912 66.2495H24.4648C24.1961 66.8933 23.8055 67.4745 23.3211 67.9589C22.368 68.912 21.0492 69.5027 19.5961 69.5027C18.1399 69.5027 16.8243 68.912 15.8712 67.9589C15.3868 67.4745 14.993 66.8933 14.7274 66.2495H8.73676C8.20863 66.2495 7.77739 65.8214 7.77739 65.2902V61.9277C7.77739 61.3996 8.20552 60.9683 8.73676 60.9683H9.68675V44.5435H2.59923C1.88361 44.5435 1.23363 44.2529 0.761715 43.781C0.289843 43.3092 -0.00078125 42.6592 -0.00078125 41.9435L-0.00390625 7.25631C-0.00390625 6.54069 0.286718 5.89071 0.75859 5.41879C1.23046 4.94692 1.88043 4.65629 2.59611 4.65629H6.59923V3.87504C6.59923 2.94688 6.98048 2.1 7.58987 1.48752C8.20237 0.875022 9.04611 0.496878 9.97739 0.496878C10.9056 0.496878 11.7524 0.878126 12.3649 1.48752C12.9774 2.10001 13.3555 2.94376 13.3555 3.87504V4.65629H32.1868V3.87504C32.1868 2.94688 32.568 2.1 33.1774 1.48752C33.7899 0.875022 34.6336 0.496878 35.5649 0.496878L35.565 0.495605ZM22.9866 35.6172C22.4584 35.6172 22.0272 36.0453 22.0272 36.5766V53.0734C22.0272 53.6015 22.4553 54.0327 22.9866 54.0327H39.4834C40.0115 54.0327 40.4427 53.6046 40.4427 53.0734V36.5766C40.4427 36.0484 40.0146 35.6172 39.4834 35.6172H22.9866ZM29.7303 37.5328V41.2953L30.6147 40.5578C30.9616 40.2609 31.4835 40.2484 31.846 40.5484L32.7429 41.2953V37.5328L29.7303 37.5328ZM34.6585 37.5328V43.3359C34.6585 43.8641 34.2304 44.2953 33.6991 44.2953C33.4335 44.2953 33.196 44.189 33.021 44.014L31.2335 42.5265L29.3804 44.0703C28.9741 44.4078 28.3741 44.3515 28.0366 43.9484C27.8897 43.7703 27.8147 43.5547 27.8147 43.339H27.8116V37.5359H23.9429V52.1175H38.5245V37.5359H34.6558L34.6585 37.5328Z" fill="black"/>
</svg>
