<svg width="67" height="67" viewBox="0 0 67 67" fill="none" xmlns="http://www.w3.org/2000/svg">
<path d="M33.4278 35.2251C33.3277 34.9739 33.3034 34.6989 33.3579 34.434C33.4124 34.1691 33.5434 33.926 33.7346 33.7348C33.9259 33.5435 34.169 33.4125 34.4338 33.358C34.6987 33.3035 34.9738 33.3278 35.225 33.4279L60.225 43.1501C60.493 43.2549 60.7219 43.4403 60.88 43.6807C61.0381 43.9211 61.1176 44.2048 61.1076 44.4923C61.0975 44.7799 60.9984 45.0573 60.8238 45.2861C60.6493 45.5149 60.408 45.6838 60.1333 45.7696L50.5667 48.7362C50.135 48.8697 49.7425 49.1064 49.423 49.4259C49.1035 49.7454 48.8668 50.1379 48.7333 50.5696L45.7695 60.1335C45.6837 60.4082 45.5148 60.6494 45.286 60.824C45.0572 60.9985 44.7798 61.0976 44.4922 61.1077C44.2046 61.1177 43.921 61.0382 43.6806 60.8801C43.4401 60.722 43.2547 60.4932 43.15 60.2251L33.4278 35.2251Z" stroke="url(#paint0_linear_5649_3387)" stroke-width="5.55555" stroke-linecap="round" stroke-linejoin="round"/>
<path d="M58.3334 30.5557V13.8891C58.3334 12.4156 57.7481 11.0025 56.7062 9.96068C55.6643 8.91881 54.2512 8.3335 52.7778 8.3335H13.8889C12.4155 8.3335 11.0024 8.91881 9.96056 9.96068C8.91869 11.0025 8.33337 12.4156 8.33337 13.8891V52.7779C8.33337 54.2514 8.91869 55.6644 9.96056 56.7063C11.0024 57.7482 12.4155 58.3335 13.8889 58.3335H30.5556" stroke="url(#paint1_linear_5649_3387)" stroke-width="5.55555" stroke-linecap="round" stroke-linejoin="round"/>
<defs>
<linearGradient id="paint0_linear_5649_3387" x1="33.3295" y1="47.2191" x2="61.1084" y2="47.2191" gradientUnits="userSpaceOnUse">
<stop stop-color="#33FCFE"/>
<stop offset="1" stop-color="#010B66"/>
</linearGradient>
<linearGradient id="paint1_linear_5649_3387" x1="8.33337" y1="33.3335" x2="58.3334" y2="33.3335" gradientUnits="userSpaceOnUse">
<stop stop-color="#33FCFE"/>
<stop offset="1" stop-color="#010B66"/>
</linearGradient>
</defs>
</svg>
