<svg width="59" height="52" viewBox="0 0 59 52" fill="none" xmlns="http://www.w3.org/2000/svg">
<path d="M51.5 36.8996V25.5996C51.5 24.4996 50.6 23.5996 49.5 23.5996H36.2H21.8H8.5C7.4 23.5996 6.5 24.4996 6.5 25.5996V36.9996C2.9 37.2996 0 40.2996 0 43.9996C0 47.8996 3.2 51.0996 7.1 51.0996H50.9C54.8 51.0996 58 47.8996 58 43.9996C58 40.2996 55.1 37.2996 51.5 36.8996ZM49.5 25.5996V36.8996H37.2V25.5996H39.8V29.3996C39.8 29.7996 40 30.1996 40.3 30.3996C40.5 30.4996 40.7 30.5996 41 30.5996C41.2 30.5996 41.3 30.5996 41.5 30.4996L43.4 29.6996L45.3 30.4996C45.7 30.6996 46.1 30.5996 46.4 30.3996C46.7 30.1996 46.9 29.7996 46.9 29.3996V25.5996H49.5ZM22.8 36.8996V25.5996H25.4V29.3996C25.4 29.7996 25.6 30.1996 25.9 30.3996C26.1 30.4996 26.3 30.5996 26.6 30.5996C26.8 30.5996 26.9 30.5996 27.1 30.4996L29 29.6996L30.9 30.4996C31.3 30.6996 31.7 30.5996 32 30.3996C32.3 30.1996 32.5 29.7996 32.5 29.3996V25.5996H35.1V36.8996H22.8ZM27.4 25.5996H30.5V28.1996L29.4 27.6996C29.1 27.5996 28.8 27.5996 28.5 27.6996L27.4 28.1996V25.5996ZM41.8 25.5996H44.9V28.1996L43.8 27.6996C43.5 27.5996 43.2 27.5996 42.9 27.6996L41.8 28.1996V25.5996ZM13.1 25.5996H16.2V28.1996L15.1 27.6996C14.8 27.5996 14.5 27.5996 14.2 27.6996L13.1 28.1996V25.5996ZM11.1 25.5996V29.3996C11.1 29.7996 11.3 30.1996 11.6 30.3996C11.8 30.4996 12 30.5996 12.3 30.5996C12.5 30.5996 12.6 30.5996 12.8 30.4996L14.7 29.6996L16.6 30.4996C17 30.6996 17.4 30.5996 17.7 30.3996C18 30.1996 18.2 29.7996 18.2 29.3996V25.5996H20.8V36.8996H8.5V25.5996H11.1ZM50.9 49.1996H7.1C4.3 49.1996 2 46.8996 2 43.9996C2 41.0996 4.3 38.8996 7.1 38.8996H50.9C53.7 38.8996 56 41.1996 56 43.9996C56 46.7996 53.7 49.1996 50.9 49.1996Z" fill="black"/>
<path d="M7.3 40.6997C5.5 40.6997 4 42.1997 4 43.9997C4 45.7997 5.5 47.3997 7.4 47.3997C9.3 47.3997 10.8 45.8997 10.8 43.9997C10.8 42.0997 9.2 40.6997 7.3 40.6997ZM7.3 45.3997C6.6 45.3997 6 44.7997 6 43.9997C6 43.2997 6.6 42.5997 7.4 42.5997C8.2 42.5997 8.8 43.1997 8.8 43.9997C8.7 44.7997 8.1 45.3997 7.3 45.3997Z" fill="black"/>
<path d="M50.5992 40.6997C48.7992 40.6997 47.1992 42.1997 47.1992 44.0997C47.1992 45.9997 48.6992 47.4997 50.5992 47.4997C52.4992 47.4997 53.9992 45.8997 53.9992 43.9997C53.9992 42.0997 52.4992 40.6997 50.5992 40.6997ZM50.5992 45.3997C49.8992 45.3997 49.1992 44.7997 49.1992 43.9997C49.1992 43.2997 49.7992 42.5997 50.5992 42.5997C51.2992 42.5997 51.9992 43.1997 51.9992 43.9997C51.9992 44.7997 51.3992 45.3997 50.5992 45.3997Z" fill="black"/>
<path d="M39.8004 40.6997C38.0004 40.6997 36.4004 42.1997 36.4004 44.0997C36.4004 45.9997 37.9004 47.4997 39.8004 47.4997C41.7004 47.4997 43.2004 45.9997 43.2004 44.0997C43.2004 42.1997 41.7004 40.6997 39.8004 40.6997ZM39.8004 45.3997C39.1004 45.3997 38.4004 44.7997 38.4004 43.9997C38.4004 43.2997 39.0004 42.5997 39.8004 42.5997C40.6004 42.5997 41.2004 43.1997 41.2004 43.9997C41.2004 44.7997 40.6004 45.3997 39.8004 45.3997Z" fill="black"/>
<path d="M28.9996 40.6997C27.1996 40.6997 25.5996 42.1997 25.5996 44.0997C25.5996 45.9997 27.0996 47.4997 28.9996 47.4997C30.8996 47.4997 32.3996 45.9997 32.3996 44.0997C32.3996 42.1997 30.7996 40.6997 28.9996 40.6997ZM28.9996 45.3997C28.2996 45.3997 27.5996 44.7997 27.5996 43.9997C27.5996 43.2997 28.1996 42.5997 28.9996 42.5997C29.6996 42.5997 30.3996 43.1997 30.3996 43.9997C30.2996 44.7997 29.6996 45.3997 28.9996 45.3997Z" fill="black"/>
<path d="M18.0992 40.6997C16.2992 40.6997 14.6992 42.1997 14.6992 44.0997C14.6992 45.9997 16.1992 47.4997 18.0992 47.4997C19.9992 47.4997 21.4992 45.9997 21.4992 44.0997C21.4992 42.1997 19.9992 40.6997 18.0992 40.6997ZM18.0992 45.3997C17.3992 45.3997 16.6992 44.7997 16.6992 43.9997C16.6992 43.2997 17.2992 42.5997 18.0992 42.5997C18.7992 42.5997 19.4992 43.1997 19.4992 43.9997C19.4992 44.7997 18.8992 45.3997 18.0992 45.3997Z" fill="black"/>
<path d="M1 2.7998H28V6.8998C26.7 7.2998 25.7 8.5998 25.7 10.0998C25.7 10.4998 25.8 10.7998 25.9 11.1998L23.2 13.1998C22.8 13.4998 22.6 13.8998 22.6 14.3998V19.1998C22.6 19.7998 23 20.1998 23.6 20.1998C24.2 20.1998 24.6 19.7998 24.6 19.1998V14.5998L27.1 12.7998C27.7 13.1998 28.3 13.4998 29.1 13.4998C29.8 13.4998 30.5 13.2998 31.1 12.7998L33.6 14.5998V19.1998C33.6 19.7998 34 20.1998 34.6 20.1998C35.2 20.1998 35.6 19.7998 35.6 19.1998V14.3998C35.6 13.8998 35.4 13.4998 35 13.1998L32.3 11.1998C32.4 10.8998 32.5 10.4998 32.5 10.0998C32.5 8.5998 31.5 7.3998 30.2 6.8998V2.7998H57.2C57.8 2.7998 58.2 2.3998 58.2 1.7998C58.2 1.1998 57.8 0.799805 57.2 0.799805H1C0.4 0.799805 0 1.1998 0 1.7998C0 2.3998 0.4 2.7998 1 2.7998ZM29 11.3998C28.3 11.3998 27.7 10.7998 27.7 10.0998C27.7 9.39981 28.3 8.7998 29 8.7998C29.7 8.7998 30.3 9.39981 30.3 10.0998C30.3 10.7998 29.7 11.3998 29 11.3998Z" fill="black"/>
</svg>
