<?xml version="1.0" encoding="UTF-8" standalone="no"?>
<svg
   width="72"
   height="70"
   viewBox="0 0 72 70"
   fill="none"
   version="1.1"
   id="svg1"
   xmlns="http://www.w3.org/2000/svg"
   xmlns:svg="http://www.w3.org/2000/svg">
  <defs
     id="defs1" />
  <path
     d="m 32.915199,1.8393 c 0.0118,0 0.0235,0 0.0391,-0.0039 1.1875,-0.1289 2.3984,-0.1914 3.6016,-0.1914 h 0.2344 c 0.1836,0.0039 0.3554,-0.1563 0.3594,-0.3516 0.0039,-0.1953 -0.1563,-0.3555 -0.3516,-0.3594 h -0.2383 c -1.2266,0 -2.4609,0.0664 -3.6758,0.1953 -0.1953,0.0196 -0.3359,0.1953 -0.3164,0.3906 0.0156,0.1836 0.1679,0.3204 0.3476,0.3204 z"
     fill="#000000"
     id="path1" />
  <path
     d="m 25.360099,3.5425 c 0.039,0 0.0781,-0.0078 0.1171,-0.0196 1.2031,-0.4218 2.4453,-0.7812 3.6875,-1.0586 0.1915,-0.0429 0.3086,-0.2343 0.2657,-0.4218 -0.043,-0.1914 -0.2344,-0.3086 -0.4219,-0.2657 -1.2695,0.2891 -2.5391,0.6485 -3.7656,1.082 -0.1836,0.0665 -0.2813,0.2657 -0.2188,0.4532 0.0547,0.1406 0.1914,0.2305 0.336,0.2305 z"
     fill="#000000"
     id="path2" />
  <path
     d="m 18.400499,6.9371 c 0.0664,0 0.1328,-0.0156 0.1914,-0.0547 1.0742,-0.6875 2.2031,-1.3203 3.3477,-1.8789 0.1758,-0.0859 0.25,-0.2969 0.164,-0.4727 -0.0859,-0.1757 -0.2968,-0.25 -0.4726,-0.164 -1.1719,0.5703 -2.3203,1.2148 -3.4219,1.918 -0.1641,0.1054 -0.211,0.3242 -0.1094,0.4883 0.0703,0.1054 0.1836,0.164 0.3008,0.164 z"
     fill="#000000"
     id="path3" />
  <path
     d="m 12.392499,11.8274 c 0.0937,0 0.1836,-0.0351 0.2539,-0.1094 0.8906,-0.914 1.8438,-1.7852 2.8359,-2.5898 0.1523,-0.1211 0.1758,-0.3476 0.0508,-0.4961 -0.1211,-0.1523 -0.3477,-0.1757 -0.4961,-0.0507 -1.0117,0.8242 -1.9844,1.7109 -2.8945,2.6445 -0.1368,0.1406 -0.1368,0.3632 0.0039,0.5 0.0664,0.0703 0.1562,0.1015 0.2461,0.1015 z"
     fill="#000000"
     id="path4" />
  <path
     d="m 7.4619986,17.9055 c 0.0585,0.0352 0.121,0.0508 0.1835,0.0508 0.1211,0 0.2383,-0.0586 0.3008,-0.1719 0.6602,-1.0898 1.3906,-2.1562 2.1719004,-3.168 0.1211,-0.1563 0.0938,-0.3789 -0.0625,-0.4961 -0.1562,-0.1211 -0.3789,-0.0937 -0.4961,0.0625 -0.7969,1.0312 -1.5469,2.1211 -2.2188,3.2344 -0.0976,0.168 -0.0429,0.3867 0.1211996,0.4883 z"
     fill="#000000"
     id="path5" />
  <path
     d="m 40.623199,1.8902 c 1.2656,0.1563 2.5391,0.3828 3.7812,0.6836 0.0273,0.0078 0.0547,0.0117 0.082,0.0117 0.1602,0 0.3047,-0.1093 0.3438,-0.2734 0.0468,-0.1914 -0.0743,-0.3828 -0.2618,-0.4258 -1.2656,-0.3047 -2.5664,-0.539 -3.8594,-0.6953 -0.1953,-0.0234 -0.3711,0.1133 -0.3945,0.3086 -0.0234,0.1875 0.1134,0.3672 0.3087,0.3906 z"
     fill="#000000"
     id="path6" />
  <path
     d="m 31.088299,68.0034 c -1.2617,-0.2071 -2.5195,-0.4883 -3.7461,-0.8438 -0.1875,-0.0508 -0.3867,0.0547 -0.4375,0.2422 -0.0508,0.1875 0.0547,0.3867 0.2422,0.4375 1.2539,0.3594 2.5391,0.6484 3.8281,0.8594 0.0195,0.0039 0.039,0.0039 0.0586,0.0039 0.1718,0 0.3203,-0.1211 0.3515,-0.2969 0.0274,-0.1875 -0.1015,-0.3711 -0.2968,-0.4023 z"
     fill="#000000"
     id="path7" />
  <path
     d="m 38.747999,68.3785 c -0.7265,0.0468 -1.4609,0.0703 -2.1914,0.0703 h -0.0039 c -0.5469,0 -1.1016,-0.0117 -1.6484,-0.0391 -0.1953,-0.0117 -0.3633,0.1406 -0.3711,0.336 -0.0117,0.1953 0.1406,0.3632 0.336,0.371 0.5586,0.0274 1.125,0.0391 1.6836,0.0391 0.7422,0 1.4961,-0.0234 2.2344,-0.0742 0.1953,-0.0117 0.3437,-0.1797 0.3281,-0.3789 -0.0039,-0.1875 -0.172,-0.3399 -0.3673,-0.3242 z"
     fill="#000000"
     id="path8" />
  <path
     d="m 23.715699,65.8945 c -1.1758,-0.4883 -2.3398,-1.0547 -3.4531,-1.6797 -0.1719,-0.0937 -0.3867,-0.0351 -0.4844,0.1367 -0.0937,0.1719 -0.0351,0.3867 0.1368,0.4844 1.1367,0.6367 2.3242,1.2148 3.5273,1.7148 0.0468,0.0156 0.0898,0.0273 0.1367,0.0273 0.1367,0 0.2695,-0.082 0.3281,-0.2187 0.0781,-0.1836 -0.0078,-0.3906 -0.1914,-0.4648 z"
     fill="#000000"
     id="path9" />
  <path
     d="m 9.1853986,54.2025 c -0.1133,-0.1602 -0.3321,-0.1992 -0.4922,-0.0859 -0.1602,0.1132 -0.1992,0.332 -0.086,0.4921 0.6875,0.9805 1.4336004,1.9336 2.2227004,2.8398 0.0704,0.0782 0.168,0.1211 0.2657,0.1211 0.082,0 0.164,-0.0273 0.2343,-0.0859 0.1485,-0.1289 0.1641,-0.3516 0.0352,-0.5 -0.7734,-0.8867 -1.5039004,-1.8242 -2.1797004,-2.7812 z"
     fill="#000000"
     id="path10" />
  <path
     d="m 46.290399,67.0075 c -1.2188,0.3711 -2.4766,0.6758 -3.7344,0.9024 -0.1915,0.0351 -0.3204,0.2187 -0.2852,0.414 0.0312,0.1719 0.1797,0.2891 0.3477,0.2891 0.0195,0 0.0429,-0.0039 0.0625,-0.0039 1.2812,-0.2344 2.5664,-0.543 3.8125,-0.9219 0.1875,-0.0586 0.2929,-0.2539 0.2343,-0.4414 -0.0547,-0.1875 -0.2499,-0.293 -0.4374,-0.2383 z"
     fill="#000000"
     id="path11" />
  <path
     d="m 17.023799,62.1483 c -1.0352,-0.7461 -2.0391,-1.5625 -2.9805,-2.4219 -0.1446,-0.1328 -0.3672,-0.1211 -0.5,0.0234 -0.1328,0.1446 -0.1211,0.3672 0.0234,0.5 0.9609,0.8789 1.9883,1.7109 3.043,2.4727 0.0625,0.0469 0.1367,0.0664 0.207,0.0664 0.1094,0 0.2188,-0.0507 0.2891,-0.1484 0.1133,-0.1562 0.0781,-0.375 -0.082,-0.4922 z"
     fill="#000000"
     id="path12" />
  <path
     d="m 65.739399,52.0261 c -0.168,-0.1016 -0.3868,-0.0469 -0.4844,0.1211 -0.6563,1.0938 -1.3789,2.1641 -2.1562,3.1758 -0.1211,0.1562 -0.0899,0.3789 0.0664,0.4961 0.0664,0.0508 0.1406,0.0742 0.2148,0.0742 0.1094,0 0.211,-0.0469 0.2813,-0.1406 0.793,-1.0352 1.5312,-2.1289 2.1992,-3.2461 0.1015,-0.1641 0.0468,-0.3828 -0.1211,-0.4805 z"
     fill="#000000"
     id="path13" />
  <path
     d="m 70.238999,37.3004 c -0.1953,-0.0156 -0.3633,0.1289 -0.379,0.3242 -0.0976,1.2734 -0.2695,2.5547 -0.5117,3.8086 -0.039,0.1914 0.086,0.3789 0.2813,0.4141 0.0234,0.0039 0.0469,0.0078 0.0664,0.0078 0.164,0 0.3164,-0.1172 0.3476,-0.2891 0.2461,-1.2773 0.4219,-2.5859 0.5235,-3.8867 0.0117,-0.1914 -0.1328,-0.3633 -0.3281,-0.3789 z"
     fill="#000000"
     id="path14" />
  <path
     d="m 69.868199,29.5621 c -0.1914,0.0312 -0.3242,0.2109 -0.2969,0.4023 0.1914,1.2578 0.3125,2.5469 0.3594,3.8242 0.0078,0.1914 0.1641,0.3399 0.3516,0.3399 h 0.0117 c 0.1953,-0.0079 0.3476,-0.1719 0.3398,-0.3672 -0.0469,-1.3047 -0.1719,-2.6211 -0.3672,-3.9023 -0.0234,-0.1953 -0.2031,-0.3282 -0.3984,-0.2969 z"
     fill="#000000"
     id="path15" />
  <path
     d="m 68.846099,44.9253 c -0.1875,-0.0586 -0.3867,0.0469 -0.4453,0.2305 -0.3867,1.2148 -0.8477,2.4219 -1.3711,3.5859 -0.0782,0.1758 0,0.3867 0.1758,0.4687 0.0468,0.0196 0.0976,0.0313 0.1445,0.0313 0.1367,0 0.2656,-0.0781 0.3242,-0.211 0.5352,-1.1914 1.0078,-2.4219 1.3984,-3.6641 0.0625,-0.1835 -0.039,-0.3827 -0.2265,-0.4413 z"
     fill="#000000"
     id="path16" />
  <path
     d="m 15.450299,15.3272 c -0.0117,0.0195 -0.0234,0.0391 -0.0312,0.0625 -0.0039,0.0039 -0.0039,0.0117 -0.0039,0.0117 -0.0078,0.0274 -0.0156,0.0547 -0.0156,0.0821 v 0.0234 c 0,0.0156 -0.0039,0.0273 0,0.043 0,0.0039 0.0039,0.0078 0.0039,0.0117 0.0039,0.039 0.0156,0.0742 0.0312,0.1133 0,0 0,0.0039 0.0039,0.0039 v 0.0039 c 0.3985,0.789 3.7891,5.1875 4.1758,5.6875 0.0586,0.0742 0.1406,0.1211 0.2344,0.1367 0.4258,0.0547 1.0742,0.0742 1.7461,0.0742 1.2852,0 2.6602,-0.0664 2.7461,-0.0742 0.0313,-0.0039 0.0586,-0.0078 0.0859,-0.0156 0.0079,-0.0039 0.0157,-0.0039 0.0196,-0.0078 0.0117,-0.004 0.0234,-0.0079 0.0351,-0.0118 1.9062,-0.9687 5.2539,-3.7461 5.3945,-3.8633 0.1133,-0.0937 0.1563,-0.2422 0.1094,-0.3828 -0.6015,-1.8594 -1.582,-3.582 -2.3008,-4.7031 -0.332,-0.5195 -1.043,-1.5898 -1.4883,-2.0117 -0.0039,-0.0117 -0.0117,-0.0195 -0.0156,-0.0312 -0.0625,-0.086 -0.1563,-0.1367 -0.25,-0.1446 -0.0039,0 -0.0039,-0.0039 -0.0078,-0.0039 -1.4883,-0.1289 -4.9844,0.1797 -5.1367,0.1915 -0.0547,0.0039 -0.1055,0.0234 -0.1524,0.0507 -3.3008,2.0078 -5.1055,4.6328 -5.1836,4.7422 0.0039,0.0039 0,0.0078 0,0.0117 z m 4.6289,5.4844 c -0.9296,-1.207 -2.9453,-3.8516 -3.7227,-4.9961 1.2344,-0.0937 3.1406,-0.1836 3.7617,-0.2109 0.4805,0.7461 2.375,3.6641 3.5117,5.2188 -0.9453,0.0351 -2.6601,0.082 -3.5507,-0.0118 z m 4.3359,-0.1172 c -1.0352,-1.3672 -3.0859,-4.5234 -3.6602,-5.4102 1.332,-1.3555 4.2188,-3.4961 5.0898,-4.1289 0.5743,0.7031 2.418,3.2188 3.3906,6.0547 -0.6992,0.5703 -3.2069,2.5898 -4.8202,3.4844 z m -4.2656,-5.8008 c -0.5234,0.0235 -2.3398,0.1094 -3.6328,0.2031 0.7188,-0.8789 2.2344,-2.5312 4.4219,-3.875 0.4297,-0.039 2.4453,-0.2031 3.918,-0.2148 -1.2539,0.9297 -3.5782,2.7031 -4.7071,3.8867 z"
     fill="#000000"
     id="path17" />
  <path
     d="m 33.848399,27.1404 c -0.0625,-0.1094 -0.1797,-0.1758 -0.3086,-0.1758 h -2.3242 c 0.0743,-0.6484 0.3282,-1.9648 1.1992,-2.7305 0.1094,-0.0977 0.1485,-0.2539 0.0977,-0.3906 -0.0508,-0.1367 -0.1836,-0.2305 -0.332,-0.2305 h -3.2734 c -0.0821,0 -0.1641,0.0313 -0.2266,0.082 -0.0508,0.043 -1.1836,1.0234 -1.3867,3.2656 h -2.2344 c -0.1289,0 -0.25,0.0703 -0.3086,0.1836 l -3.5195,6.4609 h -7.5 l -0.9961,-1.7031 c 1.7461,0.3867 3.4414,0.6485 3.5547,0.668 0.0157,0.0039 0.0391,0.0039 0.0547,0.0039 0.125,0 0.2383,-0.0664 0.3047,-0.1758 0.9961,-1.6836 1.6367,-3.5586 2.0039,-4.8359 0.1719,-0.5937 0.5039,-1.832 0.5235,-2.4453 0.0039,-0.0117 0.0078,-0.0234 0.0117,-0.0312 0.0234,-0.1016 -0.0039,-0.2031 -0.0586,-0.2813 0,-0.0039 -0.0039,-0.0039 -0.0039,-0.0039 -0.8906,-1.2031 -3.4336,-3.6172 -3.543,-3.7188 -0.0391,-0.039 -0.086,-0.0664 -0.1367,-0.0781 -3.6914,-1.1484 -6.8516004,-0.7617 -6.9844004,-0.7461 -0.0313,0.0039 -0.0665,0.0156 -0.0938,0.0273 -0.0039,0.004 -0.0117,0.004 -0.0156,0.0079 -0.0313,0.0156 -0.0625,0.039 -0.0899,0.0664 -0.0039,0.0039 -0.0117,0.0039 -0.0156,0.0117 -0.0039,0.0039 -0.0039,0.0078 -0.0078,0.0117 -0.0234,0.0313 -0.0469,0.0586 -0.0625,0.0977 0,0.0039 -0.0039,0.0078 -0.0039,0.0117 v 0.0039 c -0.207,0.5273 -0.6914,2.832 -1.0547,4.6445 -0.3281,-0.4844 -0.7305,-0.9531 -1.2109,-1.2891 -0.0586,-0.043 -0.1289,-0.0625 -0.2031,-0.0625 l -3.8906,-0.0078 c -0.1485,0 -0.2813,0.0937 -0.3321,0.2344 -0.0507,0.1406 -0.0078,0.2968 0.1094,0.3906 0.0156,0.0117 1.3477,1.1133 2.1445,2.5586 h -1.9492 c -0.1289,0 -0.2461,0.0664 -0.3086,0.1758 -0.0625,0.1093 -0.0625,0.246 0.0039,0.3554 l 3.7812,6.4492 -3.2812,5.0156 c -0.0703,0.1094 -0.0781,0.2461 -0.0156,0.3633 0.0625,0.1133 0.1836,0.1836 0.3125,0.1836 h 3.0469 v 12.367 c 0,0.1953 0.1563,0.3555 0.3555,0.3555 H 29.653599 c 0.1953,0 0.3555,-0.1563 0.3555,-0.3555 v -12.367 h 3.5391 c 0.1367,0 0.2578,-0.0742 0.3164,-0.1953 0.0586,-0.1211 0.0468,-0.2617 -0.0313,-0.3711 l -3.75,-5.0117 3.7734,-6.4414 c 0.0547,-0.1016 0.0542,-0.2381 -0.0083,-0.3475 z M 5.5823986,24.4802 c 0.8438,0.6406 1.4297,1.8164 1.707,2.4805 h -2.7617 c -0.4961,-1.0391 -1.2617,-1.9219 -1.8125,-2.4805 z m 9.5664004,-2.832 c 0.3125,0.2969 1.7695,1.6992 2.7539,2.7969 -1.5234,-0.3242 -4.3906,-0.8907 -6.0273,-0.9532 -0.3593,-0.371 -1.6289,-1.6758 -2.5586004,-2.5898 1.1328004,-0.0468 3.3711004,-0.0039 5.8320004,0.7461 z m -4.3438,6.9531 c 0.4297,-1.7031 0.9844,-3.6914 1.1797,-4.3984 1.8984,0.1015 5.4141,0.8515 6.4648,1.082 -0.1484,0.8984 -0.8125,3.9414 -2.2969,6.5469 -0.6211,-0.1016 -2.3398,-0.3946 -3.9141,-0.7696 z m 0.5196,-4.6641 c -0.1563,0.5586 -0.6133,2.1992 -1.0273,3.793 L 9.9534986,27.1403 c -0.0625,-0.1093 -0.1797,-0.1757 -0.3047,-0.1757 h -1.5898 c -0.082,-0.2149 -0.2187,-0.543 -0.4062,-0.9141 0.3242,-1.6211 0.7617,-3.7656 1.0234,-4.7891 0.8828,0.8594 2.2188004,2.2305 2.6484004,2.6758 z m -1.8828004,3.7344 3.4648004,5.9375 H 5.8792986 l -3.4766,-5.9375 z m -4.1172,7.4805 v 3.6562 h -2.3906 z m 0.707,4.0078 v -4.8438 h 7.1406004 v 17.211 L 6.0315986,51.531 Z m 7.8477004,-4.0273 2.8164,4.2266 c 0.0664,0.0976 0.1758,0.1562 0.2969,0.1562 h 12.305 v 12.016 h -15.414 z m 3.3008,3.6758 -2.9961,-4.4922 h 15.281 l 3.3594,4.4883 z m 12.266,-5.1992 h -7.4141 l 3.2344,-5.9375 h 7.6523 z m 1.9492,-9.2891 c -0.6445,0.9258 -0.8359,2.0664 -0.8945,2.6406 h -2.5 c 0.1562,-1.5742 0.8086,-2.3906 1.0469,-2.6406 z"
     fill="#000000"
     id="path18" />
  <path
     d="m 26.726899,45.8432 -6.5547,-4.7773 c -0.1562,-0.1133 -0.3789,-0.0782 -0.4961,0.0781 l -2.1992,3.0195 c -0.0546,0.0742 -0.0781,0.1719 -0.0664,0.2617 0.0157,0.0938 0.0664,0.1758 0.1407,0.2344 l 6.5547,4.7773 c 0.0586,0.0469 0.1367,0.0664 0.207,0.0664 0.0156,0 0.0391,-0.0039 0.0547,-0.0039 0.0937,-0.0156 0.1758,-0.0664 0.2344,-0.1406 l 2.1992,-3.0195 c 0.0546,-0.0742 0.0781,-0.1719 0.0664,-0.2617 -0.0157,-0.0977 -0.0664,-0.1797 -0.1407,-0.2344 z m -8.4688,-1.5508 1.7812,-2.4492 5.9844,4.3594 -1.7812,2.4492 z"
     fill="#000000"
     id="path19" />
  <path
     d="m 57.950599,60.2065 c -1.1406,0 -2.0703,0.9296 -2.0703,2.0703 0,1.1406 0.9296,2.0703 2.0703,2.0703 1.1406,0 2.0703,-0.9297 2.0703,-2.0703 0,-1.1407 -0.9258,-2.0703 -2.0703,-2.0703 z m 0,3.4336 c -0.754,0 -1.3633,-0.6094 -1.3633,-1.3633 0,-0.754 0.6132,-1.3634 1.3633,-1.3634 0.7539,0 1.3633,0.6133 1.3633,1.3634 0,0.75 -0.6133,1.3633 -1.3633,1.3633 z"
     fill="#000000"
     id="path20" />
  <path
     d="m 51.602899,60.3554 c -1.1211,0 -2.0312,0.9102 -2.0312,2.0312 0,1.121 0.9101,2.0312 2.0312,2.0312 0.6171,0 1.1914,-0.2734 1.5781,-0.7578 0.121,-0.1523 0.1015,-0.375 -0.0508,-0.4961 -0.0313,-0.0234 -0.0664,-0.0469 -0.1055,-0.0586 -0.1367,-0.0469 -0.2969,-0.0117 -0.3906,0.1094 -0.2539,0.3125 -0.6289,0.4922 -1.0312,0.4922 -0.7266,0 -1.3203,-0.5938 -1.3203,-1.3203 0,-0.7266 0.5937,-1.3203 1.3203,-1.3203 0.7265,0 1.3203,0.5937 1.3203,1.3203 0,0.1562 0.1015,0.2851 0.2383,0.332 0.039,0.0117 0.0742,0.0234 0.1172,0.0234 0.1953,0 0.3554,-0.1562 0.3554,-0.3554 0,-1.1211 -0.9102,-2.0312 -2.0312,-2.0312 z"
     fill="#000000"
     id="path21" />
  <path
     d="m 45.360699,60.2065 c -1.1406,0 -2.0703,0.9296 -2.0703,2.0703 0,1.1406 0.9297,2.0703 2.0703,2.0703 1.1406,0 2.0703,-0.9297 2.0703,-2.0703 0.0039,-1.1406 -0.9258,-2.0703 -2.0703,-2.0703 z m -1.3633,2.0703 c 0,-0.754 0.6094,-1.3634 1.3633,-1.3634 0.7539,0 1.3633,0.6133 1.3633,1.3634 0,0.75 -0.6133,1.3633 -1.3633,1.3633 -0.75,0 -1.3633,-0.6094 -1.3633,-1.3633 z"
     fill="#000000"
     id="path22" />
  <path
     d="m 39.180999,60.2065 c -1.1406,0 -2.0703,0.9296 -2.0703,2.0703 0,1.1406 0.9297,2.0703 2.0703,2.0703 1.1406,0 2.0703,-0.9297 2.0703,-2.0703 0,-1.1407 -0.9258,-2.0703 -2.0703,-2.0703 z m -1.3633,2.0703 c 0,-0.754 0.6133,-1.3634 1.3633,-1.3634 0.75,0 1.3633,0.6133 1.3633,1.3634 0,0.75 -0.6133,1.3633 -1.3633,1.3633 -0.75,0 -1.3633,-0.6094 -1.3633,-1.3633 z"
     fill="#000000"
     id="path23" />
  <path
     d="m 59.728299,50.0504 c 0.0664,0.0546 0.1445,0.0781 0.2266,0.0781 0.1015,0 0.2031,-0.0469 0.2734,-0.1289 l 1.1914,-1.4492 c 0.875,-0.0157 1.582,-0.7344 1.582,-1.6133 0,-0.8906 -0.7227,-1.6133 -1.6133,-1.6133 -0.0547,0 -0.1094,0.0039 -0.1641,0.0078 l -4.6406,-3.4844 c -0.2734,-0.6016 -0.7617,-1.082 -1.3633,-1.3438 v -2.4688 c 0,-0.5235 -0.4257,-0.9492 -0.9492,-0.9492 h -17.391 c -1.0078,0 -1.8281,0.8203 -1.8281,1.8281 v 21.371 c -0.289,0.4648 -0.457,1.0117 -0.457,1.6016 v 1.0078 c 0,1.6836 1.3711,3.0547 3.0547,3.0547 h 21.836 c 1.6836,0 3.0547,-1.3711 3.0547,-3.0547 v -1.0078 c 0,-1.6836 -1.3711,-3.0547 -3.0547,-3.0547 h -12.738 v -8.3438 c 0,-0.0469 -0.0117,-0.0899 -0.0234,-0.1289 0,-0.004 0,-0.004 -0.0039,-0.004 -0.0352,-0.0859 -0.1055,-0.1562 -0.1915,-0.1914 -0.0039,0 -0.0039,0 -0.0039,-0.0039 -0.039,-0.0156 -0.082,-0.0234 -0.1289,-0.0234 h -1.9219 l -2.9844,-10.738 h 11.648 v 1.1094 c -0.6054,0.2617 -1.0938,0.7383 -1.3633,1.3398 l -4.6406,3.4844 c -0.8594,0.0351 -1.5508,0.7422 -1.5508,1.6094 0,0.8906 0.7227,1.6133 1.6133,1.6133 h 0.0117 l 1.1875,1.4492 c 0.0704,0.0859 0.1719,0.1289 0.2735,0.1289 0.0781,0 0.1562,-0.0273 0.2265,-0.0781 0.1524,-0.125 0.1719,-0.3477 0.0508,-0.4961 l -0.9804,-1.1914 c 0.3632,-0.1992 0.6484,-0.5352 0.7734,-0.9414 l 3.6914,-2.5117 c 0.4687,0.414 1.0781,0.6679 1.75,0.6679 0.6719,0 1.2812,-0.2539 1.75,-0.6679 l 4.0078,2.7266 c 0.1523,0.3164 0.4023,0.5781 0.7148,0.7383 l -0.9687,1.1797 c -0.1328,0.1445 -0.1088,0.3671 0.0435,0.4921 z m -12.535,-2.2031 c -0.5,0 -0.9062,-0.4063 -0.9062,-0.9063 0,-0.5 0.4062,-0.9062 0.9062,-0.9062 0.5,0 0.9063,0.4062 0.9063,0.9062 0,0.4961 -0.4063,0.9063 -0.9063,0.9063 z m 0.8203,-2.293 3.5195,-2.6445 c 0,0.0078 -0.0039,0.0156 -0.0039,0.0234 0,0.5312 0.1563,1.0195 0.4258,1.4336 l -3.2031,2.1758 c -0.1016,-0.418 -0.375,-0.7696 -0.7383,-0.9883 z m 4.2266,-2.6172 c 0,-1.0664 0.8672,-1.9336 1.9336,-1.9336 1.0664,0 1.9336,0.8671 1.9336,1.9336 0,1.0664 -0.8672,1.9336 -1.9336,1.9336 -1.0664,0 -1.9336,-0.8711 -1.9336,-1.9336 z m 1.25,-4.25 h -12.469 c -0.1094,0 -0.2148,0.0507 -0.2812,0.1406 -0.0664,0.0859 -0.0899,0.2031 -0.0586,0.3086 l 3.0586,10.996 h -6.043 c -0.0469,0 -0.0899,0.0117 -0.1289,0.0234 -0.0039,0 -0.0039,0 -0.0039,0.0039 -0.086,0.0352 -0.1563,0.1055 -0.1915,0.1914 0,0.0039 0,0.0039 -0.0039,0.0039 -0.0156,0.0391 -0.0234,0.0821 -0.0234,0.1289 v 8.3594 c -0.5937,0.0586 -1.1367,0.293 -1.5781,0.6407 v -20.578 c 0,-0.6172 0.5039,-1.1211 1.1211,-1.1211 h 17.391 c 0.1328,0 0.2383,0.1093 0.2383,0.2382 v 2.2812 c -0.1094,-0.0156 -0.2188,-0.0234 -0.332,-0.0234 -0.1133,0 -0.2227,0.0117 -0.3321,0.0234 v -1.2734 c -0.0117,-0.1836 -0.1681,-0.3437 -0.3634,-0.3437 z m 8.3438,24.211 c 0,1.2969 -1.0508,2.3477 -2.3477,2.3477 h -21.836 c -1.2969,0 -2.3477,-1.0508 -2.3477,-2.3477 v -1.0078 c 0,-1.2969 1.0508,-2.3477 2.3477,-2.3477 h 21.836 c 1.2969,0 2.3477,1.0508 2.3477,2.3477 z m -18.734,-7.5039 c -0.1367,-0.1368 -0.3633,-0.1368 -0.5,0 -0.1367,0.1367 -0.1367,0.3632 0,0.5 l 2.9375,2.9375 h -6.9883 l 7.4883,-7.4883 v 6.9883 z m -5.0508,2.9375 v -6.9883 l 3.4961,3.4961 z m 3.9961,-3.9961 -3.4961,-3.4961 6.9883,0.0039 z m 14.348,-9.9648 c 0.2695,-0.4141 0.4258,-0.9063 0.4258,-1.4336 v -0.0235 l 3.625,2.7227 c -0.3398,0.2461 -0.5781,0.6211 -0.6484,1.0508 z m 4.0859,2.5703 c 0,-0.5 0.4063,-0.9063 0.9063,-0.9063 0.5,0 0.9062,0.4063 0.9062,0.9063 0,0.5 -0.4062,0.9062 -0.9062,0.9062 -0.5,0 -0.9063,-0.4102 -0.9063,-0.9062 z"
     fill="#000000"
     id="path24" />
  <path
     d="m 58.876299,48.4291 c 0,-0.0469 -0.0117,-0.0898 -0.0234,-0.1289 0,-0.0039 0,-0.0039 -0.0039,-0.0039 -0.0352,-0.0859 -0.1055,-0.1562 -0.1914,-0.1914 -0.0039,0 -0.0039,0 -0.0039,-0.0039 -0.0391,-0.0156 -0.0821,-0.0235 -0.1289,-0.0235 h -8.6992 c -0.0469,0 -0.0899,0.0118 -0.1289,0.0235 -0.0039,0 -0.0039,0 -0.0039,0.0039 -0.086,0.0351 -0.1563,0.1055 -0.1915,0.1914 0,0.0039 0,0.0039 -0.0039,0.0039 -0.0156,0.0391 -0.0234,0.082 -0.0234,0.1289 v 8.6992 c 0,0.0469 0.0117,0.0899 0.0234,0.1289 0,0.0039 0,0.0039 0.0039,0.0039 0.0352,0.086 0.1055,0.1563 0.1915,0.1914 0.0039,0 0.0039,0 0.0039,0.004 0.039,0.0156 0.082,0.0234 0.1289,0.0234 h 8.6992 c 0.0468,0 0.0898,-0.0117 0.1289,-0.0234 0.0039,0 0.0039,0 0.0039,-0.004 0.0859,-0.0351 0.1562,-0.1054 0.1914,-0.1914 0,-0.0039 0,-0.0039 0.0039,-0.0039 0.0156,-0.039 0.0234,-0.082 0.0234,-0.1289 z m -5.8477,3.7031 c 0.0704,0.0703 0.1602,0.1016 0.25,0.1016 0.0899,0 0.1797,-0.0352 0.25,-0.1016 0.1368,-0.1367 0.1368,-0.3633 0,-0.5 l -2.8516,-2.8516 h 6.9883 l -7.4883,7.4922 v -6.9883 z m 1.1445,1.1484 3.4961,3.4961 h -6.9883 z m 0.5039,-0.5 3.4962,-3.4961 v 6.9883 z"
     fill="#000000"
     id="path25" />
  <path
     d="m 35.935299,7.5424 v 16.898 c 0,1.875 1.5234,3.3984 3.4023,3.3984 h 8.9375 v 1.8203 h -2.2852 c -0.539,0 -0.9804,0.4414 -0.9804,0.9804 v 1.5234 c 0,0.5391 0.4414,0.9805 0.9804,0.9805 h 12.941 c 0.5391,0 0.9805,-0.4414 0.9805,-0.9805 v -1.5234 c 0,-0.539 -0.4414,-0.9804 -0.9805,-0.9804 h -2.2852 v -1.8203 h 8.9375 c 1.875,0 3.4023,-1.5234 3.4023,-3.3984 V 7.5424 c 0,-1.875 -1.5234,-3.3984 -3.4023,-3.3984 l -26.246,-0.0039 c -1.875,0 -3.4019,1.5273 -3.4019,3.4023 z m 3.4023,-2.6914 h 26.254 c 1.4844,0 2.6914,1.207 2.6914,2.6914 v 16.898 c 0,1.4844 -1.207,2.6914 -2.6914,2.6914 h -9.293 c -0.1953,0 -0.3554,0.1562 -0.3554,0.3554 v 2.5273 c 0,0.1953 0.1562,0.3555 0.3554,0.3555 h 2.6367 c 0.1485,0 0.2735,0.1211 0.2735,0.2734 v 1.5234 c 0,0.1485 -0.1211,0.2735 -0.2735,0.2735 h -12.941 c -0.1484,0 -0.2734,-0.1211 -0.2734,-0.2735 v -1.5234 c 0,-0.1484 0.1211,-0.2734 0.2734,-0.2734 h 2.6367 c 0.1953,0 0.3555,-0.1563 0.3555,-0.3555 v -2.5273 c 0,-0.1953 -0.1562,-0.3554 -0.3555,-0.3554 h -9.293 c -1.4844,0 -2.6914,-1.207 -2.6914,-2.6914 V 7.5424 c 0,-1.4844 1.2066,-2.6914 2.691,-2.6914 z"
     fill="#000000"
     id="path26" />
  <path
     d="m 39.981799,17.9565 c 0.8672,0 1.5938,-0.6172 1.7539,-1.4375 h 1.5664 v 0.8984 c 0,0.5547 0.4492,1.0039 1.0039,1.0039 h 1.3359 c 0.0547,0.1719 0.1172,0.3359 0.1836,0.5039 h -3.4492 c -0.4609,0 -0.832,0.375 -0.832,0.832 v 1.1211 c -0.8203,0.1641 -1.4375,0.8907 -1.4375,1.7539 0,0.9883 0.8007,1.793 1.793,1.793 0.9882,0 1.793,-0.8007 1.793,-1.793 0,-0.8672 -0.6172,-1.5938 -1.4375,-1.7539 v -1.1211 c 0,-0.0703 0.0547,-0.125 0.125,-0.125 h 3.6992 l -0.8985,0.8985 c -0.1914,0.1914 -0.2969,0.4414 -0.2969,0.7109 0,0.2656 0.1055,0.5195 0.2969,0.711 l 1.7734,1.7734 c 0.3906,0.3906 1.0273,0.3906 1.4219,0 l 0.9453,-0.9453 c 0.3711,0.1914 0.7657,0.3554 1.1641,0.4765 v 1.3438 c 0,0.5547 0.4493,1.0039 1.0039,1.0039 h 2.5039 c 0.5547,0 1.0039,-0.4492 1.0039,-1.0039 v -1.3359 c 0.3985,-0.1289 0.793,-0.2891 1.1602,-0.4883 l 0.9493,0.9492 c 0.3906,0.3907 1.0273,0.3907 1.4219,0 l 1.7734,-1.7734 c 0.1914,-0.1914 0.2968,-0.4414 0.2968,-0.7109 0,-0.2656 -0.1054,-0.5195 -0.2968,-0.7109 l -0.8985,-0.8985 h 3.7031 c 0.0703,0 0.125,0.0547 0.125,0.125 v 1.1211 c -0.8203,0.1641 -1.4375,0.8906 -1.4375,1.7539 0,0.9883 0.8008,1.793 1.793,1.793 0.9883,0 1.793,-0.8008 1.793,-1.793 0,-0.8672 -0.6172,-1.5938 -1.4375,-1.7539 v -1.1211 c 0,-0.4609 -0.3711,-0.832 -0.832,-0.832 h -3.4492 c 0.0664,-0.1641 0.125,-0.3359 0.1758,-0.5039 h 1.3438 c 0.5547,0 1.0039,-0.4492 1.0039,-1.0039 V 16.523 h 1.5664 c 0.164,0.8203 0.8906,1.4375 1.7539,1.4375 0.9882,0 1.793,-0.8008 1.793,-1.793 0,-0.9883 -0.8047,-1.793 -1.793,-1.793 -0.8672,0 -1.5938,0.6171 -1.7539,1.4375 h -1.5664 v -0.8985 c 0,-0.5547 -0.4493,-1.0039 -1.0039,-1.0039 h -1.3359 c -0.0547,-0.1719 -0.1172,-0.3359 -0.1836,-0.5039 h 3.4492 c 0.4609,0 0.832,-0.375 0.832,-0.832 v -1.1211 c 0.8203,-0.1641 1.4375,-0.8906 1.4375,-1.7539001 0,-0.9882999 -0.8047,-1.7929999 -1.793,-1.7929999 -0.9883,0 -1.793,0.8047 -1.793,1.7929999 0,0.8672001 0.6172,1.5938001 1.4375,1.7539001 v 1.1211 c 0,0.0703 -0.0547,0.125 -0.125,0.125 h -3.6992 l 0.8984,-0.8985 c 0.3907,-0.3906 0.3907,-1.0273 0,-1.4219 l -1.7734,-1.7734 c -0.1914,-0.1914 -0.4414,-0.2968 -0.7109,-0.2968 -0.2656,0 -0.5195,0.1054 -0.7109,0.2968 l -0.9453,0.9453 c -0.3711,-0.1914 -0.7657,-0.3554 -1.1641,-0.4765 V 7.7299 c 0,-0.5547 -0.4493,-1.0039 -1.0039,-1.0039 h -2.5039 c -0.5547,0 -1.0039,0.4492 -1.0039,1.0039 v 1.3359 c -0.3985,0.1289 -0.793,0.289 -1.1602,0.4883 l -0.9493,-0.9493 c -0.1914,-0.1914 -0.4414,-0.2968 -0.7109,-0.2968 -0.2656,0 -0.5195,0.1054 -0.7109,0.2968 l -1.7734,1.7734 c -0.3907,0.3907 -0.3907,1.0273 0,1.4219 l 0.8984,0.8985 h -3.7031 c -0.0703,0 -0.125,-0.0547 -0.125,-0.125 v -1.1211 c 0.8203,-0.1641 1.4375,-0.8906 1.4375,-1.7539001 0,-0.9882999 -0.8008,-1.7929999 -1.793,-1.7929999 -0.9883,0 -1.793,0.8047 -1.793,1.7929999 0,0.8672001 0.6172,1.5938001 1.4375,1.7539001 v 1.1211 c 0,0.4609 0.3711,0.832 0.832,0.832 h 3.4492 c -0.0664,0.1641 -0.125,0.336 -0.1758,0.5039 h -1.3438 c -0.5546,0 -1.0039,0.4492 -1.0039,1.0039 v 0.8985 l -1.5664,-0.0039 c -0.164,-0.8203 -0.8906,-1.4375 -1.7539,-1.4375 -0.9882,0 -1.793,0.8047 -1.793,1.793 0,0.9922 0.8008,1.793 1.793,1.793 z m 0.832,4.6758 c 0,-0.5977 0.4844,-1.082 1.082,-1.082 0.5977,0 1.082,0.4843 1.082,1.082 0,0.5976 -0.4843,1.082 -1.082,1.082 -0.5976,0.0039 -1.082,-0.4844 -1.082,-1.082 z m 21.68,0 c 0,-0.5977 0.4844,-1.082 1.082,-1.082 0.5977,0 1.082,0.4843 1.082,1.082 0,0.5976 -0.4843,1.082 -1.082,1.082 -0.5937,0.0039 -1.082,-0.4844 -1.082,-1.082 z m 3,-7.5508 c 0.5977,0 1.082,0.4843 1.082,1.082 0,0.5976 -0.4843,1.082 -1.082,1.082 -0.5976,0 -1.082,-0.4844 -1.082,-1.082 0,-0.5938 0.4844,-1.082 1.082,-1.082 z m -1.9141,-6.4688 c 0.5977,0 1.082,0.4843 1.082,1.0819999 0,0.5976001 -0.4843,1.0820001 -1.082,1.0820001 -0.5976,0 -1.082,-0.4844 -1.082,-1.0820001 C 62.493799,9.097 62.982099,8.6127 63.579699,8.6127 Z m -21.684,0 c 0.5977,0 1.082,0.4843 1.082,1.0819999 0,0.5976001 -0.4843,1.0820001 -1.082,1.0820001 -0.5976,0 -1.082,-0.4844 -1.082,-1.0820001 0,-0.5976999 0.4844,-1.0819999 1.082,-1.0819999 z m 2.4102,6.0039 h 1.3438 c 0.3047,0 0.5743,-0.1993 0.668,-0.4922 0.1133,-0.3633 0.2617,-0.7188 0.4375,-1.0547 0.1406,-0.2735 0.0938,-0.6055 -0.1211,-0.8243 l -0.9492,-0.9492 c -0.1133,-0.1133 -0.1133,-0.3008 0,-0.4179 l 1.7734,-1.7734 c 0.1133,-0.1133 0.3086,-0.1133 0.418,0 l 0.9492,0.9492 c 0.2187,0.2187 0.5469,0.2656 0.8242,0.1211 0.3359,-0.1758 0.6914,-0.3243 1.0547,-0.4375 0.2969,-0.0938 0.4922,-0.3633 0.4922,-0.668 V 7.7259 c 0,-0.1641 0.1328,-0.2969 0.2969,-0.2969 h 2.5039 c 0.164,0 0.2968,0.1328 0.2968,0.2969 v 1.3438 c 0,0.3047 0.1993,0.5741999 0.4922,0.668 0.3633,0.1132 0.7188,0.2617 1.0547,0.4375 0.2735,0.1406 0.6055,0.0937 0.8243,-0.1211 l 0.9492,-0.9492 c 0.1133,-0.1133 0.3086,-0.1133 0.4179,0 l 1.7734,1.7734 c 0.1133,0.1132 0.1133,0.3007 0,0.4218 l -0.9492,0.9493 c -0.2187,0.2187 -0.2656,0.5468 -0.1211,0.8242 0.1758,0.3359 0.3243,0.6914 0.4375,1.0547 0.0938,0.2969 0.3633,0.4922 0.668,0.4922 h 1.3438 c 0.1641,0 0.2969,0.1328 0.2969,0.2968 v 2.5039 c 0,0.1641 -0.1328,0.2969 -0.2969,0.2969 h -1.3438 c -0.3047,0 -0.5742,0.1992 -0.668,0.4922 -0.1132,0.3633 -0.2617,0.7188 -0.4375,1.0547 -0.1406,0.2735 -0.0937,0.6055 0.1211,0.8242 l 0.9492,0.9493 c 0.0547,0.0546 0.086,0.1289 0.086,0.2109 0,0.0781 -0.0313,0.1523 -0.086,0.2109 l -1.7734,1.7734 c -0.1132,0.1133 -0.3007,0.1133 -0.4179,0 l -0.9492,-0.9492 c -0.2188,-0.2187 -0.5469,-0.2656 -0.8243,-0.1211 -0.3359,0.1758 -0.6914,0.3242 -1.0547,0.4375 -0.2968,0.0938 -0.4922,0.3633 -0.4922,0.668 v 1.3438 c 0,0.1641 -0.1328,0.2969 -0.2968,0.2969 l -2.5117,-0.0117 c -0.1641,0 -0.2969,-0.1328 -0.2969,-0.2969 v -1.3438 c 0,-0.3047 -0.1992,-0.5742 -0.4922,-0.668 -0.3633,-0.1133 -0.7187,-0.2617 -1.0547,-0.4375 -0.1055,-0.0547 -0.2187,-0.0781 -0.3281,-0.0781 -0.1797,0 -0.3594,0.0703 -0.4922,0.2031 l -0.9492,0.9492 c -0.1133,0.1133 -0.3008,0.1133 -0.418,0 l -1.7734,-1.7734 c -0.0547,-0.0547 -0.0859,-0.1289 -0.0859,-0.2109 0,-0.0781 0.0312,-0.1523 0.0859,-0.2109 l 0.9492,-0.9493 c 0.2188,-0.2187 0.2656,-0.5468 0.1211,-0.8242 -0.1758,-0.3359 -0.3242,-0.6914 -0.4375,-1.0547 -0.0937,-0.2969 -0.3633,-0.4922 -0.668,-0.4922 h -1.3438 c -0.164,0 -0.2968,-0.1328 -0.2968,-0.2968 v -2.5039 c 0.0078,-0.1602 0.1406,-0.293 0.3007,-0.293 z m -4.3242,0.4648 c 0.5977,0 1.082,0.4844 1.082,1.082 0,0.5977 -0.4843,1.082 -1.082,1.082 -0.5976,0 -1.082,-0.4844 -1.082,-1.082 -0.0039,-0.5938 0.4844,-1.082 1.082,-1.082 z"
     fill="#000000"
     id="path27" />
  <path
     d="m 52.735799,19.6323 c 1.9141,0 3.4688,-1.5547 3.4688,-3.4688 0.0039,-1.9141 -1.5547,-3.4688 -3.4688,-3.4688 -1.9141,0 -3.4688,1.5547 -3.4688,3.4688 0.0039,1.9141 1.5586,3.4688 3.4688,3.4688 z m 0,-6.2266 c 1.5234,0 2.7617,1.2383 2.7617,2.7617 0,1.5234 -1.2383,2.7617 -2.7617,2.7617 -1.5234,0 -2.7617,-1.2383 -2.7617,-2.7617 0.0039,-1.5234 1.2422,-2.7617 2.7617,-2.7617 z"
     fill="#000000"
     id="path28" />
</svg>
