<svg width="14" height="20" viewBox="0 0 14 20" fill="none" xmlns="http://www.w3.org/2000/svg">
<path fill-rule="evenodd" clip-rule="evenodd" d="M7 19.75C5.20979 19.75 3.4929 19.0388 2.22703 17.773C0.961159 16.5071 0.25 14.7902 0.25 13L0.25 5C0.25 3.74022 0.750445 2.53204 1.64124 1.64124C2.53204 0.750444 3.74022 0.25 5 0.25C6.25978 0.25 7.46796 0.750444 8.35876 1.64124C9.24955 2.53204 9.75 3.74022 9.75 5L9.75 13.143C9.75 13.8723 9.46027 14.5718 8.94454 15.0875C8.42882 15.6033 7.72935 15.893 7 15.893C6.27065 15.893 5.57118 15.6033 5.05546 15.0875C4.53973 14.5718 4.25 13.8723 4.25 13.143L4.25 5.286C4.25 5.08709 4.32902 4.89632 4.46967 4.75567C4.61032 4.61502 4.80109 4.536 5 4.536C5.19891 4.536 5.38968 4.61502 5.53033 4.75567C5.67098 4.89632 5.75 5.08709 5.75 5.286L5.75 13.143C5.75 13.4745 5.8817 13.7925 6.11612 14.0269C6.35054 14.2613 6.66848 14.393 7 14.393C7.33152 14.393 7.64946 14.2613 7.88388 14.0269C8.1183 13.7925 8.25 13.4745 8.25 13.143L8.25 5C8.25 4.13805 7.90759 3.3114 7.2981 2.7019C6.6886 2.09241 5.86195 1.75 5 1.75C4.13805 1.75 3.3114 2.09241 2.7019 2.7019C2.09241 3.3114 1.75 4.13805 1.75 5L1.75 13C1.75 14.3924 2.30312 15.7277 3.28769 16.7123C4.27225 17.6969 5.60761 18.25 7 18.25C8.39239 18.25 9.72775 17.6969 10.7123 16.7123C11.6969 15.7277 12.25 14.3924 12.25 13V5.286C12.25 5.08709 12.329 4.89632 12.4697 4.75567C12.6103 4.61502 12.8011 4.536 13 4.536C13.1989 4.536 13.3897 4.61502 13.5303 4.75567C13.671 4.89632 13.75 5.08709 13.75 5.286V13C13.75 14.7902 13.0388 16.5071 11.773 17.773C10.5071 19.0388 8.79021 19.75 7 19.75Z" fill="black"/>
</svg>
