<svg width="114" height="109" viewBox="0 0 114 109" fill="none" xmlns="http://www.w3.org/2000/svg">
<path d="M10.8333 21.6667C10.8333 15.9203 13.1161 10.4093 17.1794 6.34602C21.2426 2.28273 26.7536 0 32.5 0C38.2464 0 43.7574 2.28273 47.8206 6.34602C51.8839 10.4093 54.1667 15.9203 54.1667 21.6667C54.1667 27.413 51.8839 32.924 47.8206 36.9873C43.7574 41.0506 38.2464 43.3333 32.5 43.3333C26.7536 43.3333 21.2426 41.0506 17.1794 36.9873C13.1161 32.924 10.8333 27.413 10.8333 21.6667ZM32.5 8.125C28.9085 8.125 25.4642 9.55171 22.9246 12.0913C20.385 14.6308 18.9583 18.0752 18.9583 21.6667C18.9583 25.2581 20.385 28.7025 22.9246 31.2421C25.4642 33.7816 28.9085 35.2083 32.5 35.2083C36.0915 35.2083 39.5358 33.7816 42.0754 31.2421C44.615 28.7025 46.0417 25.2581 46.0417 21.6667C46.0417 18.0752 44.615 14.6308 42.0754 12.0913C39.5358 9.55171 36.0915 8.125 32.5 8.125ZM65 27.0833C65 22.7736 66.712 18.6403 69.7595 15.5928C72.807 12.5454 76.9402 10.8333 81.25 10.8333C85.5598 10.8333 89.693 12.5454 92.7405 15.5928C95.788 18.6403 97.5 22.7736 97.5 27.0833C97.5 31.3931 95.788 35.5264 92.7405 38.5738C89.693 41.6213 85.5598 43.3333 81.25 43.3333C76.9402 43.3333 72.807 41.6213 69.7595 38.5738C66.712 35.5264 65 31.3931 65 27.0833ZM81.25 18.9583C79.0951 18.9583 77.0285 19.8144 75.5048 21.3381C73.981 22.8618 73.125 24.9284 73.125 27.0833C73.125 29.2382 73.981 31.3048 75.5048 32.8286C77.0285 34.3523 79.0951 35.2083 81.25 35.2083C83.4049 35.2083 85.4715 34.3523 86.9952 32.8286C88.519 31.3048 89.375 29.2382 89.375 27.0833C89.375 24.9284 88.519 22.8618 86.9952 21.3381C85.4715 19.8144 83.4049 18.9583 81.25 18.9583ZM0 66.3542C0 63.1218 1.28404 60.0219 3.56964 57.7363C5.85524 55.4507 8.95517 54.1667 12.1875 54.1667H52.8125C54.5242 54.1667 56.1546 54.5187 57.6333 55.1579C55.7158 57.3137 54.0583 59.7079 52.715 62.2917H12.1875C11.1101 62.2917 10.0767 62.7197 9.31488 63.4815C8.55301 64.2434 8.125 65.2767 8.125 66.3542V67.7462L8.16292 68.1796C8.20083 68.5804 8.2875 69.1979 8.46083 69.9617C8.81833 71.4837 9.53333 73.515 10.9471 75.5354C13.6175 79.3542 19.3808 83.9583 32.5 83.9583C40.1538 83.9583 45.2996 82.3875 48.7933 80.3292C48.9396 83.2325 49.4379 86.0437 50.245 88.725C45.7221 90.7833 39.9154 92.0833 32.5 92.0833C17.1817 92.0833 8.72083 86.5312 4.29 80.1937C1.97451 76.865 0.526058 73.0111 0.075833 68.9812C0.0377594 68.6103 0.0124669 68.2381 0 67.8654V66.3542ZM54.1667 78.5417C54.1667 86.4429 57.3054 94.0205 62.8924 99.6076C68.4795 105.195 76.0571 108.333 83.9583 108.333C91.8596 108.333 99.4372 105.195 105.024 99.6076C110.611 94.0205 113.75 86.4429 113.75 78.5417C113.75 70.6404 110.611 63.0628 105.024 57.4758C99.4372 51.8887 91.8596 48.75 83.9583 48.75C76.0571 48.75 68.4795 51.8887 62.8924 57.4758C57.3054 63.0628 54.1667 70.6404 54.1667 78.5417ZM100.208 59.5833C100.927 59.5833 101.616 59.8687 102.123 60.3766C102.631 60.8845 102.917 61.5734 102.917 62.2917V73.125C102.917 73.8433 102.631 74.5322 102.123 75.0401C101.616 75.548 100.927 75.8333 100.208 75.8333H89.375C88.6567 75.8333 87.9678 75.548 87.4599 75.0401C86.952 74.5322 86.6667 73.8433 86.6667 73.125C86.6667 72.4067 86.952 71.7178 87.4599 71.2099C87.9678 70.702 88.6567 70.4167 89.375 70.4167H94.7917C93.5303 68.7348 91.8947 67.3698 90.0144 66.4296C88.134 65.4895 86.0606 65 83.9583 65C79.4463 65 75.4433 67.2046 72.9787 70.6117C72.5511 71.1756 71.9197 71.5498 71.2197 71.6541C70.5196 71.7584 69.8066 71.5845 69.2332 71.1696C68.6597 70.7548 68.2715 70.1319 68.1515 69.4344C68.0315 68.7369 68.1894 68.0201 68.5913 67.4375C70.3485 65.0058 72.6578 63.0259 75.3293 61.6605C78.0008 60.2951 80.9581 59.5832 83.9583 59.5833C89.2667 59.5833 94.0604 61.7662 97.5 65.2708V62.2917C97.5 61.5734 97.7853 60.8845 98.2933 60.3766C98.8012 59.8687 99.49 59.5833 100.208 59.5833ZM70.4167 91.8125V94.7917C70.4167 95.51 70.1313 96.1988 69.6234 96.7067C69.1155 97.2147 68.4266 97.5 67.7083 97.5C66.99 97.5 66.3012 97.2147 65.7933 96.7067C65.2853 96.1988 65 95.51 65 94.7917V83.9583C65 83.24 65.2853 82.5512 65.7933 82.0432C66.3012 81.5353 66.99 81.25 67.7083 81.25H78.5417C79.26 81.25 79.9488 81.5353 80.4567 82.0432C80.9647 82.5512 81.25 83.24 81.25 83.9583C81.25 84.6766 80.9647 85.3655 80.4567 85.8734C79.9488 86.3813 79.26 86.6667 78.5417 86.6667H73.125C75.595 89.96 79.5329 92.0833 83.9583 92.0833C88.1075 92.0833 91.8233 90.22 94.3096 87.2733C94.7769 86.7382 95.4358 86.4081 96.1442 86.3542C96.8526 86.3004 97.5538 86.527 98.0967 86.9853C98.6396 87.4436 98.9806 88.0969 99.0463 88.8043C99.112 89.5117 98.8971 90.2166 98.4479 90.7671C96.6683 92.8763 94.4497 94.5716 91.9471 95.7345C89.4444 96.8974 86.718 97.4999 83.9583 97.5C81.4363 97.5004 78.9396 96.9975 76.6143 96.0209C74.2891 95.0443 72.1821 93.6136 70.4167 91.8125Z" fill="#F2F2F2"/>
</svg>
