<svg width="36" height="28" viewBox="0 0 36 28" fill="none" xmlns="http://www.w3.org/2000/svg">
<path d="M7.002 4.20125C6.9565 3.73273 7.00951 3.25987 7.15762 2.81305C7.30574 2.36623 7.54568 1.95534 7.86204 1.60677C8.1784 1.2582 8.56418 0.979668 8.99459 0.789061C9.425 0.598454 9.89052 0.499992 10.3612 0.5H15.75C16.0484 0.5 16.3345 0.618527 16.5455 0.829505C16.7565 1.04048 16.875 1.32663 16.875 1.625V2.4845C16.875 4.0505 15.7567 5.144 14.913 5.78975C14.8127 5.86333 14.7252 5.95305 14.6543 6.05525L14.6272 6.1115L14.625 6.125V6.13175L14.6317 6.15425C14.6392 6.17675 14.6663 6.2165 14.7128 6.2735C14.8864 6.45546 15.0924 6.60349 15.3202 6.71C15.9525 7.025 16.8975 7.25 18 7.25C19.107 7.25 20.052 7.025 20.6775 6.71C20.9062 6.60373 21.1129 6.45569 21.2873 6.2735C21.3251 6.23213 21.3548 6.18405 21.375 6.13175V6.1115L21.348 6.05525C21.277 5.95305 21.1896 5.86333 21.0893 5.78975C20.2455 5.144 19.1273 4.0505 19.1273 2.4845V1.625C19.1273 1.32702 19.2455 1.04121 19.456 0.8303C19.6665 0.619386 19.952 0.500596 20.25 0.5H25.6388C26.1095 0.499992 26.575 0.598454 27.0054 0.789061C27.4358 0.979668 27.8216 1.2582 28.138 1.60677C28.4543 1.95534 28.6943 2.36623 28.8424 2.81305C28.9905 3.25987 29.0435 3.73273 28.998 4.20125L28.4513 10.625H28.9845C29.4233 10.625 29.9295 10.2942 30.5033 9.545C30.9757 8.9285 31.6912 8.375 32.625 8.375C33.903 8.375 34.7557 9.38075 35.2215 10.3145C35.7233 11.3158 36 12.6208 36 14C36 15.3792 35.7233 16.6842 35.2215 17.6855C34.7557 18.6192 33.903 19.625 32.625 19.625C31.6912 19.625 30.9757 19.0715 30.5033 18.455C29.9295 17.7057 29.4233 17.375 28.9845 17.375H28.4513L28.998 23.7987C29.0435 24.2673 28.9905 24.7401 28.8424 25.187C28.6943 25.6338 28.4543 26.0447 28.138 26.3932C27.8216 26.7418 27.4358 27.0203 27.0054 27.2109C26.575 27.4015 26.1095 27.5 25.6388 27.5H20.25C19.9516 27.5 19.6655 27.3815 19.4545 27.1705C19.2435 26.9595 19.125 26.6734 19.125 26.375V25.5155C19.125 23.9495 20.2432 22.856 21.087 22.2103C21.1873 22.1367 21.2748 22.047 21.3458 21.9447L21.3727 21.8885L21.375 21.875V21.8682C21.3551 21.8151 21.3253 21.7663 21.2873 21.7242C21.1134 21.5431 20.9074 21.3958 20.6798 21.29C20.0475 20.975 19.1025 20.75 18 20.75C16.8975 20.75 15.948 20.975 15.3225 21.29C15.0938 21.3963 14.8871 21.5443 14.7128 21.7265C14.6749 21.7679 14.6452 21.8159 14.625 21.8682V21.875L14.6272 21.8885L14.6543 21.9447C14.6903 22.0055 14.7667 22.0977 14.913 22.2103C15.7567 22.856 16.875 23.9495 16.875 25.5155V26.375C16.875 26.6734 16.7565 26.9595 16.5455 27.1705C16.3345 27.3815 16.0484 27.5 15.75 27.5H10.3612C9.89052 27.5 9.425 27.4015 8.99459 27.2109C8.56418 27.0203 8.1784 26.7418 7.86204 26.3932C7.54568 26.0447 7.30574 25.6338 7.15762 25.187C7.00951 24.7401 6.9565 24.2673 7.002 23.7987L7.551 17.375H7.0155C6.57675 17.375 6.0705 17.7057 5.49675 18.455C5.02425 19.0715 4.30875 19.625 3.375 19.625C2.097 19.625 1.24425 18.6192 0.7785 17.6855C0.27675 16.6842 0 15.3792 0 14C0 12.6208 0.27675 11.3158 0.7785 10.3145C1.24425 9.38075 2.097 8.375 3.375 8.375C4.30875 8.375 5.02425 8.9285 5.49675 9.545C6.0705 10.2942 6.57675 10.625 7.0155 10.625H7.551L7.002 4.20125ZM10.3612 2.75C10.2039 2.74984 10.0483 2.78268 9.90448 2.84639C9.76064 2.91011 9.63176 3.00329 9.52617 3.1199C9.42058 3.23652 9.34062 3.37399 9.29145 3.52343C9.24229 3.67288 9.22502 3.83097 9.24075 3.9875L9.243 4.00325L9.8955 11.6532C9.9089 11.8085 9.88989 11.9649 9.83968 12.1125C9.78946 12.26 9.70913 12.3955 9.60378 12.5104C9.49843 12.6253 9.37036 12.717 9.22769 12.7798C9.08502 12.8425 8.93086 12.875 8.775 12.875H7.0155C5.4495 12.875 4.356 11.7567 3.71025 10.913C3.63667 10.8127 3.54695 10.7252 3.44475 10.6543L3.3885 10.6272L3.375 10.625H3.36825C3.31515 10.6449 3.26629 10.6747 3.22425 10.7128C3.04309 10.8866 2.89584 11.0926 2.79 11.3202C2.475 11.9525 2.25 12.8975 2.25 14C2.25 15.1025 2.475 16.052 2.79 16.6775C2.9475 16.9925 3.105 17.1838 3.2265 17.2873C3.26787 17.3251 3.31595 17.3548 3.36825 17.375H3.375L3.3885 17.3727L3.44475 17.3458C3.54695 17.2748 3.63667 17.1873 3.71025 17.087C4.356 16.2432 5.4495 15.125 7.0155 15.125H8.775C8.93066 15.1251 9.08461 15.1574 9.22711 15.2201C9.36961 15.2827 9.49757 15.3742 9.60289 15.4888C9.7082 15.6035 9.78859 15.7387 9.83895 15.886C9.88932 16.0333 9.90858 16.1894 9.8955 16.3445L9.243 24.0125C9.22729 24.1688 9.2445 24.3267 9.29353 24.476C9.34256 24.6253 9.42232 24.7627 9.52767 24.8793C9.63301 24.9958 9.76162 25.0891 9.90519 25.1529C10.0488 25.2168 10.2041 25.2498 10.3612 25.25H14.5868C14.4787 24.8765 14.148 24.458 13.545 23.9967C12.9285 23.5243 12.375 22.8088 12.375 21.875C12.375 20.597 13.3807 19.7442 14.3145 19.2785C15.3158 18.7767 16.6208 18.5 18 18.5C19.3792 18.5 20.6842 18.7767 21.6855 19.2785C22.6192 19.7442 23.625 20.597 23.625 21.875C23.625 22.8088 23.0715 23.5243 22.455 23.9967C21.852 24.458 21.5212 24.8743 21.4132 25.25H25.6388C25.7961 25.2502 25.9517 25.2173 26.0955 25.1536C26.2394 25.0899 26.3682 24.9967 26.4738 24.8801C26.5794 24.7635 26.6594 24.626 26.7085 24.4766C26.7577 24.3271 26.775 24.169 26.7592 24.0125L26.757 23.9967L26.1045 16.3468C26.0911 16.1915 26.1101 16.0351 26.1603 15.8875C26.2105 15.74 26.2909 15.6045 26.3962 15.4896C26.5016 15.3747 26.6296 15.283 26.7723 15.2202C26.915 15.1575 27.0691 15.125 27.225 15.125H28.9845C30.5505 15.125 31.644 16.2432 32.2897 17.087C32.4022 17.2332 32.4945 17.3098 32.5552 17.3458L32.6115 17.3727L32.625 17.375H32.6318C32.6849 17.3551 32.7337 17.3253 32.7757 17.2873C32.9569 17.1134 33.1042 16.9074 33.21 16.6798C33.525 16.0498 33.75 15.1047 33.75 14C33.75 12.8953 33.525 11.948 33.21 11.3225C33.1037 11.0938 32.9557 10.8871 32.7735 10.7128C32.7321 10.6749 32.6841 10.6452 32.6318 10.625H32.625L32.6115 10.6272L32.5552 10.6543C32.453 10.7252 32.3633 10.8127 32.2897 10.913C31.644 11.7567 30.5505 12.875 28.9845 12.875H27.225C27.0691 12.875 26.915 12.8425 26.7723 12.7798C26.6296 12.717 26.5016 12.6253 26.3962 12.5104C26.2909 12.3955 26.2105 12.26 26.1603 12.1125C26.1101 11.9649 26.0911 11.8085 26.1045 11.6532L26.757 3.9875C26.7727 3.83116 26.7555 3.67325 26.7065 3.52397C26.6574 3.37468 26.5777 3.23732 26.4723 3.12074C26.367 3.00415 26.2384 2.91093 26.0948 2.84708C25.9512 2.78322 25.7959 2.75016 25.6388 2.75H21.4132C21.5212 3.1235 21.852 3.542 22.455 4.00325C23.0715 4.47575 23.625 5.19125 23.625 6.125C23.625 7.403 22.6192 8.25575 21.6855 8.7215C20.6842 9.22325 19.3792 9.5 18 9.5C16.6208 9.5 15.3158 9.22325 14.3145 8.7215C13.3807 8.25575 12.375 7.403 12.375 6.125C12.375 5.19125 12.9285 4.47575 13.545 4.00325C14.148 3.542 14.4787 3.12575 14.5868 2.75H10.3612Z" fill="black"/>
</svg>
