<svg width="48" height="47" viewBox="0 0 48 47" fill="none" xmlns="http://www.w3.org/2000/svg">
<path d="M15.9969 5.04143C15.9391 4.92821 15.9864 4.79129 16.0967 4.736C16.843 4.35947 17.6182 4.02242 18.4014 3.73277C18.5196 3.68801 18.651 3.74857 18.693 3.86706C18.7377 3.98555 18.6773 4.11721 18.559 4.15933C17.7917 4.44371 17.0349 4.77285 16.3043 5.14146C16.2701 5.15726 16.236 5.16779 16.2018 5.16779C16.1177 5.16779 16.0363 5.12043 15.9969 5.04143ZM6.03243 15.7922C6.06396 15.8054 6.09287 15.8107 6.1244 15.8107C6.21112 15.8107 6.29521 15.7606 6.332 15.6738C6.66048 14.9233 7.0389 14.1834 7.45148 13.4751C7.51455 13.3672 7.47776 13.2276 7.37002 13.1644C7.25966 13.1012 7.123 13.1381 7.05994 13.246C6.63685 13.9701 6.2532 14.7232 5.91684 15.4894C5.86691 15.6079 5.91943 15.7422 6.03243 15.7922ZM4.32693 25.5373H4.33744C4.46095 25.5321 4.55817 25.4241 4.55555 25.3004C4.53978 24.9712 4.53453 24.6368 4.53453 24.3076C4.53453 23.8153 4.5503 23.3203 4.58446 22.8331C4.59234 22.7094 4.49774 22.5988 4.3716 22.5909C4.24809 22.5803 4.13772 22.6778 4.12984 22.8041C4.09568 23.3018 4.07991 23.8074 4.07991 24.3103C4.07991 24.6473 4.0878 24.987 4.10356 25.324C4.10356 25.4399 4.20605 25.5373 4.32693 25.5373ZM8.4973 11.4714C8.53672 11.503 8.58664 11.5162 8.63394 11.5162C8.70226 11.5162 8.77059 11.4846 8.81526 11.424C9.30667 10.7684 9.8401 10.1338 10.4051 9.53871C10.4918 9.44655 10.4866 9.30174 10.3972 9.21748C10.3053 9.13058 10.1607 9.13585 10.0766 9.22538C9.50114 9.83362 8.95453 10.4814 8.45261 11.1476C8.37903 11.2529 8.40007 11.3951 8.4973 11.4714ZM12.0528 7.90618C12.1054 7.90618 12.1553 7.89038 12.2 7.85352C12.828 7.3269 13.4929 6.83189 14.1735 6.38161C14.2786 6.31315 14.3075 6.17096 14.2365 6.06564C14.1682 5.96032 14.0263 5.93135 13.9212 6.00245C13.2248 6.46324 12.5442 6.9688 11.9056 7.5086C11.811 7.59022 11.7953 7.73241 11.8767 7.82983C11.924 7.87723 11.9871 7.90618 12.0528 7.90618ZM4.62118 20.5687C4.63432 20.5713 4.65009 20.5713 4.66322 20.5713C4.77097 20.5713 4.86557 20.4949 4.88659 20.3843C5.03375 19.576 5.23346 18.7703 5.4726 17.9882C5.50939 17.8697 5.44106 17.7407 5.32281 17.7038C5.20455 17.667 5.07579 17.7354 5.039 17.8539C4.79461 18.6544 4.59227 19.4786 4.43985 20.3027C4.4162 20.4265 4.5003 20.545 4.62118 20.5687ZM33.0096 44.5691C32.237 44.8377 31.4434 45.0667 30.6446 45.2458C30.521 45.2721 30.4448 45.3959 30.4737 45.517C30.4974 45.6223 30.592 45.696 30.6945 45.696C30.7102 45.696 30.7286 45.6934 30.7444 45.6908C31.559 45.5064 32.3737 45.2747 33.1621 44.9983C33.2803 44.9562 33.3434 44.8271 33.3013 44.7086C33.2593 44.5902 33.1278 44.5269 33.0096 44.5691ZM28.2138 45.646C27.4018 45.7329 26.574 45.7698 25.7542 45.7645C25.6307 45.7672 25.5282 45.8646 25.5255 45.991C25.5229 46.1174 25.6254 46.2174 25.7515 46.2201H25.946C26.7186 46.2201 27.4991 46.1806 28.2637 46.0989C28.3873 46.0858 28.4792 45.9752 28.4661 45.8488C28.4503 45.7224 28.3399 45.6329 28.2138 45.646ZM23.2971 45.6013C22.4825 45.5012 21.6678 45.3511 20.8742 45.1589C20.7507 45.1273 20.6298 45.2037 20.6009 45.3248C20.5694 45.4459 20.6456 45.5697 20.7665 45.5986C21.5758 45.7961 22.4089 45.9462 23.2393 46.0515C23.2498 46.0542 23.2577 46.0542 23.2682 46.0542C23.3812 46.0542 23.4784 45.9699 23.4942 45.854C23.5099 45.7303 23.4232 45.6171 23.2971 45.6013ZM18.5197 44.4401C17.7523 44.1557 16.9955 43.8239 16.2649 43.4527C16.1546 43.3947 16.0153 43.4421 15.9601 43.5527C15.9023 43.6633 15.9496 43.8029 16.06 43.8582C16.8063 44.2373 17.5815 44.577 18.3646 44.8666C18.3909 44.8772 18.4172 44.8798 18.4434 44.8798C18.5354 44.8798 18.6221 44.8219 18.6563 44.7324C18.6983 44.6139 18.6379 44.4822 18.5197 44.4401ZM47.5391 22.8589C47.4156 22.8668 47.3184 22.9748 47.3262 23.0985C47.3473 23.4987 47.3604 23.9069 47.3604 24.3071C47.3604 24.7258 47.3499 25.1471 47.3236 25.5658C47.3157 25.6895 47.4129 25.7975 47.5365 25.808H47.5496C47.6679 25.808 47.7703 25.7158 47.7756 25.5947C47.8019 25.1682 47.8124 24.7363 47.8124 24.3098C47.8124 23.899 47.8019 23.483 47.7782 23.0775C47.773 22.9459 47.6652 22.851 47.5391 22.8589ZM43.2347 11.6416C43.2794 11.7022 43.3477 11.7338 43.4187 11.7338C43.466 11.7338 43.5133 11.7206 43.5527 11.689C43.6525 11.6153 43.6762 11.4705 43.6026 11.3704C43.1086 10.6937 42.5725 10.0407 42.0023 9.42719C41.9155 9.33504 41.7736 9.32977 41.6817 9.41666C41.5897 9.50355 41.5844 9.64574 41.6712 9.7379C42.223 10.3409 42.7512 10.9808 43.2347 11.6416ZM47.0504 20.6466C47.0688 20.7572 47.166 20.8362 47.2737 20.8362C47.2869 20.8362 47.3 20.8335 47.3131 20.8335C47.4366 20.8125 47.5207 20.6966 47.4971 20.5702C47.3552 19.7434 47.1634 18.9193 46.9295 18.1162C46.8953 17.9951 46.7692 17.9266 46.6457 17.9635C46.5248 17.9977 46.4565 18.1241 46.4933 18.2479C46.7219 19.0299 46.9111 19.8382 47.0504 20.6466ZM45.6629 15.9228C45.6996 16.0097 45.7837 16.0597 45.8705 16.0597C45.902 16.0597 45.9309 16.0545 45.9598 16.0413C46.0754 15.9913 46.1306 15.8596 46.0781 15.7438C45.7522 14.9749 45.3764 14.2166 44.9639 13.4845C44.9008 13.3739 44.7642 13.3371 44.6538 13.3976C44.5434 13.4608 44.5066 13.5977 44.5671 13.7083C44.977 14.4245 45.3449 15.1697 45.6629 15.9228ZM20.0333 12.4577V9.11891C19.7469 9.04517 19.534 8.78977 19.534 8.47906V5.0402C19.534 4.67684 19.831 4.37929 20.1936 4.37929H22.3116V3.35767C22.3116 2.69412 22.8503 2.15431 23.5126 2.15431H27.5673C28.2295 2.15431 28.7682 2.6941 28.7682 3.35767V4.37929H30.8863C31.2489 4.37929 31.5458 4.67684 31.5458 5.0402L31.5432 8.47906C31.5432 8.78713 31.3304 9.04517 31.0439 9.11891V11.8968H31.8402L31.8428 10.8726C31.8428 10.4039 32.1108 9.99837 32.5024 9.80093C32.6653 9.71931 32.8493 9.67191 33.0411 9.67191H37.0984C37.7607 9.67191 38.2994 10.2117 38.2994 10.8753V11.8969H40.4174C40.78 11.8969 41.077 12.1944 41.077 12.5578L41.0744 15.994C41.0744 16.3021 40.8615 16.5601 40.5751 16.6339V19.9726C40.5751 20.336 40.2781 20.6335 39.9155 20.6335H30.2242C29.8615 20.6335 29.5646 20.336 29.5646 19.9726V16.6339C29.2782 16.5601 29.0653 16.3047 29.0653 15.994V13.1187H20.6905C20.3279 13.1187 20.0333 12.8237 20.0333 12.4577ZM19.986 8.47907C19.986 8.5923 20.078 8.68446 20.191 8.68446H23.7228V8.27369C23.7228 7.91032 24.0197 7.61278 24.3824 7.61278H26.6922C27.0549 7.61278 27.3518 7.91032 27.3518 8.27369V8.68446H30.8837C30.9967 8.68446 31.0886 8.5923 31.0886 8.47907V5.04022C31.0886 4.92699 30.9967 4.83483 30.8837 4.83483H20.1907C20.0777 4.83483 19.9857 4.92699 19.9857 5.04022L19.986 8.47907ZM29.7271 12.3497C29.6141 12.3497 29.5221 12.4419 29.5221 12.5551L29.5195 15.994C29.5195 16.1072 29.6115 16.1994 29.7245 16.1994H33.2563V15.7886C33.2563 15.4252 33.5532 15.1277 33.9159 15.1277H36.2257C36.5884 15.1277 36.8853 15.4252 36.8853 15.7886V16.1994H40.4171C40.5301 16.1994 40.6221 16.1072 40.6221 15.994V12.5551C40.6221 12.4419 40.5301 12.3497 40.4171 12.3497H29.7271ZM40.1227 19.9728V16.6551H36.8826V17.0659C36.8826 17.4292 36.5857 17.7268 36.223 17.7268H33.9132C33.5505 17.7268 33.2536 17.4292 33.2536 17.0659V16.6551H30.0134V19.9728C30.0134 20.0861 30.1054 20.1782 30.2184 20.1782H39.9124C40.0307 20.1782 40.1227 20.0861 40.1227 19.9728ZM33.7108 17.0659C33.7108 17.1791 33.8028 17.2713 33.9158 17.2713H36.2257C36.3387 17.2713 36.4307 17.1791 36.4307 17.0659V15.7915C36.4307 15.6783 36.3387 15.5861 36.2257 15.5861H33.9158C33.8028 15.5861 33.7108 15.6783 33.7108 15.7915V17.0659ZM30.5916 11.8945V9.14027H27.3515V9.55104C27.3515 9.91441 27.0545 10.2119 26.6919 10.2119H24.382C24.0194 10.2119 23.7224 9.91441 23.7224 9.55104V9.14027H20.4849V12.458C20.4849 12.5712 20.5769 12.6634 20.6899 12.6634H29.0647V12.5554C29.0647 12.1921 29.3616 11.8945 29.7243 11.8945L30.5916 11.8945ZM26.8969 8.27395C26.8969 8.16073 26.8049 8.06857 26.6919 8.06857H24.382C24.269 8.06857 24.177 8.16073 24.177 8.27395V9.54836C24.177 9.66158 24.269 9.75374 24.382 9.75374L26.6919 9.75637C26.8049 9.75637 26.8969 9.66422 26.8969 9.55099V8.27395ZM32.297 11.8945H37.847L37.8444 10.8728C37.8444 10.4594 37.5107 10.125 37.0981 10.125H33.0407C32.6282 10.125 32.2944 10.4594 32.2944 10.8728V11.8945H32.297ZM22.7631 4.37989H28.3105V3.35827C28.3105 2.94487 27.9768 2.61045 27.5642 2.61045H23.5068C23.0943 2.61045 22.7605 2.94485 22.7605 3.35827V4.37989H22.7631ZM30.4679 2.3208C30.4153 1.94953 30.5126 1.58087 30.7412 1.28333C30.9698 0.98579 31.3009 0.798842 31.6741 0.754077L31.7923 0.74091C35.516 0.211654 38.9555 2.64463 39.7231 6.30465L40.6796 6.16773C40.9319 6.13087 41.1763 6.25463 41.3024 6.47844C41.4259 6.70225 41.397 6.9761 41.2341 7.17092L39.4051 9.33004C39.2869 9.47223 39.1134 9.54596 38.9374 9.54596C38.8217 9.54596 38.7035 9.51173 38.601 9.4459L36.2438 7.88447C36.031 7.74228 35.9285 7.4895 35.9837 7.23936C36.0388 6.98922 36.2386 6.80227 36.4935 6.76804L37.2398 6.66271C36.5776 4.54309 34.4858 3.20282 32.2627 3.51876L32.0367 3.55036C31.2825 3.65568 30.5835 3.1317 30.4758 2.37599L30.4679 2.3208ZM31.1012 1.56247C30.9488 1.76259 30.8831 2.01009 30.9172 2.26027L30.9251 2.3103C30.9987 2.81585 31.4665 3.16866 31.9736 3.09762L32.1996 3.06602C32.4414 3.03179 32.6779 3.01599 32.9144 3.01599C35.1744 3.01599 37.1821 4.54317 37.7523 6.79451C37.768 6.85771 37.7575 6.92354 37.7207 6.97619C37.6866 7.02886 37.6288 7.06572 37.5631 7.07362L36.5592 7.21581C36.462 7.22897 36.4357 7.30533 36.4278 7.33693C36.4199 7.36853 36.4121 7.44752 36.4961 7.50282L38.8533 9.06424C38.919 9.109 39.0084 9.09584 39.0609 9.03264L40.8899 6.87352C40.953 6.79979 40.9241 6.72343 40.9083 6.69447C40.8926 6.66551 40.8452 6.60231 40.748 6.61548L39.5786 6.78136C39.4577 6.79979 39.3447 6.71816 39.3237 6.59704C38.6904 3.05815 35.4109 0.683117 31.8578 1.18867H31.8525L31.7316 1.20184C31.4767 1.23344 31.2536 1.35972 31.1012 1.56247ZM27.5668 22.814C24.0376 22.814 21.0471 20.2257 20.561 16.6921L19.5992 16.7605C19.3443 16.779 19.1078 16.642 19 16.4077C18.8923 16.176 18.937 15.9048 19.1183 15.7231L21.0918 13.6956C21.3099 13.4744 21.6568 13.4507 21.9012 13.6377L24.1453 15.3624C24.3477 15.5204 24.4317 15.7784 24.3582 16.0259C24.2846 16.2708 24.0717 16.4419 23.8168 16.4604L23.0626 16.513C23.5751 18.6748 25.5722 20.1572 27.8111 19.9967L28.0371 19.9809C28.7966 19.9282 29.4588 20.4996 29.5114 21.2605L29.514 21.3132C29.5403 21.6871 29.4194 22.0478 29.1697 22.3295C28.9201 22.6113 28.5758 22.7772 28.2001 22.793L28.0818 22.7982C27.911 22.8061 27.7376 22.814 27.5668 22.814ZM20.984 16.4234C21.3519 19.8333 24.1952 22.3558 27.5668 22.3558C27.7271 22.3558 27.8926 22.3506 28.0555 22.34H28.0608L28.1817 22.3348C28.4339 22.3242 28.6652 22.2136 28.8307 22.0241C28.9963 21.8345 29.0804 21.5922 29.062 21.3421L29.0594 21.2894C29.0226 20.7812 28.5785 20.3942 28.0686 20.4311L27.8426 20.4469C25.2884 20.6312 23.0179 18.867 22.5633 16.3419C22.5528 16.2787 22.5685 16.2129 22.608 16.1628C22.6474 16.1128 22.7078 16.0812 22.7709 16.076L23.7826 16.0022C23.8798 15.9943 23.9114 15.9206 23.9219 15.889C23.9324 15.8574 23.9429 15.7784 23.8667 15.7179L21.6225 13.9932C21.5595 13.9431 21.4701 13.951 21.4149 14.009L19.4414 16.0364C19.3731 16.1075 19.3968 16.1839 19.4099 16.2129C19.423 16.2445 19.4651 16.3103 19.5649 16.305L20.7422 16.2208H20.758C20.8736 16.2208 20.9708 16.3076 20.984 16.4234ZM19.3363 38.7892C19.3101 38.7866 19.2812 38.7866 19.2549 38.7866C19.4099 39.2632 19.3416 39.8187 19.0289 40.2506C18.7871 40.585 18.4376 40.7957 18.0513 40.8404C17.7964 40.872 17.5442 40.8246 17.3155 40.7114C17.3208 40.7614 17.3234 40.8088 17.326 40.8589C17.3339 41.217 17.2262 41.5698 17.0212 41.8542C16.7794 42.1886 16.4299 42.3992 16.0437 42.444C15.6731 42.4861 15.3132 42.3729 15.0267 42.1254L14.8901 42.0069C14.8927 42.0359 14.8927 42.0648 14.8953 42.0938C14.9032 42.4493 14.827 42.6863 14.6168 42.9706C14.53 43.0865 14.2094 43.4736 13.7154 43.5447C13.6629 43.5526 13.6103 43.5552 13.5604 43.5552C13.3108 43.5552 13.069 43.4683 12.8404 43.2945L11.9942 42.5915L11.5895 42.9101C11.579 42.918 11.5685 42.9259 11.558 42.9311C11.3635 43.0364 11.1507 43.0891 10.9405 43.0891C10.5542 43.0891 10.1732 42.918 9.91563 42.5941C9.72117 42.3518 9.6108 42.0464 9.60817 41.7305C9.60817 41.7147 9.6108 41.6962 9.6108 41.6778L9.50569 41.7673C9.26392 41.9753 8.96435 42.0886 8.65428 42.0886C8.61487 42.0886 8.57808 42.0859 8.53866 42.0833C8.18127 42.0517 7.85806 41.8779 7.6294 41.5935C7.43494 41.3513 7.32457 41.0459 7.32194 40.7325C7.32194 40.693 7.32457 40.6562 7.3272 40.6193C7.15113 40.7062 6.95667 40.7536 6.75958 40.7536C6.72017 40.7536 6.68338 40.751 6.64396 40.7483C6.28657 40.7167 5.96336 40.543 5.7347 40.2586C5.44038 39.8952 5.36154 39.416 5.48505 38.9921C5.44038 38.9973 5.39308 39 5.34578 39C5.30636 39 5.26957 38.9973 5.23015 38.9947C4.87277 38.9631 4.54955 38.7893 4.32089 38.5049C3.85576 37.9257 3.92935 37.0647 4.48645 36.5775L4.62309 36.4669L3.82423 35.8034C3.77693 35.8192 3.72963 35.8297 3.68232 35.8376C3.63239 35.8455 3.58509 35.8481 3.53779 35.8481C3.33545 35.8481 3.13573 35.7797 2.97018 35.6533L0.276646 33.5837C0.182047 33.5099 0.158394 33.373 0.226717 33.273L5.11973 26.2505C5.19068 26.1504 5.32733 26.1214 5.42982 26.1925L8.23899 28.0568C8.24425 28.0594 8.24688 28.0647 8.25213 28.0647C8.37301 28.1568 8.46499 28.2753 8.53068 28.407C9.30062 28.4096 9.99178 28.428 10.5988 28.4702C11.6184 28.536 12.4094 28.6545 12.9875 28.8309C13.9887 28.5044 14.9137 28.4149 16.0043 28.5202C16.4405 28.5623 17.0896 28.665 17.4601 28.7361C17.5284 28.4965 17.6835 28.2832 17.9121 28.1542L20.9604 26.2689C21.0129 26.2373 21.076 26.2267 21.1364 26.2425C21.1969 26.2583 21.2468 26.2978 21.2784 26.3531L25.8456 34.5108C25.906 34.6214 25.8692 34.7556 25.7588 34.8188L22.7211 36.5619C22.5713 36.6488 22.4057 36.6909 22.2376 36.6909C22.143 36.6909 22.0483 36.6778 21.9537 36.6488C21.8959 36.633 21.8434 36.6093 21.7908 36.5856L20.992 36.9859C20.9604 37.0017 20.9236 37.0096 20.8921 37.0096C20.8606 37.0096 20.829 36.999 20.7975 36.9859C20.8606 37.3993 20.7712 37.839 20.5137 38.1971C20.2719 38.5315 19.9224 38.7422 19.5361 38.7869C19.4704 38.7922 19.4047 38.7919 19.3363 38.7892ZM18.6636 39.982C19.0052 39.508 18.9448 38.8287 18.527 38.468L16.5062 36.8038C16.4089 36.7248 16.3958 36.5826 16.4746 36.4826C16.5535 36.3851 16.6954 36.372 16.7952 36.451L18.816 38.1177L18.8187 38.1204L18.8213 38.123C19.0105 38.2863 19.247 38.36 19.4861 38.3337C19.7463 38.3021 19.9828 38.1599 20.1484 37.9282C20.4926 37.4542 20.4295 36.7749 20.0091 36.4115L19.2864 35.7954C19.2786 35.7875 19.2707 35.7822 19.2654 35.7743C19.2339 35.7401 19.2023 35.7032 19.1708 35.669L14.2804 31.6851L10.11 33.731C9.33224 34.1813 8.33364 33.9153 7.87901 33.1386C7.87638 33.1333 7.87376 33.128 7.87113 33.1228C7.65827 32.7594 7.59783 32.317 7.7082 31.8931C7.81857 31.4692 8.08924 31.1137 8.46502 30.8925C8.47027 30.8899 8.47553 30.8846 8.48341 30.882L12.1072 29.1704C12.1519 29.152 12.1939 29.1336 12.2386 29.1151C11.3819 28.9545 10.181 28.8729 8.64636 28.865C8.64898 29.073 8.59117 29.2863 8.46503 29.4653L4.32884 35.432C4.29731 35.4741 4.26577 35.5136 4.23161 35.5505L4.98843 36.1798L6.0212 35.353C6.03171 35.3451 6.04222 35.3372 6.05536 35.3319C6.60721 35.0291 7.29836 35.1713 7.69776 35.6663C7.89222 35.9085 8.00258 36.214 8.00521 36.5299C8.00521 36.5457 8.00259 36.5642 8.00259 36.5826L8.10507 36.4931C8.37836 36.2561 8.71998 36.1455 9.07474 36.1771C9.43213 36.2087 9.75534 36.3825 9.984 36.6668C10.1785 36.9091 10.2888 37.2145 10.2915 37.5305C10.2915 37.57 10.2888 37.6068 10.2862 37.6463C10.4964 37.541 10.7329 37.4962 10.9694 37.5173C11.3268 37.5489 11.65 37.7227 11.8787 38.0071C12.2597 38.481 12.2781 39.1472 11.9654 39.6396C12.3123 39.6738 12.6302 39.8476 12.8536 40.1267C13.3187 40.706 13.2451 41.567 12.6881 42.0515L12.3622 42.3096L13.1269 42.9442C13.2951 43.0732 13.4764 43.1258 13.6577 43.1021C13.9126 43.0653 14.136 42.8731 14.2595 42.7072C14.4093 42.5044 14.4539 42.3649 14.4487 42.1121C14.4408 41.7961 14.312 41.5065 14.0913 41.3143C14.0887 41.3116 14.086 41.309 14.0834 41.3064L14.0808 41.3037L13.7339 40.9588C13.6446 40.8719 13.6419 40.7271 13.7313 40.6376C13.818 40.548 13.9625 40.5454 14.0519 40.6349L14.3961 40.9746L15.3369 41.7882C15.5261 41.9515 15.7626 42.0278 16.0017 41.9989C16.2619 41.9673 16.4958 41.8251 16.6639 41.5934C16.8111 41.3906 16.8899 41.1326 16.8847 40.8745C16.8768 40.5585 16.748 40.2689 16.5273 40.0767L14.9742 38.7364C14.8796 38.6548 14.8691 38.51 14.9506 38.4152C15.032 38.3204 15.1766 38.3099 15.2712 38.3915L16.8242 39.7318L17.3445 40.1846C17.5337 40.3479 17.7702 40.4243 18.0094 40.3953C18.2617 40.3558 18.4954 40.2137 18.6636 39.982ZM11.3269 42.5388L12.399 41.6935C12.7643 41.3749 12.8142 40.793 12.4989 40.4033C12.3465 40.2163 12.1363 40.1005 11.9024 40.0821C11.8761 40.0794 11.8525 40.0794 11.8288 40.0794C11.6265 40.0794 11.4294 40.1531 11.2717 40.2901C11.2691 40.2927 11.2691 40.2927 11.2638 40.2953L10.3809 41.0089L10.3704 41.0194C10.1733 41.1906 10.0603 41.4513 10.0603 41.7278C10.0629 41.941 10.1365 42.1464 10.2679 42.3097C10.5306 42.6283 10.9695 42.7257 11.3269 42.5388ZM9.21146 41.425L10.0839 40.6693L11.4215 39.5792C11.7894 39.2579 11.8393 38.6787 11.5266 38.2889C11.3742 38.102 11.164 37.9861 10.9301 37.9677C10.9038 37.965 10.8802 37.965 10.8539 37.965C10.6516 37.965 10.4545 38.0388 10.2968 38.1757L9.81853 38.5917L9.8159 38.5944L8.09466 40.0215C7.89494 40.1953 7.77932 40.4533 7.78457 40.7325C7.7872 40.9457 7.86078 41.1511 7.99217 41.3117C8.14458 41.4987 8.35481 41.6145 8.58869 41.633C8.80942 41.654 9.03277 41.5803 9.21146 41.425ZM7.3168 40.09L7.79506 39.674L9.52155 38.2442C9.72127 38.0704 9.83689 37.8123 9.83426 37.5332C9.83163 37.3199 9.75805 37.1146 9.62667 36.9513C9.47425 36.7644 9.26402 36.6485 9.03014 36.6301C9.00387 36.6274 8.98022 36.6274 8.95394 36.6274C8.75159 36.6274 8.55451 36.7012 8.39684 36.8381L7.52438 37.5938L7.51912 37.5991L6.18679 38.6865C5.81889 39.0078 5.76896 39.587 6.08167 39.9768C6.23409 40.1637 6.44431 40.2796 6.67819 40.298C6.9147 40.3191 7.1381 40.2453 7.3168 40.09ZM5.26969 38.5443C5.50094 38.5654 5.7243 38.4917 5.903 38.3363L5.90825 38.3337L5.91088 38.3311L7.24059 37.2462C7.44294 37.0698 7.55594 36.8091 7.55331 36.5326C7.55068 36.3193 7.4771 36.114 7.34571 35.9507C7.08818 35.6295 6.64668 35.5373 6.29195 35.719L4.78094 36.9276C4.41303 37.2462 4.36574 37.8281 4.67845 38.2179C4.82561 38.4101 5.03581 38.5233 5.26969 38.5443ZM3.61155 35.3951C3.74819 35.3741 3.86908 35.2951 3.95317 35.1766L8.08936 29.2099C8.26017 28.9624 8.2155 28.6175 7.98688 28.4358L5.36957 26.698L0.726201 33.3624L3.2463 35.3003C3.35142 35.382 3.48278 35.4162 3.61155 35.3951ZM12.2911 29.5865L8.68304 31.2927C8.415 31.4533 8.22317 31.7061 8.14433 32.0115C8.06287 32.317 8.11017 32.6356 8.26784 32.9094C8.27046 32.9147 8.27309 32.9199 8.27572 32.9252C8.59631 33.4755 9.32423 33.6651 9.88657 33.336C9.89182 33.3333 9.89708 33.3307 9.90233 33.3281L14.212 31.2111C14.2908 31.1716 14.388 31.1821 14.4563 31.24L20.9235 36.5115L21.4149 36.2666C21.3886 36.2324 21.3676 36.1982 21.3466 36.1613L17.5651 29.5496C17.4994 29.4364 17.46 29.3152 17.4416 29.1941C17.1157 29.1309 16.4351 29.0177 15.97 28.9729C14.6272 28.8465 13.5972 29.0177 12.2911 29.5865ZM17.9567 29.3232L21.7382 35.9349C21.8144 36.0718 21.9379 36.1693 22.0851 36.2114C22.227 36.2535 22.3741 36.2377 22.5003 36.164L25.3436 34.5314L21.0024 26.7796L18.1512 28.5464C17.8832 28.6991 17.799 29.0467 17.9567 29.3232ZM12.9323 26.9139C11.9179 26.9139 10.9666 26.6295 10.1599 26.1345C8.61469 25.1919 7.58461 23.4909 7.58461 21.5529C7.58461 18.8303 9.61853 16.579 12.2438 16.2367C12.4698 16.2077 12.6984 16.1919 12.9323 16.1919C15.8833 16.1919 18.2825 18.596 18.2825 21.5529C18.2825 24.5099 15.8833 26.9139 12.9323 26.9139ZM17.8279 21.5556C17.8279 18.8514 15.631 16.6501 12.9323 16.6501C10.2335 16.6501 8.03661 18.8514 8.03661 21.5556C8.03661 24.2597 10.2335 26.461 12.9323 26.461C15.631 26.461 17.8279 24.2597 17.8279 21.5556ZM13.7337 18.7803H13.1582V17.8034C13.1582 17.677 13.0584 17.5769 12.9322 17.5769C12.8061 17.5769 12.7062 17.677 12.7062 17.8034V18.7803H12.1308C11.508 18.7803 11.0034 19.2885 11.0034 19.9099V20.6524C11.0034 21.2765 11.5106 21.782 12.1308 21.782H13.7337C14.1042 21.782 14.4091 22.0849 14.4091 22.4587V23.2013C14.4091 23.5726 14.1069 23.878 13.7337 23.878H12.1308C11.7602 23.878 11.4554 23.5752 11.4554 23.2013V22.6852C11.4554 22.5588 11.3555 22.4588 11.2294 22.4588C11.1033 22.4588 11.0034 22.5588 11.0034 22.6852V23.2013C11.0034 23.8254 11.5106 24.3309 12.1308 24.3309H12.7063V25.3078C12.7063 25.4342 12.8061 25.5342 12.9323 25.5342C13.0584 25.5342 13.1583 25.4342 13.1583 25.3078V24.3309H13.7338C14.3566 24.3309 14.8611 23.8227 14.8611 23.2013V22.4587C14.8611 21.8347 14.3539 21.3291 13.7338 21.3291H12.1308C11.7603 21.3291 11.4554 21.0263 11.4554 20.6524V19.9099C11.4554 19.5386 11.7576 19.2332 12.1308 19.2332H13.7338C14.1043 19.2332 14.4091 19.536 14.4091 19.9099V20.4075C14.4091 20.5339 14.509 20.634 14.6351 20.634C14.7612 20.634 14.8611 20.5339 14.8611 20.4075V19.9099C14.8611 19.2885 14.3566 18.7803 13.7337 18.7803ZM47.7172 28.375V38.7942C47.7172 39.5209 47.1286 40.1107 46.4033 40.1107H39.3841L39.9648 42.0618H41.3445C41.8254 42.0618 42.2169 42.4542 42.2169 42.936V43.6444C42.2169 43.7707 42.1171 43.8708 41.9909 43.8708H33.0881C32.9619 43.8708 32.8621 43.7707 32.8621 43.6444V42.936C32.8621 42.4542 33.251 42.0618 33.7345 42.0618H35.2797L35.8605 40.1107H28.8385C28.6861 40.1107 28.5442 40.0844 28.4076 40.037C27.8951 39.8579 27.522 39.3708 27.522 38.7941V28.375C27.522 27.6483 28.1133 27.0584 28.8359 27.0584H29.6085C29.5979 26.9742 29.5927 26.8899 29.5927 26.803V25.0152C29.5927 24.6202 29.9159 24.2964 30.3101 24.2964H45.0341C45.4282 24.2964 45.7515 24.6202 45.7515 25.0152V26.803C45.7515 26.8899 45.7436 26.9742 45.7357 27.0584H46.4032C47.1284 27.0584 47.7172 27.6483 47.7172 28.375ZM47.2626 28.375C47.2626 27.9011 46.8763 27.514 46.4033 27.514H45.6308C45.5257 27.8195 45.3575 28.096 45.1367 28.3224V36.8144C45.4941 36.946 45.7517 37.2883 45.7517 37.6912C45.7517 38.2073 45.3338 38.6259 44.8188 38.6259H30.5233C30.0083 38.6259 29.5905 38.2073 29.5905 37.6912C29.5905 37.2883 29.8454 36.9434 30.2054 36.8144V28.3224C29.9873 28.0959 29.8165 27.8195 29.7113 27.514H28.8336C28.3606 27.514 27.9744 27.9011 27.9744 28.375V38.7942C27.9744 39.2682 28.3606 39.6552 28.8336 39.6552H46.4032C46.8763 39.6552 47.2625 39.2681 47.2625 38.7942L47.2626 28.375ZM39.5733 42.3567L38.9085 40.1133H36.3254L35.6605 42.3567C35.6316 42.4515 35.5423 42.5173 35.4424 42.5173H33.729C33.4978 42.5173 33.3112 42.7042 33.3112 42.936V43.4178H41.76V42.936C41.76 42.7042 41.5734 42.5173 41.3422 42.5173H39.7944C39.6919 42.5173 39.6022 42.4515 39.5733 42.3567ZM31.7791 28.5436C32.7357 28.5436 33.5161 27.7642 33.5161 26.8031V24.7519H30.3075C30.1604 24.7519 30.0447 24.8704 30.0447 25.0152V26.803C30.0421 27.7615 30.8199 28.5436 31.7791 28.5436ZM45.0049 24.7519H41.8226V26.8057C41.8226 27.7642 42.6004 28.5462 43.5596 28.5462C44.5161 28.5462 45.2966 27.7668 45.2966 26.8057V25.0442C45.2966 24.8835 45.1652 24.7519 45.0049 24.7519ZM30.0421 37.6907C30.0421 37.954 30.2576 38.17 30.5204 38.17H44.8159C45.0786 38.17 45.2941 37.954 45.2941 37.6907C45.2941 37.4274 45.0787 37.2115 44.8159 37.2115H30.5204C30.2576 37.2115 30.0421 37.4274 30.0421 37.6907ZM42.125 30.9948H39.2475V36.7586H42.125V30.9948ZM44.6819 28.6829C44.3534 28.8804 43.9697 28.9962 43.5572 28.9962C42.6953 28.9962 41.9516 28.4933 41.5915 27.7666C41.2341 28.4933 40.4905 28.9962 39.6259 28.9962C38.764 28.9962 38.0203 28.4933 37.6602 27.7666C37.3029 28.4933 36.5592 28.9962 35.6946 28.9962C34.8327 28.9962 34.089 28.4933 33.729 27.7666C33.3716 28.4933 32.6279 28.9962 31.7633 28.9962C31.3534 28.9962 30.9697 28.8804 30.6386 28.6829V29.873L30.6491 36.756H38.7877V30.7657C38.7877 30.6393 38.8876 30.5393 39.0137 30.5393H42.3458C42.472 30.5393 42.5718 30.6393 42.5718 30.7657L42.5745 36.756H44.6767L44.6819 28.6829ZM41.3682 24.7517H37.8941V26.8055C37.8941 27.764 38.672 28.546 39.6311 28.546C40.5877 28.546 41.3681 27.7666 41.3681 26.8055L41.3682 24.7517ZM37.4422 24.7517H33.9682V26.8029C33.9682 27.7614 34.746 28.5433 35.7052 28.5433C36.6617 28.5433 37.4421 27.764 37.4421 26.8029L37.4422 24.7517ZM36.1072 34.3336H32.7752C32.649 34.3336 32.5492 34.2336 32.5492 34.1072V30.7684C32.5492 30.642 32.649 30.542 32.7752 30.542H36.1072C36.2334 30.542 36.3332 30.642 36.3332 30.7684V34.1072C36.3359 34.2309 36.2334 34.3336 36.1072 34.3336ZM35.8813 30.9949H33.0038V33.8781H35.8813V30.9949Z" fill="#0E875C"/>
</svg>
