<svg width="60" height="60" viewBox="0 0 60 60" fill="none" xmlns="http://www.w3.org/2000/svg">
<path d="M13.3005 27.8025H8.02711C7.30055 27.8025 6.70898 28.394 6.70898 29.1206V32.6362C6.70898 33.3628 7.30055 33.9544 8.02711 33.9544H13.3005C14.0271 33.9544 14.6187 33.3628 14.6187 32.6362V29.1206C14.6187 28.394 14.0271 27.8025 13.3005 27.8025ZM10.2237 33.0759H8.02711C7.91057 33.0757 7.79888 33.0293 7.71648 32.9469C7.63407 32.8645 7.58767 32.7528 7.58742 32.6362V29.1206C7.58767 29.0041 7.63407 28.8924 7.71648 28.81C7.79888 28.7276 7.91057 28.6812 8.02711 28.6809H10.2246L10.2237 33.0759ZM13.7393 32.6372C13.739 32.7537 13.6926 32.8654 13.6102 32.9478C13.5278 33.0302 13.4161 33.0766 13.2996 33.0769H11.1021V28.6819H13.2996C13.4161 28.6821 13.5278 28.7285 13.6102 28.8109C13.6926 28.8933 13.739 29.005 13.7393 29.1215V32.6372ZM13.3005 37.0312H8.02711C7.30055 37.0312 6.70898 37.6228 6.70898 38.3494V41.865C6.70898 42.5915 7.30055 43.1831 8.02711 43.1831H13.3005C14.0271 43.1831 14.6187 42.5915 14.6187 41.865V38.3494C14.6187 37.6228 14.0271 37.0312 13.3005 37.0312ZM10.2237 42.3047H8.02711C7.91057 42.3044 7.79888 42.258 7.71648 42.1756C7.63407 42.0932 7.58767 41.9815 7.58742 41.865V38.3494C7.58767 38.2328 7.63407 38.1211 7.71648 38.0387C7.79888 37.9563 7.91057 37.9099 8.02711 37.9097H10.2246L10.2237 42.3047ZM13.7393 41.865C13.739 41.9815 13.6926 42.0932 13.6102 42.1756C13.5278 42.258 13.4161 42.3044 13.2996 42.3047H11.1021V37.9097H13.2996C13.4161 37.9099 13.5278 37.9563 13.6102 38.0387C13.6926 38.1211 13.739 38.2328 13.7393 38.3494V41.865ZM13.3005 45.8203H8.02711C7.30055 45.8203 6.70898 46.4119 6.70898 47.1384V50.654C6.70898 51.3806 7.30055 51.9722 8.02711 51.9722H13.3005C14.0271 51.9722 14.6187 51.3806 14.6187 50.654V47.1384C14.6187 46.4119 14.0271 45.8203 13.3005 45.8203ZM10.2237 51.0937H8.02711C7.91057 51.0935 7.79888 51.0471 7.71648 50.9647C7.63407 50.8823 7.58767 50.7706 7.58742 50.654V47.1384C7.58767 47.0219 7.63407 46.9102 7.71648 46.8278C7.79888 46.7454 7.91057 46.699 8.02711 46.6987H10.2246L10.2237 51.0937ZM13.7393 50.654C13.739 50.7706 13.6926 50.8823 13.6102 50.9647C13.5278 51.0471 13.4161 51.0935 13.2996 51.0937H11.1021V46.6987H13.2996C13.4161 46.699 13.5278 46.7454 13.6102 46.8278C13.6926 46.9102 13.739 47.0219 13.7393 47.1384V50.654ZM45.3799 29.1215V32.6372C45.3799 33.3637 45.9715 33.9553 46.698 33.9553H51.9715C52.698 33.9553 53.2896 33.3637 53.2896 32.6372V29.1215C53.2896 28.395 52.698 27.8034 51.9715 27.8034H46.698C46.3485 27.8037 46.0134 27.9426 45.7663 28.1898C45.5191 28.4369 45.3802 28.772 45.3799 29.1215ZM49.7749 28.6819H51.9724C52.089 28.6821 52.2006 28.7285 52.2831 28.8109C52.3655 28.8933 52.4119 29.005 52.4121 29.1215V32.6372C52.4119 32.7537 52.3655 32.8654 52.2831 32.9478C52.2006 33.0302 52.089 33.0766 51.9724 33.0769H49.7749V28.6819ZM48.8955 33.0759H46.698C46.5815 33.0757 46.4698 33.0293 46.3874 32.9469C46.305 32.8645 46.2586 32.7528 46.2584 32.6362V29.1206C46.2586 29.0041 46.305 28.8924 46.3874 28.81C46.4698 28.7276 46.5815 28.6812 46.698 28.6809H48.8955V33.0759ZM51.9724 37.0312H46.699C45.9724 37.0312 45.3809 37.6228 45.3809 38.3494V41.865C45.3809 42.5915 45.9724 43.1831 46.699 43.1831H51.9724C52.699 43.1831 53.2905 42.5915 53.2905 41.865V38.3494C53.2905 37.6228 52.699 37.0312 51.9724 37.0312ZM48.8955 42.3047H46.698C46.5815 42.3044 46.4698 42.258 46.3874 42.1756C46.305 42.0932 46.2586 41.9815 46.2584 41.865V38.3494C46.2586 38.2328 46.305 38.1211 46.3874 38.0387C46.4698 37.9563 46.5815 37.9099 46.698 37.9097H48.8955V42.3047ZM52.4112 41.865C52.4109 41.9815 52.3645 42.0932 52.2821 42.1756C52.1997 42.258 52.088 42.3044 51.9715 42.3047H49.774V37.9097H51.9715C52.088 37.9099 52.1997 37.9563 52.2821 38.0387C52.3645 38.1211 52.4109 38.2328 52.4112 38.3494V41.865ZM51.9724 45.8203H46.699C45.9724 45.8203 45.3809 46.4119 45.3809 47.1384V50.654C45.3809 51.3806 45.9724 51.9722 46.699 51.9722H51.9724C52.699 51.9722 53.2905 51.3806 53.2905 50.654V47.1384C53.2905 46.4119 52.699 45.8203 51.9724 45.8203ZM48.8955 51.0937H46.698C46.5815 51.0935 46.4698 51.0471 46.3874 50.9647C46.305 50.8823 46.2586 50.7706 46.2584 50.654V47.1384C46.2586 47.0219 46.305 46.9102 46.3874 46.8278C46.4698 46.7454 46.5815 46.699 46.698 46.6987H48.8955V51.0937ZM52.4112 50.654C52.4109 50.7706 52.3645 50.8823 52.2821 50.9647C52.1997 51.0471 52.088 51.0935 51.9715 51.0937H49.774V46.6987H51.9715C52.088 46.699 52.1997 46.7454 52.2821 46.8278C52.3645 46.9102 52.4109 47.0219 52.4112 47.1384V50.654ZM21.0921 34.0762C20.598 33.9094 20.3796 33.8137 20.3796 33.5962C20.3796 33.42 20.5615 33.2681 20.9393 33.2681C21.3134 33.2681 21.5871 33.3637 21.7399 33.4294L21.934 32.8078C21.6216 32.6888 21.2894 32.6306 20.9552 32.6362C20.0487 32.6362 19.503 33.0815 19.503 33.6619C19.503 34.1559 19.9184 34.47 20.5568 34.6669C21.0171 34.8122 21.1999 34.935 21.1999 35.1469C21.1999 35.369 20.989 35.5153 20.5905 35.5153C20.2212 35.5153 19.863 35.4103 19.6296 35.3034L19.4534 35.94C19.669 36.0459 20.1021 36.1472 20.5409 36.1472C21.5937 36.1472 22.0887 35.6625 22.0887 35.0915C22.0887 34.6115 21.7699 34.2984 21.0921 34.0762ZM24.633 33.2737C24.9396 33.2737 25.1852 33.3328 25.3605 33.3994L25.5368 32.789C25.384 32.7178 25.0427 32.6372 24.5927 32.6372C23.4312 32.6372 22.4965 33.2831 22.4965 34.4456C22.4965 35.4159 23.1799 36.1472 24.5074 36.1472C24.9743 36.1472 25.3334 36.0722 25.4927 36.0009L25.3605 35.4C25.1266 35.4733 24.8829 35.5109 24.6377 35.5115C23.8643 35.5115 23.4087 35.0812 23.4087 34.3997C23.4096 33.6422 23.9449 33.2737 24.633 33.2737ZM28.3624 34.0012H26.9327V32.6925H26.0627V36.0965H26.9327V34.6715H28.3624V36.0965H29.2277V32.6925H28.3624V34.0012ZM31.6755 32.6372C30.543 32.6372 29.809 33.3994 29.809 34.4194C29.809 35.3897 30.4746 36.1528 31.6127 36.1528C32.7349 36.1528 33.4971 35.475 33.4971 34.3603C33.4962 33.419 32.854 32.6372 31.6755 32.6372ZM31.6596 35.5415C31.0784 35.5415 30.7259 35.0709 30.7259 34.4044C30.7259 33.7425 31.0671 33.2475 31.653 33.2475C32.2512 33.2475 32.5812 33.7734 32.5812 34.3847C32.5812 35.0465 32.2446 35.5415 31.6596 35.5415ZM35.7593 32.6372C34.6259 32.6372 33.8918 33.3994 33.8918 34.4194C33.8918 35.3897 34.5574 36.1528 35.6955 36.1528C36.8187 36.1528 37.5809 35.475 37.5809 34.3603C37.5799 33.419 36.9359 32.6372 35.7593 32.6372ZM35.7415 35.5415C35.1602 35.5415 34.8077 35.0709 34.8077 34.4044C34.8077 33.7425 35.149 33.2475 35.7349 33.2475C36.334 33.2475 36.663 33.7734 36.663 34.3847C36.663 35.0465 36.3274 35.5415 35.7415 35.5415ZM39.0199 32.6925H38.149V36.0965H40.5462V35.4497H39.0199V32.6925ZM36.1521 24.7265C36.1521 23.0947 35.5039 21.5297 34.35 20.3758C33.1961 19.222 31.6311 18.5737 29.9993 18.5737C28.3675 18.5737 26.8025 19.222 25.6486 20.3758C24.4947 21.5297 23.8465 23.0947 23.8465 24.7265C23.8465 26.3584 24.4947 27.9234 25.6486 29.0772C26.8025 30.2311 28.3675 30.8794 29.9993 30.8794C31.6311 30.8794 33.1961 30.2311 34.35 29.0772C35.5039 27.9234 36.1521 26.3584 36.1521 24.7265ZM25.6052 24.7265C25.6055 23.5607 26.0689 22.4426 26.8934 21.6184C27.718 20.7942 28.8362 20.3313 30.0021 20.3315C31.168 20.3318 32.286 20.7952 33.1102 21.6197C33.9345 22.4443 34.3974 23.5625 34.3971 24.7284C34.3969 25.8943 33.9335 27.0123 33.1089 27.8365C32.2843 28.6608 31.1661 29.1237 30.0002 29.1234C28.8344 29.1232 27.7163 28.6598 26.8921 27.8352C26.0679 27.0106 25.605 25.8924 25.6052 24.7265Z" fill="black"/>
<path d="M30.8788 25.6059V22.0903C30.8788 21.6066 30.4832 21.2109 29.9995 21.2109C29.5157 21.2109 29.1201 21.6066 29.1201 22.0903V24.7275H28.2407C27.757 24.7275 27.3613 25.1231 27.3613 25.6069C27.3613 26.0906 27.757 26.4863 28.2407 26.4863H29.9995C30.2325 26.485 30.4556 26.3918 30.6202 26.227C30.7849 26.0621 30.8778 25.8389 30.8788 25.6059Z" fill="black"/>
<path d="M57.2466 54.6094H56.3672V26.4844H56.9616C57.9506 26.4844 58.3959 25.7766 57.9544 24.9122L55.0697 19.2675C54.6272 18.4031 53.4562 17.6953 52.4681 17.6953H37.6003L30.8784 12.2541V10.1072C34.3941 12.9122 37.9097 4.06406 41.4253 6.87C37.9097 1.90687 34.3941 8.59594 30.8784 3.63281V2.75437C30.8794 2.27062 30.4837 1.875 30 1.875C29.5163 1.875 29.1206 2.27062 29.1206 2.75437V12.255L22.3988 17.6962H7.53281C6.54375 17.6962 5.37281 18.4041 4.93125 19.2684L2.04656 24.9131C1.60406 25.7775 2.05031 26.4853 3.03938 26.4853H3.63375V54.6103H2.75437C2.52146 54.6108 2.29822 54.7035 2.13344 54.8681C1.96866 55.0327 1.87574 55.2558 1.875 55.4888V57.2466C1.87574 57.4795 1.96866 57.7026 2.13344 57.8672C2.29822 58.0318 2.52146 58.1245 2.75437 58.125H57.2466C57.4793 58.1243 57.7023 58.0315 57.8669 57.8669C58.0315 57.7023 58.1243 57.4793 58.125 57.2466V55.4888C58.1245 55.2558 58.0318 55.0326 57.8672 54.8678C57.7026 54.703 57.4795 54.6101 57.2466 54.6094ZM15.9375 54.6094H5.39062V26.4844H13.7691C13.7853 26.6381 13.8166 26.7816 13.8628 26.9147C14.0925 27.5569 14.76 28.2422 15.9384 28.2422L15.9375 54.6094ZM39.375 57.0413H20.625V55.635H39.375V57.0413ZM24.7266 54.6094V44.0625H29.5603V54.6094H24.7266ZM30.4397 54.6094V44.0625H35.2734V54.6094H30.4397ZM42.3047 54.6094H37.0312V44.0625H38.7891V42.2991C38.7891 42.2991 32.7488 38.6494 30.8325 37.2853C30.5866 37.1199 30.2969 37.0315 30.0005 37.0315C29.7041 37.0315 29.4144 37.1199 29.1684 37.2853C27.2522 38.6494 21.2119 42.2991 21.2119 42.2991V44.0625H22.9688V54.6094H17.6953V26.4844H15.9375C15.4537 26.4844 15.3647 26.2322 15.7369 25.9256L29.3212 14.7375C29.5078 14.5847 29.7544 14.5078 30 14.5078C30.2456 14.5078 30.4912 14.5847 30.6787 14.7375L44.2631 25.9256C44.6353 26.2322 44.5462 26.4844 44.0625 26.4844H42.3047V54.6094ZM54.6094 54.6094H44.0625V28.2422C45.2409 28.2422 45.9084 27.5569 46.1381 26.9147C46.1844 26.7816 46.2156 26.6381 46.2319 26.4844H54.6103L54.6094 54.6094Z" fill="black"/>
<path d="M27.418 48.8965H28.6817V49.5349H27.418V48.8965ZM31.318 48.8965H32.5817V49.5349H31.318V48.8965Z" fill="black"/>
</svg>
