<svg width="67" height="67" viewBox="0 0 67 67" fill="none" xmlns="http://www.w3.org/2000/svg">
<path d="M54.4446 58.3335L36.9446 40.8335C35.5557 41.9446 33.9585 42.8242 32.1529 43.4724C30.3474 44.1205 28.4261 44.4446 26.3891 44.4446C21.3428 44.4446 17.0724 42.6965 13.5779 39.2002C10.0835 35.7039 8.33535 31.4335 8.3335 26.3891C8.33165 21.3446 10.0798 17.0742 13.5779 13.5779C17.0761 10.0816 21.3465 8.3335 26.3891 8.3335C31.4316 8.3335 35.7029 10.0816 39.2029 13.5779C42.7029 17.0742 44.4502 21.3446 44.4446 26.3891C44.4446 28.4261 44.1205 30.3474 43.4724 32.1529C42.8242 33.9585 41.9446 35.5557 40.8335 36.9446L58.3335 54.4446L54.4446 58.3335ZM26.3891 38.889C29.8613 38.889 32.8131 37.6742 35.2446 35.2446C37.6761 32.815 38.8909 29.8631 38.8891 26.3891C38.8872 22.915 37.6724 19.9641 35.2446 17.5363C32.8168 15.1085 29.865 13.8928 26.3891 13.8891C22.9131 13.8853 19.9622 15.1011 17.5363 17.5363C15.1103 19.9715 13.8946 22.9224 13.8891 26.3891C13.8835 29.8557 15.0992 32.8076 17.5363 35.2446C19.9733 37.6816 22.9242 38.8965 26.3891 38.889Z" fill="black"/>
</svg>
