<svg width="47" height="48" viewBox="0 0 47 48" fill="none" xmlns="http://www.w3.org/2000/svg">
<path d="M41.938 36.1624L41.1426 36.9611L42.878 38.6313L41.1426 40.374L41.938 41.1728L44.4687 38.6313L41.938 36.1624Z" fill="#663C97"/>
<path d="M34.9253 36.1624L32.4668 38.6313L34.9253 41.1728L35.7206 40.374L33.9853 38.6313L35.7206 36.9611L34.9253 36.1624Z" fill="#663C97"/>
<path d="M35.8971 42.6028L36.8691 43.0859L40.9748 34.756L40.0028 34.2728L35.8971 42.6028Z" fill="#663C97"/>
<path d="M38.4678 29.9175C37.817 29.9175 37.2385 29.9901 36.5878 30.1354C35.2139 28.7557 33.5509 27.8117 31.6709 27.2307C32.0324 25.5606 31.8878 24.2535 31.0201 23.3095C29.9355 22.075 28.1278 21.8572 26.8985 21.9298C28.2724 20.4049 29.2847 18.4443 29.357 16.1932C30.0078 15.6123 31.8155 14.0147 31.7432 12.272C31.6709 10.5292 30.5139 10.4566 30.2247 10.4566H30.1524L30.4416 7.84243C30.5862 4.71997 29.2124 3.55812 28.2001 3.12243C29.2124 1.67012 28.9232 0.726121 28.9232 0.653506L28.7062 -3.29018e-05L28.1278 0.435659C27.477 0.871352 26.8262 1.0892 26.1755 1.0892C25.7416 1.0892 25.4524 0.943967 25.4524 0.943967C23.5001 0.0725825 19.3785 -0.145264 19.1616 -0.145264C14.8955 -0.145264 13.5939 2.0332 13.3047 2.90458C9.68932 3.34027 9.83393 6.97104 9.90624 8.71381C9.90624 9.00427 9.90624 9.29474 9.90624 9.51258C9.90624 9.87566 9.90624 10.2387 9.97855 10.6018C9.47239 10.6018 8.53239 10.8923 8.53239 12.4172C8.46008 14.16 10.2678 15.8301 10.9185 16.3384C10.9909 18.4443 11.9309 20.3323 13.2324 21.8572C12.0032 21.8572 10.0509 22.0024 8.96624 23.2369C8.17085 24.1809 7.95393 25.488 8.38778 27.2307C3.32624 28.9009 -0.144531 33.7661 -0.144531 39.1397V41.4634H30.2247C31.3816 44.8763 34.6355 47.3452 38.3955 47.3452C43.1678 47.3452 47.0724 43.424 47.0724 38.6314C47.1447 33.8387 43.2401 29.9175 38.4678 29.9175ZM30.2247 24.0357C30.8755 24.7618 30.9478 25.9237 30.4416 27.5212C30.3693 27.6664 28.9232 30.7889 24.5847 31.9507C24.2955 31.152 23.717 30.4984 22.9216 30.1354C23.5724 29.7723 24.0785 29.3366 24.5124 28.8283C26.1755 26.8677 26.2478 24.1809 26.2478 23.0917C27.2601 22.9464 29.2847 22.9464 30.2247 24.0357ZM24.2955 35.1458C24.8016 35.1458 25.1632 35.5815 25.1632 36.0172C25.1632 36.5255 24.7293 36.8886 24.2955 36.8886C23.7893 36.8886 23.3555 36.4529 23.3555 36.0172C23.4278 35.5815 23.7893 35.1458 24.2955 35.1458ZM19.8124 29.7723C18.2939 29.627 17.0647 29.0461 16.2693 28.1021C15.0401 26.6498 14.8232 24.544 14.7509 23.4547C16.4139 24.7618 18.2939 25.5606 20.1016 25.5606C21.6201 25.5606 23.5724 24.8344 25.2355 23.5274C25.2355 24.6892 24.9462 26.7224 23.717 28.1747C22.9216 29.0461 21.6924 29.627 20.1739 29.7723H19.8124ZM13.7385 3.9212H14.1724L14.2447 3.48551C14.2447 3.48551 14.7509 0.871352 19.1616 0.871352C19.2339 0.871352 23.2109 1.0892 25.0185 1.88797C25.0909 1.88797 25.5247 2.10581 26.1755 2.10581C26.6816 2.10581 27.1878 2.0332 27.6216 1.81535C27.477 2.10581 27.1878 2.46889 26.8262 2.90458L26.0309 3.77597L27.1878 3.84858C27.2601 3.84858 29.5739 4.06643 29.357 7.6972L29.0678 10.3114L27.8385 10.8197C27.5493 10.4566 27.1155 10.3114 26.8985 10.2387C26.3201 10.1661 25.7416 10.1661 25.0185 10.1661C23.7893 10.1661 22.6324 10.3114 22.5601 10.3114C21.6201 10.4566 20.9693 10.747 20.6801 11.328C20.6801 11.4006 20.6801 11.4006 20.6078 11.4732H19.6678C19.6678 11.4006 19.6678 11.4006 19.5955 11.328C19.3062 10.747 18.6555 10.384 17.7155 10.3114C17.6432 10.3114 16.4862 10.1661 15.257 10.1661C14.5339 10.1661 13.8832 10.2387 13.4493 10.3114C13.2324 10.384 12.7985 10.5292 12.5093 10.8923L11.0632 10.3114C11.0632 10.0209 10.9909 9.80304 10.9909 9.5852C10.9909 9.36735 10.9909 9.07689 10.9909 8.71381C10.8462 6.24489 10.9909 4.06643 13.7385 3.9212ZM27.1155 12.5624L27.0432 13.0707C26.8262 14.3778 26.7539 14.5957 26.1032 14.7409C26.1032 14.7409 25.3801 14.8861 24.5124 14.8861C23.5724 14.8861 22.9216 14.6683 22.5601 14.3778C22.4155 14.16 21.9816 13.3612 21.6201 12.4172C21.6201 12.4172 21.4755 12.0541 21.6201 11.8363C21.7647 11.6184 22.1262 11.4732 22.6324 11.4006C22.6324 11.4006 23.7893 11.2554 25.0185 11.2554C25.6693 11.2554 26.2478 11.328 26.6093 11.4006C26.6816 11.328 27.3324 11.4732 27.1155 12.5624ZM18.5832 12.4898C18.2216 13.4338 17.7878 14.2326 17.6432 14.3778C17.2816 14.7409 16.6309 14.8861 15.6909 14.8861C14.8955 14.8861 14.1724 14.7409 14.1724 14.7409C13.5216 14.523 13.4493 14.3052 13.2324 12.9981L13.1601 12.4898C13.0155 11.4732 13.5216 11.328 13.6662 11.2554C14.0278 11.1827 14.6062 11.1101 15.257 11.1101C16.4139 11.1101 17.5709 11.2554 17.5709 11.2554C18.1493 11.328 18.5109 11.4732 18.5832 11.691C18.8001 12.0541 18.6555 12.4172 18.5832 12.4898ZM12.0032 15.8301L11.7862 15.6849C11.1355 15.1766 9.5447 13.7243 9.61701 12.4898C9.61701 11.691 9.90624 11.691 10.1232 11.691C10.4124 11.691 10.7016 11.5458 10.8462 11.4006L12.0755 11.9089C12.0032 12.1994 12.0032 12.4898 12.0755 12.8529L12.1478 13.3612C12.3647 14.6683 12.5093 15.5397 13.8832 15.9754C13.8832 15.9754 14.7509 16.1206 15.6909 16.1206C16.9924 16.1206 17.9324 15.8301 18.5109 15.1766L18.5832 15.104C18.5832 15.0314 19.2339 14.0874 19.6678 12.9981C19.6678 12.9981 19.7401 12.7803 19.8124 12.5624H20.6078C20.6801 12.7803 20.7524 12.9255 20.7524 12.9255C21.1862 14.0874 21.837 15.0314 21.837 15.104L21.9093 15.1766C22.4878 15.7575 23.4278 16.1206 24.7293 16.1206C25.6693 16.1206 26.4647 15.9754 26.537 15.9027C27.9109 15.467 28.0555 14.6683 28.2724 13.3612L28.3447 12.8529C28.417 12.4898 28.417 12.1994 28.3447 11.9089L29.5016 11.4732C29.6462 11.5458 29.7909 11.6184 29.9355 11.6184H30.1524C30.2247 11.6184 30.297 11.6184 30.3693 11.6184C30.5139 11.6184 30.8032 11.6184 30.8032 12.4172C30.8032 13.6517 29.2124 15.1766 28.6339 15.6123L28.417 15.7575V16.048C28.417 18.4443 27.1155 20.6954 25.3801 22.2203C23.7893 23.6 21.837 24.4714 20.3185 24.4714C16.7032 24.4714 12.2924 20.768 12.2201 16.1932L12.0032 15.8301ZM9.83393 24.0357C10.7739 22.9464 12.7985 22.9464 13.7385 23.019C13.7385 24.1809 13.8109 26.8677 15.4739 28.7557C15.9801 29.4092 16.6309 29.8449 17.4262 30.208C16.7755 30.6437 16.2693 31.2972 15.9801 32.0233C11.2078 30.9341 9.61701 27.5938 9.61701 27.5212C9.11085 25.9237 9.18316 24.7618 9.83393 24.0357ZM16.3416 36.4529C16.8478 36.4529 17.2816 36.8886 17.2816 37.3243C17.2816 37.8326 16.8478 38.1957 16.3416 38.1957C15.8355 38.1957 15.4016 37.76 15.4016 37.3243C15.4739 36.816 15.8355 36.4529 16.3416 36.4529ZM0.940084 40.4467V39.2123C0.940084 34.2744 4.12162 29.9175 8.74932 28.32C9.32778 29.3366 11.2801 32.1686 15.7632 33.1852V35.4363C14.8955 35.6541 14.317 36.4529 14.317 37.3243C14.317 38.4135 15.1847 39.2849 16.3416 39.2849C17.4985 39.2849 18.3662 38.4135 18.3662 37.3243C18.3662 36.3803 17.7878 35.6541 16.9201 35.4363V33.04C16.9201 31.8055 17.8601 30.8615 19.0893 30.8615H19.8124C19.8847 30.8615 19.957 30.8615 20.0293 30.8615H20.1016C20.1739 30.8615 20.2462 30.8615 20.3185 30.8615H21.6924C22.9216 30.8615 23.8616 31.8055 23.8616 33.04V34.1292C22.9939 34.347 22.4155 35.1458 22.4155 36.0172C22.4155 37.1064 23.2832 37.9778 24.3678 37.9778C25.4524 37.9778 26.3201 37.1064 26.3201 36.0172C26.3201 35.0732 25.7416 34.347 24.8739 34.1292V33.04C28.9955 31.9507 30.8032 29.264 31.3093 28.2474C32.8278 28.683 34.2016 29.4818 35.3585 30.4984C32.1047 31.7329 29.7185 34.928 29.7185 38.6314C29.7185 39.2123 29.7909 39.8658 29.9355 40.3741H0.940084V40.4467ZM38.4678 46.256C34.2739 46.256 30.8755 42.843 30.8755 38.6314C30.8755 34.4197 34.2739 31.0067 38.4678 31.0067C42.6616 31.0067 46.0601 34.4197 46.0601 38.6314C46.0601 42.843 42.6616 46.256 38.4678 46.256Z" fill="#663C97"/>
</svg>
