<svg width="27" height="27" viewBox="0 0 27 27" fill="none" xmlns="http://www.w3.org/2000/svg">
<path d="M13.5052 9.57874C12.5526 9.57874 11.6605 9.92005 10.9851 10.5438C10.3128 11.1676 9.94005 11.9914 9.94005 12.8712C9.94005 13.751 10.3128 14.5748 10.9851 15.1986C11.6605 15.8194 12.5526 16.1637 13.5052 16.1637C14.4578 16.1637 15.3499 15.8194 16.0253 15.1986C16.6976 14.5748 17.0703 13.751 17.0703 12.8712C17.0703 11.9914 16.6976 11.1676 16.0253 10.5438C15.6954 10.2368 15.3027 9.9934 14.8701 9.82773C14.4375 9.66205 13.9735 9.57742 13.5052 9.57874ZM26.6411 16.5079L24.5574 14.8632C24.6562 14.3041 24.7072 13.7333 24.7072 13.1654C24.7072 12.5976 24.6562 12.0238 24.5574 11.4677L26.6411 9.82295C26.7985 9.69851 26.9111 9.53277 26.9641 9.34776C27.017 9.16276 27.0077 8.96726 26.9374 8.78726L26.9087 8.71076C26.3353 7.22986 25.476 5.85716 24.3726 4.65917L24.3153 4.59738C24.1813 4.45189 24.0027 4.34731 23.8031 4.29741C23.6035 4.24751 23.3922 4.25464 23.197 4.31786L20.61 5.16819C19.6542 4.44438 18.59 3.87357 17.4367 3.47636L16.9365 0.978323C16.8988 0.790139 16.7999 0.617013 16.6531 0.481946C16.5063 0.34688 16.3184 0.256267 16.1145 0.222146L16.0285 0.207434C14.3718 -0.0691447 12.6258 -0.0691447 10.9691 0.207434L10.8831 0.222146C10.6792 0.256267 10.4913 0.34688 10.3445 0.481946C10.1977 0.617013 10.0989 0.790139 10.0611 0.978323L9.55772 3.48813C8.41531 3.88849 7.35107 4.45792 6.40677 5.17408L3.80062 4.31786C3.60553 4.25414 3.39405 4.24675 3.19431 4.29668C2.99456 4.34661 2.81599 4.45149 2.68233 4.59738L2.62498 4.65917C1.52354 5.85842 0.664525 7.23078 0.0889248 8.71076L0.0602508 8.78726C-0.0831194 9.15505 0.0347628 9.56697 0.356549 9.82295L2.46568 11.4854C2.36692 12.0385 2.31913 12.6035 2.31913 13.1625C2.31913 13.7274 2.36692 14.2923 2.46568 14.8396L0.362921 16.502C0.205519 16.6265 0.0928641 16.7922 0.0399367 16.9772C-0.0129907 17.1622 -0.00368289 17.3577 0.0666227 17.5377L0.0952967 17.6142C0.671963 19.0942 1.52263 20.4624 2.63135 21.6658L2.6887 21.7276C2.82269 21.8731 3.00126 21.9777 3.20089 22.0276C3.40052 22.0775 3.61184 22.0703 3.80699 22.0071L6.41314 21.1509C7.36257 21.8718 8.42032 22.4426 9.5641 22.8369L10.0675 25.3467C10.1052 25.5348 10.2041 25.708 10.3509 25.843C10.4977 25.9781 10.6856 26.0687 10.8895 26.1028L10.9755 26.1176C12.6485 26.3956 14.3618 26.3956 16.0349 26.1176L16.1209 26.1028C16.3248 26.0687 16.5127 25.9781 16.6595 25.843C16.8063 25.708 16.9051 25.5348 16.9429 25.3467L17.4431 22.8486C18.5964 22.4485 19.6605 21.8806 20.6163 21.1568L23.2034 22.0071C23.3985 22.0709 23.6099 22.0782 23.8097 22.0283C24.0094 21.9784 24.188 21.8735 24.3217 21.7276L24.379 21.6658C25.4877 20.4565 26.3384 19.0942 26.9151 17.6142L26.9437 17.5377C27.0807 17.1729 26.9629 16.7639 26.6411 16.5079ZM13.5052 18.0438C10.4116 18.0438 7.90419 15.7282 7.90419 12.8712C7.90419 10.0142 10.4116 7.6986 13.5052 7.6986C16.5988 7.6986 19.1062 10.0142 19.1062 12.8712C19.1062 15.7282 16.5988 18.0438 13.5052 18.0438Z" fill="black"/>
</svg>
