<svg width="72" height="73" viewBox="0 0 72 73" fill="none" xmlns="http://www.w3.org/2000/svg">
<path d="M49.7438 46.7877H52.5243V26.7238H49.7438C48.6188 26.7238 47.6983 27.6488 47.6983 28.7762V44.7355C47.6951 45.8661 48.6188 46.7877 49.7438 46.7877ZM26.6048 12.8102C18.4645 14.7822 10.6756 18.1739 5.60697 22.6604C-4.87885 31.9425 10.337 34.1362 18.3624 35.2799C25.0581 36.2305 32.6356 36.4168 39.0346 35.6075C32.0673 34.9747 15.0071 32.7586 12.0412 28.1497C11.1398 26.7493 11.3956 25.2911 13.2045 23.8073C15.3267 22.0633 19.913 20.1909 27.8745 18.2349C27.1778 17.7981 26.513 17.1782 25.8802 16.3592C25.7332 16.1954 25.6565 15.9738 25.6852 15.7362C25.8323 14.5702 26.1455 13.6035 26.6057 12.8102L26.6048 12.8102ZM31.4244 19.0475C21.7404 21.2122 16.4287 23.2292 14.2172 25.0536C13.1817 25.9047 12.9708 26.6402 13.3799 27.2793C13.936 28.1465 15.3486 28.9816 17.3237 29.7652C23.9651 32.3828 36.407 34.0723 45.2377 34.4127C46.1645 34.4351 46.3115 35.7424 45.4422 35.9865C38.0466 38.0581 27.2728 38.1641 18.1452 36.8665C8.76147 35.5304 -7.32399 31.9685 4.54947 21.4564C7.6656 18.7039 12.5044 15.7298 19.1295 13.3626C22.0251 12.3284 25.2722 11.4034 28.8838 10.668C29.9768 10.1316 31.2713 9.94209 32.6743 10.0577L30.9804 7.21529L29.0372 7.58785C28.7304 7.64566 28.4236 7.51719 28.251 7.27952L25.8636 4.06447C25.5248 3.60839 25.7613 2.95315 26.2918 2.80869L35.7459 0.232828C35.976 0.168592 36.2125 0.213557 36.3979 0.335606L42.2466 3.81081C43.6209 3.30334 45.0655 2.91475 46.5453 2.68667C50.9621 2.01219 55.7113 2.76375 59.9495 6.19394C60.2244 6.40271 60.3458 6.77849 60.2116 7.11894C57.7443 13.7031 52.196 17.095 46.1299 18.1934L42.8412 24.1481C42.7453 24.3537 42.5663 24.5207 42.3234 24.585L32.8693 27.1672C32.3324 27.315 31.8051 26.8589 31.869 26.3L32.31 22.3238C32.3356 22.0219 32.5369 21.7521 32.8405 21.6429L34.7006 20.9813L34.7326 17.6635C33.6555 18.4247 32.543 18.9061 31.4244 19.0475ZM32.5046 11.6539C29.6601 11.4355 27.8033 12.6431 27.3175 15.6044C29.2223 17.9105 31.4404 18.0069 33.783 16.3785L32.5046 11.6539ZM40.3988 4.57504L35.8412 1.86746L27.8416 4.05145L29.2319 5.91748L31.2262 5.53528C31.5426 5.47747 31.8846 5.61236 32.0603 5.91428L33.8565 8.92698C35.5056 7.37249 37.778 5.78913 40.3988 4.57504ZM36.3174 18.0455L36.2855 21.5592C36.2791 21.9061 36.0586 22.2016 35.7517 22.3075L33.8405 22.9884L33.5817 25.3106L41.5845 23.1266L44.154 18.4791C41.2808 18.765 38.5259 18.5562 36.3174 18.0455ZM51.1502 9.10384C51.847 11.6765 50.3353 14.3295 47.7752 15.0264C45.2152 15.7234 42.5753 14.2042 41.8818 11.6283C41.1883 9.05566 42.7 6.40588 45.2632 5.71217C47.82 5.012 50.4599 6.5344 51.1502 9.10384ZM49.2966 11.9752C50.7124 9.4893 48.4273 6.51195 45.6787 7.26346C42.9301 8.01502 42.4603 11.7407 44.9212 13.17C46.4585 14.05 48.4208 13.5169 49.2966 11.9752ZM34.0064 11.0694L35.3679 16.1248C38.8612 17.2746 44.6911 17.5444 49.8137 15.4953C53.4444 14.0436 56.7076 11.4163 58.5004 7.09958C54.7802 4.28601 50.6413 3.68226 46.784 4.27319C41.3252 5.10824 36.438 8.30086 34.0064 11.0694ZM54.1222 46.7876H68.2931C69.4181 46.7876 70.3386 45.8626 70.3386 44.7353V28.7759C70.3386 27.6454 69.4149 26.7236 68.2931 26.7236H66.0367V35.0617C66.0367 35.5082 65.6788 35.8679 65.2377 35.8679H59.6383C59.194 35.8679 58.8361 35.5082 58.8361 35.0617V26.7236H54.1219L54.1222 46.7876ZM64.4419 26.7237H60.4373V34.2619H64.4419V26.7237ZM30.075 38.1066L46.0967 43.9071V28.7766C46.0967 26.7596 47.7362 25.1151 49.7433 25.1151H68.2931C70.3002 25.1151 71.9398 26.7596 71.9398 28.7766V44.7359C71.9398 46.7529 70.3002 48.3973 68.2931 48.3973H58.5068C58.9735 48.5644 59.5487 48.6864 59.5487 49.3416L59.5551 55.2545C59.5551 55.8455 58.9415 56.2309 58.4142 55.9836L57.0047 55.4761V65.388H58.7178C59.1588 65.388 59.5168 65.7477 59.5168 66.191V71.6735C59.5168 72.1168 59.1588 72.4765 58.7178 72.4765L0.901778 72.4669C0.457529 72.4669 0.0995745 72.1071 0.0995745 71.6639V66.1813C0.0995745 65.7381 0.457529 65.3784 0.901778 65.3784H2.60842V55.4665L1.12547 55.9997C0.614105 56.1859 0.038841 55.7748 0.0611774 55.2481V49.3352C0.0611774 48.9562 0.316859 48.6446 0.658835 48.5579L29.5382 38.1066C29.7044 38.0488 29.9088 38.0423 30.075 38.1066ZM46.2153 45.6479L29.8067 39.7125L1.6563 49.8973V54.1112C10.8158 50.7967 20.5547 47.633 29.5383 44.0225C29.7045 43.9583 29.8963 43.9519 30.0752 44.0225C39.369 47.3821 48.6635 50.7481 57.9572 54.1112V49.8973L53.812 48.3942H49.7434C48.0815 48.3974 46.6244 47.257 46.2153 45.6479ZM24.8534 57.1335V65.378H34.764V57.1335H24.8534ZM23.2554 65.3812V57.1368H13.3865V65.3812H23.2554ZM36.3627 57.1335V65.378H46.2291V57.1335H36.3627ZM11.7886 65.3812V56.3302C11.7886 55.887 12.1465 55.5273 12.5908 55.5273H47.0313C47.4724 55.5273 47.8303 55.887 47.8303 56.3302V65.3812H55.4081V54.8913L29.808 45.6282L4.2079 54.8913V65.3812H11.7886ZM57.9136 66.9807H1.70203V70.8541H57.9169L57.9136 66.9807Z" fill="black"/>
</svg>
