<svg width="64" height="64" viewBox="0 0 64 64" fill="none" xmlns="http://www.w3.org/2000/svg">
<g clip-path="url(#clip0_1_436)">
<path fill-rule="evenodd" clip-rule="evenodd" d="M52.5027 1.73265C52.4052 1.33964 52.205 0.97959 51.9227 0.689328C51.6403 0.399066 51.286 0.189015 50.8958 0.0806645C50.5057 -0.0276864 50.0937 -0.0304475 49.7021 0.0726636C49.3106 0.175775 48.9534 0.381057 48.6672 0.667508L39.5244 9.81036C39.2455 10.0898 39.0438 10.4367 38.9389 10.8172C38.8339 11.1977 38.8293 11.5989 38.9255 11.9818L40.5712 18.5829L40.5072 18.6469L29.5769 29.5772C28.9713 30.2272 28.6416 31.0868 28.6573 31.975C28.673 32.8633 29.0328 33.7108 29.661 34.3389C30.2891 34.9671 31.1366 35.3269 32.0248 35.3426C32.9131 35.3583 33.7727 35.0286 34.4227 34.4229L45.3621 23.4972L45.4261 23.4287L52.0227 25.0789C52.4055 25.1751 52.8067 25.1705 53.1873 25.0656C53.5678 24.9606 53.9147 24.7589 54.1941 24.4801L63.3369 15.3372C63.6246 15.0511 63.8309 14.6937 63.9347 14.3015C64.0385 13.9093 64.0361 13.4966 63.9276 13.1056C63.8192 12.7147 63.6087 12.3597 63.3177 12.077C63.0267 11.7944 62.6657 11.5943 62.2718 11.4972L54.4592 9.54979L52.5027 1.73265ZM33.4489 3.46979C33.5117 4.37663 33.2119 5.27129 32.6152 5.95708C32.0186 6.64287 31.174 7.06366 30.2672 7.12694C25.491 7.45794 20.9102 9.15314 17.0691 12.0111C13.228 14.8691 10.2881 18.7697 8.59872 23.2494C6.90935 27.7292 6.54154 32.5997 7.53899 37.2824C8.53643 41.965 10.8572 46.2629 14.2255 49.6653C17.5939 53.0677 21.8681 55.4316 26.5405 56.4762C31.2129 57.5207 36.0869 57.2019 40.5834 55.5578C45.0799 53.9136 49.0099 51.0131 51.9064 47.201C54.8029 43.3888 56.5442 38.8253 56.9232 34.0527C56.9954 33.1458 57.4248 32.3047 58.1171 31.7144C58.8094 31.1242 59.7078 30.8331 60.6147 30.9052C61.5215 30.9774 62.3626 31.4068 62.9529 32.0991C63.5431 32.7914 63.8342 33.6898 63.7621 34.5966C63.2783 40.6776 61.0591 46.492 57.3681 51.3488C53.6771 56.2057 48.6694 59.9009 42.9401 61.9955C37.2108 64.0901 31.0006 64.4959 25.0473 63.1649C19.0941 61.8339 13.6481 58.8219 9.3563 54.4868C5.06451 50.1517 2.10737 44.6757 0.836195 38.7094C-0.434978 32.7431 0.0332556 26.5373 2.18527 20.8293C4.33728 15.1213 8.0826 10.151 12.9763 6.50897C17.8699 2.86692 23.7063 0.706192 29.7918 0.283508C30.6986 0.220702 31.5933 0.520584 32.2791 1.11722C32.9649 1.71386 33.3857 2.56299 33.4489 3.46979ZM30.3769 18.5464C30.5412 18.9657 30.6213 19.4133 30.6125 19.8635C30.6038 20.3138 30.5064 20.7579 30.326 21.1706C30.1456 21.5832 29.8856 21.9562 29.561 22.2684C29.2364 22.5805 28.8535 22.8257 28.4341 22.9898C26.9349 23.5779 25.6058 24.5303 24.5671 25.761C23.5283 26.9917 22.8127 28.4618 22.4847 30.0385C22.1568 31.6152 22.2269 33.2488 22.6888 34.7915C23.1507 36.3343 23.9898 37.7377 25.1302 38.8748C26.2706 40.0119 27.6764 40.8469 29.2205 41.3043C30.7647 41.7617 32.3984 41.8271 33.9742 41.4945C35.5499 41.162 37.018 40.442 38.2456 39.3997C39.4733 38.3574 40.4218 37.0256 41.0055 35.5247C41.1688 35.105 41.4131 34.7217 41.7246 34.3965C42.036 34.0713 42.4085 33.8106 42.8207 33.6293C43.2329 33.4481 43.6767 33.3498 44.1269 33.34C44.5771 33.3303 45.0247 33.4094 45.4444 33.5727C45.864 33.7359 46.2474 33.9803 46.5726 34.2917C46.8978 34.6032 47.1584 34.9756 47.3397 35.3878C47.5209 35.8 47.6192 36.2438 47.629 36.694C47.6387 37.1442 47.5597 37.5919 47.3964 38.0115C46.3993 40.5746 44.7793 42.8489 42.6825 44.6286C40.5858 46.4083 38.0786 47.6374 35.3876 48.2048C32.6966 48.7722 29.9065 48.6599 27.2698 47.8782C24.633 47.0965 22.2326 45.67 20.2857 43.7276C18.3387 41.7851 16.9065 39.3881 16.1186 36.7532C15.3307 34.1183 15.2119 31.3285 15.773 28.6362C16.3341 25.9438 17.5573 23.4337 19.3321 21.3328C21.1069 19.232 23.3773 17.6065 25.9381 16.6035C26.7844 16.2732 27.7272 16.2922 28.5595 16.6565C29.3918 17.0208 30.0454 17.7005 30.3769 18.5464Z" fill="black"/>
</g>
<defs>
<clipPath id="clip0_1_436">
<rect width="64" height="64" fill="white"/>
</clipPath>
</defs>
</svg>
