<svg width="48" height="46" viewBox="0 0 48 46" fill="none" xmlns="http://www.w3.org/2000/svg">
<path fill-rule="evenodd" clip-rule="evenodd" d="M33.5493 21.908C33.5728 21.9408 33.5915 21.9783 33.6103 22.0158C33.6501 22.1025 33.6712 22.194 33.6759 22.283L38.7009 31.5152C38.7126 31.5363 38.7243 31.5574 38.7384 31.5761L38.7407 31.5785C38.7525 31.5926 38.7642 31.609 38.7759 31.6254C38.8814 31.759 39.0243 31.8527 39.1814 31.8996C39.3806 31.9582 39.6009 31.9418 39.7931 31.8363L45.3337 28.8199C45.5259 28.7145 45.6595 28.5387 45.7181 28.3395C45.7767 28.1402 45.7603 27.9199 45.6571 27.7254L40.5993 18.435C40.4938 18.2428 40.3181 18.1092 40.1188 18.0506C39.9196 17.9921 39.6993 18.0085 39.5048 18.1116L33.9642 21.128C33.772 21.2334 33.6384 21.4092 33.5798 21.6084C33.554 21.7069 33.5423 21.8072 33.5493 21.908ZM20.1831 9.51202C19.8902 9.21905 19.8902 8.7433 20.1831 8.45266C20.4761 8.15969 20.9518 8.15969 21.2425 8.45266L23.0706 10.2831L26.755 6.59878C27.048 6.30581 27.5237 6.30581 27.8167 6.59878C28.1097 6.89174 28.1097 7.3675 27.8167 7.65814L23.6003 11.8745C23.3073 12.1675 22.8316 12.1675 22.5386 11.8745L20.1831 9.51202ZM24.0011 16.6652C25.3839 16.1824 26.5933 15.5754 27.5425 14.741C28.5175 13.8855 29.2347 12.7723 29.6097 11.2723C29.7925 10.5504 29.8933 9.78868 29.9472 9.0223C30.0034 8.22076 30.0105 7.43326 30.0034 6.67384C29.994 5.82304 29.9636 4.94416 29.9331 4.06522L29.9144 3.53553C28.9182 3.48866 27.9315 3.33397 26.9777 3.07616C25.9464 2.79725 24.9433 2.39414 24.0011 1.87382C23.0589 2.39413 22.0581 2.79728 21.0246 3.07616C20.0707 3.33397 19.0839 3.48866 18.0879 3.53553L18.0691 4.07693C18.0387 4.95347 18.0082 5.83007 17.9988 6.67613C17.9894 7.43549 17.9965 8.22533 18.0551 9.02459C18.109 9.79097 18.2121 10.5527 18.3926 11.2746C18.7699 12.7746 19.4871 13.8879 20.4597 14.7433C21.4113 15.5753 22.6184 16.1824 24.0011 16.6652ZM28.5269 15.8684C29.7269 14.816 30.6082 13.4543 31.0629 11.6379C31.2668 10.8222 31.3816 9.97852 31.4426 9.13006C31.5012 8.31676 31.5082 7.48006 31.4988 6.66442C31.4894 5.76208 31.459 4.89256 31.4285 4.0207L31.3886 2.78554C31.3769 2.37304 31.0324 2.04724 30.6199 2.059C29.5231 2.06134 28.4262 1.91603 27.3668 1.63009C26.3191 1.3465 25.3136 0.924613 24.3855 0.371473C24.1371 0.223819 23.8371 0.235537 23.6074 0.376161C22.6839 0.929289 21.6808 1.34648 20.6355 1.63004C19.5691 1.91832 18.4652 2.06364 17.3613 2.05894C16.9558 2.05894 16.6253 2.38238 16.6136 2.78548L16.5738 4.03C16.5433 4.89718 16.5129 5.76436 16.5035 6.66436C16.4941 7.48 16.5011 8.3167 16.5597 9.13C16.6207 9.97846 16.7332 10.8222 16.9394 11.6378C17.3965 13.4542 18.2754 14.816 19.4754 15.8683C20.6449 16.8948 22.1051 17.6097 23.7644 18.1652C23.9238 18.2191 24.0902 18.2144 24.2379 18.1652C25.8972 17.6097 27.3574 16.8949 28.5269 15.8684ZM32.5441 23.3264L37.0839 31.6676C36.648 31.9254 36.3738 32.2512 36.1089 32.5652C35.9542 32.7504 35.8019 32.9308 35.5956 33.0551C35.2511 32.6004 34.855 32.1434 34.4073 31.6887C33.8683 31.1402 33.2542 30.5918 32.5605 30.0387C32.9871 29.9074 33.3902 29.7012 33.7698 29.4246C34.105 29.1809 34.18 28.7121 33.9363 28.3793C33.6925 28.0442 33.2261 27.9692 32.8909 28.2129C32.5464 28.4637 32.1831 28.6207 31.7987 28.6864C31.4448 28.7473 31.0651 28.7309 30.6621 28.6418L25.5246 24.5754C25.3839 24.4489 25.1941 24.3786 24.9902 24.3879L23.0355 24.4911C22.8527 24.5004 22.6722 24.5754 22.5339 24.7184L20.7621 26.5512C20.216 26.9661 19.6277 27.1653 19.1261 27.17C18.8613 27.1723 18.6245 27.1207 18.4441 27.02C18.3035 26.9403 18.2003 26.8278 18.1464 26.6848C18.0761 26.4973 18.0785 26.2418 18.1746 25.9208L19.9511 22.2387L23.1058 20.9169C23.6753 20.7411 24.2823 20.7247 24.9245 20.8653C25.6112 21.0153 26.3378 21.3458 27.1042 21.852C27.13 21.8731 27.1604 21.8919 27.1886 21.9083L30.6549 23.8559V23.8536C30.8565 23.9661 31.1049 23.9848 31.3299 23.8817L32.5441 23.3264ZM37.9511 32.9078C37.6394 33.0695 37.4425 33.3039 37.2503 33.5312C37.0066 33.8218 36.7675 34.1031 36.4183 34.3234C36.4909 34.457 36.5589 34.5906 36.6222 34.7218C36.648 34.7781 36.6667 34.8343 36.6784 34.8906C36.8097 35.3945 36.8003 35.8796 36.6456 36.3484C36.4933 36.8125 36.2073 37.239 35.7831 37.6328C35.7597 37.6562 35.7339 37.6749 35.7081 37.6937C35.3519 37.9796 34.9675 38.1578 34.5597 38.2281L34.5269 38.2328C34.4355 38.2468 34.344 38.2562 34.2503 38.2585C34.2269 38.4085 34.1894 38.5562 34.1378 38.7015C33.9831 39.1468 33.7136 39.5617 33.3268 39.9437L33.3221 39.9484C32.9143 40.3468 32.4925 40.6093 32.0565 40.7312C31.9276 40.7687 31.7987 40.7921 31.6721 40.8062C31.6534 40.9257 31.6276 41.0429 31.5925 41.1578C31.4682 41.5703 31.2409 41.9476 30.9081 42.2898C30.5003 42.782 30.0221 43.0796 29.4761 43.1804C29.2581 43.2203 29.0354 43.2273 28.8057 43.2039C28.7823 43.2999 28.7495 43.396 28.7143 43.4898C28.5456 43.921 28.2597 44.2984 27.8565 44.6195L27.7956 44.664C27.3761 44.9499 26.9519 45.1093 26.5253 45.1421C26.0706 45.1796 25.6299 45.0718 25.2104 44.821C25.1378 44.7789 25.0745 44.7249 25.0229 44.664L24.8518 44.4648L23.7292 45.4398C23.6354 45.5218 23.5229 45.5757 23.4104 45.6039C22.5995 45.7937 21.9174 45.7749 21.362 45.5593C21.0057 45.421 20.7104 45.2124 20.4783 44.9359C20.1619 45.0554 19.8432 45.0905 19.5315 45.0577C19.1682 45.0202 18.8283 44.896 18.5213 44.7109C18.2401 44.5421 17.9799 44.3148 17.7549 44.0617C17.4128 43.6773 17.1503 43.2109 17.0049 42.7609C16.7471 42.7421 16.4963 42.6812 16.2596 42.5851C15.826 42.4093 15.444 42.1187 15.1416 41.7624C14.8463 41.4155 14.6237 41.0007 14.4995 40.5718C14.469 40.464 14.4432 40.3515 14.4245 40.2413C14.094 40.2694 13.7729 40.2319 13.4729 40.1429C13.0276 40.0093 12.6315 39.7608 12.3198 39.4351C12.0057 39.1069 11.776 38.7062 11.6635 38.2702C11.4994 37.6327 11.5838 36.9296 12.0174 36.2851C12.0408 36.2522 12.0643 36.2218 12.0901 36.1936C12.1463 36.128 12.2026 36.0601 12.2588 35.9968C11.8416 35.6218 11.5486 35.2585 11.2603 34.8999C10.9064 34.464 10.5596 34.0327 9.92673 33.5991C9.71579 33.7491 9.48142 33.864 9.23769 33.9366C8.67284 34.103 8.04471 34.0538 7.48923 33.7515L1.94859 30.7351C1.39078 30.4327 1.00875 29.9288 0.842309 29.3664C0.675905 28.8015 0.725123 28.1734 1.02746 27.6179L6.08528 18.3275C6.38997 17.772 6.89156 17.3877 7.4564 17.2212C8.0189 17.0548 8.64938 17.104 9.20486 17.4064L14.7455 20.4228C15.3033 20.7251 15.6853 21.229 15.8518 21.7939C15.9502 22.1314 15.9737 22.49 15.9127 22.8439L15.9221 22.8486L15.9619 22.8673C16.3135 23.0384 16.726 23.2376 17.0776 23.397C17.2159 23.4392 17.3541 23.4532 17.4924 23.4415C17.5698 23.4345 17.6495 23.4204 17.7291 23.397L18.7158 21.358C18.7908 21.1892 18.9268 21.0486 19.1119 20.9712L22.5526 19.5322L22.6112 19.5111C23.4526 19.2416 24.3315 19.2064 25.2455 19.408C26.108 19.5978 27.0034 19.9986 27.9292 20.615L31.0557 22.3705L32.0518 21.9134C32.0448 21.6697 32.0776 21.4259 32.1456 21.1939C32.312 20.6291 32.694 20.1275 33.2518 19.8228L38.7925 16.8064C39.3503 16.5041 39.9784 16.4549 40.5409 16.6213C41.1058 16.7877 41.6073 17.1697 41.9097 17.7276L46.9675 27.018C47.2722 27.5758 47.319 28.2039 47.1526 28.7664C46.9862 29.3313 46.6042 29.8328 46.0464 30.1375L40.5034 33.1539C39.9502 33.4539 39.3221 33.5008 38.7597 33.3344C38.4667 33.2477 38.1902 33.1046 37.9511 32.9078ZM9.06411 32.3851C9.07817 32.3453 9.09692 32.3054 9.11567 32.2679C9.17661 32.1554 9.26567 32.064 9.36411 32.0007L14.3563 22.8297C14.4618 22.6375 14.4782 22.4172 14.4172 22.2157C14.3586 22.0165 14.225 21.8407 14.0328 21.7352L8.49221 18.7188C8.30002 18.6134 8.07971 18.597 7.87817 18.6579C7.67895 18.7165 7.50317 18.8501 7.3977 19.0423L2.33988 28.3327C2.23441 28.5249 2.218 28.7452 2.27895 28.9467C2.33754 29.1459 2.47113 29.3217 2.66332 29.4272L8.20396 32.4436C8.39614 32.549 8.61646 32.5654 8.818 32.5068C8.90706 32.4764 8.99145 32.4367 9.06411 32.3851ZM10.843 32.4085L15.3055 24.2101C15.6008 24.3531 15.9477 24.5242 16.4703 24.7562C16.5149 24.782 16.5641 24.8031 16.6133 24.8195C16.7399 24.8594 16.8664 24.8898 16.993 24.9109L16.7961 25.3164C16.7774 25.3586 16.761 25.4008 16.7492 25.443C16.5383 26.118 16.5524 26.7086 16.7352 27.1984C16.918 27.6953 17.2602 28.075 17.7078 28.3258C18.1133 28.5531 18.6055 28.668 19.1328 28.6633C19.9578 28.6539 20.893 28.3445 21.7227 27.6953C21.7508 27.6742 21.7766 27.6484 21.8024 27.625L23.4032 25.968L24.786 25.8953L29.8625 29.9148L29.8649 29.9172L29.8789 29.9242L29.8813 29.9265L29.9047 29.9383L29.9117 29.9429L29.9258 29.95C31.3039 30.8875 32.443 31.8156 33.343 32.7343C33.875 33.2781 34.3227 33.8148 34.6836 34.3468L34.7071 34.3797C34.9157 34.6914 35.0961 35.0008 35.2461 35.3078C35.293 35.5117 35.2883 35.7039 35.2297 35.8844C35.1594 36.1 35.0071 36.3156 34.775 36.5312C34.625 36.6484 34.4727 36.7211 34.3157 36.7468L34.2993 36.7492C34.1938 36.7633 34.0813 36.7586 33.9618 36.7351C33.2024 35.7226 32.4688 34.8414 31.7586 34.0937C30.9875 33.2828 30.2399 32.6219 29.5203 32.1156C29.1828 31.8789 28.714 31.9586 28.4773 32.2984C28.2383 32.6359 28.3203 33.1047 28.6601 33.3414C29.3023 33.7914 29.9726 34.3867 30.6758 35.125C31.3578 35.8422 32.0656 36.693 32.7969 37.6727C32.811 37.8602 32.7899 38.0383 32.7313 38.2094C32.6516 38.4367 32.5063 38.6594 32.2906 38.8727C32.0656 39.093 31.8524 39.2313 31.6578 39.2875C31.5594 39.3157 31.4633 39.3204 31.3649 39.3063C30.9102 38.7321 30.3805 38.1321 29.7758 37.511C29.1125 36.8313 28.3555 36.1188 27.5047 35.3758C27.1953 35.1039 26.7219 35.1367 26.45 35.4461C26.1782 35.7555 26.211 36.2289 26.5203 36.5008C27.336 37.2133 28.0649 37.8953 28.7047 38.5539C29.2789 39.1446 29.7805 39.7118 30.207 40.2555C30.2234 40.4242 30.2094 40.5813 30.1672 40.7242C30.1109 40.9141 29.9984 41.0946 29.8297 41.2633C29.8086 41.2844 29.7875 41.3078 29.7711 41.3313C29.5859 41.5516 29.4008 41.6781 29.2133 41.7133C29.0352 41.7461 28.8219 41.7086 28.5734 41.6008C27.9875 40.9164 27.4414 40.3071 26.9375 39.7773C26.4031 39.2148 25.9109 38.732 25.4586 38.3312C25.1492 38.057 24.6758 38.0875 24.4039 38.3969C24.1321 38.7062 24.1602 39.1773 24.4696 39.4515C24.8774 39.8125 25.3391 40.2672 25.8547 40.8109C26.3281 41.3101 26.8414 41.882 27.3922 42.5242C27.3992 42.6836 27.3782 42.8289 27.3289 42.9554C27.2633 43.1265 27.1367 43.2883 26.9516 43.4383C26.7547 43.5695 26.5766 43.6422 26.4172 43.6539C26.3047 43.6633 26.1899 43.6422 26.075 43.5906C24.8445 42.1726 24.0641 41.2562 23.7313 40.8578C23.6985 40.4031 23.5766 39.9414 23.3493 39.5195C22.9954 38.8632 22.4001 38.3101 21.5071 38.0359C21.4555 37.7476 21.3571 37.4687 21.2141 37.2109C21.0219 36.8593 20.7501 36.5429 20.4266 36.2968C20.0985 36.046 19.7141 35.8632 19.2969 35.7882C19.1798 35.7671 19.0626 35.7554 18.9454 35.7507C18.936 35.6781 18.9219 35.6078 18.9079 35.5351C18.8071 35.0781 18.5798 34.6281 18.2282 34.1851L18.186 34.1359C17.7501 33.6765 17.2579 33.4046 16.7118 33.3249H16.7095C16.1774 33.2452 15.6196 33.353 15.0384 33.6437C14.579 33.871 14.0985 34.2062 13.5993 34.6445C13.5009 34.7288 13.4024 34.8203 13.304 34.914C12.9477 34.5952 12.6923 34.2788 12.4392 33.9671C12.0149 33.4445 11.6001 32.9335 10.843 32.4085ZM14.818 38.5867L17.443 36.2805C17.4758 36.1398 17.4758 35.9969 17.4453 35.8562C17.3961 35.6359 17.2719 35.3969 17.0703 35.1391C16.8781 34.9469 16.6836 34.8344 16.482 34.8039C16.2594 34.7711 15.9992 34.8297 15.7039 34.9773L15.6992 34.9797C15.3617 35.1461 14.9891 35.4086 14.5836 35.7672C14.3609 35.9617 14.1336 36.1844 13.8969 36.4305H13.8945C13.6859 36.6508 13.4703 36.8875 13.2524 37.1477C13.093 37.3961 13.0649 37.6633 13.1258 37.9023C13.1727 38.0875 13.2711 38.2609 13.407 38.3992C13.543 38.5422 13.7164 38.65 13.9086 38.7086C14.1735 38.7883 14.4899 38.7649 14.818 38.5867ZM17.293 41.2586L19.5313 39.3649C19.6672 39.2618 19.7797 39.1446 19.8594 39.0086C19.9368 38.8797 19.9954 38.7321 20.0375 38.5633C20.0704 38.3594 20.0141 38.1344 19.8993 37.9258C19.8055 37.7547 19.6719 37.6 19.5172 37.4805C19.3672 37.3657 19.2008 37.2836 19.0321 37.2532C18.868 37.225 18.6899 37.2414 18.5141 37.3258L15.9078 39.6157C15.875 39.7821 15.8914 39.9719 15.9453 40.1594C16.011 40.3867 16.1305 40.6071 16.2875 40.7946C16.4375 40.9727 16.6203 41.1157 16.8195 41.1953C16.9672 41.2563 17.1289 41.282 17.293 41.2586ZM23.881 43.3375C23.6326 43.0492 23.4122 42.7914 23.2247 42.5688L21.6942 44.0359C21.7552 44.0922 21.8278 44.1367 21.9052 44.1672C22.1442 44.2586 22.4747 44.2656 22.9036 44.1859L23.881 43.3375ZM22.238 41.2656C22.2169 41.1648 22.2169 41.0617 22.238 40.9609C22.2193 40.7078 22.1536 40.4547 22.0294 40.2273C21.8794 39.9461 21.631 39.7023 21.2701 39.543C21.2302 39.6273 21.1857 39.707 21.1388 39.7844C20.9536 40.0914 20.7169 40.3515 20.4357 40.5625L18.4107 42.2758C18.4786 42.5172 18.6474 42.8102 18.8794 43.0703C19.0036 43.2109 19.1466 43.3352 19.3013 43.4266C19.4302 43.5039 19.5614 43.5578 19.6833 43.5695C19.8474 43.5859 20.0302 43.532 20.2224 43.3727L22.2192 41.4602L22.2263 41.4156C22.2286 41.3688 22.2333 41.3172 22.238 41.2656Z" fill="#7B563A"/>
</svg>
