<svg width="120" height="109" viewBox="0 0 120 109" fill="none" xmlns="http://www.w3.org/2000/svg">
<path d="M108.333 75.8333V59.5833C108.333 53.5708 103.513 48.75 97.5 48.75H65V32.5H75.8333V0H43.3333V32.5H54.1667V48.75H21.6667C15.6542 48.75 10.8333 53.5708 10.8333 59.5833V75.8333H0V108.333H32.5V75.8333H21.6667V59.5833H54.1667V75.8333H43.3333V108.333H75.8333V75.8333H65V59.5833H97.5V75.8333H86.6667V108.333H119.167V75.8333H108.333ZM54.1667 10.8333H65V21.6667H54.1667V10.8333ZM21.6667 97.5H10.8333V86.6667H21.6667V97.5ZM65 97.5H54.1667V86.6667H65V97.5ZM108.333 97.5H97.5V86.6667H108.333V97.5Z" fill="white"/>
</svg>
