<svg width="20" height="20" viewBox="0 0 20 20" fill="none" xmlns="http://www.w3.org/2000/svg">
<path d="M8.33268 12.4998L12.6577 9.99984L8.33268 7.49984V12.4998ZM17.966 5.97484C18.0743 6.3665 18.1493 6.8915 18.1993 7.55817C18.2577 8.22484 18.2827 8.79984 18.2827 9.29984L18.3327 9.99984C18.3327 11.8248 18.1993 13.1665 17.966 14.0248C17.7577 14.7748 17.2743 15.2582 16.5243 15.4665C16.1327 15.5748 15.416 15.6498 14.316 15.6998C13.2327 15.7582 12.241 15.7832 11.3243 15.7832L9.99935 15.8332C6.50768 15.8332 4.33268 15.6998 3.47435 15.4665C2.72435 15.2582 2.24102 14.7748 2.03268 14.0248C1.92435 13.6332 1.84935 13.1082 1.79935 12.4415C1.74102 11.7748 1.71602 11.1998 1.71602 10.6998L1.66602 9.99984C1.66602 8.17484 1.79935 6.83317 2.03268 5.97484C2.24102 5.22484 2.72435 4.7415 3.47435 4.53317C3.86602 4.42484 4.58268 4.34984 5.68268 4.29984C6.76602 4.2415 7.75768 4.2165 8.67435 4.2165L9.99935 4.1665C13.491 4.1665 15.666 4.29984 16.5243 4.53317C17.2743 4.7415 17.7577 5.22484 17.966 5.97484Z" fill="white"/>
</svg>
