<svg width="34" height="34" viewBox="0 0 34 34" fill="none" xmlns="http://www.w3.org/2000/svg">
<path d="M15.3337 19.4998L19.6587 16.9998L15.3337 14.4998V19.4998ZM24.967 12.9748C25.0753 13.3665 25.1503 13.8915 25.2003 14.5582C25.2587 15.2248 25.2837 15.7998 25.2837 16.2998L25.3337 16.9998C25.3337 18.8248 25.2003 20.1665 24.967 21.0248C24.7587 21.7748 24.2753 22.2582 23.5253 22.4665C23.1337 22.5748 22.417 22.6498 21.317 22.6998C20.2337 22.7582 19.242 22.7832 18.3253 22.7832L17.0003 22.8332C13.5087 22.8332 11.3337 22.6998 10.4753 22.4665C9.72533 22.2582 9.24199 21.7748 9.03366 21.0248C8.92533 20.6332 8.85033 20.1082 8.80033 19.4415C8.74199 18.7748 8.71699 18.1998 8.71699 17.6998L8.66699 16.9998C8.66699 15.1748 8.80033 13.8332 9.03366 12.9748C9.24199 12.2248 9.72533 11.7415 10.4753 11.5332C10.867 11.4248 11.5837 11.3498 12.6837 11.2998C13.767 11.2415 14.7587 11.2165 15.6753 11.2165L17.0003 11.1665C20.492 11.1665 22.667 11.2998 23.5253 11.5332C24.2753 11.7415 24.7587 12.2248 24.967 12.9748Z" fill="white"/>
<circle cx="17" cy="17" r="16.5" stroke="white"/>
</svg>
