<svg width="64" height="64" viewBox="0 0 64 64" fill="none" xmlns="http://www.w3.org/2000/svg">
<path fill-rule="evenodd" clip-rule="evenodd" d="M17.8052 8.24686C17.901 7.79945 18.1473 7.39842 18.503 7.11064C18.8587 6.82287 19.3023 6.66576 19.7599 6.66553H39.1732C39.5098 6.66588 39.8409 6.75118 40.1358 6.91354C40.4307 7.0759 40.6798 7.31007 40.8601 7.59433C41.0404 7.8786 41.146 8.20377 41.1672 8.53973C41.1884 8.87568 41.1244 9.21154 40.9812 9.51619L35.1679 21.9055H50.2399C50.5973 21.9056 50.9481 22.0014 51.256 22.183C51.5638 22.3646 51.8173 22.6253 51.9902 22.9381C52.1631 23.2509 52.249 23.6043 52.2389 23.9616C52.2289 24.3189 52.1234 24.6669 51.9332 24.9695L30.5226 59.0629C30.2837 59.4425 29.9241 59.7308 29.5017 59.8815C29.0792 60.0321 28.6184 60.0364 28.1932 59.8937C27.768 59.7509 27.4032 59.4694 27.1572 59.0943C26.9113 58.7192 26.7986 58.2724 26.8372 57.8255L28.4906 38.7589H13.7599C13.4621 38.7586 13.1681 38.6919 12.8993 38.5635C12.6306 38.4351 12.3939 38.2483 12.2066 38.0168C12.0193 37.7853 11.8861 37.5148 11.8166 37.2252C11.7472 36.9356 11.7433 36.6342 11.8052 36.3429L17.8052 8.24686ZM21.3786 10.6655L16.2319 34.7589H30.6719C30.9491 34.7589 31.2233 34.8166 31.477 34.9283C31.7307 35.0399 31.9585 35.2031 32.1458 35.4075C32.3331 35.6119 32.4759 35.8529 32.5651 36.1154C32.6543 36.3779 32.6879 36.656 32.6639 36.9322L31.5359 49.9269L46.6212 25.9055H32.0186C31.6817 25.9056 31.3503 25.8206 31.0551 25.6585C30.7598 25.4963 30.5103 25.2622 30.3297 24.9778C30.1491 24.6935 30.0433 24.3682 30.022 24.032C30.0007 23.6958 30.0646 23.3597 30.2079 23.0549L36.0212 10.6655H21.3786Z" fill="black"/>
</svg>
