<svg width="266" height="327" viewBox="0 0 266 327" fill="none" xmlns="http://www.w3.org/2000/svg">
<g opacity="0.4" filter="url(#filter0_f_1_1178)">
<path d="M25.391 170.256C25.2587 174.107 28.2248 177.343 32.0693 177.523H126.378V174.183C126.378 173.596 126.803 173.094 127.389 173L137.307 171.353V171.344C138.29 167.9 139.65 164.569 141.369 161.418L135.418 153.281C135.069 152.789 135.135 152.117 135.56 151.701L151.137 136.099V136.108C151.552 135.673 152.223 135.607 152.705 135.957L160.753 141.747H160.762C163.936 139.997 167.299 138.606 170.775 137.584L172.399 127.895H172.39C172.484 127.308 172.985 126.883 173.58 126.873H191.547V81.9385H25.3909L25.391 170.256ZM115.715 96.8891C115.498 96.5201 115.498 96.0565 115.705 95.678C115.923 95.309 116.319 95.0725 116.754 95.0725H130.706C131.14 95.063 131.537 95.2901 131.764 95.6496L143.996 116.721L144.006 116.731C144.223 117.1 144.223 117.563 144.006 117.942L131.773 139.013H131.764C131.546 139.382 131.14 139.609 130.706 139.619H116.754C116.329 139.609 115.932 139.373 115.715 139.013C115.498 138.635 115.498 138.171 115.715 137.802L127.617 117.336L115.715 96.8891ZM75.9842 141.843L90.8995 92.0447C91.0507 91.5243 91.5229 91.1742 92.0614 91.1742H104.851C105.239 91.1742 105.598 91.3634 105.824 91.6851C106.06 91.9784 106.136 92.3853 106.013 92.7449L91.0979 142.524C90.9468 143.044 90.4745 143.404 89.936 143.394H77.1366C76.7493 143.404 76.3809 143.224 76.1448 142.912C75.9275 142.6 75.8614 142.212 75.9842 141.843ZM36.9523 116.732L49.2132 95.6606V95.6511C49.4305 95.2916 49.8272 95.074 50.2523 95.074H64.204C64.6385 95.0645 65.0352 95.301 65.243 95.6795C65.4603 96.058 65.4603 96.5121 65.243 96.8906L53.341 117.338L65.2902 137.803C65.5075 138.172 65.5075 138.636 65.2902 139.015C65.0729 139.384 64.6762 139.62 64.2511 139.62H50.252C49.8175 139.62 49.4208 139.384 49.213 139.015L36.9521 117.943C36.7348 117.565 36.735 117.101 36.9523 116.732Z" fill="#8CC84B"/>
<path d="M191.612 55.9C191.735 52.0586 188.759 48.8225 184.915 48.6333H32.0687C28.2337 48.832 25.2676 52.068 25.3904 55.9V79.5166H191.611L191.612 55.9ZM46.7386 71.3605C43.8104 71.3605 41.1654 69.5912 40.0414 66.8755C38.9175 64.1599 39.5408 61.0281 41.6095 58.9561C43.6876 56.8745 46.8047 56.25 49.5157 57.376C52.2268 58.5019 53.9932 61.1512 53.9932 64.0938C53.9932 68.1054 50.7533 71.3605 46.7386 71.3605ZM70.9204 71.3605C67.9922 71.3605 65.3472 69.5912 64.2233 66.8755C63.0993 64.1599 63.7226 61.0281 65.7913 58.9561C67.8694 56.8745 70.9865 56.25 73.6976 57.376C76.4086 58.5019 78.1751 61.1512 78.1751 64.0938C78.1845 68.0677 74.9918 71.3038 71.0245 71.3604L70.9204 71.3605ZM95.2256 71.3605C92.2974 71.3605 89.6524 69.5912 88.5284 66.8755C87.4044 64.1599 88.0278 61.0281 90.0964 58.9561C92.1746 56.8745 95.2917 56.25 98.0027 57.376C100.714 58.502 102.48 61.1512 102.48 64.0938C102.48 68.0677 99.2969 71.3038 95.3296 71.3604L95.2256 71.3605Z" fill="#8CC84B"/>
<path d="M51.6322 64.0193C51.6322 70.5479 41.8555 70.5479 41.8555 64.0193C41.8555 57.5001 51.6322 57.5001 51.6322 64.0193Z" fill="#8CC84B"/>
<path d="M75.9099 64.0193C75.9099 70.5479 66.1426 70.5479 66.1426 64.0193C66.1426 57.5001 75.9099 57.5001 75.9099 64.0193Z" fill="#8CC84B"/>
<path d="M100.212 64.0193C100.212 70.5479 90.4355 70.5479 90.4355 64.0193C90.4355 57.5001 100.212 57.5001 100.212 64.0193Z" fill="#8CC84B"/>
<path d="M89.037 140.971L103.234 93.689H92.9572L78.7598 140.971H89.037Z" fill="#8CC84B"/>
<path d="M50.9505 137.197H62.0968L50.9033 117.82C50.6861 117.441 50.6861 116.977 50.9033 116.608L62.0968 97.3726H50.9505L39.3887 117.214L50.9505 137.197Z" fill="#8CC84B"/>
<path d="M141.558 117.335L130.024 97.4937H118.85L130.043 116.729H130.053C130.27 117.098 130.27 117.562 130.053 117.941L118.859 137.318H130.034L141.558 117.335Z" fill="#8CC84B"/>
<path d="M174.684 129.201L173.087 138.748C173.021 139.212 172.681 139.59 172.218 139.713C168.43 140.764 164.784 142.278 161.365 144.217C160.968 144.473 160.458 144.473 160.061 144.217L152.202 138.578L138.052 152.601L143.71 160.52C143.974 160.917 143.974 161.438 143.71 161.826C141.792 165.232 140.309 168.856 139.308 172.631C139.185 173.095 138.807 173.435 138.345 173.502L128.672 175.129V195.16L138.345 196.787V196.778C138.807 196.844 139.185 197.175 139.308 197.629C140.394 201.367 141.934 204.952 143.908 208.312C144.144 208.709 144.144 209.22 143.908 209.617L138.052 217.754L152.202 231.928L160.325 226.119C160.722 225.845 161.232 225.845 161.629 226.119C164.954 227.992 168.496 229.44 172.171 230.452C172.624 230.585 172.964 230.954 173.04 231.418L174.684 241.324H194.681L196.305 231.418C196.4 230.963 196.73 230.594 197.174 230.452C200.858 229.44 204.41 227.983 207.745 226.119C208.141 225.845 208.651 225.845 209.048 226.119L217.153 231.928L231.303 217.754L225.522 209.693C225.267 209.296 225.267 208.785 225.522 208.387C227.421 205.028 228.913 201.452 229.943 197.724C230.075 197.279 230.453 196.948 230.906 196.882L240.579 195.254V175.224L230.906 173.596V173.606C230.444 173.54 230.056 173.19 229.943 172.726C228.932 168.951 227.449 165.327 225.522 161.93C225.277 161.523 225.277 161.022 225.522 160.615L231.294 152.601L217.153 138.531L209.294 144.17C208.897 144.426 208.387 144.426 207.99 144.17C204.571 142.231 200.915 140.717 197.127 139.666C196.674 139.543 196.334 139.165 196.258 138.701L194.69 129.154L174.684 129.201ZM204.381 185.055C204.391 193.051 199.592 200.251 192.234 203.317C184.866 206.382 176.393 204.698 170.744 199.049C165.105 193.41 163.414 184.914 166.465 177.533C169.516 170.153 176.705 165.347 184.677 165.347C195.54 165.356 204.353 174.174 204.381 185.055Z" fill="#8CC84B"/>
</g>
<defs>
<filter id="filter0_f_1_1178" x="-4" y="-4" width="274" height="335" filterUnits="userSpaceOnUse" color-interpolation-filters="sRGB">
<feFlood flood-opacity="0" result="BackgroundImageFix"/>
<feBlend mode="normal" in="SourceGraphic" in2="BackgroundImageFix" result="shape"/>
<feGaussianBlur stdDeviation="2" result="effect1_foregroundBlur_1_1178"/>
</filter>
</defs>
</svg>
