<?xml version="1.0" encoding="UTF-8" standalone="no"?>
<svg
   width="42.200001"
   height="37.999996"
   viewBox="0 0 42.200001 37.999996"
   fill="none"
   version="1.1"
   id="svg9"
   xmlns="http://www.w3.org/2000/svg"
   xmlns:svg="http://www.w3.org/2000/svg">
  <defs
     id="defs9" />
  <path
     d="m 1.05275,23.8546 c -0.02476,0.7228 0.53048,1.3301 1.25014,1.3639 H 19.957 v -0.6269 c 0,-0.1101 0.0796,-0.2042 0.1892,-0.222 l 1.8567,-0.309 v -0.0017 c 0.1839,-0.6465 0.4385,-1.2715 0.7604,-1.8629 l -1.114,-1.5272 c -0.0654,-0.0924 -0.0531,-0.2185 0.0265,-0.2966 l 2.9158,-2.9283 v 0.0017 c 0.0778,-0.0816 0.2034,-0.0941 0.2936,-0.0284 l 1.5065,1.0868 h 0.0018 c 0.5941,-0.3285 1.2236,-0.5896 1.8743,-0.7814 l 0.3041,-1.8184 h -0.0017 c 0.0176,-0.1101 0.1114,-0.19 0.2228,-0.1918 h 3.3632 V 7.2788996 H 1.05274 Z M 17.9609,10.0849 c -0.0407,-0.0693 -0.0407,-0.1563004 -0.0018,-0.2273004 0.0407,-0.0693 0.115,-0.1137 0.1963,-0.1137 h 2.6117 c 0.0813,-0.0017 0.1556,0.0409 0.198,0.1084 L 23.255,13.807 l 0.0018,0.0018 c 0.0406,0.0693 0.0406,0.1563 0,0.2273 l -2.2899,3.9548 h -0.0018 c -0.0407,0.0692 -0.1167,0.1118 -0.198,0.1136 h -2.6117 c -0.0796,-0.0018 -0.1538,-0.0462 -0.1945,-0.1136 -0.0407,-0.0711 -0.0407,-0.1581 0,-0.2273 l 2.228,-3.8411 z m -7.4374,8.4371 2.7921,-9.3463004 c 0.0283,-0.0977 0.1167,-0.1634 0.2175,-0.1634 h 2.3942 c 0.0725,0 0.1397,0.0355 0.1821,0.0959 0.0442,0.055 0.0584,0.1314 0.0354,0.1989 L 13.3527,18.6498 c -0.0283,0.0977 -0.1167,0.1652 -0.2175,0.1634 h -2.396 C 10.6667,18.815 10.5978,18.7812 10.5536,18.7226 10.5129,18.664 10.5005,18.5913 10.5235,18.522 Z M 3.21697,13.8091 5.51214,9.8542996 v -0.0018 c 0.04067,-0.0674 0.11494,-0.1083 0.19451,-0.1083 H 8.3183 c 0.0814,-0.0018 0.1556,0.0426 0.1945,0.1137 0.0407,0.071 0.0407,0.1562004 0,0.2273004 l -2.22796,3.8375 2.23686,3.8411 c 0.0406,0.0693 0.0406,0.1563 0,0.2273 -0.0407,0.0693 -0.115,0.1137 -0.1945,0.1137 H 5.7066 c -0.08134,0 -0.1556,-0.0444 -0.1945,-0.1137 L 3.21692,14.0364 c -0.04067,-0.071 -0.04062,-0.1581 5e-5,-0.2273 z"
     fill="#8cc84b"
     id="path1" />
  <path
     d="m 32.1684,2.3917996 c 0.023,-0.721 -0.534,-1.32837 -1.2537,-1.36387 H 2.30278 c -0.71789,0.03729 -1.27313,0.64464 -1.25014,1.36387 v 4.4324 H 32.1683 Z m -27.11949,2.9017 c -0.54814,0 -1.04327,-0.3321 -1.25367,-0.8418 -0.21041,-0.5097 -0.09372,-1.0975 0.29352,-1.4864 0.38902,-0.3906 0.97252,-0.5078 1.48001,-0.2965 0.50749,0.2113 0.83813,0.7085 0.83813,1.2608 0,0.7529 -0.60647,1.3639 -1.35799,1.3639 z m 4.52669,0 c -0.5481,0 -1.0433,-0.3321 -1.2537,-0.8418 -0.2104,-0.5097 -0.0937,-1.0975 0.2936,-1.4864 0.389,-0.3906 0.9725,-0.5078 1.48,-0.2965 0.5075,0.2113 0.8381,0.7085 0.8381,1.2608 0.0018,0.7458 -0.5959,1.3532 -1.3385,1.3638 z m 4.5498,0 c -0.5481,0 -1.0433,-0.3321 -1.2537,-0.8418 -0.2104,-0.5097 -0.0937,-1.0975 0.2936,-1.4864 0.389,-0.3906 0.9725,-0.5078 1.48,-0.2965 0.5075,0.2113 0.8381,0.7085 0.8381,1.2608 0,0.7458 -0.5959,1.3532 -1.3385,1.3638 z"
     fill="#8cc84b"
     id="path2" />
  <path
     d="m 5.96597,3.9149996 c 0,1.2248 -1.83003,1.2248 -1.83003,0 0,-1.2231 1.83003,-1.2231 1.83003,0 z"
     fill="#8cc84b"
     id="path3" />
  <path
     d="m 10.5091,3.9149996 c 0,1.2248 -1.8282,1.2248 -1.8282,0 0,-1.2231 1.8282,-1.2231 1.8282,0 z"
     fill="#8cc84b"
     id="path4" />
  <path
     d="m 15.0597,3.9149996 c 0,1.2248 -1.83,1.2248 -1.83,0 0,-1.2231 1.83,-1.2231 1.83,0 z"
     fill="#8cc84b"
     id="path5" />
  <path
     d="M 12.968,18.358 15.6257,9.4839996 H 13.7018 L 11.0441,18.358 Z"
     fill="#8cc84b"
     id="path6" />
  <path
     d="M 5.83735,17.6498 H 7.9239 L 5.82853,14.0129 c -0.04067,-0.071 -0.04067,-0.158 0,-0.2273 L 7.9239,10.1754 H 5.83735 l -2.1643,3.7239 z"
     fill="#8cc84b"
     id="path7" />
  <path
     d="m 22.7989,13.9218 -2.159,-3.7239 H 18.548 l 2.0954,3.6102 h 0.0018 c 0.0406,0.0693 0.0406,0.1563 0,0.2273 l -2.0954,3.6369 h 2.0919 z"
     fill="#8cc84b"
     id="path8" />
  <path
     d="m 28.9991,16.1491 -0.2988,1.7918 c -0.0124,0.087 -0.0761,0.158 -0.1627,0.1811 -0.7091,0.1971 -1.3916,0.4813 -2.0317,0.8453 -0.0743,0.048 -0.1698,0.048 -0.2441,0 l -1.4711,-1.0584 -2.6489,2.6318 1.0592,1.4864 c 0.0495,0.0746 0.0495,0.1722 0,0.245 -0.359,0.6393 -0.6366,1.3195 -0.824,2.028 -0.023,0.087 -0.0937,0.151 -0.1804,0.1634 l -1.8107,0.3054 v 3.7594 l 1.8107,0.3055 V 28.832 c 0.0867,0.0124 0.1574,0.0746 0.1804,0.1598 0.2033,0.7015 0.4915,1.3745 0.8611,2.005 0.0442,0.0745 0.0442,0.1704 0,0.245 l -1.0963,1.5272 2.6488,2.6603 1.5207,-1.0904 c 0.0743,-0.0515 0.1698,-0.0515 0.244,0 0.6225,0.3516 1.2855,0.6233 1.9734,0.8134 0.0849,0.0248 0.1485,0.0941 0.1627,0.1811 l 0.3077,1.8593 h 3.7433 l 0.3042,-1.8593 c 0.0176,-0.0852 0.0795,-0.1545 0.1626,-0.1811 0.6896,-0.1901 1.3545,-0.4635 1.9787,-0.8134 0.0743,-0.0515 0.1698,-0.0515 0.244,0 l 1.5172,1.0904 2.6488,-2.6603 -1.0821,-1.5129 c -0.0478,-0.0746 -0.0478,-0.1705 0,-0.2451 0.3554,-0.6304 0.6348,-1.3017 0.8275,-2.0013 0.0248,-0.0835 0.0955,-0.1457 0.1804,-0.1581 l 1.8107,-0.3054 v -3.7594 l -1.8107,-0.3055 v 0.0018 c -0.0867,-0.0124 -0.1592,-0.0782 -0.1804,-0.1652 -0.1892,-0.7085 -0.4668,-1.3887 -0.8275,-2.0262 -0.046,-0.0763 -0.046,-0.1705 0,-0.2468 l 1.0804,-1.5041 -2.6471,-2.6407 -1.4712,1.0584 c -0.0743,0.0479 -0.1697,0.0479 -0.244,0 -0.6401,-0.3641 -1.3244,-0.6482 -2.0335,-0.8453 -0.0849,-0.0231 -0.1485,-0.0941 -0.1627,-0.1812 l -0.2935,-1.7918 z m 5.5592,10.4829 c 0.0018,1.5005 -0.8965,2.8519 -2.2739,3.4273 -1.3792,0.5754 -2.9654,0.2593 -4.0227,-0.8009 -1.0557,-1.0584 -1.3722,-2.653 -0.8011,-4.0382 0.5712,-1.3852 1.9168,-2.2872 3.4092,-2.2872 2.0335,0.0017 3.6832,1.6567 3.6885,3.699 z"
     fill="#8cc84b"
     id="path9" />
</svg>
