<svg width="345" height="116" viewBox="0 0 345 116" fill="none" xmlns="http://www.w3.org/2000/svg">
<g opacity="0.4" filter="url(#filter0_f_1_1219)">
<mask id="path-1-inside-1_1_1219" fill="white">
<path d="M44.8496 30.563C67.3043 30.563 85.5078 48.7665 85.5078 71.2212C85.5077 93.6758 67.3042 111.878 44.8496 111.878C22.395 111.878 4.19153 93.6758 4.19141 71.2212C4.19141 48.7665 22.3949 30.563 44.8496 30.563ZM44.8535 47.3687C31.6802 47.3687 21.0012 58.0479 21.001 71.2212C21.001 84.3946 31.6801 95.0737 44.8535 95.0737C58.027 95.0737 68.7061 84.3946 68.7061 71.2212C68.7059 58.0479 58.0268 47.3687 44.8535 47.3687Z"/>
</mask>
<path d="M44.8496 30.563C67.3043 30.563 85.5078 48.7665 85.5078 71.2212C85.5077 93.6758 67.3042 111.878 44.8496 111.878C22.395 111.878 4.19153 93.6758 4.19141 71.2212C4.19141 48.7665 22.3949 30.563 44.8496 30.563ZM44.8535 47.3687C31.6802 47.3687 21.0012 58.0479 21.001 71.2212C21.001 84.3946 31.6801 95.0737 44.8535 95.0737C58.027 95.0737 68.7061 84.3946 68.7061 71.2212C68.7059 58.0479 58.0268 47.3687 44.8535 47.3687Z" fill="#9F568C"/>
<path d="M44.8496 30.563V29.563V30.563ZM85.5078 71.2212L86.5078 71.2212V71.2212H85.5078ZM44.8496 111.878V112.878V111.878ZM4.19141 71.2212H3.19141V71.2212L4.19141 71.2212ZM44.8535 47.3687V46.3687V47.3687ZM21.001 71.2212L20.001 71.2212V71.2212H21.001ZM44.8535 95.0737V96.0737V95.0737ZM68.7061 71.2212H69.7061V71.2212L68.7061 71.2212ZM44.8496 30.563V31.563C66.752 31.563 84.5078 49.3188 84.5078 71.2212H85.5078H86.5078C86.5078 48.2142 67.8566 29.563 44.8496 29.563V30.563ZM85.5078 71.2212L84.5078 71.2212C84.5077 93.1235 66.752 110.878 44.8496 110.878V111.878V112.878C67.8565 112.878 86.5077 94.2281 86.5078 71.2212L85.5078 71.2212ZM44.8496 111.878V110.878C22.9472 110.878 5.19153 93.1235 5.19141 71.2212L4.19141 71.2212L3.19141 71.2212C3.19153 94.2281 21.8427 112.878 44.8496 112.878V111.878ZM4.19141 71.2212H5.19141C5.19141 49.3188 22.9472 31.563 44.8496 31.563V30.563V29.563C21.8426 29.563 3.19141 48.2142 3.19141 71.2212H4.19141ZM44.8535 47.3687V46.3687C31.1279 46.3687 20.0012 57.4957 20.001 71.2212L21.001 71.2212L22.001 71.2212C22.0012 58.6002 32.2325 48.3687 44.8535 48.3687V47.3687ZM21.001 71.2212H20.001C20.001 84.9469 31.1278 96.0737 44.8535 96.0737V95.0737V94.0737C32.2324 94.0737 22.001 83.8423 22.001 71.2212H21.001ZM44.8535 95.0737V96.0737C58.5792 96.0737 69.7061 84.9469 69.7061 71.2212H68.7061H67.7061C67.7061 83.8423 57.4747 94.0737 44.8535 94.0737V95.0737ZM68.7061 71.2212L69.7061 71.2212C69.7058 57.4956 58.5791 46.3687 44.8535 46.3687V47.3687V48.3687C57.4745 48.3687 67.7059 58.6002 67.7061 71.2212L68.7061 71.2212Z" fill="url(#paint0_linear_1_1219)" mask="url(#path-1-inside-1_1_1219)"/>
<mask id="path-3-inside-2_1_1219" fill="white">
<path d="M215.073 30.563C237.528 30.563 255.731 48.7665 255.731 71.2212C255.731 93.6758 237.528 111.878 215.073 111.878C192.619 111.878 174.416 93.6756 174.416 71.2212C174.416 48.7666 192.619 30.5632 215.073 30.563ZM215.078 47.3687C201.905 47.3687 191.225 58.0479 191.225 71.2212C191.225 84.3946 201.905 95.0737 215.078 95.0737C228.251 95.0735 238.931 84.3945 238.931 71.2212C238.93 58.0481 228.251 47.3689 215.078 47.3687Z"/>
</mask>
<path d="M215.073 30.563C237.528 30.563 255.731 48.7665 255.731 71.2212C255.731 93.6758 237.528 111.878 215.073 111.878C192.619 111.878 174.416 93.6756 174.416 71.2212C174.416 48.7666 192.619 30.5632 215.073 30.563ZM215.078 47.3687C201.905 47.3687 191.225 58.0479 191.225 71.2212C191.225 84.3946 201.905 95.0737 215.078 95.0737C228.251 95.0735 238.931 84.3945 238.931 71.2212C238.93 58.0481 228.251 47.3689 215.078 47.3687Z" fill="white"/>
<path d="M215.073 30.563V29.563H215.073L215.073 30.563ZM255.731 71.2212L256.731 71.2212V71.2212H255.731ZM215.073 111.878L215.073 112.878H215.073V111.878ZM174.416 71.2212H173.416V71.2212L174.416 71.2212ZM215.078 47.3687L215.078 46.3687H215.078V47.3687ZM191.225 71.2212L190.225 71.2212V71.2212H191.225ZM215.078 95.0737V96.0737H215.078L215.078 95.0737ZM238.931 71.2212H239.931V71.2212L238.931 71.2212ZM215.073 30.563V31.563C236.976 31.563 254.731 49.3188 254.731 71.2212H255.731H256.731C256.731 48.2142 238.08 29.563 215.073 29.563V30.563ZM255.731 71.2212L254.731 71.2212C254.731 93.1235 236.976 110.878 215.073 110.878V111.878V112.878C238.08 112.878 256.731 94.2281 256.731 71.2212L255.731 71.2212ZM215.073 111.878L215.073 110.878C193.171 110.878 175.416 93.1234 175.416 71.2212L174.416 71.2212L173.416 71.2212C173.416 94.2279 192.067 112.878 215.073 112.878L215.073 111.878ZM174.416 71.2212H175.416C175.416 49.3189 193.171 31.5632 215.073 31.563L215.073 30.563L215.073 29.563C192.066 29.5633 173.416 48.2144 173.416 71.2212H174.416ZM215.078 47.3687V46.3687C201.353 46.3687 190.225 57.4956 190.225 71.2212L191.225 71.2212L192.225 71.2212C192.225 58.6003 202.457 48.3687 215.078 48.3687V47.3687ZM191.225 71.2212H190.225C190.225 84.947 201.352 96.0737 215.078 96.0737V95.0737V94.0737C202.457 94.0737 192.225 83.8423 192.225 71.2212H191.225ZM215.078 95.0737L215.078 96.0737C228.804 96.0735 239.931 84.9468 239.931 71.2212H238.931H237.931C237.931 83.8422 227.699 94.0735 215.078 94.0737L215.078 95.0737ZM238.931 71.2212L239.931 71.2212C239.93 57.4958 228.804 46.3689 215.078 46.3687L215.078 47.3687L215.078 48.3687C227.699 48.3689 237.93 58.6004 237.931 71.2212L238.931 71.2212Z" fill="url(#paint1_linear_1_1219)" mask="url(#path-3-inside-2_1_1219)"/>
<mask id="path-5-inside-3_1_1219" fill="white">
<path d="M300.175 30.563C322.63 30.563 340.833 48.7665 340.833 71.2212C340.833 93.6757 322.629 111.878 300.175 111.878C277.72 111.878 259.518 93.6756 259.518 71.2212C259.518 48.7666 277.72 30.5631 300.175 30.563ZM300.179 47.3687C287.006 47.3688 276.326 58.048 276.326 71.2212C276.326 84.3946 287.005 95.0736 300.179 95.0737C313.352 95.0737 324.031 84.3946 324.031 71.2212C324.031 58.0479 313.352 47.3687 300.179 47.3687Z"/>
</mask>
<path d="M300.175 30.563C322.63 30.563 340.833 48.7665 340.833 71.2212C340.833 93.6757 322.629 111.878 300.175 111.878C277.72 111.878 259.518 93.6756 259.518 71.2212C259.518 48.7666 277.72 30.5631 300.175 30.563ZM300.179 47.3687C287.006 47.3688 276.326 58.048 276.326 71.2212C276.326 84.3946 287.005 95.0736 300.179 95.0737C313.352 95.0737 324.031 84.3946 324.031 71.2212C324.031 58.0479 313.352 47.3687 300.179 47.3687Z" fill="white"/>
<path d="M300.175 30.563V29.563H300.175L300.175 30.563ZM340.833 71.2212L341.833 71.2212V71.2212H340.833ZM300.175 111.878L300.175 112.878H300.175V111.878ZM259.518 71.2212H258.518V71.2212L259.518 71.2212ZM300.179 47.3687V46.3687H300.179L300.179 47.3687ZM276.326 71.2212L275.326 71.2212V71.2212H276.326ZM300.179 95.0737L300.179 96.0737H300.179V95.0737ZM324.031 71.2212H325.031V71.2212L324.031 71.2212ZM300.175 30.563V31.563C322.077 31.563 339.833 49.3188 339.833 71.2212H340.833H341.833C341.833 48.2142 323.182 29.563 300.175 29.563V30.563ZM340.833 71.2212L339.833 71.2212C339.833 93.1234 322.077 110.878 300.175 110.878V111.878V112.878C323.182 112.878 341.833 94.228 341.833 71.2212L340.833 71.2212ZM300.175 111.878L300.175 110.878C278.273 110.878 260.518 93.1234 260.518 71.2212L259.518 71.2212L258.518 71.2212C258.518 94.2279 277.168 112.878 300.175 112.878L300.175 111.878ZM259.518 71.2212H260.518C260.518 49.3188 278.273 31.5631 300.175 31.563L300.175 30.563L300.175 29.563C277.168 29.5631 258.518 48.2143 258.518 71.2212H259.518ZM300.179 47.3687L300.179 46.3687C286.453 46.3688 275.326 57.4957 275.326 71.2212L276.326 71.2212L277.326 71.2212C277.326 58.6003 287.558 48.3688 300.179 48.3687L300.179 47.3687ZM276.326 71.2212H275.326C275.326 84.9468 286.453 96.0736 300.179 96.0737L300.179 95.0737L300.179 94.0737C287.558 94.0736 277.326 83.8423 277.326 71.2212H276.326ZM300.179 95.0737V96.0737C313.904 96.0737 325.031 84.9469 325.031 71.2212H324.031H323.031C323.031 83.8423 312.8 94.0737 300.179 94.0737V95.0737ZM324.031 71.2212L325.031 71.2212C325.031 57.4956 313.904 46.3687 300.179 46.3687V47.3687V48.3687C312.8 48.3687 323.031 58.6002 323.031 71.2212L324.031 71.2212Z" fill="url(#paint2_linear_1_1219)" mask="url(#path-5-inside-3_1_1219)"/>
<mask id="path-7-inside-4_1_1219" fill="white">
<path d="M162.225 4C166.865 4.00018 170.627 7.76194 170.627 12.4023V64.9863C170.627 65.649 170.547 66.2936 170.402 66.9121C170.551 68.328 170.63 69.7653 170.63 71.2207C170.63 93.6753 152.427 111.878 129.973 111.878C107.518 111.878 89.3146 93.6753 89.3145 71.2207C89.3146 48.7662 107.518 30.5626 129.973 30.5625C138.883 30.5625 147.122 33.4313 153.821 38.292V12.4023C153.821 7.76183 157.584 4 162.225 4ZM129.977 47.3682C116.803 47.3683 106.124 58.0477 106.124 71.2207C106.124 84.3941 116.803 95.0732 129.977 95.0732C143.15 95.0732 153.829 84.3941 153.829 71.2207C153.829 58.0476 143.15 47.3682 129.977 47.3682Z"/>
</mask>
<path d="M162.225 4C166.865 4.00018 170.627 7.76194 170.627 12.4023V64.9863C170.627 65.649 170.547 66.2936 170.402 66.9121C170.551 68.328 170.63 69.7653 170.63 71.2207C170.63 93.6753 152.427 111.878 129.973 111.878C107.518 111.878 89.3146 93.6753 89.3145 71.2207C89.3146 48.7662 107.518 30.5626 129.973 30.5625C138.883 30.5625 147.122 33.4313 153.821 38.292V12.4023C153.821 7.76183 157.584 4 162.225 4ZM129.977 47.3682C116.803 47.3683 106.124 58.0477 106.124 71.2207C106.124 84.3941 116.803 95.0732 129.977 95.0732C143.15 95.0732 153.829 84.3941 153.829 71.2207C153.829 58.0476 143.15 47.3682 129.977 47.3682Z" fill="white"/>
<path d="M162.225 4L162.225 3H162.225V4ZM170.627 12.4023H171.627V12.4023L170.627 12.4023ZM170.402 66.9121L169.429 66.6838L169.39 66.8486L169.408 67.0169L170.402 66.9121ZM170.63 71.2207L171.63 71.2207V71.2207L170.63 71.2207ZM129.973 111.878L129.973 112.878H129.973L129.973 111.878ZM89.3145 71.2207L88.3145 71.2207V71.2207L89.3145 71.2207ZM129.973 30.5625L129.973 29.5625H129.973L129.973 30.5625ZM153.821 38.292L153.234 39.1014L154.821 40.253V38.292H153.821ZM153.821 12.4023L152.821 12.4023V12.4023H153.821ZM129.977 47.3682L129.977 46.3682H129.977L129.977 47.3682ZM106.124 71.2207L105.124 71.2207V71.2207H106.124ZM129.977 95.0732L129.977 96.0732H129.977L129.977 95.0732ZM153.829 71.2207H154.829V71.2207L153.829 71.2207ZM162.225 4L162.225 5C166.313 5.00016 169.627 8.31424 169.627 12.4024L170.627 12.4023L171.627 12.4023C171.627 7.20964 167.417 3.0002 162.225 3L162.225 4ZM170.627 12.4023H169.627V64.9863H170.627H171.627V12.4023H170.627ZM170.627 64.9863H169.627C169.627 65.5687 169.557 66.1367 169.429 66.6838L170.402 66.9121L171.376 67.1404C171.538 66.4506 171.627 65.7294 171.627 64.9863H170.627ZM170.402 66.9121L169.408 67.0169C169.553 68.3989 169.63 69.8012 169.63 71.2207L170.63 71.2207L171.63 71.2207C171.63 69.7294 171.55 68.2571 171.397 66.8073L170.402 66.9121ZM170.63 71.2207L169.63 71.2207C169.63 93.123 151.875 110.878 129.973 110.878L129.973 111.878L129.973 112.878C152.979 112.878 171.63 94.2275 171.63 71.2207L170.63 71.2207ZM129.973 111.878L129.973 110.878C108.07 110.878 90.3146 93.1229 90.3145 71.2207L89.3145 71.2207L88.3145 71.2207C88.3146 94.2276 106.966 112.878 129.973 112.878L129.973 111.878ZM89.3145 71.2207L90.3145 71.2207C90.3146 49.3185 108.07 31.5626 129.973 31.5625L129.973 30.5625L129.973 29.5625C106.966 29.5626 88.3147 48.2139 88.3145 71.2207L89.3145 71.2207ZM129.973 30.5625L129.973 31.5625C138.665 31.5625 146.699 34.3603 153.234 39.1014L153.821 38.292L154.409 37.4826C147.544 32.5023 139.101 29.5625 129.973 29.5625L129.973 30.5625ZM153.821 38.292H154.821V12.4023H153.821H152.821V38.292H153.821ZM153.821 12.4023L154.821 12.4024C154.821 8.31424 158.136 5 162.225 5V4V3C157.032 3 152.821 7.20942 152.821 12.4023L153.821 12.4023ZM129.977 47.3682L129.977 46.3682C116.251 46.3683 105.124 57.4954 105.124 71.2207L106.124 71.2207L107.124 71.2207C107.124 58.5999 117.356 48.3682 129.977 48.3682L129.977 47.3682ZM106.124 71.2207H105.124C105.124 84.9464 116.251 96.0732 129.977 96.0732L129.977 95.0732L129.977 94.0732C117.355 94.0732 107.124 83.8418 107.124 71.2207H106.124ZM129.977 95.0732L129.977 96.0732C143.702 96.0732 154.829 84.9464 154.829 71.2207H153.829H152.829C152.829 83.8418 142.598 94.0732 129.977 94.0732L129.977 95.0732ZM153.829 71.2207L154.829 71.2207C154.829 57.4954 143.702 46.3682 129.977 46.3682L129.977 47.3682L129.977 48.3682C142.597 48.3682 152.829 58.5999 152.829 71.2207L153.829 71.2207Z" fill="url(#paint3_linear_1_1219)" mask="url(#path-7-inside-4_1_1219)"/>
</g>
<defs>
<filter id="filter0_f_1_1219" x="0.191406" y="0" width="344.641" height="115.878" filterUnits="userSpaceOnUse" color-interpolation-filters="sRGB">
<feFlood flood-opacity="0" result="BackgroundImageFix"/>
<feBlend mode="normal" in="SourceGraphic" in2="BackgroundImageFix" result="shape"/>
<feGaussianBlur stdDeviation="2" result="effect1_foregroundBlur_1_1219"/>
</filter>
<linearGradient id="paint0_linear_1_1219" x1="4.19141" y1="71.2207" x2="85.5078" y2="71.2207" gradientUnits="userSpaceOnUse">
<stop stop-color="#322C31"/>
<stop offset="1" stop-color="#FFA6E8"/>
</linearGradient>
<linearGradient id="paint1_linear_1_1219" x1="174.416" y1="71.2207" x2="255.731" y2="71.2207" gradientUnits="userSpaceOnUse">
<stop stop-color="#322C31"/>
<stop offset="1" stop-color="#FFA6E8"/>
</linearGradient>
<linearGradient id="paint2_linear_1_1219" x1="259.518" y1="71.2207" x2="340.833" y2="71.2207" gradientUnits="userSpaceOnUse">
<stop stop-color="#322C31"/>
<stop offset="1" stop-color="#FFA6E8"/>
</linearGradient>
<linearGradient id="paint3_linear_1_1219" x1="89.3145" y1="57.939" x2="170.63" y2="57.939" gradientUnits="userSpaceOnUse">
<stop stop-color="#322C31"/>
<stop offset="1" stop-color="#FFA6E8"/>
</linearGradient>
</defs>
</svg>
