<svg width="78" height="25" viewBox="0 0 78 25" fill="none" xmlns="http://www.w3.org/2000/svg">
<path d="M9.34277 6.10547C14.5025 6.10547 18.6855 10.2898 18.6855 15.4512C18.6854 20.6124 14.5024 24.7969 9.34277 24.7969C4.1832 24.7968 0.000114893 20.6124 0 15.4512C0 10.2899 4.18312 6.10556 9.34277 6.10547ZM9.34375 9.96777C6.3168 9.96777 3.86245 12.4223 3.8623 15.4502C3.8623 18.4782 6.31671 20.9336 9.34375 20.9336C12.3706 20.9334 14.8242 18.4781 14.8242 15.4502C14.8241 12.4224 12.3705 9.96795 9.34375 9.96777Z" fill="#9F568C"/>
<path d="M48.4551 6.10547C53.6148 6.10547 57.7979 10.2898 57.7979 15.4512C57.7977 20.6124 53.6147 24.7969 48.4551 24.7969C43.2956 24.7967 39.1134 20.6123 39.1133 15.4512C39.1133 10.2899 43.2955 6.10567 48.4551 6.10547ZM48.4561 9.96777C45.4291 9.96777 42.9748 12.4223 42.9746 15.4502C42.9746 18.4782 45.429 20.9336 48.4561 20.9336C51.483 20.9335 53.9365 18.4782 53.9365 15.4502C53.9364 12.4224 51.4829 9.96784 48.4561 9.96777Z" fill="white"/>
<path d="M68.0107 6.10547C73.1705 6.10547 77.3535 10.2898 77.3535 15.4512C77.3534 20.6124 73.1704 24.7969 68.0107 24.7969C62.8511 24.7969 58.6681 20.6124 58.668 15.4512C58.668 10.2898 62.851 6.10547 68.0107 6.10547ZM68.0107 9.96777C64.984 9.96803 62.5304 12.4225 62.5303 15.4502C62.5303 18.478 64.9839 20.9333 68.0107 20.9336C71.0378 20.9336 73.4922 18.4782 73.4922 15.4502C73.492 12.4223 71.0377 9.96777 68.0107 9.96777Z" fill="white"/>
<path d="M36.3125 0C37.3788 0 38.2431 0.864376 38.2432 1.93066V14.0186C38.2432 14.1677 38.2244 14.3127 38.1924 14.4521C38.2273 14.7804 38.2461 15.1137 38.2461 15.4512C38.246 20.6124 34.0629 24.7968 28.9033 24.7969C23.7437 24.7969 19.5607 20.6124 19.5605 15.4512C19.5605 10.2898 23.7436 6.10549 28.9033 6.10547C30.9503 6.10552 32.8425 6.76586 34.3818 7.88281V1.93066C34.3819 0.864483 35.2463 0.000172247 36.3125 0ZM28.9033 9.96777C25.8765 9.96794 23.423 12.4224 23.4229 15.4502C23.4229 18.4781 25.8764 20.9334 28.9033 20.9336C31.9304 20.9336 34.3848 18.4782 34.3848 15.4502C34.3846 12.4223 31.9303 9.96777 28.9033 9.96777Z" fill="white"/>
</svg>
