<svg width="125" height="1114" viewBox="0 0 125 1114" fill="none" xmlns="http://www.w3.org/2000/svg">
<path d="M50.9865 9C85.3285 47.6066 135.664 146.021 62.2703 230.824C25.4753 269.104 -24.2715 367.845 71.1011 456.575C103.644 487.656 149.205 573.572 71.1011 668.584C38.0672 699.829 -7.10113 785.876 76.4971 880.102C108.223 919.199 151.56 1017.52 71.1011 1098" stroke="#608BF3" stroke-width="3.5"/>
<circle cx="58" cy="18" r="18" fill="#608BF3"/>
<path d="M58.95 26H56.875V12.2H53.5V10.725H53.925C55.8083 10.725 56.875 9.975 57.125 8.475H58.95V26Z" fill="white"/>
<circle cx="88" cy="172" r="18" fill="#608BF3"/>
<path d="M93.125 182H81.525V181.25C81.525 180.083 81.75 179.083 82.2 178.25C82.65 177.4 83.1917 176.708 83.825 176.175C84.4583 175.625 85.25 175.05 86.2 174.45L88.125 173.225C89.0417 172.625 89.75 172.033 90.25 171.45C90.7667 170.867 91.025 170.133 91.025 169.25C91.025 168.183 90.7083 167.367 90.075 166.8C89.4583 166.217 88.6083 165.925 87.525 165.925C86.4417 165.925 85.5583 166.283 84.875 167C84.1917 167.717 83.775 168.717 83.625 170L81.5 169.8C81.6333 168.6 81.9833 167.575 82.55 166.725C83.1167 165.875 83.825 165.233 84.675 164.8C85.5417 164.367 86.4917 164.15 87.525 164.15C88.575 164.15 89.525 164.342 90.375 164.725C91.2417 165.092 91.9333 165.65 92.45 166.4C92.9667 167.15 93.225 168.075 93.225 169.175C93.225 170.108 93.0417 170.908 92.675 171.575C92.3083 172.242 91.8667 172.783 91.35 173.2C90.85 173.617 90.1917 174.092 89.375 174.625C89.2917 174.675 89.2 174.725 89.1 174.775C89.0167 174.825 88.9167 174.892 88.8 174.975L87.05 176.125C84.95 177.492 83.875 178.817 83.825 180.1H93.125V182Z" fill="white"/>
<circle cx="18" cy="326" r="18" fill="#608BF3"/>
<path d="M17.625 326.15C18.6583 326.15 19.5 325.875 20.15 325.325C20.8167 324.775 21.15 324.017 21.15 323.05C21.15 322.083 20.825 321.325 20.175 320.775C19.525 320.208 18.7167 319.925 17.75 319.925C16.7833 319.925 15.9833 320.208 15.35 320.775C14.7333 321.342 14.35 322.167 14.2 323.25L12.1 323.025C12.3 321.475 12.9 320.275 13.9 319.425C14.9167 318.575 16.2 318.15 17.75 318.15C18.7833 318.15 19.725 318.342 20.575 318.725C21.425 319.092 22.0917 319.65 22.575 320.4C23.075 321.133 23.325 322.017 23.325 323.05C23.325 323.917 23.0833 324.683 22.6 325.35C22.1333 326 21.5 326.492 20.7 326.825V326.9C21.6667 327.233 22.4417 327.767 23.025 328.5C23.6083 329.233 23.9 330.125 23.9 331.175C23.9 332.292 23.625 333.242 23.075 334.025C22.525 334.792 21.7833 335.375 20.85 335.775C19.9333 336.158 18.9 336.35 17.75 336.35C16.0333 336.35 14.6083 335.892 13.475 334.975C12.3583 334.058 11.6833 332.742 11.45 331.025L13.625 330.775C13.7917 332.008 14.2333 332.95 14.95 333.6C15.6833 334.233 16.6167 334.55 17.75 334.55C18.9 334.55 19.8417 334.25 20.575 333.65C21.325 333.033 21.7 332.208 21.7 331.175C21.7 330.092 21.325 329.267 20.575 328.7C19.825 328.133 18.8333 327.85 17.6 327.85H16.025V326.15H17.625Z" fill="white"/>
<circle cx="87" cy="480" r="18" fill="#608BF3"/>
<path d="M93.3 483.6V485.325H91.025V490H88.95V485.325H80.525V483.525L87.875 472.475H91.025V483.6H93.3ZM82.65 483.6H88.95V474.175H88.875L82.65 483.525V483.6Z" fill="white"/>
<circle cx="94" cy="634" r="18" fill="#608BF3"/>
<path d="M93.575 632.15C94.625 632.15 95.5917 632.383 96.475 632.85C97.3583 633.3 98.0667 633.983 98.6 634.9C99.1333 635.817 99.4 636.925 99.4 638.225C99.4 639.525 99.125 640.642 98.575 641.575C98.0417 642.492 97.3167 643.183 96.4 643.65C95.4833 644.117 94.475 644.35 93.375 644.35C91.7917 644.35 90.475 643.942 89.425 643.125C88.375 642.308 87.6833 641.175 87.35 639.725L89.55 639.5C89.7667 640.467 90.2083 641.217 90.875 641.75C91.5417 642.283 92.375 642.55 93.375 642.55C94.4583 642.55 95.3583 642.183 96.075 641.45C96.8083 640.7 97.175 639.625 97.175 638.225C97.175 636.858 96.8083 635.8 96.075 635.05C95.3417 634.3 94.425 633.925 93.325 633.925C92.5417 633.925 91.8333 634.075 91.2 634.375C90.5833 634.675 90.0417 635.067 89.575 635.55H87.6L88.375 626.475H98.275V628.35H90.1L89.625 633.65H89.7C90.6 632.65 91.8917 632.15 93.575 632.15Z" fill="white"/>
<circle cx="30" cy="788" r="18" fill="#608BF3"/>
<path d="M30.625 786.825C31.5583 786.825 32.4667 787.042 33.35 787.475C34.2333 787.908 34.95 788.55 35.5 789.4C36.0667 790.25 36.35 791.267 36.35 792.45C36.35 793.7 36.0583 794.775 35.475 795.675C34.9083 796.558 34.175 797.225 33.275 797.675C32.375 798.125 31.4333 798.35 30.45 798.35C29.3833 798.35 28.4 798.142 27.5 797.725C26.6 797.308 25.85 796.65 25.25 795.75C24.3333 794.367 23.875 792.192 23.875 789.225C23.875 785.858 24.5 783.508 25.75 782.175C27.0167 780.825 28.5833 780.15 30.45 780.15C31.75 780.15 32.9 780.508 33.9 781.225C34.9 781.942 35.6 782.942 36 784.225L33.85 784.525C33.6167 783.792 33.2 783.167 32.6 782.65C32.0167 782.133 31.3 781.875 30.45 781.875C29.2 781.875 28.1417 782.375 27.275 783.375C26.425 784.375 26 786.175 26 788.775V789.05H26.075C26.5917 788.317 27.25 787.767 28.05 787.4C28.8667 787.017 29.725 786.825 30.625 786.825ZM30.425 796.625C31.0917 796.625 31.7083 796.467 32.275 796.15C32.8417 795.833 33.3 795.367 33.65 794.75C34 794.133 34.175 793.408 34.175 792.575C34.175 791.742 34 791.025 33.65 790.425C33.3 789.808 32.8417 789.342 32.275 789.025C31.7083 788.692 31.0917 788.525 30.425 788.525C29.675 788.525 28.9833 788.692 28.35 789.025C27.7333 789.358 27.2417 789.833 26.875 790.45C26.5083 791.067 26.325 791.775 26.325 792.575C26.325 793.392 26.5083 794.108 26.875 794.725C27.2417 795.325 27.7333 795.792 28.35 796.125C28.9833 796.458 29.675 796.625 30.425 796.625Z" fill="white"/>
<circle cx="107" cy="942" r="18" fill="#608BF3"/>
<path d="M113.075 935.5C113.075 936.3 112.9 937.067 112.55 937.8C112.2 938.517 111.642 939.45 110.875 940.6C110.108 941.733 109.475 942.758 108.975 943.675C108.475 944.575 108.042 945.658 107.675 946.925C107.325 948.192 107.15 949.608 107.15 951.175V952.025H104.95V951.125C104.95 949.492 105.15 947.992 105.55 946.625C105.95 945.258 106.417 944.083 106.95 943.1C107.5 942.1 108.2 940.967 109.05 939.7C109.583 938.9 109.992 938.267 110.275 937.8C110.558 937.333 110.775 936.875 110.925 936.425V936.35H101.5V934.475H113.075V935.5Z" fill="white"/>
<circle cx="77" cy="1096" r="18" fill="#608BF3"/>
<path d="M80.15 1105.77C79.2167 1106.16 78.1833 1106.35 77.05 1106.35C75.9167 1106.35 74.875 1106.16 73.925 1105.77C72.9917 1105.37 72.2417 1104.78 71.675 1104C71.1083 1103.2 70.825 1102.23 70.825 1101.1C70.825 1100 71.1083 1099.06 71.675 1098.27C72.2417 1097.47 73.025 1096.9 74.025 1096.55V1096.47C73.2083 1096.14 72.5667 1095.65 72.1 1095C71.65 1094.35 71.425 1093.61 71.425 1092.77C71.425 1091.77 71.6833 1090.93 72.2 1090.25C72.7333 1089.55 73.425 1089.02 74.275 1088.67C75.1417 1088.32 76.0667 1088.15 77.05 1088.15C78.0333 1088.15 78.9583 1088.32 79.825 1088.67C80.6917 1089.02 81.3833 1089.55 81.9 1090.25C82.4333 1090.93 82.7 1091.77 82.7 1092.77C82.7 1093.61 82.4667 1094.35 82 1095C81.5333 1095.65 80.8917 1096.14 80.075 1096.47V1096.55C81.075 1096.9 81.8583 1097.47 82.425 1098.25C82.9917 1099.03 83.275 1099.98 83.275 1101.1C83.275 1102.23 82.9917 1103.2 82.425 1104C81.8583 1104.78 81.1 1105.37 80.15 1105.77ZM79.525 1090.65C78.8417 1090.12 78.0167 1089.85 77.05 1089.85C76.0833 1089.85 75.2583 1090.12 74.575 1090.65C73.8917 1091.18 73.55 1091.91 73.55 1092.82C73.55 1093.72 73.8917 1094.45 74.575 1095C75.2583 1095.53 76.0833 1095.8 77.05 1095.8C78.0167 1095.8 78.8417 1095.53 79.525 1095C80.225 1094.45 80.575 1093.72 80.575 1092.82C80.575 1091.91 80.225 1091.18 79.525 1090.65ZM79.925 1098.4C79.1583 1097.77 78.2 1097.45 77.05 1097.45C75.9167 1097.45 74.9583 1097.77 74.175 1098.4C73.4083 1099.03 73.025 1099.92 73.025 1101.05C73.025 1102.17 73.4083 1103.04 74.175 1103.67C74.9583 1104.31 75.9167 1104.62 77.05 1104.62C78.1833 1104.62 79.1333 1104.31 79.9 1103.67C80.6833 1103.04 81.075 1102.17 81.075 1101.05C81.075 1099.92 80.6917 1099.03 79.925 1098.4Z" fill="white"/>
</svg>
