<svg width="153" height="28" viewBox="0 0 153 28" fill="none" xmlns="http://www.w3.org/2000/svg">
<path d="M26.9444 5.73822L29.9753 5.95807C29.9753 5.95807 26.0526 -0.716001 18.2438 0.0632955C18.2438 0.0632955 10.6203 0.232113 7.83282 7.14567C7.83282 7.14567 -1.50108 8.77296 0.209311 19.106C0.209311 19.106 1.86369 28.593 15.3809 26.9323C16.4128 26.8048 17.8797 26.4534 19.211 25.4424C20.4626 24.4924 22.8666 22.2016 23.7606 21.1848C23.7606 21.1848 28.1722 22.7218 29.5617 19.9206C29.5617 19.9206 30.7572 16.829 26.9336 16.2617C26.4597 16.191 24.9841 16.0673 25.4214 15.1781C25.8027 14.4027 28.3403 14.9583 29.1201 15.6178L29.7706 13.7196C29.7706 13.7196 27.0564 12.2454 24.6028 13.2112C24.6028 13.2112 21.8692 14.652 23.7843 17.2608C24.5684 18.3287 26.2206 18.2011 27.1124 18.4975C27.5712 18.6506 27.7996 19.5025 26.9271 19.7165C26.3089 19.8676 25.6993 19.903 23.9157 19.1747C23.6873 19.0805 23.1359 18.5996 23.1359 18.5996C23.1359 18.5996 20.7749 21.175 17.3283 23.8623C15.4283 25.3443 11.0942 25.0479 8.81942 24.6141C5.97595 24.0723 2.59179 21.175 2.44316 17.5042C2.44316 17.5042 1.57504 11.5407 8.14518 9.28137C8.14518 9.28137 11.665 7.90337 15.8053 10.3649L17.7397 8.76118C17.7397 8.76118 15.4089 6.88656 10.8723 6.75111C10.8723 6.75111 13.1536 2.32463 19.0021 2.30107C18.9999 2.29911 23.263 1.92615 26.9444 5.73822Z" fill="white"/>
<path d="M13.1858 17.8163H15.8763C15.8763 17.8163 15.1202 20.849 11.8675 20.9158C11.8675 20.9158 8.05681 21.2711 7.18223 17.5454C7.18223 17.5454 6.56829 13.6823 11.3096 13.005C11.3096 13.005 13.6145 12.9206 14.8596 14.3104C14.8596 14.3104 20.7339 8.48237 23.0949 7.87189C23.0949 7.87189 28.7409 5.32592 34.0444 9.41281C34.0444 9.41281 39.6473 12.9147 36.8706 21.0453C36.8706 21.0453 34.3395 28.6283 21.7744 26.6025L23.8811 24.3431C23.8811 24.3431 34.0207 26.6476 35.3584 17.3412C35.3584 17.3412 35.6341 9.39907 26.3347 9.36766C26.3347 9.36766 23.1875 9.52667 19.7409 13.1405L15.8979 16.5973H13.4185C13.4185 16.5973 13.2332 14.7226 10.8658 15.2644C10.8658 15.2644 8.62335 15.8847 9.94815 18.1323C9.95246 18.1323 11.8352 20.0521 13.1858 17.8163Z" fill="white"/>
<path d="M52.4151 17.2882C51.9885 18.0695 51.3315 18.7114 50.4419 19.21C49.5522 19.7086 48.5462 19.9579 47.4261 19.9579C45.552 19.9579 44.0527 19.4828 42.9239 18.5347C41.7973 17.5866 41.2329 16.2439 41.2329 14.5048C41.2329 12.7106 41.7887 11.2757 42.9024 10.2C44.0161 9.12428 45.4615 8.58643 47.2408 8.58643C48.5204 8.58643 49.5781 8.84554 50.4182 9.36376C51.2561 9.88198 51.9002 10.5965 52.3483 11.5073L49.9421 12.3278C49.6664 11.7704 49.3153 11.3679 48.8866 11.1206C48.4579 10.8733 47.9258 10.7496 47.2925 10.7496C46.3619 10.7496 45.5951 11.0853 44.9962 11.7586C44.3952 12.4299 44.0958 13.2877 44.0958 14.332C44.0958 15.4313 44.4038 16.2773 45.022 16.8701C45.6381 17.4629 46.4739 17.7593 47.5295 17.7593C48.1132 17.7593 48.6238 17.6376 49.0611 17.3903C49.4984 17.143 49.8387 16.7818 50.08 16.3009L52.4151 17.2882Z" fill="white"/>
<path d="M59.9503 19.9559C58.212 19.9559 56.7838 19.4436 55.6679 18.4189C54.5521 17.3942 53.9941 16.0594 53.9941 14.4125C53.9941 12.6753 54.5607 11.2678 55.6938 10.1961C56.8268 9.12231 58.311 8.58643 60.1442 8.58643C61.8783 8.58643 63.2893 9.10072 64.3814 10.1274C65.4714 11.154 66.0186 12.5104 66.0186 14.1907C66.0186 15.9181 65.4542 17.3118 64.3233 18.3698C63.1902 19.4279 61.734 19.9559 59.9503 19.9559ZM59.9999 17.7868C60.9477 17.7868 61.7103 17.4806 62.2876 16.8701C62.8649 16.2596 63.1536 15.4116 63.1536 14.3281C63.1536 13.1994 62.8735 12.32 62.3113 11.6899C61.7512 11.0617 61.0016 10.7476 60.0645 10.7476C59.0995 10.7476 58.3218 11.0715 57.7337 11.7173C57.1456 12.3632 56.8505 13.219 56.8505 14.2829C56.8505 15.3626 57.1456 16.2145 57.7337 16.8446C58.3218 17.4747 59.0801 17.7868 59.9999 17.7868Z" fill="white"/>
<path d="M68.7134 19.7656V8.76904H72.9872C75.1306 8.76904 76.7376 9.21464 77.8082 10.1078C78.8788 10.999 79.4152 12.3397 79.4152 14.1299C79.4152 15.8416 78.8314 17.2098 77.6617 18.2325C76.492 19.2552 74.9345 19.7656 72.9872 19.7656H68.7134ZM71.4298 10.8243V17.7103H72.7761C73.9544 17.7103 74.8785 17.3923 75.5485 16.7563C76.2184 16.1203 76.5545 15.2547 76.5545 14.1613C76.5545 13.1229 76.2227 12.3083 75.5571 11.7155C74.8915 11.1226 73.9587 10.8262 72.7589 10.8262H71.4298V10.8243Z" fill="white"/>
<path d="M86.4072 17.6102L88.6949 16.5207C88.9534 16.9958 89.2916 17.3471 89.7095 17.5709C90.1274 17.7967 90.5863 17.9085 91.086 17.9085C91.6978 17.9085 92.1523 17.8025 92.4496 17.5905C92.7469 17.3785 92.8955 17.0861 92.8955 16.7131C92.8955 16.3303 92.7339 16.028 92.4108 15.8082C92.0877 15.5883 91.5793 15.4195 90.8835 15.3017C89.548 15.0662 88.5678 14.6893 87.9431 14.1711C87.3184 13.6528 87.0039 12.9364 87.0039 12.0197C87.0039 10.9773 87.4089 10.1431 88.2146 9.52081C89.0224 8.89659 90.0887 8.58447 91.4113 8.58447C92.3139 8.58447 93.1045 8.75133 93.7852 9.08307C94.4637 9.41481 94.9958 9.89181 95.3836 10.5101L93.1454 11.5603C92.9214 11.2129 92.665 10.9616 92.3807 10.8046C92.0942 10.6495 91.7237 10.571 91.2691 10.571C90.7414 10.571 90.3364 10.675 90.0542 10.8851C89.7698 11.0951 89.6298 11.3581 89.6298 11.6742C89.6298 11.9961 89.7699 12.2552 90.0499 12.4515C90.3299 12.6478 90.8555 12.8088 91.6224 12.9305C92.902 13.1405 93.867 13.5272 94.5219 14.0925C95.1746 14.6579 95.502 15.4234 95.502 16.3892C95.502 17.4826 95.1186 18.3502 94.3496 18.9921C93.5805 19.634 92.4841 19.9539 91.0602 19.9539C90.0283 19.9539 89.0978 19.7478 88.2706 19.3376C87.4434 18.9273 86.8208 18.3522 86.4072 17.6102Z" fill="white"/>
<path d="M100.901 16.1832V19.7636H98.1821V8.76709H102.381C103.884 8.76709 105.03 9.06546 105.819 9.66417C106.607 10.2629 107.001 11.1462 107.001 12.3181C107.001 13.5351 106.56 14.4832 105.676 15.1624C104.793 15.8416 103.608 16.1832 102.122 16.1832H100.901ZM100.901 10.6712V14.283H102.036C102.708 14.283 103.227 14.1221 103.593 13.8001C103.957 13.4782 104.14 13.0149 104.14 12.4123C104.14 11.8548 103.962 11.4249 103.606 11.1246C103.251 10.8223 102.74 10.6731 102.079 10.6731H100.901V10.6712Z" fill="white"/>
<path d="M119.904 19.7656H117.177V15.3489H112.179V19.7656H109.461V8.76904H112.179V13.1543H117.177V8.76904H119.904V19.7656Z" fill="white"/>
<path d="M130.593 19.7656H123.357V8.76904H130.315V10.8243H126.074V13.2171H130.02V15.2566H126.074V17.7103H130.593V19.7656Z" fill="white"/>
<path d="M143.025 19.7656H139.97L138.178 16.7897C137.937 16.3853 137.706 16.0988 137.484 15.9299C137.262 15.7611 136.991 15.6767 136.672 15.6767H135.94V19.7636H133.221V8.76709H137.529C139.027 8.76709 140.134 9.05172 140.849 9.61902C141.564 10.1863 141.922 10.944 141.922 11.8882C141.922 12.5792 141.698 13.2053 141.25 13.7707C140.802 14.336 140.173 14.7247 139.365 14.9406V14.972C139.673 15.0839 139.962 15.2724 140.231 15.5354C140.5 15.7984 140.782 16.1655 141.082 16.6366L143.025 19.7656ZM135.94 10.6555V13.7766H137.118C137.741 13.7766 138.221 13.6274 138.557 13.3271C138.893 13.0267 139.061 12.6302 139.061 12.1355C139.061 11.6605 138.904 11.2954 138.589 11.0382C138.275 10.7831 137.801 10.6555 137.168 10.6555H135.94Z" fill="white"/>
<path d="M152.555 19.7656H145.319V8.76904H152.277V10.8243H148.035V13.2171H151.982V15.2566H148.035V17.7103H152.555V19.7656Z" fill="white"/>
</svg>
