<?xml version="1.0" encoding="UTF-8" standalone="no"?>
<svg
   width="36"
   height="28"
   viewBox="0 0 36 28"
   fill="none"
   version="1.1"
   id="svg2"
   xmlns="http://www.w3.org/2000/svg"
   xmlns:svg="http://www.w3.org/2000/svg">
  <defs
     id="defs2" />
  <path
     d="m 25.416016,5.73822 2.7619,0.21985 c 0,0 -3.5745,-6.674071 -10.6903,-5.8947745 0,0 -6.9469,0.1688175 -9.4869603,7.0823745 0,0 -8.50551702,1.62729 -6.94692,11.96033 0,0 1.50755,9.487 13.8251803,7.8263 0.9402,-0.1275 2.277,-0.4789 3.4901,-1.4899 1.1405,-0.95 3.3312,-3.2408 4.1458,-4.2576 0,0 4.0201,1.537 5.2862,-1.2642 0,0 1.0895,-3.0916 -2.3948,-3.6589 -0.4318,-0.0707 -1.7764,-0.1944 -1.378,-1.0836 0.3475,-0.7754 2.6599,-0.2198 3.3704,0.4397 l 0.5929,-1.8982 c 0,0 -2.4734,-1.4742 -4.7092,-0.5084 0,0 -2.491,1.4408 -0.7459,4.0496 0.7145,1.0679 2.2201,0.9403 3.0328,1.2367 0.4181,0.1531 0.6261,1.005 -0.1689,1.219 -0.5633,0.1511 -1.1188,0.1865 -2.7442,-0.5418 -0.208,-0.0942 -0.7106,-0.5751 -0.7106,-0.5751 0,0 -2.1514,2.5754 -5.2921,5.2627 -1.7314,1.482 -5.6808,1.1856 -7.7537203,0.7518 -2.59111,-0.5418 -5.67493,-3.4391 -5.81037,-7.1099 0,0 -0.79107,-5.9635 5.19596,-8.22283 0,0 3.2075303,-1.378 6.9803303,1.08353 l 1.7627,-1.60372 c 0,0 -2.1239,-1.87462 -6.2579,-2.01007 0,0 2.0788,-4.42648 7.4082,-4.45004 -0.002,-0.00196 3.8827,-0.37492 7.2374,3.43715 z"
     fill="white"
     id="path1"
     style="fill:#000000" />
  <path
     d="m 12.878916,17.8164 h 2.4518 c 0,0 -0.689,3.0328 -3.6531,3.0995 0,0 -3.4725003,0.3553 -4.2694603,-3.3704 0,0 -0.55945,-3.8631 3.7610603,-4.5403 0,0 2.1003,-0.0845 3.2349,1.3053 0,0 5.353,-5.82801 7.5044,-6.43849 0,0 5.145,-2.54596 9.9778,1.54092 0,0 5.1056,3.50197 2.5754,11.63247 0,0 -2.3065,7.583 -13.7565,5.5572 l 1.9198,-2.2594 c 0,0 9.2397,2.3045 10.4587,-7.0019 0,0 0.2512,-7.94211 -8.2229,-7.97352 0,0 -2.8678,0.15901 -6.0086,3.77282 l -3.5019,3.4568 h -2.2594 c 0,0 -0.1688,-1.8746 -2.3261,-1.3329 0,0 -2.0434403,0.6203 -0.8362203,2.8679 0.00393,0 1.7195203,1.9198 2.9503203,-0.316 z"
     fill="white"
     id="path2"
     style="fill:#000000" />
</svg>
